%TF.GenerationSoftware,KiCad,Pcbnew,5.1.10-88a1d61d58~90~ubuntu20.04.1*%
%TF.CreationDate,2021-08-16T21:09:42-07:00*%
%TF.ProjectId,lisn-pcb,6c69736e-2d70-4636-922e-6b696361645f,rev?*%
%TF.SameCoordinates,Original*%
%TF.FileFunction,Soldermask,Bot*%
%TF.FilePolarity,Negative*%
%FSLAX46Y46*%
G04 Gerber Fmt 4.6, Leading zero omitted, Abs format (unit mm)*
G04 Created by KiCad (PCBNEW 5.1.10-88a1d61d58~90~ubuntu20.04.1) date 2021-08-16 21:09:42*
%MOMM*%
%LPD*%
G01*
G04 APERTURE LIST*
%ADD10C,0.100000*%
%ADD11C,0.800000*%
%ADD12C,6.400000*%
%ADD13C,3.000000*%
%ADD14C,2.000000*%
%ADD15O,2.400000X2.400000*%
%ADD16C,2.400000*%
%ADD17C,2.250000*%
G04 APERTURE END LIST*
D10*
G36*
X260000000Y-200000000D02*
G01*
X255500000Y-200000000D01*
X255500000Y-41000000D01*
X260000000Y-41000000D01*
X260000000Y-200000000D01*
G37*
X260000000Y-200000000D02*
X255500000Y-200000000D01*
X255500000Y-41000000D01*
X260000000Y-41000000D01*
X260000000Y-200000000D01*
G36*
X104500000Y-200000000D02*
G01*
X100000000Y-200000000D01*
X100000000Y-41000000D01*
X104500000Y-41000000D01*
X104500000Y-200000000D01*
G37*
X104500000Y-200000000D02*
X100000000Y-200000000D01*
X100000000Y-41000000D01*
X104500000Y-41000000D01*
X104500000Y-200000000D01*
D11*
%TO.C,H4*%
X257000000Y-47500000D03*
X253500000Y-44000000D03*
X253500000Y-47500000D03*
X255250000Y-48250000D03*
X252750000Y-45750000D03*
X255250000Y-43250000D03*
X257000000Y-44000000D03*
X257750000Y-45750000D03*
D12*
X255250000Y-45750000D03*
%TD*%
D11*
%TO.C,H3*%
X106500000Y-197000000D03*
X103000000Y-193500000D03*
X103000000Y-197000000D03*
X104750000Y-197750000D03*
X102250000Y-195250000D03*
X104750000Y-192750000D03*
X106500000Y-193500000D03*
X107250000Y-195250000D03*
D12*
X104750000Y-195250000D03*
%TD*%
D11*
%TO.C,H2*%
X106500000Y-47500000D03*
X103000000Y-44000000D03*
X103000000Y-47500000D03*
X104750000Y-48250000D03*
X102250000Y-45750000D03*
X104750000Y-43250000D03*
X106500000Y-44000000D03*
X107250000Y-45750000D03*
D12*
X104750000Y-45750000D03*
%TD*%
D11*
%TO.C,H1*%
X257000000Y-197000000D03*
X253500000Y-193500000D03*
X253500000Y-197000000D03*
X255250000Y-197750000D03*
X252750000Y-195250000D03*
X255250000Y-192750000D03*
X257000000Y-193500000D03*
X257750000Y-195250000D03*
D12*
X255250000Y-195250000D03*
%TD*%
D13*
%TO.C,J9*%
X216500000Y-182460000D03*
X216500000Y-187540000D03*
%TD*%
%TO.C,J8*%
X164500000Y-182460000D03*
X164500000Y-187540000D03*
%TD*%
%TO.C,J7*%
X226500000Y-182460000D03*
X226500000Y-187540000D03*
%TD*%
%TO.C,J6*%
X154500000Y-187540000D03*
X154500000Y-182460000D03*
%TD*%
%TO.C,J5*%
X182250000Y-82710000D03*
X182250000Y-87790000D03*
%TD*%
%TO.C,J4*%
X192500000Y-82710000D03*
X192500000Y-87790000D03*
%TD*%
%TO.C,J3*%
X172250000Y-82710000D03*
X172250000Y-87790000D03*
%TD*%
D14*
%TO.C,GD2*%
X205500000Y-155000000D03*
X195500000Y-155000000D03*
%TD*%
%TO.C,GD1*%
X154500000Y-155000000D03*
X164500000Y-155000000D03*
%TD*%
D15*
%TO.C,R2*%
X227400000Y-79000000D03*
D16*
X202000000Y-79000000D03*
%TD*%
D15*
%TO.C,R1*%
X136600000Y-79000000D03*
D16*
X162000000Y-79000000D03*
%TD*%
D17*
%TO.C,J2*%
X179000000Y-193500000D03*
X176460000Y-190960000D03*
X176460000Y-196040000D03*
X181540000Y-196040000D03*
X181540000Y-190960000D03*
%TD*%
%TO.C,J1*%
X203000000Y-193750000D03*
X200460000Y-191210000D03*
X200460000Y-196290000D03*
X205540000Y-196290000D03*
X205540000Y-191210000D03*
%TD*%
D16*
%TO.C,C12*%
X202000000Y-168250000D03*
X224500000Y-168250000D03*
%TD*%
%TO.C,C9*%
X173250000Y-168250000D03*
X150750000Y-168250000D03*
%TD*%
%TO.C,C6*%
X243000000Y-105500000D03*
X243000000Y-78000000D03*
%TD*%
%TO.C,C5*%
X243000000Y-112500000D03*
X243000000Y-140000000D03*
%TD*%
%TO.C,C4*%
X243000000Y-174500000D03*
X243000000Y-147000000D03*
%TD*%
%TO.C,C3*%
X117000000Y-55500000D03*
X117000000Y-83000000D03*
%TD*%
%TO.C,C2*%
X117000000Y-152000000D03*
X117000000Y-124500000D03*
%TD*%
%TO.C,C1*%
X117000000Y-117500000D03*
X117000000Y-90000000D03*
%TD*%
M02*
