%TF.GenerationSoftware,KiCad,Pcbnew,5.1.10-88a1d61d58~90~ubuntu20.04.1*%
%TF.CreationDate,2021-08-16T21:09:42-07:00*%
%TF.ProjectId,lisn-pcb,6c69736e-2d70-4636-922e-6b696361645f,rev?*%
%TF.SameCoordinates,Original*%
%TF.FileFunction,Legend,Top*%
%TF.FilePolarity,Positive*%
%FSLAX46Y46*%
G04 Gerber Fmt 4.6, Leading zero omitted, Abs format (unit mm)*
G04 Created by KiCad (PCBNEW 5.1.10-88a1d61d58~90~ubuntu20.04.1) date 2021-08-16 21:09:42*
%MOMM*%
%LPD*%
G01*
G04 APERTURE LIST*
%ADD10C,0.200000*%
%ADD11C,0.250000*%
%ADD12C,0.300000*%
%ADD13C,0.010000*%
%ADD14C,0.400000*%
%ADD15C,0.120000*%
%ADD16C,0.150000*%
G04 APERTURE END LIST*
D10*
X170119047Y-55757142D02*
X170404761Y-55852380D01*
X170500000Y-55947619D01*
X170595238Y-56138095D01*
X170595238Y-56423809D01*
X170500000Y-56614285D01*
X170404761Y-56709523D01*
X170214285Y-56804761D01*
X169452380Y-56804761D01*
X169452380Y-54804761D01*
X170119047Y-54804761D01*
X170309523Y-54900000D01*
X170404761Y-54995238D01*
X170500000Y-55185714D01*
X170500000Y-55376190D01*
X170404761Y-55566666D01*
X170309523Y-55661904D01*
X170119047Y-55757142D01*
X169452380Y-55757142D01*
X172214285Y-56709523D02*
X172023809Y-56804761D01*
X171642857Y-56804761D01*
X171452380Y-56709523D01*
X171357142Y-56519047D01*
X171357142Y-55757142D01*
X171452380Y-55566666D01*
X171642857Y-55471428D01*
X172023809Y-55471428D01*
X172214285Y-55566666D01*
X172309523Y-55757142D01*
X172309523Y-55947619D01*
X171357142Y-56138095D01*
X173928571Y-56709523D02*
X173738095Y-56804761D01*
X173357142Y-56804761D01*
X173166666Y-56709523D01*
X173071428Y-56519047D01*
X173071428Y-55757142D01*
X173166666Y-55566666D01*
X173357142Y-55471428D01*
X173738095Y-55471428D01*
X173928571Y-55566666D01*
X174023809Y-55757142D01*
X174023809Y-55947619D01*
X173071428Y-56138095D01*
X174595238Y-55471428D02*
X175357142Y-55471428D01*
X174880952Y-56804761D02*
X174880952Y-55090476D01*
X174976190Y-54900000D01*
X175166666Y-54804761D01*
X175357142Y-54804761D01*
X176023809Y-56804761D02*
X176023809Y-55471428D01*
X176023809Y-54804761D02*
X175928571Y-54900000D01*
X176023809Y-54995238D01*
X176119047Y-54900000D01*
X176023809Y-54804761D01*
X176023809Y-54995238D01*
X177738095Y-56709523D02*
X177547619Y-56804761D01*
X177166666Y-56804761D01*
X176976190Y-56709523D01*
X176880952Y-56519047D01*
X176880952Y-55757142D01*
X176976190Y-55566666D01*
X177166666Y-55471428D01*
X177547619Y-55471428D01*
X177738095Y-55566666D01*
X177833333Y-55757142D01*
X177833333Y-55947619D01*
X176880952Y-56138095D01*
X178976190Y-56804761D02*
X178785714Y-56709523D01*
X178690476Y-56519047D01*
X178690476Y-54804761D01*
X180595238Y-56804761D02*
X180595238Y-54804761D01*
X180595238Y-56709523D02*
X180404761Y-56804761D01*
X180023809Y-56804761D01*
X179833333Y-56709523D01*
X179738095Y-56614285D01*
X179642857Y-56423809D01*
X179642857Y-55852380D01*
X179738095Y-55661904D01*
X179833333Y-55566666D01*
X180023809Y-55471428D01*
X180404761Y-55471428D01*
X180595238Y-55566666D01*
X184023809Y-56804761D02*
X183071428Y-56804761D01*
X183071428Y-54804761D01*
X185547619Y-56804761D02*
X185547619Y-55757142D01*
X185452380Y-55566666D01*
X185261904Y-55471428D01*
X184880952Y-55471428D01*
X184690476Y-55566666D01*
X185547619Y-56709523D02*
X185357142Y-56804761D01*
X184880952Y-56804761D01*
X184690476Y-56709523D01*
X184595238Y-56519047D01*
X184595238Y-56328571D01*
X184690476Y-56138095D01*
X184880952Y-56042857D01*
X185357142Y-56042857D01*
X185547619Y-55947619D01*
X186500000Y-56804761D02*
X186500000Y-54804761D01*
X186500000Y-55566666D02*
X186690476Y-55471428D01*
X187071428Y-55471428D01*
X187261904Y-55566666D01*
X187357142Y-55661904D01*
X187452380Y-55852380D01*
X187452380Y-56423809D01*
X187357142Y-56614285D01*
X187261904Y-56709523D01*
X187071428Y-56804761D01*
X186690476Y-56804761D01*
X186500000Y-56709523D01*
X188214285Y-56709523D02*
X188404761Y-56804761D01*
X188785714Y-56804761D01*
X188976190Y-56709523D01*
X189071428Y-56519047D01*
X189071428Y-56423809D01*
X188976190Y-56233333D01*
X188785714Y-56138095D01*
X188500000Y-56138095D01*
X188309523Y-56042857D01*
X188214285Y-55852380D01*
X188214285Y-55757142D01*
X188309523Y-55566666D01*
X188500000Y-55471428D01*
X188785714Y-55471428D01*
X188976190Y-55566666D01*
X192404761Y-54804761D02*
X191452380Y-54804761D01*
X191357142Y-55757142D01*
X191452380Y-55661904D01*
X191642857Y-55566666D01*
X192119047Y-55566666D01*
X192309523Y-55661904D01*
X192404761Y-55757142D01*
X192500000Y-55947619D01*
X192500000Y-56423809D01*
X192404761Y-56614285D01*
X192309523Y-56709523D01*
X192119047Y-56804761D01*
X191642857Y-56804761D01*
X191452380Y-56709523D01*
X191357142Y-56614285D01*
X193738095Y-54804761D02*
X193928571Y-54804761D01*
X194119047Y-54900000D01*
X194214285Y-54995238D01*
X194309523Y-55185714D01*
X194404761Y-55566666D01*
X194404761Y-56042857D01*
X194309523Y-56423809D01*
X194214285Y-56614285D01*
X194119047Y-56709523D01*
X193928571Y-56804761D01*
X193738095Y-56804761D01*
X193547619Y-56709523D01*
X193452380Y-56614285D01*
X193357142Y-56423809D01*
X193261904Y-56042857D01*
X193261904Y-55566666D01*
X193357142Y-55185714D01*
X193452380Y-54995238D01*
X193547619Y-54900000D01*
X193738095Y-54804761D01*
X196119047Y-55471428D02*
X196119047Y-56804761D01*
X195261904Y-55471428D02*
X195261904Y-56519047D01*
X195357142Y-56709523D01*
X195547619Y-56804761D01*
X195833333Y-56804761D01*
X196023809Y-56709523D01*
X196119047Y-56614285D01*
X197071428Y-56804761D02*
X197071428Y-54804761D01*
X197071428Y-55757142D02*
X198214285Y-55757142D01*
X198214285Y-56804761D02*
X198214285Y-54804761D01*
X200595238Y-56233333D02*
X201547619Y-56233333D01*
X200404761Y-56804761D02*
X201071428Y-54804761D01*
X201738095Y-56804761D01*
X203547619Y-56614285D02*
X203452380Y-56709523D01*
X203166666Y-56804761D01*
X202976190Y-56804761D01*
X202690476Y-56709523D01*
X202500000Y-56519047D01*
X202404761Y-56328571D01*
X202309523Y-55947619D01*
X202309523Y-55661904D01*
X202404761Y-55280952D01*
X202500000Y-55090476D01*
X202690476Y-54900000D01*
X202976190Y-54804761D01*
X203166666Y-54804761D01*
X203452380Y-54900000D01*
X203547619Y-54995238D01*
X206880952Y-56804761D02*
X205928571Y-56804761D01*
X205928571Y-54804761D01*
X207547619Y-56804761D02*
X207547619Y-54804761D01*
X208404761Y-56709523D02*
X208690476Y-56804761D01*
X209166666Y-56804761D01*
X209357142Y-56709523D01*
X209452380Y-56614285D01*
X209547619Y-56423809D01*
X209547619Y-56233333D01*
X209452380Y-56042857D01*
X209357142Y-55947619D01*
X209166666Y-55852380D01*
X208785714Y-55757142D01*
X208595238Y-55661904D01*
X208500000Y-55566666D01*
X208404761Y-55376190D01*
X208404761Y-55185714D01*
X208500000Y-54995238D01*
X208595238Y-54900000D01*
X208785714Y-54804761D01*
X209261904Y-54804761D01*
X209547619Y-54900000D01*
X210404761Y-56804761D02*
X210404761Y-54804761D01*
X211547619Y-56804761D01*
X211547619Y-54804761D01*
X167928571Y-58671428D02*
X167928571Y-60290476D01*
X167833333Y-60480952D01*
X167738095Y-60576190D01*
X167547619Y-60671428D01*
X167261904Y-60671428D01*
X167071428Y-60576190D01*
X167928571Y-59909523D02*
X167738095Y-60004761D01*
X167357142Y-60004761D01*
X167166666Y-59909523D01*
X167071428Y-59814285D01*
X166976190Y-59623809D01*
X166976190Y-59052380D01*
X167071428Y-58861904D01*
X167166666Y-58766666D01*
X167357142Y-58671428D01*
X167738095Y-58671428D01*
X167928571Y-58766666D01*
X168880952Y-60004761D02*
X168880952Y-58671428D01*
X168880952Y-58004761D02*
X168785714Y-58100000D01*
X168880952Y-58195238D01*
X168976190Y-58100000D01*
X168880952Y-58004761D01*
X168880952Y-58195238D01*
X169547619Y-58671428D02*
X170309523Y-58671428D01*
X169833333Y-58004761D02*
X169833333Y-59719047D01*
X169928571Y-59909523D01*
X170119047Y-60004761D01*
X170309523Y-60004761D01*
X170976190Y-60004761D02*
X170976190Y-58004761D01*
X171833333Y-60004761D02*
X171833333Y-58957142D01*
X171738095Y-58766666D01*
X171547619Y-58671428D01*
X171261904Y-58671428D01*
X171071428Y-58766666D01*
X170976190Y-58861904D01*
X173642857Y-58671428D02*
X173642857Y-60004761D01*
X172785714Y-58671428D02*
X172785714Y-59719047D01*
X172880952Y-59909523D01*
X173071428Y-60004761D01*
X173357142Y-60004761D01*
X173547619Y-59909523D01*
X173642857Y-59814285D01*
X174595238Y-60004761D02*
X174595238Y-58004761D01*
X174595238Y-58766666D02*
X174785714Y-58671428D01*
X175166666Y-58671428D01*
X175357142Y-58766666D01*
X175452380Y-58861904D01*
X175547619Y-59052380D01*
X175547619Y-59623809D01*
X175452380Y-59814285D01*
X175357142Y-59909523D01*
X175166666Y-60004761D01*
X174785714Y-60004761D01*
X174595238Y-59909523D01*
X176404761Y-59814285D02*
X176500000Y-59909523D01*
X176404761Y-60004761D01*
X176309523Y-59909523D01*
X176404761Y-59814285D01*
X176404761Y-60004761D01*
X178214285Y-59909523D02*
X178023809Y-60004761D01*
X177642857Y-60004761D01*
X177452380Y-59909523D01*
X177357142Y-59814285D01*
X177261904Y-59623809D01*
X177261904Y-59052380D01*
X177357142Y-58861904D01*
X177452380Y-58766666D01*
X177642857Y-58671428D01*
X178023809Y-58671428D01*
X178214285Y-58766666D01*
X179357142Y-60004761D02*
X179166666Y-59909523D01*
X179071428Y-59814285D01*
X178976190Y-59623809D01*
X178976190Y-59052380D01*
X179071428Y-58861904D01*
X179166666Y-58766666D01*
X179357142Y-58671428D01*
X179642857Y-58671428D01*
X179833333Y-58766666D01*
X179928571Y-58861904D01*
X180023809Y-59052380D01*
X180023809Y-59623809D01*
X179928571Y-59814285D01*
X179833333Y-59909523D01*
X179642857Y-60004761D01*
X179357142Y-60004761D01*
X180880952Y-60004761D02*
X180880952Y-58671428D01*
X180880952Y-58861904D02*
X180976190Y-58766666D01*
X181166666Y-58671428D01*
X181452380Y-58671428D01*
X181642857Y-58766666D01*
X181738095Y-58957142D01*
X181738095Y-60004761D01*
X181738095Y-58957142D02*
X181833333Y-58766666D01*
X182023809Y-58671428D01*
X182309523Y-58671428D01*
X182500000Y-58766666D01*
X182595238Y-58957142D01*
X182595238Y-60004761D01*
X184976190Y-57909523D02*
X183261904Y-60480952D01*
X185452380Y-58671428D02*
X185833333Y-60004761D01*
X186214285Y-59052380D01*
X186595238Y-60004761D01*
X186976190Y-58671428D01*
X188500000Y-59909523D02*
X188309523Y-60004761D01*
X187928571Y-60004761D01*
X187738095Y-59909523D01*
X187642857Y-59719047D01*
X187642857Y-58957142D01*
X187738095Y-58766666D01*
X187928571Y-58671428D01*
X188309523Y-58671428D01*
X188500000Y-58766666D01*
X188595238Y-58957142D01*
X188595238Y-59147619D01*
X187642857Y-59338095D01*
X189357142Y-59909523D02*
X189547619Y-60004761D01*
X189928571Y-60004761D01*
X190119047Y-59909523D01*
X190214285Y-59719047D01*
X190214285Y-59623809D01*
X190119047Y-59433333D01*
X189928571Y-59338095D01*
X189642857Y-59338095D01*
X189452380Y-59242857D01*
X189357142Y-59052380D01*
X189357142Y-58957142D01*
X189452380Y-58766666D01*
X189642857Y-58671428D01*
X189928571Y-58671428D01*
X190119047Y-58766666D01*
X190785714Y-58671428D02*
X191547619Y-58671428D01*
X191071428Y-58004761D02*
X191071428Y-59719047D01*
X191166666Y-59909523D01*
X191357142Y-60004761D01*
X191547619Y-60004761D01*
X192500000Y-60004761D02*
X192309523Y-59909523D01*
X192214285Y-59814285D01*
X192119047Y-59623809D01*
X192119047Y-59052380D01*
X192214285Y-58861904D01*
X192309523Y-58766666D01*
X192500000Y-58671428D01*
X192785714Y-58671428D01*
X192976190Y-58766666D01*
X193071428Y-58861904D01*
X193166666Y-59052380D01*
X193166666Y-59623809D01*
X193071428Y-59814285D01*
X192976190Y-59909523D01*
X192785714Y-60004761D01*
X192500000Y-60004761D01*
X194023809Y-58671428D02*
X194023809Y-60004761D01*
X194023809Y-58861904D02*
X194119047Y-58766666D01*
X194309523Y-58671428D01*
X194595238Y-58671428D01*
X194785714Y-58766666D01*
X194880952Y-58957142D01*
X194880952Y-60004761D01*
X195833333Y-60004761D02*
X195833333Y-58004761D01*
X195833333Y-58766666D02*
X196023809Y-58671428D01*
X196404761Y-58671428D01*
X196595238Y-58766666D01*
X196690476Y-58861904D01*
X196785714Y-59052380D01*
X196785714Y-59623809D01*
X196690476Y-59814285D01*
X196595238Y-59909523D01*
X196404761Y-60004761D01*
X196023809Y-60004761D01*
X195833333Y-59909523D01*
X199071428Y-57909523D02*
X197357142Y-60480952D01*
X200023809Y-60004761D02*
X199833333Y-59909523D01*
X199738095Y-59719047D01*
X199738095Y-58004761D01*
X201547619Y-59909523D02*
X201357142Y-60004761D01*
X200976190Y-60004761D01*
X200785714Y-59909523D01*
X200690476Y-59719047D01*
X200690476Y-58957142D01*
X200785714Y-58766666D01*
X200976190Y-58671428D01*
X201357142Y-58671428D01*
X201547619Y-58766666D01*
X201642857Y-58957142D01*
X201642857Y-59147619D01*
X200690476Y-59338095D01*
X203261904Y-59909523D02*
X203071428Y-60004761D01*
X202690476Y-60004761D01*
X202500000Y-59909523D01*
X202404761Y-59719047D01*
X202404761Y-58957142D01*
X202500000Y-58766666D01*
X202690476Y-58671428D01*
X203071428Y-58671428D01*
X203261904Y-58766666D01*
X203357142Y-58957142D01*
X203357142Y-59147619D01*
X202404761Y-59338095D01*
X204214285Y-60004761D02*
X204214285Y-58671428D01*
X204214285Y-59052380D02*
X204309523Y-58861904D01*
X204404761Y-58766666D01*
X204595238Y-58671428D01*
X204785714Y-58671428D01*
X205261904Y-58671428D02*
X205738095Y-60004761D01*
X206214285Y-58671428D02*
X205738095Y-60004761D01*
X205547619Y-60480952D01*
X205452380Y-60576190D01*
X205261904Y-60671428D01*
X206976190Y-59242857D02*
X208500000Y-59242857D01*
X209738095Y-60004761D02*
X209547619Y-59909523D01*
X209452380Y-59719047D01*
X209452380Y-58004761D01*
X210500000Y-60004761D02*
X210500000Y-58671428D01*
X210500000Y-58004761D02*
X210404761Y-58100000D01*
X210500000Y-58195238D01*
X210595238Y-58100000D01*
X210500000Y-58004761D01*
X210500000Y-58195238D01*
X211357142Y-59909523D02*
X211547619Y-60004761D01*
X211928571Y-60004761D01*
X212119047Y-59909523D01*
X212214285Y-59719047D01*
X212214285Y-59623809D01*
X212119047Y-59433333D01*
X211928571Y-59338095D01*
X211642857Y-59338095D01*
X211452380Y-59242857D01*
X211357142Y-59052380D01*
X211357142Y-58957142D01*
X211452380Y-58766666D01*
X211642857Y-58671428D01*
X211928571Y-58671428D01*
X212119047Y-58766666D01*
X213071428Y-58671428D02*
X213071428Y-60004761D01*
X213071428Y-58861904D02*
X213166666Y-58766666D01*
X213357142Y-58671428D01*
X213642857Y-58671428D01*
X213833333Y-58766666D01*
X213928571Y-58957142D01*
X213928571Y-60004761D01*
D11*
X219202380Y-176250000D02*
X219011904Y-176154761D01*
X218726190Y-176154761D01*
X218440476Y-176250000D01*
X218250000Y-176440476D01*
X218154761Y-176630952D01*
X218059523Y-177011904D01*
X218059523Y-177297619D01*
X218154761Y-177678571D01*
X218250000Y-177869047D01*
X218440476Y-178059523D01*
X218726190Y-178154761D01*
X218916666Y-178154761D01*
X219202380Y-178059523D01*
X219297619Y-177964285D01*
X219297619Y-177297619D01*
X218916666Y-177297619D01*
X223202380Y-178154761D02*
X223202380Y-176154761D01*
X224345238Y-178154761D01*
X224345238Y-176154761D01*
X157071428Y-177654761D02*
X156119047Y-177654761D01*
X156119047Y-175654761D01*
X163357142Y-175750000D02*
X163166666Y-175654761D01*
X162880952Y-175654761D01*
X162595238Y-175750000D01*
X162404761Y-175940476D01*
X162309523Y-176130952D01*
X162214285Y-176511904D01*
X162214285Y-176797619D01*
X162309523Y-177178571D01*
X162404761Y-177369047D01*
X162595238Y-177559523D01*
X162880952Y-177654761D01*
X163071428Y-177654761D01*
X163357142Y-177559523D01*
X163452380Y-177464285D01*
X163452380Y-176797619D01*
X163071428Y-176797619D01*
X176511904Y-76404761D02*
X175559523Y-76404761D01*
X175559523Y-74404761D01*
X182797619Y-74500000D02*
X182607142Y-74404761D01*
X182321428Y-74404761D01*
X182035714Y-74500000D01*
X181845238Y-74690476D01*
X181750000Y-74880952D01*
X181654761Y-75261904D01*
X181654761Y-75547619D01*
X181750000Y-75928571D01*
X181845238Y-76119047D01*
X182035714Y-76309523D01*
X182321428Y-76404761D01*
X182511904Y-76404761D01*
X182797619Y-76309523D01*
X182892857Y-76214285D01*
X182892857Y-75547619D01*
X182511904Y-75547619D01*
X186797619Y-76404761D02*
X186797619Y-74404761D01*
X187940476Y-76404761D01*
X187940476Y-74404761D01*
D12*
X160750000Y-198678571D02*
X160750000Y-197178571D01*
X161107142Y-197178571D01*
X161321428Y-197250000D01*
X161464285Y-197392857D01*
X161535714Y-197535714D01*
X161607142Y-197821428D01*
X161607142Y-198035714D01*
X161535714Y-198321428D01*
X161464285Y-198464285D01*
X161321428Y-198607142D01*
X161107142Y-198678571D01*
X160750000Y-198678571D01*
X162250000Y-198678571D02*
X162250000Y-197178571D01*
X162750000Y-198250000D01*
X163250000Y-197178571D01*
X163250000Y-198678571D01*
X165392857Y-197178571D02*
X165678571Y-197178571D01*
X165821428Y-197250000D01*
X165964285Y-197392857D01*
X166035714Y-197678571D01*
X166035714Y-198178571D01*
X165964285Y-198464285D01*
X165821428Y-198607142D01*
X165678571Y-198678571D01*
X165392857Y-198678571D01*
X165250000Y-198607142D01*
X165107142Y-198464285D01*
X165035714Y-198178571D01*
X165035714Y-197678571D01*
X165107142Y-197392857D01*
X165250000Y-197250000D01*
X165392857Y-197178571D01*
X167321428Y-197678571D02*
X167321428Y-198678571D01*
X166678571Y-197678571D02*
X166678571Y-198464285D01*
X166750000Y-198607142D01*
X166892857Y-198678571D01*
X167107142Y-198678571D01*
X167250000Y-198607142D01*
X167321428Y-198535714D01*
X167821428Y-197678571D02*
X168392857Y-197678571D01*
X168035714Y-197178571D02*
X168035714Y-198464285D01*
X168107142Y-198607142D01*
X168250000Y-198678571D01*
X168392857Y-198678571D01*
X168892857Y-197678571D02*
X168892857Y-199178571D01*
X168892857Y-197750000D02*
X169035714Y-197678571D01*
X169321428Y-197678571D01*
X169464285Y-197750000D01*
X169535714Y-197821428D01*
X169607142Y-197964285D01*
X169607142Y-198392857D01*
X169535714Y-198535714D01*
X169464285Y-198607142D01*
X169321428Y-198678571D01*
X169035714Y-198678571D01*
X168892857Y-198607142D01*
X170892857Y-197678571D02*
X170892857Y-198678571D01*
X170250000Y-197678571D02*
X170250000Y-198464285D01*
X170321428Y-198607142D01*
X170464285Y-198678571D01*
X170678571Y-198678571D01*
X170821428Y-198607142D01*
X170892857Y-198535714D01*
X171392857Y-197678571D02*
X171964285Y-197678571D01*
X171607142Y-197178571D02*
X171607142Y-198464285D01*
X171678571Y-198607142D01*
X171821428Y-198678571D01*
X171964285Y-198678571D01*
X210607142Y-198035714D02*
X210535714Y-198107142D01*
X210321428Y-198178571D01*
X210178571Y-198178571D01*
X209964285Y-198107142D01*
X209821428Y-197964285D01*
X209750000Y-197821428D01*
X209678571Y-197535714D01*
X209678571Y-197321428D01*
X209750000Y-197035714D01*
X209821428Y-196892857D01*
X209964285Y-196750000D01*
X210178571Y-196678571D01*
X210321428Y-196678571D01*
X210535714Y-196750000D01*
X210607142Y-196821428D01*
X211250000Y-198178571D02*
X211250000Y-196678571D01*
X211750000Y-197750000D01*
X212250000Y-196678571D01*
X212250000Y-198178571D01*
X214392857Y-196678571D02*
X214678571Y-196678571D01*
X214821428Y-196750000D01*
X214964285Y-196892857D01*
X215035714Y-197178571D01*
X215035714Y-197678571D01*
X214964285Y-197964285D01*
X214821428Y-198107142D01*
X214678571Y-198178571D01*
X214392857Y-198178571D01*
X214250000Y-198107142D01*
X214107142Y-197964285D01*
X214035714Y-197678571D01*
X214035714Y-197178571D01*
X214107142Y-196892857D01*
X214250000Y-196750000D01*
X214392857Y-196678571D01*
X216321428Y-197178571D02*
X216321428Y-198178571D01*
X215678571Y-197178571D02*
X215678571Y-197964285D01*
X215750000Y-198107142D01*
X215892857Y-198178571D01*
X216107142Y-198178571D01*
X216250000Y-198107142D01*
X216321428Y-198035714D01*
X216821428Y-197178571D02*
X217392857Y-197178571D01*
X217035714Y-196678571D02*
X217035714Y-197964285D01*
X217107142Y-198107142D01*
X217250000Y-198178571D01*
X217392857Y-198178571D01*
X217892857Y-197178571D02*
X217892857Y-198678571D01*
X217892857Y-197250000D02*
X218035714Y-197178571D01*
X218321428Y-197178571D01*
X218464285Y-197250000D01*
X218535714Y-197321428D01*
X218607142Y-197464285D01*
X218607142Y-197892857D01*
X218535714Y-198035714D01*
X218464285Y-198107142D01*
X218321428Y-198178571D01*
X218035714Y-198178571D01*
X217892857Y-198107142D01*
X219892857Y-197178571D02*
X219892857Y-198178571D01*
X219250000Y-197178571D02*
X219250000Y-197964285D01*
X219321428Y-198107142D01*
X219464285Y-198178571D01*
X219678571Y-198178571D01*
X219821428Y-198107142D01*
X219892857Y-198035714D01*
X220392857Y-197178571D02*
X220964285Y-197178571D01*
X220607142Y-196678571D02*
X220607142Y-197964285D01*
X220678571Y-198107142D01*
X220821428Y-198178571D01*
X220964285Y-198178571D01*
D13*
%TO.C,G\u002A\u002A\u002A*%
G36*
X139748863Y-65095961D02*
G01*
X139868490Y-65136550D01*
X139917867Y-65163946D01*
X140011775Y-65243494D01*
X140087391Y-65348915D01*
X140143132Y-65476629D01*
X140177416Y-65623051D01*
X140188673Y-65777100D01*
X140188800Y-65849066D01*
X139227973Y-65849066D01*
X139242722Y-65928016D01*
X139279710Y-66044161D01*
X139341634Y-66139224D01*
X139425458Y-66210652D01*
X139528149Y-66255887D01*
X139646671Y-66272374D01*
X139651729Y-66272400D01*
X139765389Y-66261070D01*
X139862060Y-66224871D01*
X139944600Y-66166088D01*
X139987573Y-66129618D01*
X140014753Y-66112950D01*
X140035210Y-66112889D01*
X140057898Y-66126160D01*
X140113262Y-66166982D01*
X140144012Y-66195013D01*
X140154761Y-66214573D01*
X140154934Y-66217076D01*
X140141634Y-66242349D01*
X140106524Y-66279265D01*
X140056783Y-66321961D01*
X139999594Y-66364576D01*
X139942138Y-66401250D01*
X139906533Y-66419824D01*
X139815347Y-66449620D01*
X139706613Y-66467138D01*
X139594415Y-66471317D01*
X139492834Y-66461097D01*
X139460667Y-66453426D01*
X139320557Y-66397033D01*
X139203414Y-66316848D01*
X139110392Y-66214985D01*
X139042648Y-66093557D01*
X139001336Y-65954681D01*
X138987611Y-65800470D01*
X139001477Y-65645866D01*
X139237843Y-65645866D01*
X139947361Y-65645866D01*
X139933169Y-65569898D01*
X139904162Y-65469808D01*
X139856876Y-65392436D01*
X139816350Y-65352201D01*
X139749621Y-65310911D01*
X139669792Y-65282440D01*
X139604600Y-65273522D01*
X139508680Y-65289629D01*
X139419712Y-65334719D01*
X139343121Y-65403940D01*
X139284331Y-65492442D01*
X139249722Y-65590833D01*
X139237843Y-65645866D01*
X139001477Y-65645866D01*
X139002628Y-65633038D01*
X139005067Y-65619343D01*
X139047489Y-65474503D01*
X139116902Y-65346808D01*
X139210799Y-65239608D01*
X139326674Y-65156258D01*
X139366561Y-65135836D01*
X139489543Y-65095178D01*
X139619762Y-65082029D01*
X139748863Y-65095961D01*
G37*
X139748863Y-65095961D02*
X139868490Y-65136550D01*
X139917867Y-65163946D01*
X140011775Y-65243494D01*
X140087391Y-65348915D01*
X140143132Y-65476629D01*
X140177416Y-65623051D01*
X140188673Y-65777100D01*
X140188800Y-65849066D01*
X139227973Y-65849066D01*
X139242722Y-65928016D01*
X139279710Y-66044161D01*
X139341634Y-66139224D01*
X139425458Y-66210652D01*
X139528149Y-66255887D01*
X139646671Y-66272374D01*
X139651729Y-66272400D01*
X139765389Y-66261070D01*
X139862060Y-66224871D01*
X139944600Y-66166088D01*
X139987573Y-66129618D01*
X140014753Y-66112950D01*
X140035210Y-66112889D01*
X140057898Y-66126160D01*
X140113262Y-66166982D01*
X140144012Y-66195013D01*
X140154761Y-66214573D01*
X140154934Y-66217076D01*
X140141634Y-66242349D01*
X140106524Y-66279265D01*
X140056783Y-66321961D01*
X139999594Y-66364576D01*
X139942138Y-66401250D01*
X139906533Y-66419824D01*
X139815347Y-66449620D01*
X139706613Y-66467138D01*
X139594415Y-66471317D01*
X139492834Y-66461097D01*
X139460667Y-66453426D01*
X139320557Y-66397033D01*
X139203414Y-66316848D01*
X139110392Y-66214985D01*
X139042648Y-66093557D01*
X139001336Y-65954681D01*
X138987611Y-65800470D01*
X139001477Y-65645866D01*
X139237843Y-65645866D01*
X139947361Y-65645866D01*
X139933169Y-65569898D01*
X139904162Y-65469808D01*
X139856876Y-65392436D01*
X139816350Y-65352201D01*
X139749621Y-65310911D01*
X139669792Y-65282440D01*
X139604600Y-65273522D01*
X139508680Y-65289629D01*
X139419712Y-65334719D01*
X139343121Y-65403940D01*
X139284331Y-65492442D01*
X139249722Y-65590833D01*
X139237843Y-65645866D01*
X139001477Y-65645866D01*
X139002628Y-65633038D01*
X139005067Y-65619343D01*
X139047489Y-65474503D01*
X139116902Y-65346808D01*
X139210799Y-65239608D01*
X139326674Y-65156258D01*
X139366561Y-65135836D01*
X139489543Y-65095178D01*
X139619762Y-65082029D01*
X139748863Y-65095961D01*
G36*
X141229233Y-65091097D02*
G01*
X141352250Y-65123594D01*
X141462976Y-65184824D01*
X141554407Y-65270767D01*
X141564455Y-65283472D01*
X141616591Y-65361733D01*
X141652767Y-65442607D01*
X141675968Y-65535509D01*
X141689176Y-65649855D01*
X141691326Y-65683966D01*
X141700395Y-65849066D01*
X141223998Y-65849066D01*
X141079999Y-65849347D01*
X140966660Y-65850289D01*
X140880778Y-65852044D01*
X140819149Y-65854760D01*
X140778570Y-65858588D01*
X140755838Y-65863678D01*
X140747750Y-65870181D01*
X140747600Y-65871393D01*
X140757435Y-65930842D01*
X140783215Y-66003369D01*
X140819357Y-66075908D01*
X140860279Y-66135394D01*
X140860574Y-66135739D01*
X140937486Y-66207565D01*
X141024287Y-66251369D01*
X141128193Y-66270313D01*
X141170934Y-66271656D01*
X141286764Y-66259672D01*
X141387487Y-66221288D01*
X141480876Y-66154514D01*
X141543070Y-66099906D01*
X141611002Y-66153709D01*
X141649735Y-66186785D01*
X141674333Y-66212403D01*
X141678934Y-66220866D01*
X141665722Y-66244287D01*
X141630929Y-66279632D01*
X141581824Y-66321078D01*
X141525672Y-66362807D01*
X141469740Y-66398997D01*
X141430533Y-66419824D01*
X141330687Y-66452128D01*
X141213631Y-66469003D01*
X141092727Y-66469591D01*
X140981337Y-66453032D01*
X140968144Y-66449545D01*
X140831314Y-66395053D01*
X140716065Y-66314468D01*
X140622602Y-66207965D01*
X140564104Y-66105183D01*
X140545648Y-66062755D01*
X140533130Y-66023825D01*
X140525396Y-65980233D01*
X140521293Y-65923817D01*
X140519667Y-65846418D01*
X140519405Y-65788921D01*
X140519080Y-65611294D01*
X140763499Y-65611294D01*
X140776839Y-65627943D01*
X140808144Y-65638184D01*
X140860939Y-65643561D01*
X140938747Y-65645620D01*
X141045091Y-65645905D01*
X141111667Y-65645866D01*
X141458801Y-65645866D01*
X141458801Y-65598391D01*
X141446978Y-65536901D01*
X141416133Y-65465947D01*
X141373201Y-65397814D01*
X141325118Y-65344789D01*
X141308553Y-65332204D01*
X141217731Y-65291073D01*
X141121571Y-65279840D01*
X141026019Y-65296472D01*
X140937021Y-65338936D01*
X140860523Y-65405198D01*
X140802472Y-65493226D01*
X140796040Y-65507440D01*
X140776623Y-65552587D01*
X140764601Y-65586690D01*
X140763499Y-65611294D01*
X140519080Y-65611294D01*
X140519000Y-65567910D01*
X140582879Y-65438661D01*
X140663037Y-65309667D01*
X140761308Y-65208994D01*
X140876253Y-65137415D01*
X141006437Y-65095702D01*
X141150423Y-65084628D01*
X141229233Y-65091097D01*
G37*
X141229233Y-65091097D02*
X141352250Y-65123594D01*
X141462976Y-65184824D01*
X141554407Y-65270767D01*
X141564455Y-65283472D01*
X141616591Y-65361733D01*
X141652767Y-65442607D01*
X141675968Y-65535509D01*
X141689176Y-65649855D01*
X141691326Y-65683966D01*
X141700395Y-65849066D01*
X141223998Y-65849066D01*
X141079999Y-65849347D01*
X140966660Y-65850289D01*
X140880778Y-65852044D01*
X140819149Y-65854760D01*
X140778570Y-65858588D01*
X140755838Y-65863678D01*
X140747750Y-65870181D01*
X140747600Y-65871393D01*
X140757435Y-65930842D01*
X140783215Y-66003369D01*
X140819357Y-66075908D01*
X140860279Y-66135394D01*
X140860574Y-66135739D01*
X140937486Y-66207565D01*
X141024287Y-66251369D01*
X141128193Y-66270313D01*
X141170934Y-66271656D01*
X141286764Y-66259672D01*
X141387487Y-66221288D01*
X141480876Y-66154514D01*
X141543070Y-66099906D01*
X141611002Y-66153709D01*
X141649735Y-66186785D01*
X141674333Y-66212403D01*
X141678934Y-66220866D01*
X141665722Y-66244287D01*
X141630929Y-66279632D01*
X141581824Y-66321078D01*
X141525672Y-66362807D01*
X141469740Y-66398997D01*
X141430533Y-66419824D01*
X141330687Y-66452128D01*
X141213631Y-66469003D01*
X141092727Y-66469591D01*
X140981337Y-66453032D01*
X140968144Y-66449545D01*
X140831314Y-66395053D01*
X140716065Y-66314468D01*
X140622602Y-66207965D01*
X140564104Y-66105183D01*
X140545648Y-66062755D01*
X140533130Y-66023825D01*
X140525396Y-65980233D01*
X140521293Y-65923817D01*
X140519667Y-65846418D01*
X140519405Y-65788921D01*
X140519080Y-65611294D01*
X140763499Y-65611294D01*
X140776839Y-65627943D01*
X140808144Y-65638184D01*
X140860939Y-65643561D01*
X140938747Y-65645620D01*
X141045091Y-65645905D01*
X141111667Y-65645866D01*
X141458801Y-65645866D01*
X141458801Y-65598391D01*
X141446978Y-65536901D01*
X141416133Y-65465947D01*
X141373201Y-65397814D01*
X141325118Y-65344789D01*
X141308553Y-65332204D01*
X141217731Y-65291073D01*
X141121571Y-65279840D01*
X141026019Y-65296472D01*
X140937021Y-65338936D01*
X140860523Y-65405198D01*
X140802472Y-65493226D01*
X140796040Y-65507440D01*
X140776623Y-65552587D01*
X140764601Y-65586690D01*
X140763499Y-65611294D01*
X140519080Y-65611294D01*
X140519000Y-65567910D01*
X140582879Y-65438661D01*
X140663037Y-65309667D01*
X140761308Y-65208994D01*
X140876253Y-65137415D01*
X141006437Y-65095702D01*
X141150423Y-65084628D01*
X141229233Y-65091097D01*
G36*
X145820190Y-65097388D02*
G01*
X145943794Y-65137673D01*
X146047945Y-65205559D01*
X146133469Y-65301603D01*
X146201192Y-65426362D01*
X146207913Y-65442666D01*
X146225786Y-65506401D01*
X146239516Y-65594085D01*
X146246944Y-65683966D01*
X146255462Y-65849066D01*
X145779064Y-65849066D01*
X145635066Y-65849347D01*
X145521727Y-65850289D01*
X145435844Y-65852044D01*
X145374215Y-65854760D01*
X145333636Y-65858588D01*
X145310904Y-65863678D01*
X145302816Y-65870181D01*
X145302667Y-65871393D01*
X145312555Y-65932285D01*
X145338405Y-66005826D01*
X145374493Y-66078651D01*
X145415098Y-66137392D01*
X145417923Y-66140589D01*
X145497055Y-66210965D01*
X145585402Y-66253259D01*
X145690680Y-66270752D01*
X145726000Y-66271656D01*
X145841830Y-66259672D01*
X145942554Y-66221288D01*
X146035943Y-66154514D01*
X146098137Y-66099906D01*
X146165952Y-66153617D01*
X146205915Y-66188319D01*
X146221922Y-66212910D01*
X146218702Y-66235280D01*
X146216970Y-66238714D01*
X146185688Y-66277743D01*
X146133269Y-66324314D01*
X146069081Y-66371256D01*
X146002491Y-66411399D01*
X145971572Y-66426527D01*
X145884503Y-66453184D01*
X145778590Y-66467870D01*
X145666915Y-66469915D01*
X145562559Y-66458646D01*
X145523211Y-66449545D01*
X145386387Y-66395049D01*
X145271056Y-66314385D01*
X145177323Y-66207641D01*
X145118689Y-66105098D01*
X145100138Y-66062913D01*
X145087566Y-66024448D01*
X145079824Y-65981568D01*
X145075766Y-65926138D01*
X145074242Y-65850023D01*
X145074067Y-65788921D01*
X145074067Y-65645866D01*
X145319601Y-65645866D01*
X146018196Y-65645866D01*
X146006984Y-65573900D01*
X145980415Y-65485957D01*
X145932791Y-65404476D01*
X145871313Y-65340270D01*
X145836067Y-65317199D01*
X145741369Y-65285811D01*
X145640757Y-65283600D01*
X145542696Y-65309082D01*
X145455653Y-65360772D01*
X145425046Y-65389271D01*
X145384912Y-65442457D01*
X145349868Y-65507030D01*
X145326292Y-65569726D01*
X145319972Y-65607766D01*
X145319601Y-65645866D01*
X145074067Y-65645866D01*
X145074067Y-65567910D01*
X145137836Y-65438882D01*
X145217486Y-65310267D01*
X145314850Y-65209520D01*
X145428409Y-65137640D01*
X145556646Y-65095627D01*
X145676309Y-65084147D01*
X145820190Y-65097388D01*
G37*
X145820190Y-65097388D02*
X145943794Y-65137673D01*
X146047945Y-65205559D01*
X146133469Y-65301603D01*
X146201192Y-65426362D01*
X146207913Y-65442666D01*
X146225786Y-65506401D01*
X146239516Y-65594085D01*
X146246944Y-65683966D01*
X146255462Y-65849066D01*
X145779064Y-65849066D01*
X145635066Y-65849347D01*
X145521727Y-65850289D01*
X145435844Y-65852044D01*
X145374215Y-65854760D01*
X145333636Y-65858588D01*
X145310904Y-65863678D01*
X145302816Y-65870181D01*
X145302667Y-65871393D01*
X145312555Y-65932285D01*
X145338405Y-66005826D01*
X145374493Y-66078651D01*
X145415098Y-66137392D01*
X145417923Y-66140589D01*
X145497055Y-66210965D01*
X145585402Y-66253259D01*
X145690680Y-66270752D01*
X145726000Y-66271656D01*
X145841830Y-66259672D01*
X145942554Y-66221288D01*
X146035943Y-66154514D01*
X146098137Y-66099906D01*
X146165952Y-66153617D01*
X146205915Y-66188319D01*
X146221922Y-66212910D01*
X146218702Y-66235280D01*
X146216970Y-66238714D01*
X146185688Y-66277743D01*
X146133269Y-66324314D01*
X146069081Y-66371256D01*
X146002491Y-66411399D01*
X145971572Y-66426527D01*
X145884503Y-66453184D01*
X145778590Y-66467870D01*
X145666915Y-66469915D01*
X145562559Y-66458646D01*
X145523211Y-66449545D01*
X145386387Y-66395049D01*
X145271056Y-66314385D01*
X145177323Y-66207641D01*
X145118689Y-66105098D01*
X145100138Y-66062913D01*
X145087566Y-66024448D01*
X145079824Y-65981568D01*
X145075766Y-65926138D01*
X145074242Y-65850023D01*
X145074067Y-65788921D01*
X145074067Y-65645866D01*
X145319601Y-65645866D01*
X146018196Y-65645866D01*
X146006984Y-65573900D01*
X145980415Y-65485957D01*
X145932791Y-65404476D01*
X145871313Y-65340270D01*
X145836067Y-65317199D01*
X145741369Y-65285811D01*
X145640757Y-65283600D01*
X145542696Y-65309082D01*
X145455653Y-65360772D01*
X145425046Y-65389271D01*
X145384912Y-65442457D01*
X145349868Y-65507030D01*
X145326292Y-65569726D01*
X145319972Y-65607766D01*
X145319601Y-65645866D01*
X145074067Y-65645866D01*
X145074067Y-65567910D01*
X145137836Y-65438882D01*
X145217486Y-65310267D01*
X145314850Y-65209520D01*
X145428409Y-65137640D01*
X145556646Y-65095627D01*
X145676309Y-65084147D01*
X145820190Y-65097388D01*
G36*
X149244041Y-65497700D02*
G01*
X149239667Y-66450200D01*
X149019534Y-66450200D01*
X149014280Y-66386722D01*
X149009025Y-66323244D01*
X148944654Y-66374975D01*
X148845962Y-66433460D01*
X148731507Y-66466229D01*
X148608928Y-66472047D01*
X148485862Y-66449682D01*
X148484595Y-66449293D01*
X148385316Y-66401719D01*
X148295180Y-66325178D01*
X148218023Y-66224150D01*
X148157685Y-66103118D01*
X148137122Y-66043585D01*
X148115677Y-65939163D01*
X148106280Y-65817033D01*
X148107295Y-65764400D01*
X148346749Y-65764400D01*
X148356210Y-65908690D01*
X148385907Y-66031173D01*
X148434285Y-66130165D01*
X148499785Y-66203983D01*
X148580853Y-66250944D01*
X148675931Y-66269364D01*
X148783464Y-66257560D01*
X148799019Y-66253512D01*
X148852763Y-66229271D01*
X148909424Y-66189812D01*
X148930252Y-66170932D01*
X148994134Y-66107050D01*
X148994134Y-65776158D01*
X148994019Y-65662491D01*
X148993300Y-65577589D01*
X148991411Y-65516348D01*
X148987788Y-65473664D01*
X148981867Y-65444436D01*
X148973084Y-65423561D01*
X148960873Y-65405935D01*
X148951997Y-65395188D01*
X148879984Y-65333749D01*
X148789090Y-65299157D01*
X148697547Y-65290266D01*
X148592231Y-65304722D01*
X148504724Y-65347461D01*
X148435724Y-65417537D01*
X148385929Y-65514008D01*
X148356040Y-65635929D01*
X148346749Y-65764400D01*
X148107295Y-65764400D01*
X148108734Y-65689859D01*
X148122842Y-65570306D01*
X148145942Y-65477937D01*
X148206079Y-65341160D01*
X148281740Y-65234247D01*
X148373756Y-65156549D01*
X148482954Y-65107420D01*
X148610165Y-65086209D01*
X148648373Y-65085185D01*
X148768385Y-65095962D01*
X148872022Y-65130517D01*
X148956034Y-65181704D01*
X148994134Y-65209730D01*
X148994134Y-64545200D01*
X149248416Y-64545200D01*
X149244041Y-65497700D01*
G37*
X149244041Y-65497700D02*
X149239667Y-66450200D01*
X149019534Y-66450200D01*
X149014280Y-66386722D01*
X149009025Y-66323244D01*
X148944654Y-66374975D01*
X148845962Y-66433460D01*
X148731507Y-66466229D01*
X148608928Y-66472047D01*
X148485862Y-66449682D01*
X148484595Y-66449293D01*
X148385316Y-66401719D01*
X148295180Y-66325178D01*
X148218023Y-66224150D01*
X148157685Y-66103118D01*
X148137122Y-66043585D01*
X148115677Y-65939163D01*
X148106280Y-65817033D01*
X148107295Y-65764400D01*
X148346749Y-65764400D01*
X148356210Y-65908690D01*
X148385907Y-66031173D01*
X148434285Y-66130165D01*
X148499785Y-66203983D01*
X148580853Y-66250944D01*
X148675931Y-66269364D01*
X148783464Y-66257560D01*
X148799019Y-66253512D01*
X148852763Y-66229271D01*
X148909424Y-66189812D01*
X148930252Y-66170932D01*
X148994134Y-66107050D01*
X148994134Y-65776158D01*
X148994019Y-65662491D01*
X148993300Y-65577589D01*
X148991411Y-65516348D01*
X148987788Y-65473664D01*
X148981867Y-65444436D01*
X148973084Y-65423561D01*
X148960873Y-65405935D01*
X148951997Y-65395188D01*
X148879984Y-65333749D01*
X148789090Y-65299157D01*
X148697547Y-65290266D01*
X148592231Y-65304722D01*
X148504724Y-65347461D01*
X148435724Y-65417537D01*
X148385929Y-65514008D01*
X148356040Y-65635929D01*
X148346749Y-65764400D01*
X148107295Y-65764400D01*
X148108734Y-65689859D01*
X148122842Y-65570306D01*
X148145942Y-65477937D01*
X148206079Y-65341160D01*
X148281740Y-65234247D01*
X148373756Y-65156549D01*
X148482954Y-65107420D01*
X148610165Y-65086209D01*
X148648373Y-65085185D01*
X148768385Y-65095962D01*
X148872022Y-65130517D01*
X148956034Y-65181704D01*
X148994134Y-65209730D01*
X148994134Y-64545200D01*
X149248416Y-64545200D01*
X149244041Y-65497700D01*
G36*
X153393878Y-65096903D02*
G01*
X153520576Y-65133523D01*
X153624067Y-65194290D01*
X153703922Y-65278985D01*
X153738550Y-65337577D01*
X153750251Y-65362905D01*
X153759526Y-65388837D01*
X153766781Y-65419783D01*
X153772425Y-65460154D01*
X153776865Y-65514360D01*
X153780510Y-65586812D01*
X153783766Y-65681920D01*
X153787041Y-65804095D01*
X153788963Y-65882933D01*
X153792346Y-66008118D01*
X153796219Y-66124703D01*
X153800358Y-66227646D01*
X153804539Y-66311909D01*
X153808536Y-66372451D01*
X153812127Y-66404232D01*
X153812166Y-66404416D01*
X153824208Y-66460232D01*
X153699404Y-66455216D01*
X153574601Y-66450200D01*
X153559115Y-66380471D01*
X153543630Y-66310742D01*
X153469499Y-66367327D01*
X153362587Y-66428710D01*
X153240717Y-66464617D01*
X153112869Y-66473532D01*
X152988021Y-66453939D01*
X152976684Y-66450553D01*
X152864261Y-66400192D01*
X152777414Y-66328592D01*
X152717698Y-66238218D01*
X152686672Y-66131536D01*
X152685894Y-66011010D01*
X152686609Y-66005643D01*
X152925818Y-66005643D01*
X152926656Y-66080999D01*
X152947575Y-66151097D01*
X152986312Y-66205788D01*
X153011742Y-66224233D01*
X153101337Y-66254863D01*
X153203863Y-66260068D01*
X153310245Y-66240163D01*
X153382430Y-66211316D01*
X153449627Y-66172669D01*
X153493632Y-66131564D01*
X153519001Y-66079745D01*
X153530294Y-66008958D01*
X153532267Y-65939916D01*
X153532267Y-65798266D01*
X153399112Y-65798266D01*
X153255912Y-65804886D01*
X153136007Y-65824251D01*
X153041837Y-65855624D01*
X152975842Y-65898263D01*
X152947321Y-65935175D01*
X152925818Y-66005643D01*
X152686609Y-66005643D01*
X152688162Y-65994009D01*
X152719645Y-65888774D01*
X152779830Y-65801112D01*
X152868344Y-65731223D01*
X152984817Y-65679310D01*
X153128876Y-65645576D01*
X153300151Y-65630223D01*
X153358701Y-65629227D01*
X153532267Y-65628933D01*
X153532204Y-65540033D01*
X153519456Y-65444844D01*
X153481016Y-65371226D01*
X153416364Y-65318657D01*
X153324980Y-65286619D01*
X153270332Y-65278262D01*
X153176601Y-65279902D01*
X153090530Y-65302208D01*
X153018841Y-65341742D01*
X152968256Y-65395068D01*
X152947967Y-65443124D01*
X152940348Y-65470411D01*
X152926984Y-65485472D01*
X152899307Y-65491938D01*
X152848747Y-65493440D01*
X152829188Y-65493466D01*
X152771798Y-65491049D01*
X152728962Y-65484745D01*
X152711242Y-65476924D01*
X152706098Y-65439713D01*
X152720918Y-65386580D01*
X152751949Y-65325778D01*
X152795438Y-65265560D01*
X152819025Y-65239896D01*
X152909735Y-65166120D01*
X153012014Y-65117160D01*
X153131801Y-65090848D01*
X153244401Y-65084647D01*
X153393878Y-65096903D01*
G37*
X153393878Y-65096903D02*
X153520576Y-65133523D01*
X153624067Y-65194290D01*
X153703922Y-65278985D01*
X153738550Y-65337577D01*
X153750251Y-65362905D01*
X153759526Y-65388837D01*
X153766781Y-65419783D01*
X153772425Y-65460154D01*
X153776865Y-65514360D01*
X153780510Y-65586812D01*
X153783766Y-65681920D01*
X153787041Y-65804095D01*
X153788963Y-65882933D01*
X153792346Y-66008118D01*
X153796219Y-66124703D01*
X153800358Y-66227646D01*
X153804539Y-66311909D01*
X153808536Y-66372451D01*
X153812127Y-66404232D01*
X153812166Y-66404416D01*
X153824208Y-66460232D01*
X153699404Y-66455216D01*
X153574601Y-66450200D01*
X153559115Y-66380471D01*
X153543630Y-66310742D01*
X153469499Y-66367327D01*
X153362587Y-66428710D01*
X153240717Y-66464617D01*
X153112869Y-66473532D01*
X152988021Y-66453939D01*
X152976684Y-66450553D01*
X152864261Y-66400192D01*
X152777414Y-66328592D01*
X152717698Y-66238218D01*
X152686672Y-66131536D01*
X152685894Y-66011010D01*
X152686609Y-66005643D01*
X152925818Y-66005643D01*
X152926656Y-66080999D01*
X152947575Y-66151097D01*
X152986312Y-66205788D01*
X153011742Y-66224233D01*
X153101337Y-66254863D01*
X153203863Y-66260068D01*
X153310245Y-66240163D01*
X153382430Y-66211316D01*
X153449627Y-66172669D01*
X153493632Y-66131564D01*
X153519001Y-66079745D01*
X153530294Y-66008958D01*
X153532267Y-65939916D01*
X153532267Y-65798266D01*
X153399112Y-65798266D01*
X153255912Y-65804886D01*
X153136007Y-65824251D01*
X153041837Y-65855624D01*
X152975842Y-65898263D01*
X152947321Y-65935175D01*
X152925818Y-66005643D01*
X152686609Y-66005643D01*
X152688162Y-65994009D01*
X152719645Y-65888774D01*
X152779830Y-65801112D01*
X152868344Y-65731223D01*
X152984817Y-65679310D01*
X153128876Y-65645576D01*
X153300151Y-65630223D01*
X153358701Y-65629227D01*
X153532267Y-65628933D01*
X153532204Y-65540033D01*
X153519456Y-65444844D01*
X153481016Y-65371226D01*
X153416364Y-65318657D01*
X153324980Y-65286619D01*
X153270332Y-65278262D01*
X153176601Y-65279902D01*
X153090530Y-65302208D01*
X153018841Y-65341742D01*
X152968256Y-65395068D01*
X152947967Y-65443124D01*
X152940348Y-65470411D01*
X152926984Y-65485472D01*
X152899307Y-65491938D01*
X152848747Y-65493440D01*
X152829188Y-65493466D01*
X152771798Y-65491049D01*
X152728962Y-65484745D01*
X152711242Y-65476924D01*
X152706098Y-65439713D01*
X152720918Y-65386580D01*
X152751949Y-65325778D01*
X152795438Y-65265560D01*
X152819025Y-65239896D01*
X152909735Y-65166120D01*
X153012014Y-65117160D01*
X153131801Y-65090848D01*
X153244401Y-65084647D01*
X153393878Y-65096903D01*
G36*
X154463601Y-65228436D02*
G01*
X154501911Y-65192445D01*
X154577187Y-65141693D01*
X154673898Y-65105788D01*
X154782226Y-65086541D01*
X154892350Y-65085761D01*
X154987149Y-65103012D01*
X155092548Y-65151483D01*
X155182815Y-65228313D01*
X155256253Y-65330772D01*
X155311167Y-65456130D01*
X155345859Y-65601657D01*
X155356213Y-65696768D01*
X155355536Y-65865062D01*
X155331990Y-66017380D01*
X155287430Y-66151592D01*
X155223710Y-66265568D01*
X155142683Y-66357178D01*
X155046203Y-66424291D01*
X154936125Y-66464777D01*
X154814302Y-66476506D01*
X154692201Y-66459766D01*
X154588389Y-66418934D01*
X154498687Y-66353580D01*
X154493918Y-66348899D01*
X154448739Y-66303720D01*
X154438201Y-66450200D01*
X154218067Y-66450200D01*
X154213524Y-65460778D01*
X154463601Y-65460778D01*
X154463712Y-65769222D01*
X154464262Y-65888149D01*
X154466650Y-65978536D01*
X154472133Y-66045707D01*
X154481967Y-66094984D01*
X154497407Y-66131689D01*
X154519709Y-66161144D01*
X154550130Y-66188673D01*
X154565570Y-66200895D01*
X154650754Y-66246825D01*
X154747830Y-66266439D01*
X154846935Y-66259372D01*
X154938199Y-66225259D01*
X154954454Y-66215284D01*
X155018299Y-66153845D01*
X155068021Y-66066118D01*
X155102005Y-65957289D01*
X155118631Y-65832542D01*
X155116282Y-65697065D01*
X155116247Y-65696666D01*
X155093418Y-65559778D01*
X155051853Y-65451046D01*
X154991442Y-65370344D01*
X154912078Y-65317546D01*
X154813652Y-65292525D01*
X154768401Y-65290266D01*
X154668915Y-65301225D01*
X154587973Y-65336475D01*
X154518369Y-65398400D01*
X154463601Y-65460778D01*
X154213524Y-65460778D01*
X154209319Y-64545200D01*
X154463601Y-64545200D01*
X154463601Y-65228436D01*
G37*
X154463601Y-65228436D02*
X154501911Y-65192445D01*
X154577187Y-65141693D01*
X154673898Y-65105788D01*
X154782226Y-65086541D01*
X154892350Y-65085761D01*
X154987149Y-65103012D01*
X155092548Y-65151483D01*
X155182815Y-65228313D01*
X155256253Y-65330772D01*
X155311167Y-65456130D01*
X155345859Y-65601657D01*
X155356213Y-65696768D01*
X155355536Y-65865062D01*
X155331990Y-66017380D01*
X155287430Y-66151592D01*
X155223710Y-66265568D01*
X155142683Y-66357178D01*
X155046203Y-66424291D01*
X154936125Y-66464777D01*
X154814302Y-66476506D01*
X154692201Y-66459766D01*
X154588389Y-66418934D01*
X154498687Y-66353580D01*
X154493918Y-66348899D01*
X154448739Y-66303720D01*
X154438201Y-66450200D01*
X154218067Y-66450200D01*
X154213524Y-65460778D01*
X154463601Y-65460778D01*
X154463712Y-65769222D01*
X154464262Y-65888149D01*
X154466650Y-65978536D01*
X154472133Y-66045707D01*
X154481967Y-66094984D01*
X154497407Y-66131689D01*
X154519709Y-66161144D01*
X154550130Y-66188673D01*
X154565570Y-66200895D01*
X154650754Y-66246825D01*
X154747830Y-66266439D01*
X154846935Y-66259372D01*
X154938199Y-66225259D01*
X154954454Y-66215284D01*
X155018299Y-66153845D01*
X155068021Y-66066118D01*
X155102005Y-65957289D01*
X155118631Y-65832542D01*
X155116282Y-65697065D01*
X155116247Y-65696666D01*
X155093418Y-65559778D01*
X155051853Y-65451046D01*
X154991442Y-65370344D01*
X154912078Y-65317546D01*
X154813652Y-65292525D01*
X154768401Y-65290266D01*
X154668915Y-65301225D01*
X154587973Y-65336475D01*
X154518369Y-65398400D01*
X154463601Y-65460778D01*
X154213524Y-65460778D01*
X154209319Y-64545200D01*
X154463601Y-64545200D01*
X154463601Y-65228436D01*
G36*
X156455666Y-65096962D02*
G01*
X156581968Y-65133054D01*
X156686357Y-65191644D01*
X156766952Y-65271451D01*
X156821870Y-65371196D01*
X156843205Y-65447687D01*
X156854970Y-65510400D01*
X156621724Y-65510400D01*
X156588296Y-65438433D01*
X156535731Y-65363072D01*
X156461329Y-65309977D01*
X156370494Y-65281295D01*
X156268634Y-65279173D01*
X156212948Y-65289319D01*
X156120947Y-65322782D01*
X156060056Y-65369118D01*
X156029960Y-65428573D01*
X156028961Y-65433428D01*
X156024400Y-65489817D01*
X156036399Y-65535722D01*
X156068309Y-65573751D01*
X156123479Y-65606510D01*
X156205259Y-65636606D01*
X156316998Y-65666645D01*
X156333829Y-65670665D01*
X156484198Y-65711138D01*
X156603931Y-65754706D01*
X156696215Y-65802794D01*
X156764240Y-65856826D01*
X156774289Y-65867442D01*
X156831799Y-65953320D01*
X156858507Y-66045453D01*
X156855622Y-66139031D01*
X156824351Y-66229247D01*
X156765901Y-66311294D01*
X156681481Y-66380364D01*
X156639534Y-66403869D01*
X156530767Y-66443830D01*
X156404606Y-66467566D01*
X156274099Y-66473696D01*
X156152292Y-66460839D01*
X156135698Y-66457215D01*
X156026153Y-66418599D01*
X155925599Y-66359176D01*
X155841118Y-66284623D01*
X155779797Y-66200615D01*
X155759726Y-66155971D01*
X155739964Y-66095936D01*
X155736146Y-66060091D01*
X155752982Y-66042199D01*
X155795180Y-66036025D01*
X155850821Y-66035333D01*
X155968041Y-66035333D01*
X155986779Y-66092109D01*
X156028678Y-66167780D01*
X156096973Y-66223553D01*
X156190044Y-66258556D01*
X156306268Y-66271919D01*
X156321490Y-66272028D01*
X156415788Y-66264110D01*
X156498082Y-66242740D01*
X156561068Y-66210546D01*
X156595834Y-66173352D01*
X156608554Y-66132698D01*
X156614124Y-66081457D01*
X156614134Y-66079439D01*
X156605916Y-66028730D01*
X156579034Y-65986016D01*
X156530143Y-65949138D01*
X156455899Y-65915940D01*
X156352957Y-65884263D01*
X156285377Y-65867295D01*
X156127778Y-65823316D01*
X156002041Y-65773200D01*
X155906509Y-65715647D01*
X155839524Y-65649356D01*
X155799429Y-65573026D01*
X155784567Y-65485355D01*
X155784401Y-65474087D01*
X155800129Y-65372169D01*
X155845264Y-65282114D01*
X155916728Y-65206205D01*
X156011442Y-65146725D01*
X156126331Y-65105958D01*
X156258316Y-65086186D01*
X156309334Y-65084647D01*
X156455666Y-65096962D01*
G37*
X156455666Y-65096962D02*
X156581968Y-65133054D01*
X156686357Y-65191644D01*
X156766952Y-65271451D01*
X156821870Y-65371196D01*
X156843205Y-65447687D01*
X156854970Y-65510400D01*
X156621724Y-65510400D01*
X156588296Y-65438433D01*
X156535731Y-65363072D01*
X156461329Y-65309977D01*
X156370494Y-65281295D01*
X156268634Y-65279173D01*
X156212948Y-65289319D01*
X156120947Y-65322782D01*
X156060056Y-65369118D01*
X156029960Y-65428573D01*
X156028961Y-65433428D01*
X156024400Y-65489817D01*
X156036399Y-65535722D01*
X156068309Y-65573751D01*
X156123479Y-65606510D01*
X156205259Y-65636606D01*
X156316998Y-65666645D01*
X156333829Y-65670665D01*
X156484198Y-65711138D01*
X156603931Y-65754706D01*
X156696215Y-65802794D01*
X156764240Y-65856826D01*
X156774289Y-65867442D01*
X156831799Y-65953320D01*
X156858507Y-66045453D01*
X156855622Y-66139031D01*
X156824351Y-66229247D01*
X156765901Y-66311294D01*
X156681481Y-66380364D01*
X156639534Y-66403869D01*
X156530767Y-66443830D01*
X156404606Y-66467566D01*
X156274099Y-66473696D01*
X156152292Y-66460839D01*
X156135698Y-66457215D01*
X156026153Y-66418599D01*
X155925599Y-66359176D01*
X155841118Y-66284623D01*
X155779797Y-66200615D01*
X155759726Y-66155971D01*
X155739964Y-66095936D01*
X155736146Y-66060091D01*
X155752982Y-66042199D01*
X155795180Y-66036025D01*
X155850821Y-66035333D01*
X155968041Y-66035333D01*
X155986779Y-66092109D01*
X156028678Y-66167780D01*
X156096973Y-66223553D01*
X156190044Y-66258556D01*
X156306268Y-66271919D01*
X156321490Y-66272028D01*
X156415788Y-66264110D01*
X156498082Y-66242740D01*
X156561068Y-66210546D01*
X156595834Y-66173352D01*
X156608554Y-66132698D01*
X156614124Y-66081457D01*
X156614134Y-66079439D01*
X156605916Y-66028730D01*
X156579034Y-65986016D01*
X156530143Y-65949138D01*
X156455899Y-65915940D01*
X156352957Y-65884263D01*
X156285377Y-65867295D01*
X156127778Y-65823316D01*
X156002041Y-65773200D01*
X155906509Y-65715647D01*
X155839524Y-65649356D01*
X155799429Y-65573026D01*
X155784567Y-65485355D01*
X155784401Y-65474087D01*
X155800129Y-65372169D01*
X155845264Y-65282114D01*
X155916728Y-65206205D01*
X156011442Y-65146725D01*
X156126331Y-65105958D01*
X156258316Y-65086186D01*
X156309334Y-65084647D01*
X156455666Y-65096962D01*
G36*
X137881634Y-64651106D02*
G01*
X138011911Y-64654406D01*
X138124657Y-64659141D01*
X138215632Y-64665044D01*
X138280593Y-64671848D01*
X138312203Y-64678146D01*
X138407530Y-64722462D01*
X138497505Y-64787690D01*
X138569922Y-64864411D01*
X138588107Y-64891005D01*
X138614339Y-64937212D01*
X138629757Y-64978040D01*
X138637158Y-65025570D01*
X138639342Y-65091881D01*
X138639401Y-65112375D01*
X138638090Y-65184945D01*
X138632449Y-65235016D01*
X138619919Y-65273907D01*
X138597937Y-65312940D01*
X138591951Y-65322108D01*
X138548048Y-65376132D01*
X138492617Y-65428823D01*
X138469554Y-65446636D01*
X138394607Y-65499464D01*
X138477840Y-65547000D01*
X138571707Y-65617814D01*
X138639329Y-65704731D01*
X138681184Y-65803054D01*
X138697754Y-65908086D01*
X138689516Y-66015129D01*
X138656952Y-66119485D01*
X138600541Y-66216457D01*
X138520763Y-66301346D01*
X138418097Y-66369457D01*
X138392591Y-66381676D01*
X138315796Y-66410100D01*
X138229201Y-66433417D01*
X138175836Y-66443085D01*
X138121014Y-66448149D01*
X138046916Y-66452204D01*
X137959958Y-66455208D01*
X137866555Y-66457118D01*
X137773121Y-66457893D01*
X137686073Y-66457490D01*
X137611824Y-66455866D01*
X137556791Y-66452980D01*
X137527388Y-66448789D01*
X137524623Y-66447377D01*
X137522470Y-66428765D01*
X137520451Y-66379456D01*
X137518607Y-66302619D01*
X137517575Y-66238533D01*
X137750401Y-66238533D01*
X137974767Y-66238161D01*
X138074652Y-66237055D01*
X138147828Y-66233610D01*
X138201416Y-66227060D01*
X138242536Y-66216642D01*
X138267568Y-66206704D01*
X138351943Y-66152347D01*
X138411199Y-66081254D01*
X138445324Y-65999299D01*
X138454308Y-65912357D01*
X138438139Y-65826303D01*
X138396807Y-65747011D01*
X138330300Y-65680357D01*
X138268616Y-65644298D01*
X138231899Y-65630581D01*
X138188295Y-65621312D01*
X138130610Y-65615709D01*
X138051647Y-65612988D01*
X137974767Y-65612371D01*
X137750401Y-65612000D01*
X137750401Y-66238533D01*
X137517575Y-66238533D01*
X137516976Y-66201424D01*
X137515597Y-66079040D01*
X137514512Y-65938637D01*
X137513757Y-65783383D01*
X137513375Y-65616450D01*
X137513334Y-65540260D01*
X137513334Y-65412201D01*
X137750401Y-65412201D01*
X137966301Y-65405712D01*
X138061606Y-65401998D01*
X138130644Y-65396754D01*
X138181010Y-65388823D01*
X138220301Y-65377046D01*
X138252741Y-65362062D01*
X138331534Y-65306715D01*
X138380221Y-65237872D01*
X138401129Y-65151779D01*
X138402334Y-65120933D01*
X138396775Y-65049104D01*
X138377662Y-64995523D01*
X138364567Y-64974854D01*
X138328073Y-64932112D01*
X138284641Y-64900666D01*
X138228510Y-64878715D01*
X138153921Y-64864457D01*
X138055112Y-64856090D01*
X137974767Y-64852947D01*
X137750401Y-64846677D01*
X137750401Y-65412201D01*
X137513334Y-65412201D01*
X137513334Y-64644432D01*
X137881634Y-64651106D01*
G37*
X137881634Y-64651106D02*
X138011911Y-64654406D01*
X138124657Y-64659141D01*
X138215632Y-64665044D01*
X138280593Y-64671848D01*
X138312203Y-64678146D01*
X138407530Y-64722462D01*
X138497505Y-64787690D01*
X138569922Y-64864411D01*
X138588107Y-64891005D01*
X138614339Y-64937212D01*
X138629757Y-64978040D01*
X138637158Y-65025570D01*
X138639342Y-65091881D01*
X138639401Y-65112375D01*
X138638090Y-65184945D01*
X138632449Y-65235016D01*
X138619919Y-65273907D01*
X138597937Y-65312940D01*
X138591951Y-65322108D01*
X138548048Y-65376132D01*
X138492617Y-65428823D01*
X138469554Y-65446636D01*
X138394607Y-65499464D01*
X138477840Y-65547000D01*
X138571707Y-65617814D01*
X138639329Y-65704731D01*
X138681184Y-65803054D01*
X138697754Y-65908086D01*
X138689516Y-66015129D01*
X138656952Y-66119485D01*
X138600541Y-66216457D01*
X138520763Y-66301346D01*
X138418097Y-66369457D01*
X138392591Y-66381676D01*
X138315796Y-66410100D01*
X138229201Y-66433417D01*
X138175836Y-66443085D01*
X138121014Y-66448149D01*
X138046916Y-66452204D01*
X137959958Y-66455208D01*
X137866555Y-66457118D01*
X137773121Y-66457893D01*
X137686073Y-66457490D01*
X137611824Y-66455866D01*
X137556791Y-66452980D01*
X137527388Y-66448789D01*
X137524623Y-66447377D01*
X137522470Y-66428765D01*
X137520451Y-66379456D01*
X137518607Y-66302619D01*
X137517575Y-66238533D01*
X137750401Y-66238533D01*
X137974767Y-66238161D01*
X138074652Y-66237055D01*
X138147828Y-66233610D01*
X138201416Y-66227060D01*
X138242536Y-66216642D01*
X138267568Y-66206704D01*
X138351943Y-66152347D01*
X138411199Y-66081254D01*
X138445324Y-65999299D01*
X138454308Y-65912357D01*
X138438139Y-65826303D01*
X138396807Y-65747011D01*
X138330300Y-65680357D01*
X138268616Y-65644298D01*
X138231899Y-65630581D01*
X138188295Y-65621312D01*
X138130610Y-65615709D01*
X138051647Y-65612988D01*
X137974767Y-65612371D01*
X137750401Y-65612000D01*
X137750401Y-66238533D01*
X137517575Y-66238533D01*
X137516976Y-66201424D01*
X137515597Y-66079040D01*
X137514512Y-65938637D01*
X137513757Y-65783383D01*
X137513375Y-65616450D01*
X137513334Y-65540260D01*
X137513334Y-65412201D01*
X137750401Y-65412201D01*
X137966301Y-65405712D01*
X138061606Y-65401998D01*
X138130644Y-65396754D01*
X138181010Y-65388823D01*
X138220301Y-65377046D01*
X138252741Y-65362062D01*
X138331534Y-65306715D01*
X138380221Y-65237872D01*
X138401129Y-65151779D01*
X138402334Y-65120933D01*
X138396775Y-65049104D01*
X138377662Y-64995523D01*
X138364567Y-64974854D01*
X138328073Y-64932112D01*
X138284641Y-64900666D01*
X138228510Y-64878715D01*
X138153921Y-64864457D01*
X138055112Y-64856090D01*
X137974767Y-64852947D01*
X137750401Y-64846677D01*
X137750401Y-65412201D01*
X137513334Y-65412201D01*
X137513334Y-64644432D01*
X137881634Y-64651106D01*
G36*
X143032447Y-64499382D02*
G01*
X143110833Y-64506714D01*
X143172743Y-64516504D01*
X143177534Y-64517586D01*
X143227106Y-64530492D01*
X143251560Y-64543924D01*
X143258847Y-64565718D01*
X143257502Y-64596394D01*
X143250231Y-64665858D01*
X143240374Y-64706872D01*
X143225402Y-64724854D01*
X143202783Y-64725221D01*
X143197933Y-64723903D01*
X143163635Y-64717433D01*
X143106668Y-64710372D01*
X143038171Y-64704061D01*
X143024060Y-64703006D01*
X142903348Y-64704044D01*
X142808200Y-64726914D01*
X142737589Y-64772478D01*
X142690487Y-64841595D01*
X142665867Y-64935125D01*
X142661439Y-65006633D01*
X142661067Y-65104000D01*
X143169067Y-65104000D01*
X143169067Y-65290266D01*
X142661512Y-65290266D01*
X142657056Y-65870233D01*
X142652601Y-66450200D01*
X142541816Y-66455126D01*
X142483298Y-66455946D01*
X142438878Y-66453263D01*
X142419050Y-66448071D01*
X142416210Y-66428873D01*
X142413611Y-66379816D01*
X142411334Y-66304907D01*
X142409461Y-66208152D01*
X142408075Y-66093558D01*
X142407258Y-65965132D01*
X142407067Y-65863177D01*
X142407067Y-65290266D01*
X142051467Y-65290266D01*
X142051467Y-65104000D01*
X142403630Y-65104000D01*
X142414890Y-64981233D01*
X142441083Y-64838565D01*
X142490974Y-64720042D01*
X142564069Y-64626110D01*
X142659870Y-64557215D01*
X142777885Y-64513804D01*
X142917616Y-64496324D01*
X142953349Y-64496025D01*
X143032447Y-64499382D01*
G37*
X143032447Y-64499382D02*
X143110833Y-64506714D01*
X143172743Y-64516504D01*
X143177534Y-64517586D01*
X143227106Y-64530492D01*
X143251560Y-64543924D01*
X143258847Y-64565718D01*
X143257502Y-64596394D01*
X143250231Y-64665858D01*
X143240374Y-64706872D01*
X143225402Y-64724854D01*
X143202783Y-64725221D01*
X143197933Y-64723903D01*
X143163635Y-64717433D01*
X143106668Y-64710372D01*
X143038171Y-64704061D01*
X143024060Y-64703006D01*
X142903348Y-64704044D01*
X142808200Y-64726914D01*
X142737589Y-64772478D01*
X142690487Y-64841595D01*
X142665867Y-64935125D01*
X142661439Y-65006633D01*
X142661067Y-65104000D01*
X143169067Y-65104000D01*
X143169067Y-65290266D01*
X142661512Y-65290266D01*
X142657056Y-65870233D01*
X142652601Y-66450200D01*
X142541816Y-66455126D01*
X142483298Y-66455946D01*
X142438878Y-66453263D01*
X142419050Y-66448071D01*
X142416210Y-66428873D01*
X142413611Y-66379816D01*
X142411334Y-66304907D01*
X142409461Y-66208152D01*
X142408075Y-66093558D01*
X142407258Y-65965132D01*
X142407067Y-65863177D01*
X142407067Y-65290266D01*
X142051467Y-65290266D01*
X142051467Y-65104000D01*
X142403630Y-65104000D01*
X142414890Y-64981233D01*
X142441083Y-64838565D01*
X142490974Y-64720042D01*
X142564069Y-64626110D01*
X142659870Y-64557215D01*
X142777885Y-64513804D01*
X142917616Y-64496324D01*
X142953349Y-64496025D01*
X143032447Y-64499382D01*
G36*
X144320534Y-66238533D02*
G01*
X144762417Y-66238533D01*
X144757375Y-66344366D01*
X144752334Y-66450200D01*
X144200817Y-66454660D01*
X144067373Y-66455396D01*
X143944862Y-66455410D01*
X143837367Y-66454756D01*
X143748972Y-66453484D01*
X143683760Y-66451644D01*
X143645814Y-66449289D01*
X143637784Y-66447605D01*
X143631564Y-66425634D01*
X143627382Y-66380704D01*
X143626267Y-66337311D01*
X143626267Y-66238533D01*
X144083467Y-66238533D01*
X144083467Y-65307200D01*
X143626267Y-65307200D01*
X143626267Y-65104000D01*
X144320534Y-65104000D01*
X144320534Y-66238533D01*
G37*
X144320534Y-66238533D02*
X144762417Y-66238533D01*
X144757375Y-66344366D01*
X144752334Y-66450200D01*
X144200817Y-66454660D01*
X144067373Y-66455396D01*
X143944862Y-66455410D01*
X143837367Y-66454756D01*
X143748972Y-66453484D01*
X143683760Y-66451644D01*
X143645814Y-66449289D01*
X143637784Y-66447605D01*
X143631564Y-66425634D01*
X143627382Y-66380704D01*
X143626267Y-66337311D01*
X143626267Y-66238533D01*
X144083467Y-66238533D01*
X144083467Y-65307200D01*
X143626267Y-65307200D01*
X143626267Y-65104000D01*
X144320534Y-65104000D01*
X144320534Y-66238533D01*
G36*
X147351600Y-66238533D02*
G01*
X147793483Y-66238533D01*
X147788442Y-66344366D01*
X147783400Y-66450200D01*
X147228391Y-66454665D01*
X147072964Y-66455709D01*
X146948200Y-66456003D01*
X146850903Y-66455440D01*
X146777875Y-66453912D01*
X146725918Y-66451310D01*
X146691837Y-66447525D01*
X146672434Y-66442451D01*
X146664511Y-66435978D01*
X146664345Y-66435580D01*
X146660020Y-66405512D01*
X146659377Y-66356194D01*
X146660554Y-66329515D01*
X146665800Y-66247000D01*
X147114534Y-66237550D01*
X147114534Y-64748400D01*
X146657334Y-64748400D01*
X146657334Y-64545200D01*
X147351600Y-64545200D01*
X147351600Y-66238533D01*
G37*
X147351600Y-66238533D02*
X147793483Y-66238533D01*
X147788442Y-66344366D01*
X147783400Y-66450200D01*
X147228391Y-66454665D01*
X147072964Y-66455709D01*
X146948200Y-66456003D01*
X146850903Y-66455440D01*
X146777875Y-66453912D01*
X146725918Y-66451310D01*
X146691837Y-66447525D01*
X146672434Y-66442451D01*
X146664511Y-66435978D01*
X146664345Y-66435580D01*
X146660020Y-66405512D01*
X146659377Y-66356194D01*
X146660554Y-66329515D01*
X146665800Y-66247000D01*
X147114534Y-66237550D01*
X147114534Y-64748400D01*
X146657334Y-64748400D01*
X146657334Y-64545200D01*
X147351600Y-64545200D01*
X147351600Y-66238533D01*
G36*
X151449467Y-66238533D02*
G01*
X152331617Y-66238533D01*
X152326575Y-66344366D01*
X152321534Y-66450200D01*
X151778487Y-66454663D01*
X151646098Y-66455402D01*
X151524665Y-66455409D01*
X151418305Y-66454738D01*
X151331134Y-66453439D01*
X151267270Y-66451566D01*
X151230828Y-66449171D01*
X151223920Y-66447608D01*
X151221721Y-66428950D01*
X151219660Y-66379597D01*
X151217777Y-66302724D01*
X151216112Y-66201502D01*
X151214706Y-66079105D01*
X151213598Y-65938704D01*
X151212830Y-65783473D01*
X151212441Y-65616585D01*
X151212401Y-65541444D01*
X151212401Y-64646800D01*
X151449467Y-64646800D01*
X151449467Y-66238533D01*
G37*
X151449467Y-66238533D02*
X152331617Y-66238533D01*
X152326575Y-66344366D01*
X152321534Y-66450200D01*
X151778487Y-66454663D01*
X151646098Y-66455402D01*
X151524665Y-66455409D01*
X151418305Y-66454738D01*
X151331134Y-66453439D01*
X151267270Y-66451566D01*
X151230828Y-66449171D01*
X151223920Y-66447608D01*
X151221721Y-66428950D01*
X151219660Y-66379597D01*
X151217777Y-66302724D01*
X151216112Y-66201502D01*
X151214706Y-66079105D01*
X151213598Y-65938704D01*
X151212830Y-65783473D01*
X151212441Y-65616585D01*
X151212401Y-65541444D01*
X151212401Y-64646800D01*
X151449467Y-64646800D01*
X151449467Y-66238533D01*
G36*
X144254177Y-64627594D02*
G01*
X144299863Y-64666179D01*
X144326658Y-64720586D01*
X144330625Y-64782715D01*
X144307831Y-64844467D01*
X144306793Y-64846076D01*
X144277026Y-64867874D01*
X144228296Y-64883629D01*
X144175450Y-64889254D01*
X144155771Y-64887640D01*
X144115102Y-64867525D01*
X144076973Y-64828284D01*
X144052845Y-64783280D01*
X144049601Y-64763846D01*
X144064321Y-64701857D01*
X144102853Y-64650584D01*
X144156751Y-64618880D01*
X144193534Y-64612933D01*
X144254177Y-64627594D01*
G37*
X144254177Y-64627594D02*
X144299863Y-64666179D01*
X144326658Y-64720586D01*
X144330625Y-64782715D01*
X144307831Y-64844467D01*
X144306793Y-64846076D01*
X144277026Y-64867874D01*
X144228296Y-64883629D01*
X144175450Y-64889254D01*
X144155771Y-64887640D01*
X144115102Y-64867525D01*
X144076973Y-64828284D01*
X144052845Y-64783280D01*
X144049601Y-64763846D01*
X144064321Y-64701857D01*
X144102853Y-64650584D01*
X144156751Y-64618880D01*
X144193534Y-64612933D01*
X144254177Y-64627594D01*
G36*
X147453185Y-52519996D02*
G01*
X147802035Y-52563129D01*
X148135012Y-52635253D01*
X148451447Y-52736172D01*
X148750666Y-52865691D01*
X149032000Y-53023613D01*
X149163467Y-53111549D01*
X149275060Y-53197831D01*
X149397126Y-53304787D01*
X149521836Y-53424596D01*
X149641359Y-53549439D01*
X149747867Y-53671495D01*
X149828337Y-53775599D01*
X149956183Y-53975834D01*
X150073390Y-54199956D01*
X150176021Y-54438656D01*
X150260140Y-54682626D01*
X150321812Y-54922556D01*
X150329523Y-54960933D01*
X150340515Y-55019899D01*
X150350336Y-55077719D01*
X150359044Y-55136515D01*
X150366695Y-55198412D01*
X150373348Y-55265533D01*
X150379059Y-55340000D01*
X150383887Y-55423938D01*
X150387888Y-55519469D01*
X150391120Y-55628717D01*
X150393640Y-55753804D01*
X150395505Y-55896855D01*
X150396774Y-56059993D01*
X150397503Y-56245340D01*
X150397749Y-56455020D01*
X150397571Y-56691157D01*
X150397025Y-56955873D01*
X150396170Y-57251292D01*
X150395655Y-57407800D01*
X150394654Y-57705784D01*
X150393709Y-57972086D01*
X150392714Y-58208890D01*
X150391566Y-58418379D01*
X150390159Y-58602739D01*
X150388389Y-58764153D01*
X150386150Y-58904805D01*
X150383339Y-59026878D01*
X150379849Y-59132558D01*
X150375577Y-59224029D01*
X150370418Y-59303473D01*
X150364267Y-59373076D01*
X150357019Y-59435021D01*
X150348570Y-59491493D01*
X150338814Y-59544675D01*
X150327647Y-59596752D01*
X150314964Y-59649907D01*
X150300661Y-59706325D01*
X150284632Y-59768190D01*
X150281926Y-59778637D01*
X150186399Y-60082502D01*
X150062074Y-60369682D01*
X149910391Y-60638744D01*
X149732791Y-60888253D01*
X149530713Y-61116776D01*
X149305597Y-61322880D01*
X149058883Y-61505131D01*
X148792013Y-61662095D01*
X148506425Y-61792339D01*
X148203560Y-61894428D01*
X148139000Y-61911871D01*
X147977752Y-61950807D01*
X147826867Y-61980580D01*
X147677217Y-62002317D01*
X147519673Y-62017148D01*
X147345107Y-62026200D01*
X147182267Y-62030110D01*
X147067671Y-62031437D01*
X146960620Y-62032014D01*
X146867093Y-62031860D01*
X146793066Y-62030997D01*
X146744519Y-62029442D01*
X146733534Y-62028627D01*
X146375968Y-61977540D01*
X146040907Y-61901248D01*
X145728050Y-61799582D01*
X145437099Y-61672376D01*
X145167754Y-61519462D01*
X144919715Y-61340675D01*
X144692683Y-61135845D01*
X144486359Y-60904807D01*
X144324836Y-60684399D01*
X144177912Y-60436041D01*
X144053554Y-60165392D01*
X143953217Y-59876644D01*
X143878353Y-59573985D01*
X143851266Y-59397466D01*
X145134180Y-59397466D01*
X145144160Y-59452499D01*
X145153969Y-59493585D01*
X145171521Y-59555668D01*
X145193631Y-59627691D01*
X145202462Y-59655047D01*
X145295310Y-59886062D01*
X145415412Y-60098408D01*
X145560794Y-60290523D01*
X145729479Y-60460844D01*
X145919492Y-60607809D01*
X146128858Y-60729855D01*
X146355602Y-60825420D01*
X146597748Y-60892939D01*
X146809734Y-60926640D01*
X146900046Y-60932781D01*
X147012816Y-60935236D01*
X147136861Y-60934235D01*
X147261001Y-60930007D01*
X147374054Y-60922782D01*
X147461667Y-60913254D01*
X147719996Y-60860398D01*
X147960562Y-60779499D01*
X148182427Y-60671092D01*
X148384652Y-60535713D01*
X148566299Y-60373898D01*
X148719532Y-60195400D01*
X148829377Y-60029700D01*
X148927559Y-59842969D01*
X149008358Y-59647513D01*
X149066053Y-59455644D01*
X149068766Y-59444033D01*
X149079446Y-59397466D01*
X145134180Y-59397466D01*
X143851266Y-59397466D01*
X143830417Y-59261607D01*
X143830077Y-59258434D01*
X143827221Y-59214050D01*
X143824614Y-59138635D01*
X143822255Y-59034980D01*
X143820145Y-58905875D01*
X143818283Y-58754112D01*
X143816668Y-58582480D01*
X143815302Y-58393772D01*
X143814182Y-58190777D01*
X143813310Y-57976288D01*
X143812684Y-57753094D01*
X143812305Y-57523986D01*
X143812173Y-57291756D01*
X143812286Y-57059194D01*
X143812645Y-56829092D01*
X143813069Y-56671200D01*
X145082534Y-56671200D01*
X145082534Y-58093600D01*
X149112667Y-58093600D01*
X149112667Y-56671200D01*
X145082534Y-56671200D01*
X143813069Y-56671200D01*
X143813250Y-56604240D01*
X143814100Y-56387428D01*
X143815194Y-56181449D01*
X143816534Y-55989092D01*
X143818118Y-55813149D01*
X143819946Y-55656411D01*
X143822019Y-55521667D01*
X143824335Y-55411711D01*
X143826239Y-55350400D01*
X145100314Y-55350400D01*
X147098024Y-55350400D01*
X147405188Y-55350353D01*
X147680173Y-55350199D01*
X147924663Y-55349918D01*
X148140346Y-55349490D01*
X148328908Y-55348896D01*
X148492035Y-55348115D01*
X148631414Y-55347128D01*
X148748730Y-55345914D01*
X148845671Y-55344455D01*
X148923923Y-55342730D01*
X148985172Y-55340718D01*
X149031104Y-55338401D01*
X149063405Y-55335759D01*
X149083763Y-55332771D01*
X149093864Y-55329418D01*
X149095734Y-55326870D01*
X149091016Y-55278820D01*
X149078269Y-55207544D01*
X149059602Y-55122127D01*
X149037126Y-55031657D01*
X149012950Y-54945219D01*
X148991844Y-54879420D01*
X148893142Y-54645254D01*
X148768835Y-54432294D01*
X148620486Y-54241525D01*
X148449655Y-54073929D01*
X148257905Y-53930492D01*
X148046796Y-53812196D01*
X147817890Y-53720024D01*
X147572749Y-53654961D01*
X147312934Y-53617991D01*
X147040006Y-53610095D01*
X146980270Y-53612266D01*
X146720084Y-53636116D01*
X146482867Y-53682592D01*
X146265223Y-53753064D01*
X146063755Y-53848902D01*
X145875069Y-53971474D01*
X145695767Y-54122150D01*
X145680925Y-54136226D01*
X145529205Y-54298761D01*
X145401603Y-54474225D01*
X145296328Y-54666254D01*
X145211587Y-54878482D01*
X145145591Y-55114544D01*
X145109680Y-55295366D01*
X145100314Y-55350400D01*
X143826239Y-55350400D01*
X143826894Y-55329331D01*
X143829697Y-55277319D01*
X143830445Y-55269299D01*
X143881896Y-54938879D01*
X143962328Y-54624801D01*
X144071438Y-54327745D01*
X144208920Y-54048389D01*
X144374471Y-53787413D01*
X144567785Y-53545495D01*
X144637856Y-53469713D01*
X144869944Y-53251551D01*
X145121495Y-53060946D01*
X145392017Y-52898091D01*
X145681018Y-52763179D01*
X145988006Y-52656404D01*
X146312488Y-52577960D01*
X146653973Y-52528039D01*
X147011968Y-52506836D01*
X147089134Y-52506051D01*
X147453185Y-52519996D01*
G37*
X147453185Y-52519996D02*
X147802035Y-52563129D01*
X148135012Y-52635253D01*
X148451447Y-52736172D01*
X148750666Y-52865691D01*
X149032000Y-53023613D01*
X149163467Y-53111549D01*
X149275060Y-53197831D01*
X149397126Y-53304787D01*
X149521836Y-53424596D01*
X149641359Y-53549439D01*
X149747867Y-53671495D01*
X149828337Y-53775599D01*
X149956183Y-53975834D01*
X150073390Y-54199956D01*
X150176021Y-54438656D01*
X150260140Y-54682626D01*
X150321812Y-54922556D01*
X150329523Y-54960933D01*
X150340515Y-55019899D01*
X150350336Y-55077719D01*
X150359044Y-55136515D01*
X150366695Y-55198412D01*
X150373348Y-55265533D01*
X150379059Y-55340000D01*
X150383887Y-55423938D01*
X150387888Y-55519469D01*
X150391120Y-55628717D01*
X150393640Y-55753804D01*
X150395505Y-55896855D01*
X150396774Y-56059993D01*
X150397503Y-56245340D01*
X150397749Y-56455020D01*
X150397571Y-56691157D01*
X150397025Y-56955873D01*
X150396170Y-57251292D01*
X150395655Y-57407800D01*
X150394654Y-57705784D01*
X150393709Y-57972086D01*
X150392714Y-58208890D01*
X150391566Y-58418379D01*
X150390159Y-58602739D01*
X150388389Y-58764153D01*
X150386150Y-58904805D01*
X150383339Y-59026878D01*
X150379849Y-59132558D01*
X150375577Y-59224029D01*
X150370418Y-59303473D01*
X150364267Y-59373076D01*
X150357019Y-59435021D01*
X150348570Y-59491493D01*
X150338814Y-59544675D01*
X150327647Y-59596752D01*
X150314964Y-59649907D01*
X150300661Y-59706325D01*
X150284632Y-59768190D01*
X150281926Y-59778637D01*
X150186399Y-60082502D01*
X150062074Y-60369682D01*
X149910391Y-60638744D01*
X149732791Y-60888253D01*
X149530713Y-61116776D01*
X149305597Y-61322880D01*
X149058883Y-61505131D01*
X148792013Y-61662095D01*
X148506425Y-61792339D01*
X148203560Y-61894428D01*
X148139000Y-61911871D01*
X147977752Y-61950807D01*
X147826867Y-61980580D01*
X147677217Y-62002317D01*
X147519673Y-62017148D01*
X147345107Y-62026200D01*
X147182267Y-62030110D01*
X147067671Y-62031437D01*
X146960620Y-62032014D01*
X146867093Y-62031860D01*
X146793066Y-62030997D01*
X146744519Y-62029442D01*
X146733534Y-62028627D01*
X146375968Y-61977540D01*
X146040907Y-61901248D01*
X145728050Y-61799582D01*
X145437099Y-61672376D01*
X145167754Y-61519462D01*
X144919715Y-61340675D01*
X144692683Y-61135845D01*
X144486359Y-60904807D01*
X144324836Y-60684399D01*
X144177912Y-60436041D01*
X144053554Y-60165392D01*
X143953217Y-59876644D01*
X143878353Y-59573985D01*
X143851266Y-59397466D01*
X145134180Y-59397466D01*
X145144160Y-59452499D01*
X145153969Y-59493585D01*
X145171521Y-59555668D01*
X145193631Y-59627691D01*
X145202462Y-59655047D01*
X145295310Y-59886062D01*
X145415412Y-60098408D01*
X145560794Y-60290523D01*
X145729479Y-60460844D01*
X145919492Y-60607809D01*
X146128858Y-60729855D01*
X146355602Y-60825420D01*
X146597748Y-60892939D01*
X146809734Y-60926640D01*
X146900046Y-60932781D01*
X147012816Y-60935236D01*
X147136861Y-60934235D01*
X147261001Y-60930007D01*
X147374054Y-60922782D01*
X147461667Y-60913254D01*
X147719996Y-60860398D01*
X147960562Y-60779499D01*
X148182427Y-60671092D01*
X148384652Y-60535713D01*
X148566299Y-60373898D01*
X148719532Y-60195400D01*
X148829377Y-60029700D01*
X148927559Y-59842969D01*
X149008358Y-59647513D01*
X149066053Y-59455644D01*
X149068766Y-59444033D01*
X149079446Y-59397466D01*
X145134180Y-59397466D01*
X143851266Y-59397466D01*
X143830417Y-59261607D01*
X143830077Y-59258434D01*
X143827221Y-59214050D01*
X143824614Y-59138635D01*
X143822255Y-59034980D01*
X143820145Y-58905875D01*
X143818283Y-58754112D01*
X143816668Y-58582480D01*
X143815302Y-58393772D01*
X143814182Y-58190777D01*
X143813310Y-57976288D01*
X143812684Y-57753094D01*
X143812305Y-57523986D01*
X143812173Y-57291756D01*
X143812286Y-57059194D01*
X143812645Y-56829092D01*
X143813069Y-56671200D01*
X145082534Y-56671200D01*
X145082534Y-58093600D01*
X149112667Y-58093600D01*
X149112667Y-56671200D01*
X145082534Y-56671200D01*
X143813069Y-56671200D01*
X143813250Y-56604240D01*
X143814100Y-56387428D01*
X143815194Y-56181449D01*
X143816534Y-55989092D01*
X143818118Y-55813149D01*
X143819946Y-55656411D01*
X143822019Y-55521667D01*
X143824335Y-55411711D01*
X143826239Y-55350400D01*
X145100314Y-55350400D01*
X147098024Y-55350400D01*
X147405188Y-55350353D01*
X147680173Y-55350199D01*
X147924663Y-55349918D01*
X148140346Y-55349490D01*
X148328908Y-55348896D01*
X148492035Y-55348115D01*
X148631414Y-55347128D01*
X148748730Y-55345914D01*
X148845671Y-55344455D01*
X148923923Y-55342730D01*
X148985172Y-55340718D01*
X149031104Y-55338401D01*
X149063405Y-55335759D01*
X149083763Y-55332771D01*
X149093864Y-55329418D01*
X149095734Y-55326870D01*
X149091016Y-55278820D01*
X149078269Y-55207544D01*
X149059602Y-55122127D01*
X149037126Y-55031657D01*
X149012950Y-54945219D01*
X148991844Y-54879420D01*
X148893142Y-54645254D01*
X148768835Y-54432294D01*
X148620486Y-54241525D01*
X148449655Y-54073929D01*
X148257905Y-53930492D01*
X148046796Y-53812196D01*
X147817890Y-53720024D01*
X147572749Y-53654961D01*
X147312934Y-53617991D01*
X147040006Y-53610095D01*
X146980270Y-53612266D01*
X146720084Y-53636116D01*
X146482867Y-53682592D01*
X146265223Y-53753064D01*
X146063755Y-53848902D01*
X145875069Y-53971474D01*
X145695767Y-54122150D01*
X145680925Y-54136226D01*
X145529205Y-54298761D01*
X145401603Y-54474225D01*
X145296328Y-54666254D01*
X145211587Y-54878482D01*
X145145591Y-55114544D01*
X145109680Y-55295366D01*
X145100314Y-55350400D01*
X143826239Y-55350400D01*
X143826894Y-55329331D01*
X143829697Y-55277319D01*
X143830445Y-55269299D01*
X143881896Y-54938879D01*
X143962328Y-54624801D01*
X144071438Y-54327745D01*
X144208920Y-54048389D01*
X144374471Y-53787413D01*
X144567785Y-53545495D01*
X144637856Y-53469713D01*
X144869944Y-53251551D01*
X145121495Y-53060946D01*
X145392017Y-52898091D01*
X145681018Y-52763179D01*
X145988006Y-52656404D01*
X146312488Y-52577960D01*
X146653973Y-52528039D01*
X147011968Y-52506836D01*
X147089134Y-52506051D01*
X147453185Y-52519996D01*
G36*
X143028141Y-52585013D02*
G01*
X143074194Y-52588494D01*
X143105892Y-52595264D01*
X143129735Y-52606078D01*
X143146375Y-52617299D01*
X143174043Y-52639317D01*
X143195378Y-52662464D01*
X143211204Y-52691261D01*
X143222344Y-52730233D01*
X143229622Y-52783902D01*
X143233861Y-52856791D01*
X143235884Y-52953425D01*
X143236515Y-53078325D01*
X143236551Y-53112640D01*
X143235897Y-53260316D01*
X143232522Y-53377803D01*
X143224625Y-53468768D01*
X143210410Y-53536874D01*
X143188076Y-53585789D01*
X143155826Y-53619177D01*
X143111861Y-53640704D01*
X143054382Y-53654035D01*
X142981592Y-53662837D01*
X142965867Y-53664301D01*
X142752724Y-53695341D01*
X142565367Y-53747723D01*
X142402828Y-53822021D01*
X142264142Y-53918809D01*
X142148344Y-54038659D01*
X142054465Y-54182147D01*
X142037185Y-54215866D01*
X141996019Y-54306798D01*
X141960632Y-54401537D01*
X141930431Y-54503730D01*
X141904823Y-54617022D01*
X141883216Y-54745057D01*
X141865015Y-54891481D01*
X141849628Y-55059938D01*
X141836463Y-55254075D01*
X141824925Y-55477536D01*
X141822300Y-55536666D01*
X141812598Y-55739302D01*
X141801786Y-55912637D01*
X141788953Y-56061236D01*
X141773189Y-56189666D01*
X141753585Y-56302491D01*
X141729229Y-56404276D01*
X141699213Y-56499588D01*
X141662625Y-56592991D01*
X141618555Y-56689050D01*
X141575590Y-56774172D01*
X141506019Y-56887037D01*
X141416153Y-57002045D01*
X141315103Y-57108959D01*
X141211980Y-57197546D01*
X141176034Y-57223026D01*
X141126168Y-57257071D01*
X141100918Y-57278554D01*
X141096253Y-57292977D01*
X141108141Y-57305844D01*
X141112889Y-57309228D01*
X141254727Y-57414603D01*
X141369815Y-57517231D01*
X141463996Y-57623558D01*
X141543115Y-57740032D01*
X141600699Y-57847317D01*
X141646996Y-57946775D01*
X141685790Y-58041671D01*
X141717932Y-58136598D01*
X141744276Y-58236151D01*
X141765672Y-58344922D01*
X141782973Y-58467505D01*
X141797032Y-58608494D01*
X141808700Y-58772481D01*
X141818830Y-58964061D01*
X141822316Y-59041866D01*
X141835329Y-59298428D01*
X141851273Y-59524108D01*
X141870856Y-59721815D01*
X141894786Y-59894462D01*
X141923769Y-60044957D01*
X141958513Y-60176213D01*
X141999724Y-60291140D01*
X142048111Y-60392649D01*
X142104380Y-60483650D01*
X142169238Y-60567054D01*
X142201614Y-60603096D01*
X142299094Y-60694480D01*
X142405580Y-60767576D01*
X142526395Y-60824658D01*
X142666859Y-60868002D01*
X142832293Y-60899885D01*
X142923791Y-60911979D01*
X143009736Y-60922505D01*
X143069301Y-60931926D01*
X143109810Y-60942448D01*
X143138586Y-60956279D01*
X143162953Y-60975626D01*
X143175572Y-60987857D01*
X143228334Y-61040587D01*
X143233428Y-61447535D01*
X143234893Y-61575898D01*
X143235472Y-61674974D01*
X143234871Y-61749339D01*
X143232793Y-61803568D01*
X143228945Y-61842235D01*
X143223031Y-61869917D01*
X143214756Y-61891189D01*
X143203824Y-61910624D01*
X143203528Y-61911105D01*
X143170588Y-61953406D01*
X143128400Y-61984726D01*
X143072869Y-62005766D01*
X142999897Y-62017227D01*
X142905391Y-62019809D01*
X142785252Y-62014212D01*
X142661911Y-62003739D01*
X142399182Y-61964994D01*
X142143023Y-61901028D01*
X141902865Y-61814307D01*
X141852911Y-61792326D01*
X141641249Y-61677456D01*
X141446844Y-61534178D01*
X141270556Y-61363721D01*
X141113249Y-61167312D01*
X140975783Y-60946178D01*
X140859020Y-60701546D01*
X140763823Y-60434644D01*
X140691053Y-60146699D01*
X140688480Y-60134066D01*
X140666314Y-60019798D01*
X140648400Y-59915677D01*
X140634048Y-59814949D01*
X140622568Y-59710863D01*
X140613268Y-59596666D01*
X140605458Y-59465606D01*
X140598448Y-59310929D01*
X140594903Y-59219316D01*
X140585735Y-59019982D01*
X140573604Y-58850129D01*
X140557587Y-58705430D01*
X140536757Y-58581560D01*
X140510190Y-58474193D01*
X140476959Y-58379004D01*
X140436140Y-58291667D01*
X140386807Y-58207857D01*
X140374516Y-58189158D01*
X140292006Y-58081214D01*
X140196972Y-57988601D01*
X140081637Y-57904521D01*
X139980912Y-57845038D01*
X139871184Y-57779284D01*
X139790368Y-57717533D01*
X139734357Y-57656260D01*
X139706854Y-57609986D01*
X139695913Y-57568520D01*
X139687689Y-57501128D01*
X139682221Y-57415646D01*
X139679550Y-57319907D01*
X139679715Y-57221746D01*
X139682755Y-57128999D01*
X139688711Y-57049501D01*
X139697623Y-56991085D01*
X139703612Y-56971222D01*
X139742326Y-56910632D01*
X139806158Y-56846522D01*
X139887849Y-56785304D01*
X139964045Y-56741266D01*
X140108382Y-56657187D01*
X140231734Y-56560072D01*
X140335144Y-56447607D01*
X140419653Y-56317479D01*
X140486304Y-56167373D01*
X140536138Y-55994976D01*
X140570197Y-55797973D01*
X140589522Y-55574051D01*
X140595186Y-55339494D01*
X140605835Y-55043868D01*
X140636874Y-54748209D01*
X140686998Y-54459408D01*
X140754907Y-54184353D01*
X140839297Y-53929934D01*
X140881277Y-53826389D01*
X140995134Y-53601314D01*
X141134579Y-53392306D01*
X141296423Y-53202825D01*
X141477479Y-53036331D01*
X141674558Y-52896282D01*
X141805934Y-52822975D01*
X142020917Y-52731562D01*
X142257572Y-52660998D01*
X142509877Y-52612632D01*
X142771812Y-52587815D01*
X142866975Y-52584910D01*
X142961234Y-52584070D01*
X143028141Y-52585013D01*
G37*
X143028141Y-52585013D02*
X143074194Y-52588494D01*
X143105892Y-52595264D01*
X143129735Y-52606078D01*
X143146375Y-52617299D01*
X143174043Y-52639317D01*
X143195378Y-52662464D01*
X143211204Y-52691261D01*
X143222344Y-52730233D01*
X143229622Y-52783902D01*
X143233861Y-52856791D01*
X143235884Y-52953425D01*
X143236515Y-53078325D01*
X143236551Y-53112640D01*
X143235897Y-53260316D01*
X143232522Y-53377803D01*
X143224625Y-53468768D01*
X143210410Y-53536874D01*
X143188076Y-53585789D01*
X143155826Y-53619177D01*
X143111861Y-53640704D01*
X143054382Y-53654035D01*
X142981592Y-53662837D01*
X142965867Y-53664301D01*
X142752724Y-53695341D01*
X142565367Y-53747723D01*
X142402828Y-53822021D01*
X142264142Y-53918809D01*
X142148344Y-54038659D01*
X142054465Y-54182147D01*
X142037185Y-54215866D01*
X141996019Y-54306798D01*
X141960632Y-54401537D01*
X141930431Y-54503730D01*
X141904823Y-54617022D01*
X141883216Y-54745057D01*
X141865015Y-54891481D01*
X141849628Y-55059938D01*
X141836463Y-55254075D01*
X141824925Y-55477536D01*
X141822300Y-55536666D01*
X141812598Y-55739302D01*
X141801786Y-55912637D01*
X141788953Y-56061236D01*
X141773189Y-56189666D01*
X141753585Y-56302491D01*
X141729229Y-56404276D01*
X141699213Y-56499588D01*
X141662625Y-56592991D01*
X141618555Y-56689050D01*
X141575590Y-56774172D01*
X141506019Y-56887037D01*
X141416153Y-57002045D01*
X141315103Y-57108959D01*
X141211980Y-57197546D01*
X141176034Y-57223026D01*
X141126168Y-57257071D01*
X141100918Y-57278554D01*
X141096253Y-57292977D01*
X141108141Y-57305844D01*
X141112889Y-57309228D01*
X141254727Y-57414603D01*
X141369815Y-57517231D01*
X141463996Y-57623558D01*
X141543115Y-57740032D01*
X141600699Y-57847317D01*
X141646996Y-57946775D01*
X141685790Y-58041671D01*
X141717932Y-58136598D01*
X141744276Y-58236151D01*
X141765672Y-58344922D01*
X141782973Y-58467505D01*
X141797032Y-58608494D01*
X141808700Y-58772481D01*
X141818830Y-58964061D01*
X141822316Y-59041866D01*
X141835329Y-59298428D01*
X141851273Y-59524108D01*
X141870856Y-59721815D01*
X141894786Y-59894462D01*
X141923769Y-60044957D01*
X141958513Y-60176213D01*
X141999724Y-60291140D01*
X142048111Y-60392649D01*
X142104380Y-60483650D01*
X142169238Y-60567054D01*
X142201614Y-60603096D01*
X142299094Y-60694480D01*
X142405580Y-60767576D01*
X142526395Y-60824658D01*
X142666859Y-60868002D01*
X142832293Y-60899885D01*
X142923791Y-60911979D01*
X143009736Y-60922505D01*
X143069301Y-60931926D01*
X143109810Y-60942448D01*
X143138586Y-60956279D01*
X143162953Y-60975626D01*
X143175572Y-60987857D01*
X143228334Y-61040587D01*
X143233428Y-61447535D01*
X143234893Y-61575898D01*
X143235472Y-61674974D01*
X143234871Y-61749339D01*
X143232793Y-61803568D01*
X143228945Y-61842235D01*
X143223031Y-61869917D01*
X143214756Y-61891189D01*
X143203824Y-61910624D01*
X143203528Y-61911105D01*
X143170588Y-61953406D01*
X143128400Y-61984726D01*
X143072869Y-62005766D01*
X142999897Y-62017227D01*
X142905391Y-62019809D01*
X142785252Y-62014212D01*
X142661911Y-62003739D01*
X142399182Y-61964994D01*
X142143023Y-61901028D01*
X141902865Y-61814307D01*
X141852911Y-61792326D01*
X141641249Y-61677456D01*
X141446844Y-61534178D01*
X141270556Y-61363721D01*
X141113249Y-61167312D01*
X140975783Y-60946178D01*
X140859020Y-60701546D01*
X140763823Y-60434644D01*
X140691053Y-60146699D01*
X140688480Y-60134066D01*
X140666314Y-60019798D01*
X140648400Y-59915677D01*
X140634048Y-59814949D01*
X140622568Y-59710863D01*
X140613268Y-59596666D01*
X140605458Y-59465606D01*
X140598448Y-59310929D01*
X140594903Y-59219316D01*
X140585735Y-59019982D01*
X140573604Y-58850129D01*
X140557587Y-58705430D01*
X140536757Y-58581560D01*
X140510190Y-58474193D01*
X140476959Y-58379004D01*
X140436140Y-58291667D01*
X140386807Y-58207857D01*
X140374516Y-58189158D01*
X140292006Y-58081214D01*
X140196972Y-57988601D01*
X140081637Y-57904521D01*
X139980912Y-57845038D01*
X139871184Y-57779284D01*
X139790368Y-57717533D01*
X139734357Y-57656260D01*
X139706854Y-57609986D01*
X139695913Y-57568520D01*
X139687689Y-57501128D01*
X139682221Y-57415646D01*
X139679550Y-57319907D01*
X139679715Y-57221746D01*
X139682755Y-57128999D01*
X139688711Y-57049501D01*
X139697623Y-56991085D01*
X139703612Y-56971222D01*
X139742326Y-56910632D01*
X139806158Y-56846522D01*
X139887849Y-56785304D01*
X139964045Y-56741266D01*
X140108382Y-56657187D01*
X140231734Y-56560072D01*
X140335144Y-56447607D01*
X140419653Y-56317479D01*
X140486304Y-56167373D01*
X140536138Y-55994976D01*
X140570197Y-55797973D01*
X140589522Y-55574051D01*
X140595186Y-55339494D01*
X140605835Y-55043868D01*
X140636874Y-54748209D01*
X140686998Y-54459408D01*
X140754907Y-54184353D01*
X140839297Y-53929934D01*
X140881277Y-53826389D01*
X140995134Y-53601314D01*
X141134579Y-53392306D01*
X141296423Y-53202825D01*
X141477479Y-53036331D01*
X141674558Y-52896282D01*
X141805934Y-52822975D01*
X142020917Y-52731562D01*
X142257572Y-52660998D01*
X142509877Y-52612632D01*
X142771812Y-52587815D01*
X142866975Y-52584910D01*
X142961234Y-52584070D01*
X143028141Y-52585013D01*
G36*
X151628805Y-52576248D02*
G01*
X151720904Y-52579192D01*
X151745801Y-52580112D01*
X152041700Y-52605092D01*
X152317169Y-52657071D01*
X152572058Y-52735926D01*
X152806218Y-52841534D01*
X153019499Y-52973771D01*
X153211752Y-53132515D01*
X153382829Y-53317643D01*
X153532579Y-53529031D01*
X153660854Y-53766556D01*
X153767505Y-54030096D01*
X153851877Y-54317466D01*
X153884150Y-54457330D01*
X153910098Y-54590345D01*
X153930688Y-54724137D01*
X153946884Y-54866333D01*
X153959653Y-55024560D01*
X153969960Y-55206444D01*
X153973039Y-55274200D01*
X153982133Y-55465678D01*
X153991722Y-55627029D01*
X154002193Y-55761994D01*
X154013935Y-55874311D01*
X154027336Y-55967722D01*
X154042784Y-56045964D01*
X154059764Y-56109832D01*
X154126265Y-56275756D01*
X154218451Y-56425825D01*
X154332789Y-56555523D01*
X154465747Y-56660333D01*
X154512105Y-56688133D01*
X154625335Y-56753917D01*
X154711954Y-56810980D01*
X154776909Y-56862890D01*
X154825147Y-56913216D01*
X154826502Y-56914880D01*
X154878467Y-56979025D01*
X154883905Y-57251315D01*
X154884238Y-57390886D01*
X154877181Y-57502365D01*
X154859964Y-57591214D01*
X154829816Y-57662891D01*
X154783968Y-57722855D01*
X154719650Y-57776566D01*
X154634091Y-57829484D01*
X154574207Y-57861671D01*
X154454663Y-57936333D01*
X154340350Y-58030681D01*
X154240460Y-58136094D01*
X154164183Y-58243952D01*
X154161420Y-58248783D01*
X154117433Y-58333197D01*
X154080982Y-58419553D01*
X154051225Y-58512334D01*
X154027316Y-58616023D01*
X154008415Y-58735104D01*
X153993675Y-58874058D01*
X153982255Y-59037370D01*
X153973310Y-59229523D01*
X153972415Y-59253330D01*
X153965066Y-59418663D01*
X153955671Y-59576023D01*
X153944743Y-59718554D01*
X153932792Y-59839401D01*
X153923129Y-59913933D01*
X153862798Y-60232678D01*
X153781436Y-60524908D01*
X153678923Y-60790748D01*
X153555141Y-61030322D01*
X153409971Y-61243753D01*
X153243294Y-61431167D01*
X153054991Y-61592687D01*
X152844942Y-61728437D01*
X152613028Y-61838543D01*
X152359131Y-61923128D01*
X152083131Y-61982317D01*
X151920035Y-62004289D01*
X151762418Y-62018136D01*
X151635685Y-62021983D01*
X151538349Y-62015788D01*
X151468925Y-61999510D01*
X151450511Y-61991191D01*
X151414345Y-61969508D01*
X151386262Y-61945042D01*
X151365253Y-61913439D01*
X151350307Y-61870343D01*
X151340414Y-61811397D01*
X151334562Y-61732245D01*
X151331742Y-61628532D01*
X151330942Y-61495902D01*
X151330934Y-61475753D01*
X151331443Y-61328698D01*
X151334424Y-61211738D01*
X151342057Y-61121104D01*
X151356522Y-61053025D01*
X151379999Y-61003731D01*
X151414667Y-60969452D01*
X151462707Y-60946418D01*
X151526299Y-60930860D01*
X151607622Y-60919007D01*
X151656207Y-60913222D01*
X151842033Y-60884633D01*
X151999978Y-60844374D01*
X152134602Y-60790505D01*
X152250463Y-60721087D01*
X152352120Y-60634181D01*
X152379567Y-60605460D01*
X152448671Y-60522157D01*
X152508906Y-60431365D01*
X152560919Y-60330288D01*
X152605356Y-60216133D01*
X152642865Y-60086106D01*
X152674093Y-59937412D01*
X152699685Y-59767256D01*
X152720289Y-59572845D01*
X152736552Y-59351383D01*
X152749120Y-59100078D01*
X152753241Y-58991066D01*
X152759962Y-58820632D01*
X152767327Y-58679873D01*
X152775664Y-58564599D01*
X152785298Y-58470621D01*
X152796557Y-58393748D01*
X152802054Y-58364533D01*
X152863216Y-58125946D01*
X152944767Y-57912612D01*
X153046306Y-57725204D01*
X153167433Y-57564397D01*
X153307746Y-57430863D01*
X153395966Y-57367333D01*
X153500724Y-57299625D01*
X153427596Y-57253590D01*
X153270916Y-57135470D01*
X153134564Y-56991050D01*
X153018362Y-56820033D01*
X152922132Y-56622124D01*
X152845697Y-56397028D01*
X152802142Y-56214601D01*
X152789915Y-56142367D01*
X152779422Y-56053803D01*
X152770345Y-55944869D01*
X152762369Y-55811525D01*
X152755173Y-55649731D01*
X152752846Y-55587466D01*
X152741238Y-55324634D01*
X152726075Y-55092733D01*
X152706780Y-54888959D01*
X152682781Y-54710507D01*
X152653501Y-54554572D01*
X152618367Y-54418351D01*
X152576803Y-54299039D01*
X152528236Y-54193832D01*
X152472089Y-54099925D01*
X152438346Y-54052835D01*
X152339922Y-53941813D01*
X152227838Y-53851868D01*
X152098209Y-53781124D01*
X151947147Y-53727703D01*
X151770764Y-53689726D01*
X151653837Y-53673869D01*
X151546597Y-53657523D01*
X151467461Y-53634213D01*
X151410944Y-53601299D01*
X151371561Y-53556137D01*
X151358137Y-53531473D01*
X151348684Y-53505900D01*
X151341616Y-53471311D01*
X151336620Y-53422955D01*
X151333386Y-53356080D01*
X151331601Y-53265936D01*
X151330954Y-53147771D01*
X151330934Y-53116330D01*
X151331573Y-52980201D01*
X151334096Y-52873503D01*
X151339412Y-52791814D01*
X151348429Y-52730712D01*
X151362055Y-52685776D01*
X151381200Y-52652583D01*
X151406771Y-52626712D01*
X151435748Y-52606213D01*
X151459550Y-52592506D01*
X151484502Y-52583183D01*
X151516859Y-52577716D01*
X151562874Y-52575580D01*
X151628805Y-52576248D01*
G37*
X151628805Y-52576248D02*
X151720904Y-52579192D01*
X151745801Y-52580112D01*
X152041700Y-52605092D01*
X152317169Y-52657071D01*
X152572058Y-52735926D01*
X152806218Y-52841534D01*
X153019499Y-52973771D01*
X153211752Y-53132515D01*
X153382829Y-53317643D01*
X153532579Y-53529031D01*
X153660854Y-53766556D01*
X153767505Y-54030096D01*
X153851877Y-54317466D01*
X153884150Y-54457330D01*
X153910098Y-54590345D01*
X153930688Y-54724137D01*
X153946884Y-54866333D01*
X153959653Y-55024560D01*
X153969960Y-55206444D01*
X153973039Y-55274200D01*
X153982133Y-55465678D01*
X153991722Y-55627029D01*
X154002193Y-55761994D01*
X154013935Y-55874311D01*
X154027336Y-55967722D01*
X154042784Y-56045964D01*
X154059764Y-56109832D01*
X154126265Y-56275756D01*
X154218451Y-56425825D01*
X154332789Y-56555523D01*
X154465747Y-56660333D01*
X154512105Y-56688133D01*
X154625335Y-56753917D01*
X154711954Y-56810980D01*
X154776909Y-56862890D01*
X154825147Y-56913216D01*
X154826502Y-56914880D01*
X154878467Y-56979025D01*
X154883905Y-57251315D01*
X154884238Y-57390886D01*
X154877181Y-57502365D01*
X154859964Y-57591214D01*
X154829816Y-57662891D01*
X154783968Y-57722855D01*
X154719650Y-57776566D01*
X154634091Y-57829484D01*
X154574207Y-57861671D01*
X154454663Y-57936333D01*
X154340350Y-58030681D01*
X154240460Y-58136094D01*
X154164183Y-58243952D01*
X154161420Y-58248783D01*
X154117433Y-58333197D01*
X154080982Y-58419553D01*
X154051225Y-58512334D01*
X154027316Y-58616023D01*
X154008415Y-58735104D01*
X153993675Y-58874058D01*
X153982255Y-59037370D01*
X153973310Y-59229523D01*
X153972415Y-59253330D01*
X153965066Y-59418663D01*
X153955671Y-59576023D01*
X153944743Y-59718554D01*
X153932792Y-59839401D01*
X153923129Y-59913933D01*
X153862798Y-60232678D01*
X153781436Y-60524908D01*
X153678923Y-60790748D01*
X153555141Y-61030322D01*
X153409971Y-61243753D01*
X153243294Y-61431167D01*
X153054991Y-61592687D01*
X152844942Y-61728437D01*
X152613028Y-61838543D01*
X152359131Y-61923128D01*
X152083131Y-61982317D01*
X151920035Y-62004289D01*
X151762418Y-62018136D01*
X151635685Y-62021983D01*
X151538349Y-62015788D01*
X151468925Y-61999510D01*
X151450511Y-61991191D01*
X151414345Y-61969508D01*
X151386262Y-61945042D01*
X151365253Y-61913439D01*
X151350307Y-61870343D01*
X151340414Y-61811397D01*
X151334562Y-61732245D01*
X151331742Y-61628532D01*
X151330942Y-61495902D01*
X151330934Y-61475753D01*
X151331443Y-61328698D01*
X151334424Y-61211738D01*
X151342057Y-61121104D01*
X151356522Y-61053025D01*
X151379999Y-61003731D01*
X151414667Y-60969452D01*
X151462707Y-60946418D01*
X151526299Y-60930860D01*
X151607622Y-60919007D01*
X151656207Y-60913222D01*
X151842033Y-60884633D01*
X151999978Y-60844374D01*
X152134602Y-60790505D01*
X152250463Y-60721087D01*
X152352120Y-60634181D01*
X152379567Y-60605460D01*
X152448671Y-60522157D01*
X152508906Y-60431365D01*
X152560919Y-60330288D01*
X152605356Y-60216133D01*
X152642865Y-60086106D01*
X152674093Y-59937412D01*
X152699685Y-59767256D01*
X152720289Y-59572845D01*
X152736552Y-59351383D01*
X152749120Y-59100078D01*
X152753241Y-58991066D01*
X152759962Y-58820632D01*
X152767327Y-58679873D01*
X152775664Y-58564599D01*
X152785298Y-58470621D01*
X152796557Y-58393748D01*
X152802054Y-58364533D01*
X152863216Y-58125946D01*
X152944767Y-57912612D01*
X153046306Y-57725204D01*
X153167433Y-57564397D01*
X153307746Y-57430863D01*
X153395966Y-57367333D01*
X153500724Y-57299625D01*
X153427596Y-57253590D01*
X153270916Y-57135470D01*
X153134564Y-56991050D01*
X153018362Y-56820033D01*
X152922132Y-56622124D01*
X152845697Y-56397028D01*
X152802142Y-56214601D01*
X152789915Y-56142367D01*
X152779422Y-56053803D01*
X152770345Y-55944869D01*
X152762369Y-55811525D01*
X152755173Y-55649731D01*
X152752846Y-55587466D01*
X152741238Y-55324634D01*
X152726075Y-55092733D01*
X152706780Y-54888959D01*
X152682781Y-54710507D01*
X152653501Y-54554572D01*
X152618367Y-54418351D01*
X152576803Y-54299039D01*
X152528236Y-54193832D01*
X152472089Y-54099925D01*
X152438346Y-54052835D01*
X152339922Y-53941813D01*
X152227838Y-53851868D01*
X152098209Y-53781124D01*
X151947147Y-53727703D01*
X151770764Y-53689726D01*
X151653837Y-53673869D01*
X151546597Y-53657523D01*
X151467461Y-53634213D01*
X151410944Y-53601299D01*
X151371561Y-53556137D01*
X151358137Y-53531473D01*
X151348684Y-53505900D01*
X151341616Y-53471311D01*
X151336620Y-53422955D01*
X151333386Y-53356080D01*
X151331601Y-53265936D01*
X151330954Y-53147771D01*
X151330934Y-53116330D01*
X151331573Y-52980201D01*
X151334096Y-52873503D01*
X151339412Y-52791814D01*
X151348429Y-52730712D01*
X151362055Y-52685776D01*
X151381200Y-52652583D01*
X151406771Y-52626712D01*
X151435748Y-52606213D01*
X151459550Y-52592506D01*
X151484502Y-52583183D01*
X151516859Y-52577716D01*
X151562874Y-52575580D01*
X151628805Y-52576248D01*
G36*
X145945608Y-50672989D02*
G01*
X145988467Y-50682885D01*
X146131514Y-50737694D01*
X146259714Y-50819903D01*
X146368028Y-50925417D01*
X146451414Y-51050141D01*
X146458927Y-51065019D01*
X146482632Y-51115442D01*
X146498237Y-51157296D01*
X146507427Y-51200051D01*
X146511888Y-51253177D01*
X146513306Y-51326144D01*
X146513400Y-51371066D01*
X146512664Y-51458737D01*
X146509484Y-51521854D01*
X146502402Y-51569718D01*
X146489961Y-51611628D01*
X146470702Y-51656884D01*
X146467529Y-51663695D01*
X146396293Y-51780433D01*
X146300055Y-51886684D01*
X146187632Y-51973712D01*
X146113767Y-52014139D01*
X145985143Y-52057830D01*
X145846424Y-52077934D01*
X145709468Y-52073406D01*
X145627523Y-52056905D01*
X145488158Y-52001024D01*
X145366897Y-51919014D01*
X145266277Y-51814825D01*
X145188838Y-51692407D01*
X145137118Y-51555711D01*
X145113656Y-51408685D01*
X145119395Y-51266335D01*
X145154664Y-51125774D01*
X145217678Y-50998601D01*
X145304280Y-50887607D01*
X145410312Y-50795581D01*
X145531618Y-50725316D01*
X145664041Y-50679602D01*
X145803423Y-50661229D01*
X145945608Y-50672989D01*
G37*
X145945608Y-50672989D02*
X145988467Y-50682885D01*
X146131514Y-50737694D01*
X146259714Y-50819903D01*
X146368028Y-50925417D01*
X146451414Y-51050141D01*
X146458927Y-51065019D01*
X146482632Y-51115442D01*
X146498237Y-51157296D01*
X146507427Y-51200051D01*
X146511888Y-51253177D01*
X146513306Y-51326144D01*
X146513400Y-51371066D01*
X146512664Y-51458737D01*
X146509484Y-51521854D01*
X146502402Y-51569718D01*
X146489961Y-51611628D01*
X146470702Y-51656884D01*
X146467529Y-51663695D01*
X146396293Y-51780433D01*
X146300055Y-51886684D01*
X146187632Y-51973712D01*
X146113767Y-52014139D01*
X145985143Y-52057830D01*
X145846424Y-52077934D01*
X145709468Y-52073406D01*
X145627523Y-52056905D01*
X145488158Y-52001024D01*
X145366897Y-51919014D01*
X145266277Y-51814825D01*
X145188838Y-51692407D01*
X145137118Y-51555711D01*
X145113656Y-51408685D01*
X145119395Y-51266335D01*
X145154664Y-51125774D01*
X145217678Y-50998601D01*
X145304280Y-50887607D01*
X145410312Y-50795581D01*
X145531618Y-50725316D01*
X145664041Y-50679602D01*
X145803423Y-50661229D01*
X145945608Y-50672989D01*
G36*
X148526443Y-50672612D02*
G01*
X148595741Y-50680281D01*
X148655074Y-50695186D01*
X148689334Y-50707731D01*
X148828903Y-50781179D01*
X148947007Y-50880249D01*
X149041346Y-51002643D01*
X149098669Y-51117066D01*
X149124063Y-51209428D01*
X149136686Y-51319442D01*
X149136463Y-51434437D01*
X149123319Y-51541746D01*
X149101636Y-51618192D01*
X149029377Y-51757062D01*
X148933325Y-51875431D01*
X148817052Y-51969673D01*
X148693602Y-52032600D01*
X148574691Y-52064800D01*
X148444450Y-52077444D01*
X148316380Y-52070063D01*
X148223025Y-52048927D01*
X148084957Y-51986545D01*
X147962396Y-51896764D01*
X147860340Y-51784277D01*
X147783789Y-51653780D01*
X147771635Y-51625066D01*
X147745285Y-51527476D01*
X147733248Y-51412433D01*
X147735515Y-51292972D01*
X147752075Y-51182128D01*
X147771999Y-51117066D01*
X147845446Y-50977497D01*
X147944516Y-50859393D01*
X148066910Y-50765054D01*
X148181334Y-50707731D01*
X148240304Y-50687868D01*
X148302417Y-50676245D01*
X148379520Y-50671121D01*
X148435334Y-50670443D01*
X148526443Y-50672612D01*
G37*
X148526443Y-50672612D02*
X148595741Y-50680281D01*
X148655074Y-50695186D01*
X148689334Y-50707731D01*
X148828903Y-50781179D01*
X148947007Y-50880249D01*
X149041346Y-51002643D01*
X149098669Y-51117066D01*
X149124063Y-51209428D01*
X149136686Y-51319442D01*
X149136463Y-51434437D01*
X149123319Y-51541746D01*
X149101636Y-51618192D01*
X149029377Y-51757062D01*
X148933325Y-51875431D01*
X148817052Y-51969673D01*
X148693602Y-52032600D01*
X148574691Y-52064800D01*
X148444450Y-52077444D01*
X148316380Y-52070063D01*
X148223025Y-52048927D01*
X148084957Y-51986545D01*
X147962396Y-51896764D01*
X147860340Y-51784277D01*
X147783789Y-51653780D01*
X147771635Y-51625066D01*
X147745285Y-51527476D01*
X147733248Y-51412433D01*
X147735515Y-51292972D01*
X147752075Y-51182128D01*
X147771999Y-51117066D01*
X147845446Y-50977497D01*
X147944516Y-50859393D01*
X148066910Y-50765054D01*
X148181334Y-50707731D01*
X148240304Y-50687868D01*
X148302417Y-50676245D01*
X148379520Y-50671121D01*
X148435334Y-50670443D01*
X148526443Y-50672612D01*
D14*
%TO.C,J9*%
X216500000Y-185750000D02*
X216500000Y-184250000D01*
%TO.C,J8*%
X164500000Y-185750000D02*
X164500000Y-184250000D01*
%TO.C,J7*%
X226500000Y-185750000D02*
X226500000Y-184250000D01*
%TO.C,J6*%
X154500000Y-184250000D02*
X154500000Y-185750000D01*
%TO.C,J5*%
X182250000Y-86000000D02*
X182250000Y-84500000D01*
%TO.C,J4*%
X192500000Y-86000000D02*
X192500000Y-84500000D01*
%TO.C,J3*%
X172250000Y-86000000D02*
X172250000Y-84500000D01*
D15*
%TO.C,GD2*%
X197500000Y-150500000D02*
X203500000Y-150500000D01*
X203500000Y-150500000D02*
X203500000Y-159500000D01*
X203500000Y-159500000D02*
X197500000Y-159500000D01*
X197500000Y-159500000D02*
X197500000Y-150500000D01*
X198000000Y-152500000D02*
X200000000Y-155000000D01*
X200000000Y-155000000D02*
X198000000Y-157500000D01*
X201000000Y-155000000D02*
X203000000Y-152500000D01*
X201000000Y-155000000D02*
X203000000Y-157500000D01*
X196750000Y-154750000D02*
X197500000Y-154750000D01*
X197500000Y-155250000D02*
X196750000Y-155250000D01*
X196750000Y-155250000D02*
X196750000Y-154750000D01*
X203500000Y-154750000D02*
X204250000Y-154750000D01*
X204250000Y-154750000D02*
X204250000Y-155250000D01*
X204250000Y-155250000D02*
X203500000Y-155250000D01*
%TO.C,GD1*%
X162500000Y-159500000D02*
X156500000Y-159500000D01*
X156500000Y-159500000D02*
X156500000Y-150500000D01*
X156500000Y-150500000D02*
X162500000Y-150500000D01*
X162500000Y-150500000D02*
X162500000Y-159500000D01*
X162000000Y-157500000D02*
X160000000Y-155000000D01*
X160000000Y-155000000D02*
X162000000Y-152500000D01*
X159000000Y-155000000D02*
X157000000Y-157500000D01*
X159000000Y-155000000D02*
X157000000Y-152500000D01*
X163250000Y-155250000D02*
X162500000Y-155250000D01*
X162500000Y-154750000D02*
X163250000Y-154750000D01*
X163250000Y-154750000D02*
X163250000Y-155250000D01*
X156500000Y-155250000D02*
X155750000Y-155250000D01*
X155750000Y-155250000D02*
X155750000Y-154750000D01*
X155750000Y-154750000D02*
X156500000Y-154750000D01*
%TO.C,TR1*%
X184194000Y-168329000D02*
X183686000Y-168329000D01*
X183686000Y-168329000D02*
X183686000Y-174171000D01*
X183686000Y-174171000D02*
X184194000Y-174171000D01*
X184194000Y-174171000D02*
X184194000Y-175060000D01*
X191306000Y-174171000D02*
X191814000Y-174171000D01*
X191814000Y-174171000D02*
X191814000Y-168329000D01*
X191814000Y-168329000D02*
X191306000Y-168329000D01*
%TO.C,R42*%
X226090000Y-152727064D02*
X226090000Y-151272936D01*
X227910000Y-152727064D02*
X227910000Y-151272936D01*
%TO.C,R41*%
X226090000Y-138727064D02*
X226090000Y-137272936D01*
X227910000Y-138727064D02*
X227910000Y-137272936D01*
%TO.C,R40*%
X226090000Y-124727064D02*
X226090000Y-123272936D01*
X227910000Y-124727064D02*
X227910000Y-123272936D01*
%TO.C,R39*%
X226090000Y-110727064D02*
X226090000Y-109272936D01*
X227910000Y-110727064D02*
X227910000Y-109272936D01*
%TO.C,R38*%
X226090000Y-96727064D02*
X226090000Y-95272936D01*
X227910000Y-96727064D02*
X227910000Y-95272936D01*
%TO.C,R37*%
X193727064Y-107485000D02*
X193272936Y-107485000D01*
X193727064Y-106015000D02*
X193272936Y-106015000D01*
%TO.C,R36*%
X196235000Y-110022936D02*
X196235000Y-110477064D01*
X194765000Y-110022936D02*
X194765000Y-110477064D01*
%TO.C,R35*%
X197272936Y-112515000D02*
X197727064Y-112515000D01*
X197272936Y-113985000D02*
X197727064Y-113985000D01*
%TO.C,R34*%
X194765000Y-116477064D02*
X194765000Y-116022936D01*
X196235000Y-116477064D02*
X196235000Y-116022936D01*
%TO.C,R33*%
X194765000Y-120227064D02*
X194765000Y-119772936D01*
X196235000Y-120227064D02*
X196235000Y-119772936D01*
%TO.C,R32*%
X197022936Y-122265000D02*
X197477064Y-122265000D01*
X197022936Y-123735000D02*
X197477064Y-123735000D01*
%TO.C,R31*%
X197022936Y-136265000D02*
X197477064Y-136265000D01*
X197022936Y-137735000D02*
X197477064Y-137735000D01*
%TO.C,R30*%
X193977064Y-137735000D02*
X193522936Y-137735000D01*
X193977064Y-136265000D02*
X193522936Y-136265000D01*
%TO.C,R29*%
X196235000Y-139772936D02*
X196235000Y-140227064D01*
X194765000Y-139772936D02*
X194765000Y-140227064D01*
%TO.C,R28*%
X196235000Y-143522936D02*
X196235000Y-143977064D01*
X194765000Y-143522936D02*
X194765000Y-143977064D01*
%TO.C,R27*%
X197272936Y-146015000D02*
X197727064Y-146015000D01*
X197272936Y-147485000D02*
X197727064Y-147485000D01*
%TO.C,R26*%
X193727064Y-147485000D02*
X193272936Y-147485000D01*
X193727064Y-146015000D02*
X193272936Y-146015000D01*
%TO.C,R25*%
X132090000Y-151727064D02*
X132090000Y-150272936D01*
X133910000Y-151727064D02*
X133910000Y-150272936D01*
%TO.C,R24*%
X132090000Y-137727064D02*
X132090000Y-136272936D01*
X133910000Y-137727064D02*
X133910000Y-136272936D01*
%TO.C,R23*%
X132090000Y-123727064D02*
X132090000Y-122272936D01*
X133910000Y-123727064D02*
X133910000Y-122272936D01*
%TO.C,R22*%
X132090000Y-109727064D02*
X132090000Y-108272936D01*
X133910000Y-109727064D02*
X133910000Y-108272936D01*
%TO.C,R21*%
X132090000Y-95727064D02*
X132090000Y-94272936D01*
X133910000Y-95727064D02*
X133910000Y-94272936D01*
%TO.C,R20*%
X166272936Y-106015000D02*
X166727064Y-106015000D01*
X166272936Y-107485000D02*
X166727064Y-107485000D01*
%TO.C,R19*%
X165235000Y-110022936D02*
X165235000Y-110477064D01*
X163765000Y-110022936D02*
X163765000Y-110477064D01*
%TO.C,R18*%
X162727064Y-113985000D02*
X162272936Y-113985000D01*
X162727064Y-112515000D02*
X162272936Y-112515000D01*
%TO.C,R17*%
X163765000Y-116477064D02*
X163765000Y-116022936D01*
X165235000Y-116477064D02*
X165235000Y-116022936D01*
%TO.C,R16*%
X163765000Y-120227064D02*
X163765000Y-119772936D01*
X165235000Y-120227064D02*
X165235000Y-119772936D01*
%TO.C,R15*%
X162727064Y-123735000D02*
X162272936Y-123735000D01*
X162727064Y-122265000D02*
X162272936Y-122265000D01*
%TO.C,R14*%
X162727064Y-137735000D02*
X162272936Y-137735000D01*
X162727064Y-136265000D02*
X162272936Y-136265000D01*
%TO.C,R13*%
X166022936Y-136265000D02*
X166477064Y-136265000D01*
X166022936Y-137735000D02*
X166477064Y-137735000D01*
%TO.C,R12*%
X165235000Y-139772936D02*
X165235000Y-140227064D01*
X163765000Y-139772936D02*
X163765000Y-140227064D01*
%TO.C,R11*%
X165235000Y-143522936D02*
X165235000Y-143977064D01*
X163765000Y-143522936D02*
X163765000Y-143977064D01*
%TO.C,R10*%
X166272936Y-146015000D02*
X166727064Y-146015000D01*
X166272936Y-147485000D02*
X166727064Y-147485000D01*
%TO.C,R9*%
X162727064Y-147485000D02*
X162272936Y-147485000D01*
X162727064Y-146015000D02*
X162272936Y-146015000D01*
%TO.C,R8*%
X187272936Y-184515000D02*
X187727064Y-184515000D01*
X187272936Y-185985000D02*
X187727064Y-185985000D01*
%TO.C,R7*%
X186985000Y-182022936D02*
X186985000Y-182477064D01*
X185515000Y-182022936D02*
X185515000Y-182477064D01*
%TO.C,R6*%
X194727064Y-185985000D02*
X194272936Y-185985000D01*
X194727064Y-184515000D02*
X194272936Y-184515000D01*
%TO.C,R5*%
X187272936Y-178515000D02*
X187727064Y-178515000D01*
X187272936Y-179985000D02*
X187727064Y-179985000D01*
%TO.C,R4*%
X196235000Y-182022936D02*
X196235000Y-182477064D01*
X194765000Y-182022936D02*
X194765000Y-182477064D01*
%TO.C,R3*%
X194727064Y-179985000D02*
X194272936Y-179985000D01*
X194727064Y-178515000D02*
X194272936Y-178515000D01*
%TO.C,R2*%
X204580000Y-75680000D02*
X204580000Y-82320000D01*
X204580000Y-82320000D02*
X224820000Y-82320000D01*
X224820000Y-82320000D02*
X224820000Y-75680000D01*
X224820000Y-75680000D02*
X204580000Y-75680000D01*
X203440000Y-79000000D02*
X204580000Y-79000000D01*
X225960000Y-79000000D02*
X224820000Y-79000000D01*
%TO.C,R1*%
X159420000Y-82320000D02*
X159420000Y-75680000D01*
X159420000Y-75680000D02*
X139180000Y-75680000D01*
X139180000Y-75680000D02*
X139180000Y-82320000D01*
X139180000Y-82320000D02*
X159420000Y-82320000D01*
X160560000Y-79000000D02*
X159420000Y-79000000D01*
X138040000Y-79000000D02*
X139180000Y-79000000D01*
%TO.C,L12*%
X223750000Y-146750000D02*
X221000000Y-146750000D01*
X223750000Y-157250000D02*
X221000000Y-157250000D01*
X217000000Y-146750000D02*
X214250000Y-146750000D01*
X217000000Y-157250000D02*
X214250000Y-157250000D01*
X224250000Y-147250000D02*
X224250000Y-156750000D01*
X213750000Y-147250000D02*
X213750000Y-156750000D01*
X224250000Y-156750000D02*
G75*
G02*
X223750000Y-157250000I-500000J0D01*
G01*
X223750000Y-146750000D02*
G75*
G02*
X224250000Y-147250000I0J-500000D01*
G01*
X213750000Y-147250000D02*
G75*
G02*
X214250000Y-146750000I500000J0D01*
G01*
X214250000Y-157250000D02*
G75*
G02*
X213750000Y-156750000I0J500000D01*
G01*
%TO.C,L11*%
X223750000Y-132750000D02*
X221000000Y-132750000D01*
X223750000Y-143250000D02*
X221000000Y-143250000D01*
X217000000Y-132750000D02*
X214250000Y-132750000D01*
X217000000Y-143250000D02*
X214250000Y-143250000D01*
X224250000Y-133250000D02*
X224250000Y-142750000D01*
X213750000Y-133250000D02*
X213750000Y-142750000D01*
X224250000Y-142750000D02*
G75*
G02*
X223750000Y-143250000I-500000J0D01*
G01*
X223750000Y-132750000D02*
G75*
G02*
X224250000Y-133250000I0J-500000D01*
G01*
X213750000Y-133250000D02*
G75*
G02*
X214250000Y-132750000I500000J0D01*
G01*
X214250000Y-143250000D02*
G75*
G02*
X213750000Y-142750000I0J500000D01*
G01*
%TO.C,L10*%
X223750000Y-118750000D02*
X221000000Y-118750000D01*
X223750000Y-129250000D02*
X221000000Y-129250000D01*
X217000000Y-118750000D02*
X214250000Y-118750000D01*
X217000000Y-129250000D02*
X214250000Y-129250000D01*
X224250000Y-119250000D02*
X224250000Y-128750000D01*
X213750000Y-119250000D02*
X213750000Y-128750000D01*
X224250000Y-128750000D02*
G75*
G02*
X223750000Y-129250000I-500000J0D01*
G01*
X223750000Y-118750000D02*
G75*
G02*
X224250000Y-119250000I0J-500000D01*
G01*
X213750000Y-119250000D02*
G75*
G02*
X214250000Y-118750000I500000J0D01*
G01*
X214250000Y-129250000D02*
G75*
G02*
X213750000Y-128750000I0J500000D01*
G01*
%TO.C,L9*%
X223750000Y-104750000D02*
X221000000Y-104750000D01*
X223750000Y-115250000D02*
X221000000Y-115250000D01*
X217000000Y-104750000D02*
X214250000Y-104750000D01*
X217000000Y-115250000D02*
X214250000Y-115250000D01*
X224250000Y-105250000D02*
X224250000Y-114750000D01*
X213750000Y-105250000D02*
X213750000Y-114750000D01*
X224250000Y-114750000D02*
G75*
G02*
X223750000Y-115250000I-500000J0D01*
G01*
X223750000Y-104750000D02*
G75*
G02*
X224250000Y-105250000I0J-500000D01*
G01*
X213750000Y-105250000D02*
G75*
G02*
X214250000Y-104750000I500000J0D01*
G01*
X214250000Y-115250000D02*
G75*
G02*
X213750000Y-114750000I0J500000D01*
G01*
%TO.C,L8*%
X223750000Y-90750000D02*
X221000000Y-90750000D01*
X223750000Y-101250000D02*
X221000000Y-101250000D01*
X217000000Y-90750000D02*
X214250000Y-90750000D01*
X217000000Y-101250000D02*
X214250000Y-101250000D01*
X224250000Y-91250000D02*
X224250000Y-100750000D01*
X213750000Y-91250000D02*
X213750000Y-100750000D01*
X224250000Y-100750000D02*
G75*
G02*
X223750000Y-101250000I-500000J0D01*
G01*
X223750000Y-90750000D02*
G75*
G02*
X224250000Y-91250000I0J-500000D01*
G01*
X213750000Y-91250000D02*
G75*
G02*
X214250000Y-90750000I500000J0D01*
G01*
X214250000Y-101250000D02*
G75*
G02*
X213750000Y-100750000I0J500000D01*
G01*
%TO.C,L7*%
X197000000Y-131750000D02*
X199000000Y-131750000D01*
X197000000Y-128250000D02*
X199000000Y-128250000D01*
%TO.C,L6*%
X145750000Y-145750000D02*
X143000000Y-145750000D01*
X145750000Y-156250000D02*
X143000000Y-156250000D01*
X139000000Y-145750000D02*
X136250000Y-145750000D01*
X139000000Y-156250000D02*
X136250000Y-156250000D01*
X146250000Y-146250000D02*
X146250000Y-155750000D01*
X135750000Y-146250000D02*
X135750000Y-155750000D01*
X146250000Y-155750000D02*
G75*
G02*
X145750000Y-156250000I-500000J0D01*
G01*
X145750000Y-145750000D02*
G75*
G02*
X146250000Y-146250000I0J-500000D01*
G01*
X135750000Y-146250000D02*
G75*
G02*
X136250000Y-145750000I500000J0D01*
G01*
X136250000Y-156250000D02*
G75*
G02*
X135750000Y-155750000I0J500000D01*
G01*
%TO.C,L5*%
X145750000Y-131750000D02*
X143000000Y-131750000D01*
X145750000Y-142250000D02*
X143000000Y-142250000D01*
X139000000Y-131750000D02*
X136250000Y-131750000D01*
X139000000Y-142250000D02*
X136250000Y-142250000D01*
X146250000Y-132250000D02*
X146250000Y-141750000D01*
X135750000Y-132250000D02*
X135750000Y-141750000D01*
X146250000Y-141750000D02*
G75*
G02*
X145750000Y-142250000I-500000J0D01*
G01*
X145750000Y-131750000D02*
G75*
G02*
X146250000Y-132250000I0J-500000D01*
G01*
X135750000Y-132250000D02*
G75*
G02*
X136250000Y-131750000I500000J0D01*
G01*
X136250000Y-142250000D02*
G75*
G02*
X135750000Y-141750000I0J500000D01*
G01*
%TO.C,L4*%
X145750000Y-117750000D02*
X143000000Y-117750000D01*
X145750000Y-128250000D02*
X143000000Y-128250000D01*
X139000000Y-117750000D02*
X136250000Y-117750000D01*
X139000000Y-128250000D02*
X136250000Y-128250000D01*
X146250000Y-118250000D02*
X146250000Y-127750000D01*
X135750000Y-118250000D02*
X135750000Y-127750000D01*
X146250000Y-127750000D02*
G75*
G02*
X145750000Y-128250000I-500000J0D01*
G01*
X145750000Y-117750000D02*
G75*
G02*
X146250000Y-118250000I0J-500000D01*
G01*
X135750000Y-118250000D02*
G75*
G02*
X136250000Y-117750000I500000J0D01*
G01*
X136250000Y-128250000D02*
G75*
G02*
X135750000Y-127750000I0J500000D01*
G01*
%TO.C,L3*%
X145750000Y-103750000D02*
X143000000Y-103750000D01*
X145750000Y-114250000D02*
X143000000Y-114250000D01*
X139000000Y-103750000D02*
X136250000Y-103750000D01*
X139000000Y-114250000D02*
X136250000Y-114250000D01*
X146250000Y-104250000D02*
X146250000Y-113750000D01*
X135750000Y-104250000D02*
X135750000Y-113750000D01*
X146250000Y-113750000D02*
G75*
G02*
X145750000Y-114250000I-500000J0D01*
G01*
X145750000Y-103750000D02*
G75*
G02*
X146250000Y-104250000I0J-500000D01*
G01*
X135750000Y-104250000D02*
G75*
G02*
X136250000Y-103750000I500000J0D01*
G01*
X136250000Y-114250000D02*
G75*
G02*
X135750000Y-113750000I0J500000D01*
G01*
%TO.C,L2*%
X145750000Y-89750000D02*
X143000000Y-89750000D01*
X145750000Y-100250000D02*
X143000000Y-100250000D01*
X139000000Y-89750000D02*
X136250000Y-89750000D01*
X139000000Y-100250000D02*
X136250000Y-100250000D01*
X146250000Y-90250000D02*
X146250000Y-99750000D01*
X135750000Y-90250000D02*
X135750000Y-99750000D01*
X146250000Y-99750000D02*
G75*
G02*
X145750000Y-100250000I-500000J0D01*
G01*
X145750000Y-89750000D02*
G75*
G02*
X146250000Y-90250000I0J-500000D01*
G01*
X135750000Y-90250000D02*
G75*
G02*
X136250000Y-89750000I500000J0D01*
G01*
X136250000Y-100250000D02*
G75*
G02*
X135750000Y-99750000I0J500000D01*
G01*
%TO.C,L1*%
X163000000Y-128250000D02*
X161000000Y-128250000D01*
X163000000Y-131750000D02*
X161000000Y-131750000D01*
%TO.C,J2*%
X183150000Y-197650000D02*
X174850000Y-197650000D01*
X183150000Y-189350000D02*
X174850000Y-189350000D01*
X174850000Y-197650000D02*
X174850000Y-189350000D01*
X183150000Y-197650000D02*
X183150000Y-189350000D01*
%TO.C,J1*%
X207150000Y-197900000D02*
X198850000Y-197900000D01*
X207150000Y-189600000D02*
X198850000Y-189600000D01*
X198850000Y-197900000D02*
X198850000Y-189600000D01*
X207150000Y-197900000D02*
X207150000Y-189600000D01*
%TO.C,D4*%
X196740000Y-105170000D02*
X196740000Y-106100000D01*
X196740000Y-108330000D02*
X196740000Y-107400000D01*
X196740000Y-108330000D02*
X198900000Y-108330000D01*
X196740000Y-105170000D02*
X198200000Y-105170000D01*
%TO.C,D3*%
X194750000Y-114100000D02*
X194750000Y-112400000D01*
X194750000Y-112400000D02*
X192200000Y-112400000D01*
X194750000Y-114100000D02*
X192200000Y-114100000D01*
%TO.C,D2*%
X163260000Y-108330000D02*
X163260000Y-107400000D01*
X163260000Y-105170000D02*
X163260000Y-106100000D01*
X163260000Y-105170000D02*
X161100000Y-105170000D01*
X163260000Y-108330000D02*
X161800000Y-108330000D01*
%TO.C,D1*%
X165250000Y-112400000D02*
X165250000Y-114100000D01*
X165250000Y-114100000D02*
X167800000Y-114100000D01*
X165250000Y-112400000D02*
X167800000Y-112400000D01*
%TO.C,C12*%
X226620000Y-173620000D02*
X199880000Y-173620000D01*
X226620000Y-162880000D02*
X199880000Y-162880000D01*
X226620000Y-173620000D02*
X226620000Y-162880000D01*
X199880000Y-173620000D02*
X199880000Y-162880000D01*
%TO.C,C11*%
X196235000Y-125738748D02*
X196235000Y-126261252D01*
X194765000Y-125738748D02*
X194765000Y-126261252D01*
%TO.C,C10*%
X196235000Y-133738748D02*
X196235000Y-134261252D01*
X194765000Y-133738748D02*
X194765000Y-134261252D01*
%TO.C,C9*%
X148630000Y-162880000D02*
X175370000Y-162880000D01*
X148630000Y-173620000D02*
X175370000Y-173620000D01*
X148630000Y-162880000D02*
X148630000Y-173620000D01*
X175370000Y-162880000D02*
X175370000Y-173620000D01*
%TO.C,C8*%
X165235000Y-125738748D02*
X165235000Y-126261252D01*
X163765000Y-125738748D02*
X163765000Y-126261252D01*
%TO.C,C7*%
X165235000Y-133738748D02*
X165235000Y-134261252D01*
X163765000Y-133738748D02*
X163765000Y-134261252D01*
%TO.C,C6*%
X253120000Y-75880000D02*
X253120000Y-107620000D01*
X232880000Y-75880000D02*
X232880000Y-107620000D01*
X253120000Y-75880000D02*
X232880000Y-75880000D01*
X253120000Y-107620000D02*
X232880000Y-107620000D01*
%TO.C,C5*%
X232880000Y-142120000D02*
X232880000Y-110380000D01*
X253120000Y-142120000D02*
X253120000Y-110380000D01*
X232880000Y-142120000D02*
X253120000Y-142120000D01*
X232880000Y-110380000D02*
X253120000Y-110380000D01*
%TO.C,C4*%
X253120000Y-144880000D02*
X253120000Y-176620000D01*
X232880000Y-144880000D02*
X232880000Y-176620000D01*
X253120000Y-144880000D02*
X232880000Y-144880000D01*
X253120000Y-176620000D02*
X232880000Y-176620000D01*
%TO.C,C3*%
X106880000Y-85120000D02*
X106880000Y-53380000D01*
X127120000Y-85120000D02*
X127120000Y-53380000D01*
X106880000Y-85120000D02*
X127120000Y-85120000D01*
X106880000Y-53380000D02*
X127120000Y-53380000D01*
%TO.C,C2*%
X127120000Y-122380000D02*
X127120000Y-154120000D01*
X106880000Y-122380000D02*
X106880000Y-154120000D01*
X127120000Y-122380000D02*
X106880000Y-122380000D01*
X127120000Y-154120000D02*
X106880000Y-154120000D01*
%TO.C,C1*%
X127120000Y-87880000D02*
X127120000Y-119620000D01*
X106880000Y-87880000D02*
X106880000Y-119620000D01*
X127120000Y-87880000D02*
X106880000Y-87880000D01*
X127120000Y-119620000D02*
X106880000Y-119620000D01*
%TO.C,J9*%
D16*
X216166666Y-190452380D02*
X216166666Y-191166666D01*
X216119047Y-191309523D01*
X216023809Y-191404761D01*
X215880952Y-191452380D01*
X215785714Y-191452380D01*
X216690476Y-191452380D02*
X216880952Y-191452380D01*
X216976190Y-191404761D01*
X217023809Y-191357142D01*
X217119047Y-191214285D01*
X217166666Y-191023809D01*
X217166666Y-190642857D01*
X217119047Y-190547619D01*
X217071428Y-190500000D01*
X216976190Y-190452380D01*
X216785714Y-190452380D01*
X216690476Y-190500000D01*
X216642857Y-190547619D01*
X216595238Y-190642857D01*
X216595238Y-190880952D01*
X216642857Y-190976190D01*
X216690476Y-191023809D01*
X216785714Y-191071428D01*
X216976190Y-191071428D01*
X217071428Y-191023809D01*
X217119047Y-190976190D01*
X217166666Y-190880952D01*
%TO.C,J8*%
X164166666Y-190452380D02*
X164166666Y-191166666D01*
X164119047Y-191309523D01*
X164023809Y-191404761D01*
X163880952Y-191452380D01*
X163785714Y-191452380D01*
X164785714Y-190880952D02*
X164690476Y-190833333D01*
X164642857Y-190785714D01*
X164595238Y-190690476D01*
X164595238Y-190642857D01*
X164642857Y-190547619D01*
X164690476Y-190500000D01*
X164785714Y-190452380D01*
X164976190Y-190452380D01*
X165071428Y-190500000D01*
X165119047Y-190547619D01*
X165166666Y-190642857D01*
X165166666Y-190690476D01*
X165119047Y-190785714D01*
X165071428Y-190833333D01*
X164976190Y-190880952D01*
X164785714Y-190880952D01*
X164690476Y-190928571D01*
X164642857Y-190976190D01*
X164595238Y-191071428D01*
X164595238Y-191261904D01*
X164642857Y-191357142D01*
X164690476Y-191404761D01*
X164785714Y-191452380D01*
X164976190Y-191452380D01*
X165071428Y-191404761D01*
X165119047Y-191357142D01*
X165166666Y-191261904D01*
X165166666Y-191071428D01*
X165119047Y-190976190D01*
X165071428Y-190928571D01*
X164976190Y-190880952D01*
%TO.C,J7*%
X226416666Y-190452380D02*
X226416666Y-191166666D01*
X226369047Y-191309523D01*
X226273809Y-191404761D01*
X226130952Y-191452380D01*
X226035714Y-191452380D01*
X226797619Y-190452380D02*
X227464285Y-190452380D01*
X227035714Y-191452380D01*
%TO.C,J6*%
X154166666Y-190452380D02*
X154166666Y-191166666D01*
X154119047Y-191309523D01*
X154023809Y-191404761D01*
X153880952Y-191452380D01*
X153785714Y-191452380D01*
X155071428Y-190452380D02*
X154880952Y-190452380D01*
X154785714Y-190500000D01*
X154738095Y-190547619D01*
X154642857Y-190690476D01*
X154595238Y-190880952D01*
X154595238Y-191261904D01*
X154642857Y-191357142D01*
X154690476Y-191404761D01*
X154785714Y-191452380D01*
X154976190Y-191452380D01*
X155071428Y-191404761D01*
X155119047Y-191357142D01*
X155166666Y-191261904D01*
X155166666Y-191023809D01*
X155119047Y-190928571D01*
X155071428Y-190880952D01*
X154976190Y-190833333D01*
X154785714Y-190833333D01*
X154690476Y-190880952D01*
X154642857Y-190928571D01*
X154595238Y-191023809D01*
%TO.C,J5*%
X181916666Y-78702380D02*
X181916666Y-79416666D01*
X181869047Y-79559523D01*
X181773809Y-79654761D01*
X181630952Y-79702380D01*
X181535714Y-79702380D01*
X182869047Y-78702380D02*
X182392857Y-78702380D01*
X182345238Y-79178571D01*
X182392857Y-79130952D01*
X182488095Y-79083333D01*
X182726190Y-79083333D01*
X182821428Y-79130952D01*
X182869047Y-79178571D01*
X182916666Y-79273809D01*
X182916666Y-79511904D01*
X182869047Y-79607142D01*
X182821428Y-79654761D01*
X182726190Y-79702380D01*
X182488095Y-79702380D01*
X182392857Y-79654761D01*
X182345238Y-79607142D01*
%TO.C,J4*%
X192166666Y-78702380D02*
X192166666Y-79416666D01*
X192119047Y-79559523D01*
X192023809Y-79654761D01*
X191880952Y-79702380D01*
X191785714Y-79702380D01*
X193071428Y-79035714D02*
X193071428Y-79702380D01*
X192833333Y-78654761D02*
X192595238Y-79369047D01*
X193214285Y-79369047D01*
%TO.C,J3*%
X171916666Y-78702380D02*
X171916666Y-79416666D01*
X171869047Y-79559523D01*
X171773809Y-79654761D01*
X171630952Y-79702380D01*
X171535714Y-79702380D01*
X172297619Y-78702380D02*
X172916666Y-78702380D01*
X172583333Y-79083333D01*
X172726190Y-79083333D01*
X172821428Y-79130952D01*
X172869047Y-79178571D01*
X172916666Y-79273809D01*
X172916666Y-79511904D01*
X172869047Y-79607142D01*
X172821428Y-79654761D01*
X172726190Y-79702380D01*
X172440476Y-79702380D01*
X172345238Y-79654761D01*
X172297619Y-79607142D01*
%TO.C,GD2*%
X200035714Y-160250000D02*
X199940476Y-160202380D01*
X199797619Y-160202380D01*
X199654761Y-160250000D01*
X199559523Y-160345238D01*
X199511904Y-160440476D01*
X199464285Y-160630952D01*
X199464285Y-160773809D01*
X199511904Y-160964285D01*
X199559523Y-161059523D01*
X199654761Y-161154761D01*
X199797619Y-161202380D01*
X199892857Y-161202380D01*
X200035714Y-161154761D01*
X200083333Y-161107142D01*
X200083333Y-160773809D01*
X199892857Y-160773809D01*
X200511904Y-161202380D02*
X200511904Y-160202380D01*
X200750000Y-160202380D01*
X200892857Y-160250000D01*
X200988095Y-160345238D01*
X201035714Y-160440476D01*
X201083333Y-160630952D01*
X201083333Y-160773809D01*
X201035714Y-160964285D01*
X200988095Y-161059523D01*
X200892857Y-161154761D01*
X200750000Y-161202380D01*
X200511904Y-161202380D01*
X201464285Y-160297619D02*
X201511904Y-160250000D01*
X201607142Y-160202380D01*
X201845238Y-160202380D01*
X201940476Y-160250000D01*
X201988095Y-160297619D01*
X202035714Y-160392857D01*
X202035714Y-160488095D01*
X201988095Y-160630952D01*
X201416666Y-161202380D01*
X202035714Y-161202380D01*
%TO.C,GD1*%
X153035714Y-151500000D02*
X152940476Y-151452380D01*
X152797619Y-151452380D01*
X152654761Y-151500000D01*
X152559523Y-151595238D01*
X152511904Y-151690476D01*
X152464285Y-151880952D01*
X152464285Y-152023809D01*
X152511904Y-152214285D01*
X152559523Y-152309523D01*
X152654761Y-152404761D01*
X152797619Y-152452380D01*
X152892857Y-152452380D01*
X153035714Y-152404761D01*
X153083333Y-152357142D01*
X153083333Y-152023809D01*
X152892857Y-152023809D01*
X153511904Y-152452380D02*
X153511904Y-151452380D01*
X153750000Y-151452380D01*
X153892857Y-151500000D01*
X153988095Y-151595238D01*
X154035714Y-151690476D01*
X154083333Y-151880952D01*
X154083333Y-152023809D01*
X154035714Y-152214285D01*
X153988095Y-152309523D01*
X153892857Y-152404761D01*
X153750000Y-152452380D01*
X153511904Y-152452380D01*
X155035714Y-152452380D02*
X154464285Y-152452380D01*
X154750000Y-152452380D02*
X154750000Y-151452380D01*
X154654761Y-151595238D01*
X154559523Y-151690476D01*
X154464285Y-151738095D01*
%TO.C,TR1*%
X179988095Y-168202380D02*
X180559523Y-168202380D01*
X180273809Y-169202380D02*
X180273809Y-168202380D01*
X181464285Y-169202380D02*
X181130952Y-168726190D01*
X180892857Y-169202380D02*
X180892857Y-168202380D01*
X181273809Y-168202380D01*
X181369047Y-168250000D01*
X181416666Y-168297619D01*
X181464285Y-168392857D01*
X181464285Y-168535714D01*
X181416666Y-168630952D01*
X181369047Y-168678571D01*
X181273809Y-168726190D01*
X180892857Y-168726190D01*
X182416666Y-169202380D02*
X181845238Y-169202380D01*
X182130952Y-169202380D02*
X182130952Y-168202380D01*
X182035714Y-168345238D01*
X181940476Y-168440476D01*
X181845238Y-168488095D01*
%TO.C,R42*%
X226357142Y-148952380D02*
X226023809Y-148476190D01*
X225785714Y-148952380D02*
X225785714Y-147952380D01*
X226166666Y-147952380D01*
X226261904Y-148000000D01*
X226309523Y-148047619D01*
X226357142Y-148142857D01*
X226357142Y-148285714D01*
X226309523Y-148380952D01*
X226261904Y-148428571D01*
X226166666Y-148476190D01*
X225785714Y-148476190D01*
X227214285Y-148285714D02*
X227214285Y-148952380D01*
X226976190Y-147904761D02*
X226738095Y-148619047D01*
X227357142Y-148619047D01*
X227690476Y-148047619D02*
X227738095Y-148000000D01*
X227833333Y-147952380D01*
X228071428Y-147952380D01*
X228166666Y-148000000D01*
X228214285Y-148047619D01*
X228261904Y-148142857D01*
X228261904Y-148238095D01*
X228214285Y-148380952D01*
X227642857Y-148952380D01*
X228261904Y-148952380D01*
%TO.C,R41*%
X226357142Y-134952380D02*
X226023809Y-134476190D01*
X225785714Y-134952380D02*
X225785714Y-133952380D01*
X226166666Y-133952380D01*
X226261904Y-134000000D01*
X226309523Y-134047619D01*
X226357142Y-134142857D01*
X226357142Y-134285714D01*
X226309523Y-134380952D01*
X226261904Y-134428571D01*
X226166666Y-134476190D01*
X225785714Y-134476190D01*
X227214285Y-134285714D02*
X227214285Y-134952380D01*
X226976190Y-133904761D02*
X226738095Y-134619047D01*
X227357142Y-134619047D01*
X228261904Y-134952380D02*
X227690476Y-134952380D01*
X227976190Y-134952380D02*
X227976190Y-133952380D01*
X227880952Y-134095238D01*
X227785714Y-134190476D01*
X227690476Y-134238095D01*
%TO.C,R40*%
X226357142Y-121202380D02*
X226023809Y-120726190D01*
X225785714Y-121202380D02*
X225785714Y-120202380D01*
X226166666Y-120202380D01*
X226261904Y-120250000D01*
X226309523Y-120297619D01*
X226357142Y-120392857D01*
X226357142Y-120535714D01*
X226309523Y-120630952D01*
X226261904Y-120678571D01*
X226166666Y-120726190D01*
X225785714Y-120726190D01*
X227214285Y-120535714D02*
X227214285Y-121202380D01*
X226976190Y-120154761D02*
X226738095Y-120869047D01*
X227357142Y-120869047D01*
X227928571Y-120202380D02*
X228023809Y-120202380D01*
X228119047Y-120250000D01*
X228166666Y-120297619D01*
X228214285Y-120392857D01*
X228261904Y-120583333D01*
X228261904Y-120821428D01*
X228214285Y-121011904D01*
X228166666Y-121107142D01*
X228119047Y-121154761D01*
X228023809Y-121202380D01*
X227928571Y-121202380D01*
X227833333Y-121154761D01*
X227785714Y-121107142D01*
X227738095Y-121011904D01*
X227690476Y-120821428D01*
X227690476Y-120583333D01*
X227738095Y-120392857D01*
X227785714Y-120297619D01*
X227833333Y-120250000D01*
X227928571Y-120202380D01*
%TO.C,R39*%
X226357142Y-107202380D02*
X226023809Y-106726190D01*
X225785714Y-107202380D02*
X225785714Y-106202380D01*
X226166666Y-106202380D01*
X226261904Y-106250000D01*
X226309523Y-106297619D01*
X226357142Y-106392857D01*
X226357142Y-106535714D01*
X226309523Y-106630952D01*
X226261904Y-106678571D01*
X226166666Y-106726190D01*
X225785714Y-106726190D01*
X226690476Y-106202380D02*
X227309523Y-106202380D01*
X226976190Y-106583333D01*
X227119047Y-106583333D01*
X227214285Y-106630952D01*
X227261904Y-106678571D01*
X227309523Y-106773809D01*
X227309523Y-107011904D01*
X227261904Y-107107142D01*
X227214285Y-107154761D01*
X227119047Y-107202380D01*
X226833333Y-107202380D01*
X226738095Y-107154761D01*
X226690476Y-107107142D01*
X227785714Y-107202380D02*
X227976190Y-107202380D01*
X228071428Y-107154761D01*
X228119047Y-107107142D01*
X228214285Y-106964285D01*
X228261904Y-106773809D01*
X228261904Y-106392857D01*
X228214285Y-106297619D01*
X228166666Y-106250000D01*
X228071428Y-106202380D01*
X227880952Y-106202380D01*
X227785714Y-106250000D01*
X227738095Y-106297619D01*
X227690476Y-106392857D01*
X227690476Y-106630952D01*
X227738095Y-106726190D01*
X227785714Y-106773809D01*
X227880952Y-106821428D01*
X228071428Y-106821428D01*
X228166666Y-106773809D01*
X228214285Y-106726190D01*
X228261904Y-106630952D01*
%TO.C,R38*%
X226357142Y-92952380D02*
X226023809Y-92476190D01*
X225785714Y-92952380D02*
X225785714Y-91952380D01*
X226166666Y-91952380D01*
X226261904Y-92000000D01*
X226309523Y-92047619D01*
X226357142Y-92142857D01*
X226357142Y-92285714D01*
X226309523Y-92380952D01*
X226261904Y-92428571D01*
X226166666Y-92476190D01*
X225785714Y-92476190D01*
X226690476Y-91952380D02*
X227309523Y-91952380D01*
X226976190Y-92333333D01*
X227119047Y-92333333D01*
X227214285Y-92380952D01*
X227261904Y-92428571D01*
X227309523Y-92523809D01*
X227309523Y-92761904D01*
X227261904Y-92857142D01*
X227214285Y-92904761D01*
X227119047Y-92952380D01*
X226833333Y-92952380D01*
X226738095Y-92904761D01*
X226690476Y-92857142D01*
X227880952Y-92380952D02*
X227785714Y-92333333D01*
X227738095Y-92285714D01*
X227690476Y-92190476D01*
X227690476Y-92142857D01*
X227738095Y-92047619D01*
X227785714Y-92000000D01*
X227880952Y-91952380D01*
X228071428Y-91952380D01*
X228166666Y-92000000D01*
X228214285Y-92047619D01*
X228261904Y-92142857D01*
X228261904Y-92190476D01*
X228214285Y-92285714D01*
X228166666Y-92333333D01*
X228071428Y-92380952D01*
X227880952Y-92380952D01*
X227785714Y-92428571D01*
X227738095Y-92476190D01*
X227690476Y-92571428D01*
X227690476Y-92761904D01*
X227738095Y-92857142D01*
X227785714Y-92904761D01*
X227880952Y-92952380D01*
X228071428Y-92952380D01*
X228166666Y-92904761D01*
X228214285Y-92857142D01*
X228261904Y-92761904D01*
X228261904Y-92571428D01*
X228214285Y-92476190D01*
X228166666Y-92428571D01*
X228071428Y-92380952D01*
%TO.C,R37*%
X188357142Y-107202380D02*
X188023809Y-106726190D01*
X187785714Y-107202380D02*
X187785714Y-106202380D01*
X188166666Y-106202380D01*
X188261904Y-106250000D01*
X188309523Y-106297619D01*
X188357142Y-106392857D01*
X188357142Y-106535714D01*
X188309523Y-106630952D01*
X188261904Y-106678571D01*
X188166666Y-106726190D01*
X187785714Y-106726190D01*
X188690476Y-106202380D02*
X189309523Y-106202380D01*
X188976190Y-106583333D01*
X189119047Y-106583333D01*
X189214285Y-106630952D01*
X189261904Y-106678571D01*
X189309523Y-106773809D01*
X189309523Y-107011904D01*
X189261904Y-107107142D01*
X189214285Y-107154761D01*
X189119047Y-107202380D01*
X188833333Y-107202380D01*
X188738095Y-107154761D01*
X188690476Y-107107142D01*
X189642857Y-106202380D02*
X190309523Y-106202380D01*
X189880952Y-107202380D01*
%TO.C,R36*%
X197607142Y-110702380D02*
X197273809Y-110226190D01*
X197035714Y-110702380D02*
X197035714Y-109702380D01*
X197416666Y-109702380D01*
X197511904Y-109750000D01*
X197559523Y-109797619D01*
X197607142Y-109892857D01*
X197607142Y-110035714D01*
X197559523Y-110130952D01*
X197511904Y-110178571D01*
X197416666Y-110226190D01*
X197035714Y-110226190D01*
X197940476Y-109702380D02*
X198559523Y-109702380D01*
X198226190Y-110083333D01*
X198369047Y-110083333D01*
X198464285Y-110130952D01*
X198511904Y-110178571D01*
X198559523Y-110273809D01*
X198559523Y-110511904D01*
X198511904Y-110607142D01*
X198464285Y-110654761D01*
X198369047Y-110702380D01*
X198083333Y-110702380D01*
X197988095Y-110654761D01*
X197940476Y-110607142D01*
X199416666Y-109702380D02*
X199226190Y-109702380D01*
X199130952Y-109750000D01*
X199083333Y-109797619D01*
X198988095Y-109940476D01*
X198940476Y-110130952D01*
X198940476Y-110511904D01*
X198988095Y-110607142D01*
X199035714Y-110654761D01*
X199130952Y-110702380D01*
X199321428Y-110702380D01*
X199416666Y-110654761D01*
X199464285Y-110607142D01*
X199511904Y-110511904D01*
X199511904Y-110273809D01*
X199464285Y-110178571D01*
X199416666Y-110130952D01*
X199321428Y-110083333D01*
X199130952Y-110083333D01*
X199035714Y-110130952D01*
X198988095Y-110178571D01*
X198940476Y-110273809D01*
%TO.C,R35*%
X201357142Y-113702380D02*
X201023809Y-113226190D01*
X200785714Y-113702380D02*
X200785714Y-112702380D01*
X201166666Y-112702380D01*
X201261904Y-112750000D01*
X201309523Y-112797619D01*
X201357142Y-112892857D01*
X201357142Y-113035714D01*
X201309523Y-113130952D01*
X201261904Y-113178571D01*
X201166666Y-113226190D01*
X200785714Y-113226190D01*
X201690476Y-112702380D02*
X202309523Y-112702380D01*
X201976190Y-113083333D01*
X202119047Y-113083333D01*
X202214285Y-113130952D01*
X202261904Y-113178571D01*
X202309523Y-113273809D01*
X202309523Y-113511904D01*
X202261904Y-113607142D01*
X202214285Y-113654761D01*
X202119047Y-113702380D01*
X201833333Y-113702380D01*
X201738095Y-113654761D01*
X201690476Y-113607142D01*
X203214285Y-112702380D02*
X202738095Y-112702380D01*
X202690476Y-113178571D01*
X202738095Y-113130952D01*
X202833333Y-113083333D01*
X203071428Y-113083333D01*
X203166666Y-113130952D01*
X203214285Y-113178571D01*
X203261904Y-113273809D01*
X203261904Y-113511904D01*
X203214285Y-113607142D01*
X203166666Y-113654761D01*
X203071428Y-113702380D01*
X202833333Y-113702380D01*
X202738095Y-113654761D01*
X202690476Y-113607142D01*
%TO.C,R34*%
X197857142Y-116702380D02*
X197523809Y-116226190D01*
X197285714Y-116702380D02*
X197285714Y-115702380D01*
X197666666Y-115702380D01*
X197761904Y-115750000D01*
X197809523Y-115797619D01*
X197857142Y-115892857D01*
X197857142Y-116035714D01*
X197809523Y-116130952D01*
X197761904Y-116178571D01*
X197666666Y-116226190D01*
X197285714Y-116226190D01*
X198190476Y-115702380D02*
X198809523Y-115702380D01*
X198476190Y-116083333D01*
X198619047Y-116083333D01*
X198714285Y-116130952D01*
X198761904Y-116178571D01*
X198809523Y-116273809D01*
X198809523Y-116511904D01*
X198761904Y-116607142D01*
X198714285Y-116654761D01*
X198619047Y-116702380D01*
X198333333Y-116702380D01*
X198238095Y-116654761D01*
X198190476Y-116607142D01*
X199666666Y-116035714D02*
X199666666Y-116702380D01*
X199428571Y-115654761D02*
X199190476Y-116369047D01*
X199809523Y-116369047D01*
%TO.C,R33*%
X197857142Y-120452380D02*
X197523809Y-119976190D01*
X197285714Y-120452380D02*
X197285714Y-119452380D01*
X197666666Y-119452380D01*
X197761904Y-119500000D01*
X197809523Y-119547619D01*
X197857142Y-119642857D01*
X197857142Y-119785714D01*
X197809523Y-119880952D01*
X197761904Y-119928571D01*
X197666666Y-119976190D01*
X197285714Y-119976190D01*
X198190476Y-119452380D02*
X198809523Y-119452380D01*
X198476190Y-119833333D01*
X198619047Y-119833333D01*
X198714285Y-119880952D01*
X198761904Y-119928571D01*
X198809523Y-120023809D01*
X198809523Y-120261904D01*
X198761904Y-120357142D01*
X198714285Y-120404761D01*
X198619047Y-120452380D01*
X198333333Y-120452380D01*
X198238095Y-120404761D01*
X198190476Y-120357142D01*
X199142857Y-119452380D02*
X199761904Y-119452380D01*
X199428571Y-119833333D01*
X199571428Y-119833333D01*
X199666666Y-119880952D01*
X199714285Y-119928571D01*
X199761904Y-120023809D01*
X199761904Y-120261904D01*
X199714285Y-120357142D01*
X199666666Y-120404761D01*
X199571428Y-120452380D01*
X199285714Y-120452380D01*
X199190476Y-120404761D01*
X199142857Y-120357142D01*
%TO.C,R32*%
X201107142Y-123452380D02*
X200773809Y-122976190D01*
X200535714Y-123452380D02*
X200535714Y-122452380D01*
X200916666Y-122452380D01*
X201011904Y-122500000D01*
X201059523Y-122547619D01*
X201107142Y-122642857D01*
X201107142Y-122785714D01*
X201059523Y-122880952D01*
X201011904Y-122928571D01*
X200916666Y-122976190D01*
X200535714Y-122976190D01*
X201440476Y-122452380D02*
X202059523Y-122452380D01*
X201726190Y-122833333D01*
X201869047Y-122833333D01*
X201964285Y-122880952D01*
X202011904Y-122928571D01*
X202059523Y-123023809D01*
X202059523Y-123261904D01*
X202011904Y-123357142D01*
X201964285Y-123404761D01*
X201869047Y-123452380D01*
X201583333Y-123452380D01*
X201488095Y-123404761D01*
X201440476Y-123357142D01*
X202440476Y-122547619D02*
X202488095Y-122500000D01*
X202583333Y-122452380D01*
X202821428Y-122452380D01*
X202916666Y-122500000D01*
X202964285Y-122547619D01*
X203011904Y-122642857D01*
X203011904Y-122738095D01*
X202964285Y-122880952D01*
X202392857Y-123452380D01*
X203011904Y-123452380D01*
%TO.C,R31*%
X201107142Y-137452380D02*
X200773809Y-136976190D01*
X200535714Y-137452380D02*
X200535714Y-136452380D01*
X200916666Y-136452380D01*
X201011904Y-136500000D01*
X201059523Y-136547619D01*
X201107142Y-136642857D01*
X201107142Y-136785714D01*
X201059523Y-136880952D01*
X201011904Y-136928571D01*
X200916666Y-136976190D01*
X200535714Y-136976190D01*
X201440476Y-136452380D02*
X202059523Y-136452380D01*
X201726190Y-136833333D01*
X201869047Y-136833333D01*
X201964285Y-136880952D01*
X202011904Y-136928571D01*
X202059523Y-137023809D01*
X202059523Y-137261904D01*
X202011904Y-137357142D01*
X201964285Y-137404761D01*
X201869047Y-137452380D01*
X201583333Y-137452380D01*
X201488095Y-137404761D01*
X201440476Y-137357142D01*
X203011904Y-137452380D02*
X202440476Y-137452380D01*
X202726190Y-137452380D02*
X202726190Y-136452380D01*
X202630952Y-136595238D01*
X202535714Y-136690476D01*
X202440476Y-136738095D01*
%TO.C,R30*%
X188857142Y-137452380D02*
X188523809Y-136976190D01*
X188285714Y-137452380D02*
X188285714Y-136452380D01*
X188666666Y-136452380D01*
X188761904Y-136500000D01*
X188809523Y-136547619D01*
X188857142Y-136642857D01*
X188857142Y-136785714D01*
X188809523Y-136880952D01*
X188761904Y-136928571D01*
X188666666Y-136976190D01*
X188285714Y-136976190D01*
X189190476Y-136452380D02*
X189809523Y-136452380D01*
X189476190Y-136833333D01*
X189619047Y-136833333D01*
X189714285Y-136880952D01*
X189761904Y-136928571D01*
X189809523Y-137023809D01*
X189809523Y-137261904D01*
X189761904Y-137357142D01*
X189714285Y-137404761D01*
X189619047Y-137452380D01*
X189333333Y-137452380D01*
X189238095Y-137404761D01*
X189190476Y-137357142D01*
X190428571Y-136452380D02*
X190523809Y-136452380D01*
X190619047Y-136500000D01*
X190666666Y-136547619D01*
X190714285Y-136642857D01*
X190761904Y-136833333D01*
X190761904Y-137071428D01*
X190714285Y-137261904D01*
X190666666Y-137357142D01*
X190619047Y-137404761D01*
X190523809Y-137452380D01*
X190428571Y-137452380D01*
X190333333Y-137404761D01*
X190285714Y-137357142D01*
X190238095Y-137261904D01*
X190190476Y-137071428D01*
X190190476Y-136833333D01*
X190238095Y-136642857D01*
X190285714Y-136547619D01*
X190333333Y-136500000D01*
X190428571Y-136452380D01*
%TO.C,R29*%
X197857142Y-140452380D02*
X197523809Y-139976190D01*
X197285714Y-140452380D02*
X197285714Y-139452380D01*
X197666666Y-139452380D01*
X197761904Y-139500000D01*
X197809523Y-139547619D01*
X197857142Y-139642857D01*
X197857142Y-139785714D01*
X197809523Y-139880952D01*
X197761904Y-139928571D01*
X197666666Y-139976190D01*
X197285714Y-139976190D01*
X198238095Y-139547619D02*
X198285714Y-139500000D01*
X198380952Y-139452380D01*
X198619047Y-139452380D01*
X198714285Y-139500000D01*
X198761904Y-139547619D01*
X198809523Y-139642857D01*
X198809523Y-139738095D01*
X198761904Y-139880952D01*
X198190476Y-140452380D01*
X198809523Y-140452380D01*
X199285714Y-140452380D02*
X199476190Y-140452380D01*
X199571428Y-140404761D01*
X199619047Y-140357142D01*
X199714285Y-140214285D01*
X199761904Y-140023809D01*
X199761904Y-139642857D01*
X199714285Y-139547619D01*
X199666666Y-139500000D01*
X199571428Y-139452380D01*
X199380952Y-139452380D01*
X199285714Y-139500000D01*
X199238095Y-139547619D01*
X199190476Y-139642857D01*
X199190476Y-139880952D01*
X199238095Y-139976190D01*
X199285714Y-140023809D01*
X199380952Y-140071428D01*
X199571428Y-140071428D01*
X199666666Y-140023809D01*
X199714285Y-139976190D01*
X199761904Y-139880952D01*
%TO.C,R28*%
X197857142Y-143952380D02*
X197523809Y-143476190D01*
X197285714Y-143952380D02*
X197285714Y-142952380D01*
X197666666Y-142952380D01*
X197761904Y-143000000D01*
X197809523Y-143047619D01*
X197857142Y-143142857D01*
X197857142Y-143285714D01*
X197809523Y-143380952D01*
X197761904Y-143428571D01*
X197666666Y-143476190D01*
X197285714Y-143476190D01*
X198238095Y-143047619D02*
X198285714Y-143000000D01*
X198380952Y-142952380D01*
X198619047Y-142952380D01*
X198714285Y-143000000D01*
X198761904Y-143047619D01*
X198809523Y-143142857D01*
X198809523Y-143238095D01*
X198761904Y-143380952D01*
X198190476Y-143952380D01*
X198809523Y-143952380D01*
X199380952Y-143380952D02*
X199285714Y-143333333D01*
X199238095Y-143285714D01*
X199190476Y-143190476D01*
X199190476Y-143142857D01*
X199238095Y-143047619D01*
X199285714Y-143000000D01*
X199380952Y-142952380D01*
X199571428Y-142952380D01*
X199666666Y-143000000D01*
X199714285Y-143047619D01*
X199761904Y-143142857D01*
X199761904Y-143190476D01*
X199714285Y-143285714D01*
X199666666Y-143333333D01*
X199571428Y-143380952D01*
X199380952Y-143380952D01*
X199285714Y-143428571D01*
X199238095Y-143476190D01*
X199190476Y-143571428D01*
X199190476Y-143761904D01*
X199238095Y-143857142D01*
X199285714Y-143904761D01*
X199380952Y-143952380D01*
X199571428Y-143952380D01*
X199666666Y-143904761D01*
X199714285Y-143857142D01*
X199761904Y-143761904D01*
X199761904Y-143571428D01*
X199714285Y-143476190D01*
X199666666Y-143428571D01*
X199571428Y-143380952D01*
%TO.C,R27*%
X201107142Y-147202380D02*
X200773809Y-146726190D01*
X200535714Y-147202380D02*
X200535714Y-146202380D01*
X200916666Y-146202380D01*
X201011904Y-146250000D01*
X201059523Y-146297619D01*
X201107142Y-146392857D01*
X201107142Y-146535714D01*
X201059523Y-146630952D01*
X201011904Y-146678571D01*
X200916666Y-146726190D01*
X200535714Y-146726190D01*
X201488095Y-146297619D02*
X201535714Y-146250000D01*
X201630952Y-146202380D01*
X201869047Y-146202380D01*
X201964285Y-146250000D01*
X202011904Y-146297619D01*
X202059523Y-146392857D01*
X202059523Y-146488095D01*
X202011904Y-146630952D01*
X201440476Y-147202380D01*
X202059523Y-147202380D01*
X202392857Y-146202380D02*
X203059523Y-146202380D01*
X202630952Y-147202380D01*
%TO.C,R26*%
X188607142Y-147202380D02*
X188273809Y-146726190D01*
X188035714Y-147202380D02*
X188035714Y-146202380D01*
X188416666Y-146202380D01*
X188511904Y-146250000D01*
X188559523Y-146297619D01*
X188607142Y-146392857D01*
X188607142Y-146535714D01*
X188559523Y-146630952D01*
X188511904Y-146678571D01*
X188416666Y-146726190D01*
X188035714Y-146726190D01*
X188988095Y-146297619D02*
X189035714Y-146250000D01*
X189130952Y-146202380D01*
X189369047Y-146202380D01*
X189464285Y-146250000D01*
X189511904Y-146297619D01*
X189559523Y-146392857D01*
X189559523Y-146488095D01*
X189511904Y-146630952D01*
X188940476Y-147202380D01*
X189559523Y-147202380D01*
X190416666Y-146202380D02*
X190226190Y-146202380D01*
X190130952Y-146250000D01*
X190083333Y-146297619D01*
X189988095Y-146440476D01*
X189940476Y-146630952D01*
X189940476Y-147011904D01*
X189988095Y-147107142D01*
X190035714Y-147154761D01*
X190130952Y-147202380D01*
X190321428Y-147202380D01*
X190416666Y-147154761D01*
X190464285Y-147107142D01*
X190511904Y-147011904D01*
X190511904Y-146773809D01*
X190464285Y-146678571D01*
X190416666Y-146630952D01*
X190321428Y-146583333D01*
X190130952Y-146583333D01*
X190035714Y-146630952D01*
X189988095Y-146678571D01*
X189940476Y-146773809D01*
%TO.C,R25*%
X132107142Y-148452380D02*
X131773809Y-147976190D01*
X131535714Y-148452380D02*
X131535714Y-147452380D01*
X131916666Y-147452380D01*
X132011904Y-147500000D01*
X132059523Y-147547619D01*
X132107142Y-147642857D01*
X132107142Y-147785714D01*
X132059523Y-147880952D01*
X132011904Y-147928571D01*
X131916666Y-147976190D01*
X131535714Y-147976190D01*
X132488095Y-147547619D02*
X132535714Y-147500000D01*
X132630952Y-147452380D01*
X132869047Y-147452380D01*
X132964285Y-147500000D01*
X133011904Y-147547619D01*
X133059523Y-147642857D01*
X133059523Y-147738095D01*
X133011904Y-147880952D01*
X132440476Y-148452380D01*
X133059523Y-148452380D01*
X133964285Y-147452380D02*
X133488095Y-147452380D01*
X133440476Y-147928571D01*
X133488095Y-147880952D01*
X133583333Y-147833333D01*
X133821428Y-147833333D01*
X133916666Y-147880952D01*
X133964285Y-147928571D01*
X134011904Y-148023809D01*
X134011904Y-148261904D01*
X133964285Y-148357142D01*
X133916666Y-148404761D01*
X133821428Y-148452380D01*
X133583333Y-148452380D01*
X133488095Y-148404761D01*
X133440476Y-148357142D01*
%TO.C,R24*%
X132107142Y-134452380D02*
X131773809Y-133976190D01*
X131535714Y-134452380D02*
X131535714Y-133452380D01*
X131916666Y-133452380D01*
X132011904Y-133500000D01*
X132059523Y-133547619D01*
X132107142Y-133642857D01*
X132107142Y-133785714D01*
X132059523Y-133880952D01*
X132011904Y-133928571D01*
X131916666Y-133976190D01*
X131535714Y-133976190D01*
X132488095Y-133547619D02*
X132535714Y-133500000D01*
X132630952Y-133452380D01*
X132869047Y-133452380D01*
X132964285Y-133500000D01*
X133011904Y-133547619D01*
X133059523Y-133642857D01*
X133059523Y-133738095D01*
X133011904Y-133880952D01*
X132440476Y-134452380D01*
X133059523Y-134452380D01*
X133916666Y-133785714D02*
X133916666Y-134452380D01*
X133678571Y-133404761D02*
X133440476Y-134119047D01*
X134059523Y-134119047D01*
%TO.C,R23*%
X131857142Y-120202380D02*
X131523809Y-119726190D01*
X131285714Y-120202380D02*
X131285714Y-119202380D01*
X131666666Y-119202380D01*
X131761904Y-119250000D01*
X131809523Y-119297619D01*
X131857142Y-119392857D01*
X131857142Y-119535714D01*
X131809523Y-119630952D01*
X131761904Y-119678571D01*
X131666666Y-119726190D01*
X131285714Y-119726190D01*
X132238095Y-119297619D02*
X132285714Y-119250000D01*
X132380952Y-119202380D01*
X132619047Y-119202380D01*
X132714285Y-119250000D01*
X132761904Y-119297619D01*
X132809523Y-119392857D01*
X132809523Y-119488095D01*
X132761904Y-119630952D01*
X132190476Y-120202380D01*
X132809523Y-120202380D01*
X133142857Y-119202380D02*
X133761904Y-119202380D01*
X133428571Y-119583333D01*
X133571428Y-119583333D01*
X133666666Y-119630952D01*
X133714285Y-119678571D01*
X133761904Y-119773809D01*
X133761904Y-120011904D01*
X133714285Y-120107142D01*
X133666666Y-120154761D01*
X133571428Y-120202380D01*
X133285714Y-120202380D01*
X133190476Y-120154761D01*
X133142857Y-120107142D01*
%TO.C,R22*%
X132107142Y-106202380D02*
X131773809Y-105726190D01*
X131535714Y-106202380D02*
X131535714Y-105202380D01*
X131916666Y-105202380D01*
X132011904Y-105250000D01*
X132059523Y-105297619D01*
X132107142Y-105392857D01*
X132107142Y-105535714D01*
X132059523Y-105630952D01*
X132011904Y-105678571D01*
X131916666Y-105726190D01*
X131535714Y-105726190D01*
X132488095Y-105297619D02*
X132535714Y-105250000D01*
X132630952Y-105202380D01*
X132869047Y-105202380D01*
X132964285Y-105250000D01*
X133011904Y-105297619D01*
X133059523Y-105392857D01*
X133059523Y-105488095D01*
X133011904Y-105630952D01*
X132440476Y-106202380D01*
X133059523Y-106202380D01*
X133440476Y-105297619D02*
X133488095Y-105250000D01*
X133583333Y-105202380D01*
X133821428Y-105202380D01*
X133916666Y-105250000D01*
X133964285Y-105297619D01*
X134011904Y-105392857D01*
X134011904Y-105488095D01*
X133964285Y-105630952D01*
X133392857Y-106202380D01*
X134011904Y-106202380D01*
%TO.C,R21*%
X132107142Y-92202380D02*
X131773809Y-91726190D01*
X131535714Y-92202380D02*
X131535714Y-91202380D01*
X131916666Y-91202380D01*
X132011904Y-91250000D01*
X132059523Y-91297619D01*
X132107142Y-91392857D01*
X132107142Y-91535714D01*
X132059523Y-91630952D01*
X132011904Y-91678571D01*
X131916666Y-91726190D01*
X131535714Y-91726190D01*
X132488095Y-91297619D02*
X132535714Y-91250000D01*
X132630952Y-91202380D01*
X132869047Y-91202380D01*
X132964285Y-91250000D01*
X133011904Y-91297619D01*
X133059523Y-91392857D01*
X133059523Y-91488095D01*
X133011904Y-91630952D01*
X132440476Y-92202380D01*
X133059523Y-92202380D01*
X134011904Y-92202380D02*
X133440476Y-92202380D01*
X133726190Y-92202380D02*
X133726190Y-91202380D01*
X133630952Y-91345238D01*
X133535714Y-91440476D01*
X133440476Y-91488095D01*
%TO.C,R20*%
X170107142Y-106952380D02*
X169773809Y-106476190D01*
X169535714Y-106952380D02*
X169535714Y-105952380D01*
X169916666Y-105952380D01*
X170011904Y-106000000D01*
X170059523Y-106047619D01*
X170107142Y-106142857D01*
X170107142Y-106285714D01*
X170059523Y-106380952D01*
X170011904Y-106428571D01*
X169916666Y-106476190D01*
X169535714Y-106476190D01*
X170488095Y-106047619D02*
X170535714Y-106000000D01*
X170630952Y-105952380D01*
X170869047Y-105952380D01*
X170964285Y-106000000D01*
X171011904Y-106047619D01*
X171059523Y-106142857D01*
X171059523Y-106238095D01*
X171011904Y-106380952D01*
X170440476Y-106952380D01*
X171059523Y-106952380D01*
X171678571Y-105952380D02*
X171773809Y-105952380D01*
X171869047Y-106000000D01*
X171916666Y-106047619D01*
X171964285Y-106142857D01*
X172011904Y-106333333D01*
X172011904Y-106571428D01*
X171964285Y-106761904D01*
X171916666Y-106857142D01*
X171869047Y-106904761D01*
X171773809Y-106952380D01*
X171678571Y-106952380D01*
X171583333Y-106904761D01*
X171535714Y-106857142D01*
X171488095Y-106761904D01*
X171440476Y-106571428D01*
X171440476Y-106333333D01*
X171488095Y-106142857D01*
X171535714Y-106047619D01*
X171583333Y-106000000D01*
X171678571Y-105952380D01*
%TO.C,R19*%
X166607142Y-110202380D02*
X166273809Y-109726190D01*
X166035714Y-110202380D02*
X166035714Y-109202380D01*
X166416666Y-109202380D01*
X166511904Y-109250000D01*
X166559523Y-109297619D01*
X166607142Y-109392857D01*
X166607142Y-109535714D01*
X166559523Y-109630952D01*
X166511904Y-109678571D01*
X166416666Y-109726190D01*
X166035714Y-109726190D01*
X167559523Y-110202380D02*
X166988095Y-110202380D01*
X167273809Y-110202380D02*
X167273809Y-109202380D01*
X167178571Y-109345238D01*
X167083333Y-109440476D01*
X166988095Y-109488095D01*
X168035714Y-110202380D02*
X168226190Y-110202380D01*
X168321428Y-110154761D01*
X168369047Y-110107142D01*
X168464285Y-109964285D01*
X168511904Y-109773809D01*
X168511904Y-109392857D01*
X168464285Y-109297619D01*
X168416666Y-109250000D01*
X168321428Y-109202380D01*
X168130952Y-109202380D01*
X168035714Y-109250000D01*
X167988095Y-109297619D01*
X167940476Y-109392857D01*
X167940476Y-109630952D01*
X167988095Y-109726190D01*
X168035714Y-109773809D01*
X168130952Y-109821428D01*
X168321428Y-109821428D01*
X168416666Y-109773809D01*
X168464285Y-109726190D01*
X168511904Y-109630952D01*
%TO.C,R18*%
X157607142Y-113702380D02*
X157273809Y-113226190D01*
X157035714Y-113702380D02*
X157035714Y-112702380D01*
X157416666Y-112702380D01*
X157511904Y-112750000D01*
X157559523Y-112797619D01*
X157607142Y-112892857D01*
X157607142Y-113035714D01*
X157559523Y-113130952D01*
X157511904Y-113178571D01*
X157416666Y-113226190D01*
X157035714Y-113226190D01*
X158559523Y-113702380D02*
X157988095Y-113702380D01*
X158273809Y-113702380D02*
X158273809Y-112702380D01*
X158178571Y-112845238D01*
X158083333Y-112940476D01*
X157988095Y-112988095D01*
X159130952Y-113130952D02*
X159035714Y-113083333D01*
X158988095Y-113035714D01*
X158940476Y-112940476D01*
X158940476Y-112892857D01*
X158988095Y-112797619D01*
X159035714Y-112750000D01*
X159130952Y-112702380D01*
X159321428Y-112702380D01*
X159416666Y-112750000D01*
X159464285Y-112797619D01*
X159511904Y-112892857D01*
X159511904Y-112940476D01*
X159464285Y-113035714D01*
X159416666Y-113083333D01*
X159321428Y-113130952D01*
X159130952Y-113130952D01*
X159035714Y-113178571D01*
X158988095Y-113226190D01*
X158940476Y-113321428D01*
X158940476Y-113511904D01*
X158988095Y-113607142D01*
X159035714Y-113654761D01*
X159130952Y-113702380D01*
X159321428Y-113702380D01*
X159416666Y-113654761D01*
X159464285Y-113607142D01*
X159511904Y-113511904D01*
X159511904Y-113321428D01*
X159464285Y-113226190D01*
X159416666Y-113178571D01*
X159321428Y-113130952D01*
%TO.C,R17*%
X166357142Y-116702380D02*
X166023809Y-116226190D01*
X165785714Y-116702380D02*
X165785714Y-115702380D01*
X166166666Y-115702380D01*
X166261904Y-115750000D01*
X166309523Y-115797619D01*
X166357142Y-115892857D01*
X166357142Y-116035714D01*
X166309523Y-116130952D01*
X166261904Y-116178571D01*
X166166666Y-116226190D01*
X165785714Y-116226190D01*
X167309523Y-116702380D02*
X166738095Y-116702380D01*
X167023809Y-116702380D02*
X167023809Y-115702380D01*
X166928571Y-115845238D01*
X166833333Y-115940476D01*
X166738095Y-115988095D01*
X167642857Y-115702380D02*
X168309523Y-115702380D01*
X167880952Y-116702380D01*
%TO.C,R16*%
X166357142Y-120452380D02*
X166023809Y-119976190D01*
X165785714Y-120452380D02*
X165785714Y-119452380D01*
X166166666Y-119452380D01*
X166261904Y-119500000D01*
X166309523Y-119547619D01*
X166357142Y-119642857D01*
X166357142Y-119785714D01*
X166309523Y-119880952D01*
X166261904Y-119928571D01*
X166166666Y-119976190D01*
X165785714Y-119976190D01*
X167309523Y-120452380D02*
X166738095Y-120452380D01*
X167023809Y-120452380D02*
X167023809Y-119452380D01*
X166928571Y-119595238D01*
X166833333Y-119690476D01*
X166738095Y-119738095D01*
X168166666Y-119452380D02*
X167976190Y-119452380D01*
X167880952Y-119500000D01*
X167833333Y-119547619D01*
X167738095Y-119690476D01*
X167690476Y-119880952D01*
X167690476Y-120261904D01*
X167738095Y-120357142D01*
X167785714Y-120404761D01*
X167880952Y-120452380D01*
X168071428Y-120452380D01*
X168166666Y-120404761D01*
X168214285Y-120357142D01*
X168261904Y-120261904D01*
X168261904Y-120023809D01*
X168214285Y-119928571D01*
X168166666Y-119880952D01*
X168071428Y-119833333D01*
X167880952Y-119833333D01*
X167785714Y-119880952D01*
X167738095Y-119928571D01*
X167690476Y-120023809D01*
%TO.C,R15*%
X157607142Y-123452380D02*
X157273809Y-122976190D01*
X157035714Y-123452380D02*
X157035714Y-122452380D01*
X157416666Y-122452380D01*
X157511904Y-122500000D01*
X157559523Y-122547619D01*
X157607142Y-122642857D01*
X157607142Y-122785714D01*
X157559523Y-122880952D01*
X157511904Y-122928571D01*
X157416666Y-122976190D01*
X157035714Y-122976190D01*
X158559523Y-123452380D02*
X157988095Y-123452380D01*
X158273809Y-123452380D02*
X158273809Y-122452380D01*
X158178571Y-122595238D01*
X158083333Y-122690476D01*
X157988095Y-122738095D01*
X159464285Y-122452380D02*
X158988095Y-122452380D01*
X158940476Y-122928571D01*
X158988095Y-122880952D01*
X159083333Y-122833333D01*
X159321428Y-122833333D01*
X159416666Y-122880952D01*
X159464285Y-122928571D01*
X159511904Y-123023809D01*
X159511904Y-123261904D01*
X159464285Y-123357142D01*
X159416666Y-123404761D01*
X159321428Y-123452380D01*
X159083333Y-123452380D01*
X158988095Y-123404761D01*
X158940476Y-123357142D01*
%TO.C,R14*%
X157607142Y-137452380D02*
X157273809Y-136976190D01*
X157035714Y-137452380D02*
X157035714Y-136452380D01*
X157416666Y-136452380D01*
X157511904Y-136500000D01*
X157559523Y-136547619D01*
X157607142Y-136642857D01*
X157607142Y-136785714D01*
X157559523Y-136880952D01*
X157511904Y-136928571D01*
X157416666Y-136976190D01*
X157035714Y-136976190D01*
X158559523Y-137452380D02*
X157988095Y-137452380D01*
X158273809Y-137452380D02*
X158273809Y-136452380D01*
X158178571Y-136595238D01*
X158083333Y-136690476D01*
X157988095Y-136738095D01*
X159416666Y-136785714D02*
X159416666Y-137452380D01*
X159178571Y-136404761D02*
X158940476Y-137119047D01*
X159559523Y-137119047D01*
%TO.C,R13*%
X169857142Y-137452380D02*
X169523809Y-136976190D01*
X169285714Y-137452380D02*
X169285714Y-136452380D01*
X169666666Y-136452380D01*
X169761904Y-136500000D01*
X169809523Y-136547619D01*
X169857142Y-136642857D01*
X169857142Y-136785714D01*
X169809523Y-136880952D01*
X169761904Y-136928571D01*
X169666666Y-136976190D01*
X169285714Y-136976190D01*
X170809523Y-137452380D02*
X170238095Y-137452380D01*
X170523809Y-137452380D02*
X170523809Y-136452380D01*
X170428571Y-136595238D01*
X170333333Y-136690476D01*
X170238095Y-136738095D01*
X171142857Y-136452380D02*
X171761904Y-136452380D01*
X171428571Y-136833333D01*
X171571428Y-136833333D01*
X171666666Y-136880952D01*
X171714285Y-136928571D01*
X171761904Y-137023809D01*
X171761904Y-137261904D01*
X171714285Y-137357142D01*
X171666666Y-137404761D01*
X171571428Y-137452380D01*
X171285714Y-137452380D01*
X171190476Y-137404761D01*
X171142857Y-137357142D01*
%TO.C,R12*%
X166607142Y-140452380D02*
X166273809Y-139976190D01*
X166035714Y-140452380D02*
X166035714Y-139452380D01*
X166416666Y-139452380D01*
X166511904Y-139500000D01*
X166559523Y-139547619D01*
X166607142Y-139642857D01*
X166607142Y-139785714D01*
X166559523Y-139880952D01*
X166511904Y-139928571D01*
X166416666Y-139976190D01*
X166035714Y-139976190D01*
X167559523Y-140452380D02*
X166988095Y-140452380D01*
X167273809Y-140452380D02*
X167273809Y-139452380D01*
X167178571Y-139595238D01*
X167083333Y-139690476D01*
X166988095Y-139738095D01*
X167940476Y-139547619D02*
X167988095Y-139500000D01*
X168083333Y-139452380D01*
X168321428Y-139452380D01*
X168416666Y-139500000D01*
X168464285Y-139547619D01*
X168511904Y-139642857D01*
X168511904Y-139738095D01*
X168464285Y-139880952D01*
X167892857Y-140452380D01*
X168511904Y-140452380D01*
%TO.C,R11*%
X166607142Y-144202380D02*
X166273809Y-143726190D01*
X166035714Y-144202380D02*
X166035714Y-143202380D01*
X166416666Y-143202380D01*
X166511904Y-143250000D01*
X166559523Y-143297619D01*
X166607142Y-143392857D01*
X166607142Y-143535714D01*
X166559523Y-143630952D01*
X166511904Y-143678571D01*
X166416666Y-143726190D01*
X166035714Y-143726190D01*
X167559523Y-144202380D02*
X166988095Y-144202380D01*
X167273809Y-144202380D02*
X167273809Y-143202380D01*
X167178571Y-143345238D01*
X167083333Y-143440476D01*
X166988095Y-143488095D01*
X168511904Y-144202380D02*
X167940476Y-144202380D01*
X168226190Y-144202380D02*
X168226190Y-143202380D01*
X168130952Y-143345238D01*
X168035714Y-143440476D01*
X167940476Y-143488095D01*
%TO.C,R10*%
X170107142Y-147452380D02*
X169773809Y-146976190D01*
X169535714Y-147452380D02*
X169535714Y-146452380D01*
X169916666Y-146452380D01*
X170011904Y-146500000D01*
X170059523Y-146547619D01*
X170107142Y-146642857D01*
X170107142Y-146785714D01*
X170059523Y-146880952D01*
X170011904Y-146928571D01*
X169916666Y-146976190D01*
X169535714Y-146976190D01*
X171059523Y-147452380D02*
X170488095Y-147452380D01*
X170773809Y-147452380D02*
X170773809Y-146452380D01*
X170678571Y-146595238D01*
X170583333Y-146690476D01*
X170488095Y-146738095D01*
X171678571Y-146452380D02*
X171773809Y-146452380D01*
X171869047Y-146500000D01*
X171916666Y-146547619D01*
X171964285Y-146642857D01*
X172011904Y-146833333D01*
X172011904Y-147071428D01*
X171964285Y-147261904D01*
X171916666Y-147357142D01*
X171869047Y-147404761D01*
X171773809Y-147452380D01*
X171678571Y-147452380D01*
X171583333Y-147404761D01*
X171535714Y-147357142D01*
X171488095Y-147261904D01*
X171440476Y-147071428D01*
X171440476Y-146833333D01*
X171488095Y-146642857D01*
X171535714Y-146547619D01*
X171583333Y-146500000D01*
X171678571Y-146452380D01*
%TO.C,R9*%
X158583333Y-147452380D02*
X158250000Y-146976190D01*
X158011904Y-147452380D02*
X158011904Y-146452380D01*
X158392857Y-146452380D01*
X158488095Y-146500000D01*
X158535714Y-146547619D01*
X158583333Y-146642857D01*
X158583333Y-146785714D01*
X158535714Y-146880952D01*
X158488095Y-146928571D01*
X158392857Y-146976190D01*
X158011904Y-146976190D01*
X159059523Y-147452380D02*
X159250000Y-147452380D01*
X159345238Y-147404761D01*
X159392857Y-147357142D01*
X159488095Y-147214285D01*
X159535714Y-147023809D01*
X159535714Y-146642857D01*
X159488095Y-146547619D01*
X159440476Y-146500000D01*
X159345238Y-146452380D01*
X159154761Y-146452380D01*
X159059523Y-146500000D01*
X159011904Y-146547619D01*
X158964285Y-146642857D01*
X158964285Y-146880952D01*
X159011904Y-146976190D01*
X159059523Y-147023809D01*
X159154761Y-147071428D01*
X159345238Y-147071428D01*
X159440476Y-147023809D01*
X159488095Y-146976190D01*
X159535714Y-146880952D01*
%TO.C,R8*%
X183583333Y-185702380D02*
X183250000Y-185226190D01*
X183011904Y-185702380D02*
X183011904Y-184702380D01*
X183392857Y-184702380D01*
X183488095Y-184750000D01*
X183535714Y-184797619D01*
X183583333Y-184892857D01*
X183583333Y-185035714D01*
X183535714Y-185130952D01*
X183488095Y-185178571D01*
X183392857Y-185226190D01*
X183011904Y-185226190D01*
X184154761Y-185130952D02*
X184059523Y-185083333D01*
X184011904Y-185035714D01*
X183964285Y-184940476D01*
X183964285Y-184892857D01*
X184011904Y-184797619D01*
X184059523Y-184750000D01*
X184154761Y-184702380D01*
X184345238Y-184702380D01*
X184440476Y-184750000D01*
X184488095Y-184797619D01*
X184535714Y-184892857D01*
X184535714Y-184940476D01*
X184488095Y-185035714D01*
X184440476Y-185083333D01*
X184345238Y-185130952D01*
X184154761Y-185130952D01*
X184059523Y-185178571D01*
X184011904Y-185226190D01*
X183964285Y-185321428D01*
X183964285Y-185511904D01*
X184011904Y-185607142D01*
X184059523Y-185654761D01*
X184154761Y-185702380D01*
X184345238Y-185702380D01*
X184440476Y-185654761D01*
X184488095Y-185607142D01*
X184535714Y-185511904D01*
X184535714Y-185321428D01*
X184488095Y-185226190D01*
X184440476Y-185178571D01*
X184345238Y-185130952D01*
%TO.C,R7*%
X183583333Y-182452380D02*
X183250000Y-181976190D01*
X183011904Y-182452380D02*
X183011904Y-181452380D01*
X183392857Y-181452380D01*
X183488095Y-181500000D01*
X183535714Y-181547619D01*
X183583333Y-181642857D01*
X183583333Y-181785714D01*
X183535714Y-181880952D01*
X183488095Y-181928571D01*
X183392857Y-181976190D01*
X183011904Y-181976190D01*
X183916666Y-181452380D02*
X184583333Y-181452380D01*
X184154761Y-182452380D01*
%TO.C,R6*%
X197583333Y-185952380D02*
X197250000Y-185476190D01*
X197011904Y-185952380D02*
X197011904Y-184952380D01*
X197392857Y-184952380D01*
X197488095Y-185000000D01*
X197535714Y-185047619D01*
X197583333Y-185142857D01*
X197583333Y-185285714D01*
X197535714Y-185380952D01*
X197488095Y-185428571D01*
X197392857Y-185476190D01*
X197011904Y-185476190D01*
X198440476Y-184952380D02*
X198250000Y-184952380D01*
X198154761Y-185000000D01*
X198107142Y-185047619D01*
X198011904Y-185190476D01*
X197964285Y-185380952D01*
X197964285Y-185761904D01*
X198011904Y-185857142D01*
X198059523Y-185904761D01*
X198154761Y-185952380D01*
X198345238Y-185952380D01*
X198440476Y-185904761D01*
X198488095Y-185857142D01*
X198535714Y-185761904D01*
X198535714Y-185523809D01*
X198488095Y-185428571D01*
X198440476Y-185380952D01*
X198345238Y-185333333D01*
X198154761Y-185333333D01*
X198059523Y-185380952D01*
X198011904Y-185428571D01*
X197964285Y-185523809D01*
%TO.C,R5*%
X183583333Y-179452380D02*
X183250000Y-178976190D01*
X183011904Y-179452380D02*
X183011904Y-178452380D01*
X183392857Y-178452380D01*
X183488095Y-178500000D01*
X183535714Y-178547619D01*
X183583333Y-178642857D01*
X183583333Y-178785714D01*
X183535714Y-178880952D01*
X183488095Y-178928571D01*
X183392857Y-178976190D01*
X183011904Y-178976190D01*
X184488095Y-178452380D02*
X184011904Y-178452380D01*
X183964285Y-178928571D01*
X184011904Y-178880952D01*
X184107142Y-178833333D01*
X184345238Y-178833333D01*
X184440476Y-178880952D01*
X184488095Y-178928571D01*
X184535714Y-179023809D01*
X184535714Y-179261904D01*
X184488095Y-179357142D01*
X184440476Y-179404761D01*
X184345238Y-179452380D01*
X184107142Y-179452380D01*
X184011904Y-179404761D01*
X183964285Y-179357142D01*
%TO.C,R4*%
X197583333Y-182702380D02*
X197250000Y-182226190D01*
X197011904Y-182702380D02*
X197011904Y-181702380D01*
X197392857Y-181702380D01*
X197488095Y-181750000D01*
X197535714Y-181797619D01*
X197583333Y-181892857D01*
X197583333Y-182035714D01*
X197535714Y-182130952D01*
X197488095Y-182178571D01*
X197392857Y-182226190D01*
X197011904Y-182226190D01*
X198440476Y-182035714D02*
X198440476Y-182702380D01*
X198202380Y-181654761D02*
X197964285Y-182369047D01*
X198583333Y-182369047D01*
%TO.C,R3*%
X197583333Y-179702380D02*
X197250000Y-179226190D01*
X197011904Y-179702380D02*
X197011904Y-178702380D01*
X197392857Y-178702380D01*
X197488095Y-178750000D01*
X197535714Y-178797619D01*
X197583333Y-178892857D01*
X197583333Y-179035714D01*
X197535714Y-179130952D01*
X197488095Y-179178571D01*
X197392857Y-179226190D01*
X197011904Y-179226190D01*
X197916666Y-178702380D02*
X198535714Y-178702380D01*
X198202380Y-179083333D01*
X198345238Y-179083333D01*
X198440476Y-179130952D01*
X198488095Y-179178571D01*
X198535714Y-179273809D01*
X198535714Y-179511904D01*
X198488095Y-179607142D01*
X198440476Y-179654761D01*
X198345238Y-179702380D01*
X198059523Y-179702380D01*
X197964285Y-179654761D01*
X197916666Y-179607142D01*
%TO.C,R2*%
X214533333Y-75132380D02*
X214200000Y-74656190D01*
X213961904Y-75132380D02*
X213961904Y-74132380D01*
X214342857Y-74132380D01*
X214438095Y-74180000D01*
X214485714Y-74227619D01*
X214533333Y-74322857D01*
X214533333Y-74465714D01*
X214485714Y-74560952D01*
X214438095Y-74608571D01*
X214342857Y-74656190D01*
X213961904Y-74656190D01*
X214914285Y-74227619D02*
X214961904Y-74180000D01*
X215057142Y-74132380D01*
X215295238Y-74132380D01*
X215390476Y-74180000D01*
X215438095Y-74227619D01*
X215485714Y-74322857D01*
X215485714Y-74418095D01*
X215438095Y-74560952D01*
X214866666Y-75132380D01*
X215485714Y-75132380D01*
%TO.C,R1*%
X137333333Y-74702380D02*
X137000000Y-74226190D01*
X136761904Y-74702380D02*
X136761904Y-73702380D01*
X137142857Y-73702380D01*
X137238095Y-73750000D01*
X137285714Y-73797619D01*
X137333333Y-73892857D01*
X137333333Y-74035714D01*
X137285714Y-74130952D01*
X137238095Y-74178571D01*
X137142857Y-74226190D01*
X136761904Y-74226190D01*
X138285714Y-74702380D02*
X137714285Y-74702380D01*
X138000000Y-74702380D02*
X138000000Y-73702380D01*
X137904761Y-73845238D01*
X137809523Y-73940476D01*
X137714285Y-73988095D01*
%TO.C,L12*%
X210857142Y-147202380D02*
X210380952Y-147202380D01*
X210380952Y-146202380D01*
X211714285Y-147202380D02*
X211142857Y-147202380D01*
X211428571Y-147202380D02*
X211428571Y-146202380D01*
X211333333Y-146345238D01*
X211238095Y-146440476D01*
X211142857Y-146488095D01*
X212095238Y-146297619D02*
X212142857Y-146250000D01*
X212238095Y-146202380D01*
X212476190Y-146202380D01*
X212571428Y-146250000D01*
X212619047Y-146297619D01*
X212666666Y-146392857D01*
X212666666Y-146488095D01*
X212619047Y-146630952D01*
X212047619Y-147202380D01*
X212666666Y-147202380D01*
%TO.C,L11*%
X210857142Y-133202380D02*
X210380952Y-133202380D01*
X210380952Y-132202380D01*
X211714285Y-133202380D02*
X211142857Y-133202380D01*
X211428571Y-133202380D02*
X211428571Y-132202380D01*
X211333333Y-132345238D01*
X211238095Y-132440476D01*
X211142857Y-132488095D01*
X212666666Y-133202380D02*
X212095238Y-133202380D01*
X212380952Y-133202380D02*
X212380952Y-132202380D01*
X212285714Y-132345238D01*
X212190476Y-132440476D01*
X212095238Y-132488095D01*
%TO.C,L10*%
X210857142Y-119202380D02*
X210380952Y-119202380D01*
X210380952Y-118202380D01*
X211714285Y-119202380D02*
X211142857Y-119202380D01*
X211428571Y-119202380D02*
X211428571Y-118202380D01*
X211333333Y-118345238D01*
X211238095Y-118440476D01*
X211142857Y-118488095D01*
X212333333Y-118202380D02*
X212428571Y-118202380D01*
X212523809Y-118250000D01*
X212571428Y-118297619D01*
X212619047Y-118392857D01*
X212666666Y-118583333D01*
X212666666Y-118821428D01*
X212619047Y-119011904D01*
X212571428Y-119107142D01*
X212523809Y-119154761D01*
X212428571Y-119202380D01*
X212333333Y-119202380D01*
X212238095Y-119154761D01*
X212190476Y-119107142D01*
X212142857Y-119011904D01*
X212095238Y-118821428D01*
X212095238Y-118583333D01*
X212142857Y-118392857D01*
X212190476Y-118297619D01*
X212238095Y-118250000D01*
X212333333Y-118202380D01*
%TO.C,L9*%
X211333333Y-105202380D02*
X210857142Y-105202380D01*
X210857142Y-104202380D01*
X211714285Y-105202380D02*
X211904761Y-105202380D01*
X212000000Y-105154761D01*
X212047619Y-105107142D01*
X212142857Y-104964285D01*
X212190476Y-104773809D01*
X212190476Y-104392857D01*
X212142857Y-104297619D01*
X212095238Y-104250000D01*
X212000000Y-104202380D01*
X211809523Y-104202380D01*
X211714285Y-104250000D01*
X211666666Y-104297619D01*
X211619047Y-104392857D01*
X211619047Y-104630952D01*
X211666666Y-104726190D01*
X211714285Y-104773809D01*
X211809523Y-104821428D01*
X212000000Y-104821428D01*
X212095238Y-104773809D01*
X212142857Y-104726190D01*
X212190476Y-104630952D01*
%TO.C,L8*%
X211583333Y-90452380D02*
X211107142Y-90452380D01*
X211107142Y-89452380D01*
X212059523Y-89880952D02*
X211964285Y-89833333D01*
X211916666Y-89785714D01*
X211869047Y-89690476D01*
X211869047Y-89642857D01*
X211916666Y-89547619D01*
X211964285Y-89500000D01*
X212059523Y-89452380D01*
X212250000Y-89452380D01*
X212345238Y-89500000D01*
X212392857Y-89547619D01*
X212440476Y-89642857D01*
X212440476Y-89690476D01*
X212392857Y-89785714D01*
X212345238Y-89833333D01*
X212250000Y-89880952D01*
X212059523Y-89880952D01*
X211964285Y-89928571D01*
X211916666Y-89976190D01*
X211869047Y-90071428D01*
X211869047Y-90261904D01*
X211916666Y-90357142D01*
X211964285Y-90404761D01*
X212059523Y-90452380D01*
X212250000Y-90452380D01*
X212345238Y-90404761D01*
X212392857Y-90357142D01*
X212440476Y-90261904D01*
X212440476Y-90071428D01*
X212392857Y-89976190D01*
X212345238Y-89928571D01*
X212250000Y-89880952D01*
%TO.C,L7*%
X202333333Y-128952380D02*
X201857142Y-128952380D01*
X201857142Y-127952380D01*
X202571428Y-127952380D02*
X203238095Y-127952380D01*
X202809523Y-128952380D01*
%TO.C,L6*%
X147833333Y-146952380D02*
X147357142Y-146952380D01*
X147357142Y-145952380D01*
X148595238Y-145952380D02*
X148404761Y-145952380D01*
X148309523Y-146000000D01*
X148261904Y-146047619D01*
X148166666Y-146190476D01*
X148119047Y-146380952D01*
X148119047Y-146761904D01*
X148166666Y-146857142D01*
X148214285Y-146904761D01*
X148309523Y-146952380D01*
X148500000Y-146952380D01*
X148595238Y-146904761D01*
X148642857Y-146857142D01*
X148690476Y-146761904D01*
X148690476Y-146523809D01*
X148642857Y-146428571D01*
X148595238Y-146380952D01*
X148500000Y-146333333D01*
X148309523Y-146333333D01*
X148214285Y-146380952D01*
X148166666Y-146428571D01*
X148119047Y-146523809D01*
%TO.C,L5*%
X147833333Y-132202380D02*
X147357142Y-132202380D01*
X147357142Y-131202380D01*
X148642857Y-131202380D02*
X148166666Y-131202380D01*
X148119047Y-131678571D01*
X148166666Y-131630952D01*
X148261904Y-131583333D01*
X148500000Y-131583333D01*
X148595238Y-131630952D01*
X148642857Y-131678571D01*
X148690476Y-131773809D01*
X148690476Y-132011904D01*
X148642857Y-132107142D01*
X148595238Y-132154761D01*
X148500000Y-132202380D01*
X148261904Y-132202380D01*
X148166666Y-132154761D01*
X148119047Y-132107142D01*
%TO.C,L4*%
X147833333Y-118202380D02*
X147357142Y-118202380D01*
X147357142Y-117202380D01*
X148595238Y-117535714D02*
X148595238Y-118202380D01*
X148357142Y-117154761D02*
X148119047Y-117869047D01*
X148738095Y-117869047D01*
%TO.C,L3*%
X147833333Y-104202380D02*
X147357142Y-104202380D01*
X147357142Y-103202380D01*
X148071428Y-103202380D02*
X148690476Y-103202380D01*
X148357142Y-103583333D01*
X148500000Y-103583333D01*
X148595238Y-103630952D01*
X148642857Y-103678571D01*
X148690476Y-103773809D01*
X148690476Y-104011904D01*
X148642857Y-104107142D01*
X148595238Y-104154761D01*
X148500000Y-104202380D01*
X148214285Y-104202380D01*
X148119047Y-104154761D01*
X148071428Y-104107142D01*
%TO.C,L2*%
X147833333Y-90202380D02*
X147357142Y-90202380D01*
X147357142Y-89202380D01*
X148119047Y-89297619D02*
X148166666Y-89250000D01*
X148261904Y-89202380D01*
X148500000Y-89202380D01*
X148595238Y-89250000D01*
X148642857Y-89297619D01*
X148690476Y-89392857D01*
X148690476Y-89488095D01*
X148642857Y-89630952D01*
X148071428Y-90202380D01*
X148690476Y-90202380D01*
%TO.C,L1*%
X160083333Y-127452380D02*
X159607142Y-127452380D01*
X159607142Y-126452380D01*
X160940476Y-127452380D02*
X160369047Y-127452380D01*
X160654761Y-127452380D02*
X160654761Y-126452380D01*
X160559523Y-126595238D01*
X160464285Y-126690476D01*
X160369047Y-126738095D01*
%TO.C,J2*%
X178666666Y-186952380D02*
X178666666Y-187666666D01*
X178619047Y-187809523D01*
X178523809Y-187904761D01*
X178380952Y-187952380D01*
X178285714Y-187952380D01*
X179095238Y-187047619D02*
X179142857Y-187000000D01*
X179238095Y-186952380D01*
X179476190Y-186952380D01*
X179571428Y-187000000D01*
X179619047Y-187047619D01*
X179666666Y-187142857D01*
X179666666Y-187238095D01*
X179619047Y-187380952D01*
X179047619Y-187952380D01*
X179666666Y-187952380D01*
%TO.C,J1*%
X202666666Y-186952380D02*
X202666666Y-187666666D01*
X202619047Y-187809523D01*
X202523809Y-187904761D01*
X202380952Y-187952380D01*
X202285714Y-187952380D01*
X203666666Y-187952380D02*
X203095238Y-187952380D01*
X203380952Y-187952380D02*
X203380952Y-186952380D01*
X203285714Y-187095238D01*
X203190476Y-187190476D01*
X203095238Y-187238095D01*
%TO.C,D4*%
X200511904Y-107202380D02*
X200511904Y-106202380D01*
X200750000Y-106202380D01*
X200892857Y-106250000D01*
X200988095Y-106345238D01*
X201035714Y-106440476D01*
X201083333Y-106630952D01*
X201083333Y-106773809D01*
X201035714Y-106964285D01*
X200988095Y-107059523D01*
X200892857Y-107154761D01*
X200750000Y-107202380D01*
X200511904Y-107202380D01*
X201940476Y-106535714D02*
X201940476Y-107202380D01*
X201702380Y-106154761D02*
X201464285Y-106869047D01*
X202083333Y-106869047D01*
%TO.C,D3*%
X188511904Y-113702380D02*
X188511904Y-112702380D01*
X188750000Y-112702380D01*
X188892857Y-112750000D01*
X188988095Y-112845238D01*
X189035714Y-112940476D01*
X189083333Y-113130952D01*
X189083333Y-113273809D01*
X189035714Y-113464285D01*
X188988095Y-113559523D01*
X188892857Y-113654761D01*
X188750000Y-113702380D01*
X188511904Y-113702380D01*
X189416666Y-112702380D02*
X190035714Y-112702380D01*
X189702380Y-113083333D01*
X189845238Y-113083333D01*
X189940476Y-113130952D01*
X189988095Y-113178571D01*
X190035714Y-113273809D01*
X190035714Y-113511904D01*
X189988095Y-113607142D01*
X189940476Y-113654761D01*
X189845238Y-113702380D01*
X189559523Y-113702380D01*
X189464285Y-113654761D01*
X189416666Y-113607142D01*
%TO.C,D2*%
X157761904Y-107202380D02*
X157761904Y-106202380D01*
X158000000Y-106202380D01*
X158142857Y-106250000D01*
X158238095Y-106345238D01*
X158285714Y-106440476D01*
X158333333Y-106630952D01*
X158333333Y-106773809D01*
X158285714Y-106964285D01*
X158238095Y-107059523D01*
X158142857Y-107154761D01*
X158000000Y-107202380D01*
X157761904Y-107202380D01*
X158714285Y-106297619D02*
X158761904Y-106250000D01*
X158857142Y-106202380D01*
X159095238Y-106202380D01*
X159190476Y-106250000D01*
X159238095Y-106297619D01*
X159285714Y-106392857D01*
X159285714Y-106488095D01*
X159238095Y-106630952D01*
X158666666Y-107202380D01*
X159285714Y-107202380D01*
%TO.C,D1*%
X170011904Y-113702380D02*
X170011904Y-112702380D01*
X170250000Y-112702380D01*
X170392857Y-112750000D01*
X170488095Y-112845238D01*
X170535714Y-112940476D01*
X170583333Y-113130952D01*
X170583333Y-113273809D01*
X170535714Y-113464285D01*
X170488095Y-113559523D01*
X170392857Y-113654761D01*
X170250000Y-113702380D01*
X170011904Y-113702380D01*
X171535714Y-113702380D02*
X170964285Y-113702380D01*
X171250000Y-113702380D02*
X171250000Y-112702380D01*
X171154761Y-112845238D01*
X171059523Y-112940476D01*
X170964285Y-112988095D01*
%TO.C,C12*%
X224607142Y-162107142D02*
X224559523Y-162154761D01*
X224416666Y-162202380D01*
X224321428Y-162202380D01*
X224178571Y-162154761D01*
X224083333Y-162059523D01*
X224035714Y-161964285D01*
X223988095Y-161773809D01*
X223988095Y-161630952D01*
X224035714Y-161440476D01*
X224083333Y-161345238D01*
X224178571Y-161250000D01*
X224321428Y-161202380D01*
X224416666Y-161202380D01*
X224559523Y-161250000D01*
X224607142Y-161297619D01*
X225559523Y-162202380D02*
X224988095Y-162202380D01*
X225273809Y-162202380D02*
X225273809Y-161202380D01*
X225178571Y-161345238D01*
X225083333Y-161440476D01*
X224988095Y-161488095D01*
X225940476Y-161297619D02*
X225988095Y-161250000D01*
X226083333Y-161202380D01*
X226321428Y-161202380D01*
X226416666Y-161250000D01*
X226464285Y-161297619D01*
X226511904Y-161392857D01*
X226511904Y-161488095D01*
X226464285Y-161630952D01*
X225892857Y-162202380D01*
X226511904Y-162202380D01*
%TO.C,C11*%
X197607142Y-126357142D02*
X197559523Y-126404761D01*
X197416666Y-126452380D01*
X197321428Y-126452380D01*
X197178571Y-126404761D01*
X197083333Y-126309523D01*
X197035714Y-126214285D01*
X196988095Y-126023809D01*
X196988095Y-125880952D01*
X197035714Y-125690476D01*
X197083333Y-125595238D01*
X197178571Y-125500000D01*
X197321428Y-125452380D01*
X197416666Y-125452380D01*
X197559523Y-125500000D01*
X197607142Y-125547619D01*
X198559523Y-126452380D02*
X197988095Y-126452380D01*
X198273809Y-126452380D02*
X198273809Y-125452380D01*
X198178571Y-125595238D01*
X198083333Y-125690476D01*
X197988095Y-125738095D01*
X199511904Y-126452380D02*
X198940476Y-126452380D01*
X199226190Y-126452380D02*
X199226190Y-125452380D01*
X199130952Y-125595238D01*
X199035714Y-125690476D01*
X198940476Y-125738095D01*
%TO.C,C10*%
X197857142Y-134357142D02*
X197809523Y-134404761D01*
X197666666Y-134452380D01*
X197571428Y-134452380D01*
X197428571Y-134404761D01*
X197333333Y-134309523D01*
X197285714Y-134214285D01*
X197238095Y-134023809D01*
X197238095Y-133880952D01*
X197285714Y-133690476D01*
X197333333Y-133595238D01*
X197428571Y-133500000D01*
X197571428Y-133452380D01*
X197666666Y-133452380D01*
X197809523Y-133500000D01*
X197857142Y-133547619D01*
X198809523Y-134452380D02*
X198238095Y-134452380D01*
X198523809Y-134452380D02*
X198523809Y-133452380D01*
X198428571Y-133595238D01*
X198333333Y-133690476D01*
X198238095Y-133738095D01*
X199428571Y-133452380D02*
X199523809Y-133452380D01*
X199619047Y-133500000D01*
X199666666Y-133547619D01*
X199714285Y-133642857D01*
X199761904Y-133833333D01*
X199761904Y-134071428D01*
X199714285Y-134261904D01*
X199666666Y-134357142D01*
X199619047Y-134404761D01*
X199523809Y-134452380D01*
X199428571Y-134452380D01*
X199333333Y-134404761D01*
X199285714Y-134357142D01*
X199238095Y-134261904D01*
X199190476Y-134071428D01*
X199190476Y-133833333D01*
X199238095Y-133642857D01*
X199285714Y-133547619D01*
X199333333Y-133500000D01*
X199428571Y-133452380D01*
%TO.C,C9*%
X150083333Y-161857142D02*
X150035714Y-161904761D01*
X149892857Y-161952380D01*
X149797619Y-161952380D01*
X149654761Y-161904761D01*
X149559523Y-161809523D01*
X149511904Y-161714285D01*
X149464285Y-161523809D01*
X149464285Y-161380952D01*
X149511904Y-161190476D01*
X149559523Y-161095238D01*
X149654761Y-161000000D01*
X149797619Y-160952380D01*
X149892857Y-160952380D01*
X150035714Y-161000000D01*
X150083333Y-161047619D01*
X150559523Y-161952380D02*
X150750000Y-161952380D01*
X150845238Y-161904761D01*
X150892857Y-161857142D01*
X150988095Y-161714285D01*
X151035714Y-161523809D01*
X151035714Y-161142857D01*
X150988095Y-161047619D01*
X150940476Y-161000000D01*
X150845238Y-160952380D01*
X150654761Y-160952380D01*
X150559523Y-161000000D01*
X150511904Y-161047619D01*
X150464285Y-161142857D01*
X150464285Y-161380952D01*
X150511904Y-161476190D01*
X150559523Y-161523809D01*
X150654761Y-161571428D01*
X150845238Y-161571428D01*
X150940476Y-161523809D01*
X150988095Y-161476190D01*
X151035714Y-161380952D01*
%TO.C,C8*%
X166833333Y-126357142D02*
X166785714Y-126404761D01*
X166642857Y-126452380D01*
X166547619Y-126452380D01*
X166404761Y-126404761D01*
X166309523Y-126309523D01*
X166261904Y-126214285D01*
X166214285Y-126023809D01*
X166214285Y-125880952D01*
X166261904Y-125690476D01*
X166309523Y-125595238D01*
X166404761Y-125500000D01*
X166547619Y-125452380D01*
X166642857Y-125452380D01*
X166785714Y-125500000D01*
X166833333Y-125547619D01*
X167404761Y-125880952D02*
X167309523Y-125833333D01*
X167261904Y-125785714D01*
X167214285Y-125690476D01*
X167214285Y-125642857D01*
X167261904Y-125547619D01*
X167309523Y-125500000D01*
X167404761Y-125452380D01*
X167595238Y-125452380D01*
X167690476Y-125500000D01*
X167738095Y-125547619D01*
X167785714Y-125642857D01*
X167785714Y-125690476D01*
X167738095Y-125785714D01*
X167690476Y-125833333D01*
X167595238Y-125880952D01*
X167404761Y-125880952D01*
X167309523Y-125928571D01*
X167261904Y-125976190D01*
X167214285Y-126071428D01*
X167214285Y-126261904D01*
X167261904Y-126357142D01*
X167309523Y-126404761D01*
X167404761Y-126452380D01*
X167595238Y-126452380D01*
X167690476Y-126404761D01*
X167738095Y-126357142D01*
X167785714Y-126261904D01*
X167785714Y-126071428D01*
X167738095Y-125976190D01*
X167690476Y-125928571D01*
X167595238Y-125880952D01*
%TO.C,C7*%
X166583333Y-134357142D02*
X166535714Y-134404761D01*
X166392857Y-134452380D01*
X166297619Y-134452380D01*
X166154761Y-134404761D01*
X166059523Y-134309523D01*
X166011904Y-134214285D01*
X165964285Y-134023809D01*
X165964285Y-133880952D01*
X166011904Y-133690476D01*
X166059523Y-133595238D01*
X166154761Y-133500000D01*
X166297619Y-133452380D01*
X166392857Y-133452380D01*
X166535714Y-133500000D01*
X166583333Y-133547619D01*
X166916666Y-133452380D02*
X167583333Y-133452380D01*
X167154761Y-134452380D01*
%TO.C,C6*%
X249583333Y-91607142D02*
X249535714Y-91654761D01*
X249392857Y-91702380D01*
X249297619Y-91702380D01*
X249154761Y-91654761D01*
X249059523Y-91559523D01*
X249011904Y-91464285D01*
X248964285Y-91273809D01*
X248964285Y-91130952D01*
X249011904Y-90940476D01*
X249059523Y-90845238D01*
X249154761Y-90750000D01*
X249297619Y-90702380D01*
X249392857Y-90702380D01*
X249535714Y-90750000D01*
X249583333Y-90797619D01*
X250440476Y-90702380D02*
X250250000Y-90702380D01*
X250154761Y-90750000D01*
X250107142Y-90797619D01*
X250011904Y-90940476D01*
X249964285Y-91130952D01*
X249964285Y-91511904D01*
X250011904Y-91607142D01*
X250059523Y-91654761D01*
X250154761Y-91702380D01*
X250345238Y-91702380D01*
X250440476Y-91654761D01*
X250488095Y-91607142D01*
X250535714Y-91511904D01*
X250535714Y-91273809D01*
X250488095Y-91178571D01*
X250440476Y-91130952D01*
X250345238Y-91083333D01*
X250154761Y-91083333D01*
X250059523Y-91130952D01*
X250011904Y-91178571D01*
X249964285Y-91273809D01*
%TO.C,C5*%
X237833333Y-127357142D02*
X237785714Y-127404761D01*
X237642857Y-127452380D01*
X237547619Y-127452380D01*
X237404761Y-127404761D01*
X237309523Y-127309523D01*
X237261904Y-127214285D01*
X237214285Y-127023809D01*
X237214285Y-126880952D01*
X237261904Y-126690476D01*
X237309523Y-126595238D01*
X237404761Y-126500000D01*
X237547619Y-126452380D01*
X237642857Y-126452380D01*
X237785714Y-126500000D01*
X237833333Y-126547619D01*
X238738095Y-126452380D02*
X238261904Y-126452380D01*
X238214285Y-126928571D01*
X238261904Y-126880952D01*
X238357142Y-126833333D01*
X238595238Y-126833333D01*
X238690476Y-126880952D01*
X238738095Y-126928571D01*
X238785714Y-127023809D01*
X238785714Y-127261904D01*
X238738095Y-127357142D01*
X238690476Y-127404761D01*
X238595238Y-127452380D01*
X238357142Y-127452380D01*
X238261904Y-127404761D01*
X238214285Y-127357142D01*
%TO.C,C4*%
X248333333Y-160857142D02*
X248285714Y-160904761D01*
X248142857Y-160952380D01*
X248047619Y-160952380D01*
X247904761Y-160904761D01*
X247809523Y-160809523D01*
X247761904Y-160714285D01*
X247714285Y-160523809D01*
X247714285Y-160380952D01*
X247761904Y-160190476D01*
X247809523Y-160095238D01*
X247904761Y-160000000D01*
X248047619Y-159952380D01*
X248142857Y-159952380D01*
X248285714Y-160000000D01*
X248333333Y-160047619D01*
X249190476Y-160285714D02*
X249190476Y-160952380D01*
X248952380Y-159904761D02*
X248714285Y-160619047D01*
X249333333Y-160619047D01*
%TO.C,C3*%
X112333333Y-68357142D02*
X112285714Y-68404761D01*
X112142857Y-68452380D01*
X112047619Y-68452380D01*
X111904761Y-68404761D01*
X111809523Y-68309523D01*
X111761904Y-68214285D01*
X111714285Y-68023809D01*
X111714285Y-67880952D01*
X111761904Y-67690476D01*
X111809523Y-67595238D01*
X111904761Y-67500000D01*
X112047619Y-67452380D01*
X112142857Y-67452380D01*
X112285714Y-67500000D01*
X112333333Y-67547619D01*
X112666666Y-67452380D02*
X113285714Y-67452380D01*
X112952380Y-67833333D01*
X113095238Y-67833333D01*
X113190476Y-67880952D01*
X113238095Y-67928571D01*
X113285714Y-68023809D01*
X113285714Y-68261904D01*
X113238095Y-68357142D01*
X113190476Y-68404761D01*
X113095238Y-68452380D01*
X112809523Y-68452380D01*
X112714285Y-68404761D01*
X112666666Y-68357142D01*
%TO.C,C2*%
X120083333Y-133107142D02*
X120035714Y-133154761D01*
X119892857Y-133202380D01*
X119797619Y-133202380D01*
X119654761Y-133154761D01*
X119559523Y-133059523D01*
X119511904Y-132964285D01*
X119464285Y-132773809D01*
X119464285Y-132630952D01*
X119511904Y-132440476D01*
X119559523Y-132345238D01*
X119654761Y-132250000D01*
X119797619Y-132202380D01*
X119892857Y-132202380D01*
X120035714Y-132250000D01*
X120083333Y-132297619D01*
X120464285Y-132297619D02*
X120511904Y-132250000D01*
X120607142Y-132202380D01*
X120845238Y-132202380D01*
X120940476Y-132250000D01*
X120988095Y-132297619D01*
X121035714Y-132392857D01*
X121035714Y-132488095D01*
X120988095Y-132630952D01*
X120416666Y-133202380D01*
X121035714Y-133202380D01*
%TO.C,C1*%
X122333333Y-97607142D02*
X122285714Y-97654761D01*
X122142857Y-97702380D01*
X122047619Y-97702380D01*
X121904761Y-97654761D01*
X121809523Y-97559523D01*
X121761904Y-97464285D01*
X121714285Y-97273809D01*
X121714285Y-97130952D01*
X121761904Y-96940476D01*
X121809523Y-96845238D01*
X121904761Y-96750000D01*
X122047619Y-96702380D01*
X122142857Y-96702380D01*
X122285714Y-96750000D01*
X122333333Y-96797619D01*
X123285714Y-97702380D02*
X122714285Y-97702380D01*
X123000000Y-97702380D02*
X123000000Y-96702380D01*
X122904761Y-96845238D01*
X122809523Y-96940476D01*
X122714285Y-96988095D01*
%TD*%
M02*
