M48
; DRILL file {KiCad 5.1.10-88a1d61d58~90~ubuntu20.04.1} date Mon Aug 16 21:09:43 2021
; FORMAT={-:-/ absolute / inch / decimal}
; #@! TF.CreationDate,2021-08-16T21:09:43-07:00
; #@! TF.GenerationSoftware,Kicad,Pcbnew,5.1.10-88a1d61d58~90~ubuntu20.04.1
FMAT,2
INCH
T1C0.0118
T2C0.0157
T3C0.0394
T4C0.0472
T5C0.0571
T6C0.0591
T7C0.0669
T8C0.1299
%
G90
G05
T1
X4.0157Y-2.0472
X4.0157Y-2.126
X4.0157Y-2.2047
X4.0157Y-2.2835
X4.0157Y-2.3622
X4.0157Y-2.4409
X4.0157Y-2.5197
X4.0157Y-2.5984
X4.0157Y-2.6772
X4.0157Y-2.7559
X4.0157Y-2.8346
X4.0157Y-2.9134
X4.0157Y-2.9921
X4.0157Y-3.0709
X4.0157Y-3.1496
X4.0157Y-3.2283
X4.0157Y-3.3071
X4.0157Y-3.3858
X4.0157Y-3.4646
X4.0157Y-3.5433
X4.0157Y-3.622
X4.0157Y-3.7008
X4.0157Y-3.7795
X4.0157Y-3.8583
X4.0157Y-3.937
X4.0157Y-4.0157
X4.0157Y-4.0945
X4.0157Y-4.1732
X4.0157Y-4.252
X4.0157Y-4.3307
X4.0157Y-4.4094
X4.0157Y-4.4882
X4.0157Y-4.5669
X4.0157Y-4.6457
X4.0157Y-4.7244
X4.0157Y-4.8031
X4.0157Y-4.8819
X4.0157Y-4.9606
X4.0157Y-5.0394
X4.0157Y-5.1181
X4.0157Y-5.1969
X4.0157Y-5.2756
X4.0157Y-5.3543
X4.0157Y-5.4331
X4.0157Y-5.5118
X4.0157Y-5.5906
X4.0157Y-5.6693
X4.0157Y-5.748
X4.0157Y-5.8268
X4.0157Y-5.9055
X4.0157Y-5.9843
X4.0157Y-6.063
X4.0157Y-6.1417
X4.0157Y-6.2205
X4.0157Y-6.2992
X4.0157Y-6.378
X4.0157Y-6.4567
X4.0157Y-6.5354
X4.0157Y-6.6142
X4.0157Y-6.6929
X4.0157Y-6.7717
X4.0157Y-6.8504
X4.0157Y-6.9291
X4.0157Y-7.0079
X4.0157Y-7.0866
X4.0157Y-7.1654
X4.0157Y-7.2441
X4.0157Y-7.3228
X4.0157Y-7.4016
X4.0157Y-7.4803
X6.2205Y-3.7697
X6.2795Y-5.0591
X6.2795Y-5.1772
X6.2992Y-3.7697
X6.3091Y-4.4587
X6.3091Y-4.8425
X6.3091Y-5.0591
X6.3091Y-5.1772
X6.3091Y-5.3937
X6.3091Y-5.7776
X6.3189Y-4.1535
X6.3189Y-4.2028
X6.3189Y-4.252
X6.3287Y-4.439
X6.3287Y-4.4783
X6.3287Y-4.8228
X6.3287Y-4.8622
X6.3287Y-5.374
X6.3287Y-5.4134
X6.3287Y-5.7579
X6.3287Y-5.7972
X6.3583Y-4.2028
X6.378Y-3.7697
X6.4567Y-3.7697
X6.5354Y-3.7697
X6.6142Y-3.7697
X6.6142Y-5.374
X6.6142Y-5.4134
X6.624Y-4.1831
X6.624Y-4.2224
X6.624Y-5.7579
X6.624Y-5.7972
X6.6339Y-4.439
X6.6339Y-4.4783
X6.6339Y-5.3937
X6.6437Y-4.2028
X6.6437Y-5.7776
X6.6535Y-4.4587
X6.6929Y-3.7697
X6.7717Y-3.7697
X6.8504Y-3.7697
X6.9291Y-3.7697
X7.0079Y-3.7697
X7.0866Y-3.7697
X7.1654Y-3.7697
X7.2441Y-3.7697
X7.2441Y-6.8425
X7.2913Y-6.7776
X7.2913Y-6.9055
X7.3228Y-3.7697
X7.4016Y-3.7697
X7.4173Y-7.0984
X7.4173Y-7.25
X7.4508Y-7.0571
X7.4528Y-7.2933
X7.4803Y-3.7697
X7.5197Y-4.4587
X7.5295Y-4.2028
X7.5295Y-5.7776
X7.5394Y-4.439
X7.5394Y-4.4783
X7.5394Y-5.3937
X7.5492Y-4.1831
X7.5492Y-4.2224
X7.5492Y-5.7579
X7.5492Y-5.7972
X7.5591Y-3.7697
X7.5591Y-5.374
X7.5591Y-5.4134
X7.5866Y-7.0571
X7.5866Y-7.2933
X7.622Y-7.0984
X7.622Y-7.248
X7.6378Y-3.7697
X7.7165Y-3.7697
X7.7953Y-3.7697
X7.815Y-4.2028
X7.8346Y-4.8228
X7.8346Y-4.8622
X7.8346Y-5.374
X7.8346Y-5.4134
X7.8445Y-4.439
X7.8445Y-4.4783
X7.8445Y-5.7579
X7.8445Y-5.7972
X7.8543Y-4.1535
X7.8543Y-4.2028
X7.8543Y-4.252
X7.8543Y-4.8425
X7.8543Y-5.3937
X7.8642Y-4.4587
X7.8642Y-5.0591
X7.8642Y-5.1772
X7.8642Y-5.7776
X7.874Y-3.7697
X7.8937Y-5.0591
X7.8937Y-5.1772
X7.9528Y-3.7697
X10.1575Y-2.0472
X10.1575Y-2.126
X10.1575Y-2.2047
X10.1575Y-2.2835
X10.1575Y-2.3622
X10.1575Y-2.4409
X10.1575Y-2.5197
X10.1575Y-2.5984
X10.1575Y-2.6772
X10.1575Y-2.7559
X10.1575Y-2.8346
X10.1575Y-2.9134
X10.1575Y-2.9921
X10.1575Y-3.0709
X10.1575Y-3.1496
X10.1575Y-3.2283
X10.1575Y-3.3071
X10.1575Y-3.3858
X10.1575Y-3.4646
X10.1575Y-3.5433
X10.1575Y-3.622
X10.1575Y-3.7008
X10.1575Y-3.7795
X10.1575Y-3.8583
X10.1575Y-3.937
X10.1575Y-4.0157
X10.1575Y-4.0945
X10.1575Y-4.1732
X10.1575Y-4.252
X10.1575Y-4.3307
X10.1575Y-4.4094
X10.1575Y-4.4882
X10.1575Y-4.5669
X10.1575Y-4.6457
X10.1575Y-4.7244
X10.1575Y-4.8031
X10.1575Y-4.8819
X10.1575Y-4.9606
X10.1575Y-5.0394
X10.1575Y-5.1181
X10.1575Y-5.1969
X10.1575Y-5.2756
X10.1575Y-5.3543
X10.1575Y-5.4331
X10.1575Y-5.5118
X10.1575Y-5.5906
X10.1575Y-5.6693
X10.1575Y-5.748
X10.1575Y-5.8268
X10.1575Y-5.9055
X10.1575Y-5.9843
X10.1575Y-6.063
X10.1575Y-6.1417
X10.1575Y-6.2205
X10.1575Y-6.2992
X10.1575Y-6.378
X10.1575Y-6.4567
X10.1575Y-6.5354
X10.1575Y-6.6142
X10.1575Y-6.6929
X10.1575Y-6.7717
X10.1575Y-6.8504
X10.1575Y-6.9291
X10.1575Y-7.0079
X10.1575Y-7.0866
X10.1575Y-7.1654
X10.1575Y-7.2441
X10.1575Y-7.3228
X10.1575Y-7.4016
X10.1575Y-7.4803
T2
X4.0256Y-1.8012
X4.0256Y-7.687
X4.0551Y-1.7323
X4.0551Y-1.8701
X4.0551Y-7.6181
X4.0551Y-7.7559
X4.124Y-1.7028
X4.124Y-1.8996
X4.124Y-7.5886
X4.124Y-7.7854
X4.1929Y-1.7323
X4.1929Y-1.8701
X4.1929Y-7.6181
X4.1929Y-7.7559
X4.2224Y-1.8012
X4.2224Y-7.687
X9.9508Y-1.8012
X9.9508Y-7.687
X9.9803Y-1.7323
X9.9803Y-1.8701
X9.9803Y-7.6181
X9.9803Y-7.7559
X10.0492Y-1.7028
X10.0492Y-1.8996
X10.0492Y-7.5886
X10.0492Y-7.7854
X10.1181Y-1.7323
X10.1181Y-1.8701
X10.1181Y-7.6181
X10.1181Y-7.7559
X10.1476Y-1.8012
X10.1476Y-7.687
T3
X6.0827Y-6.1024
X6.4764Y-6.1024
X7.6969Y-6.1024
X8.0906Y-6.1024
T4
X4.6063Y-2.185
X4.6063Y-3.2677
X4.6063Y-3.5433
X4.6063Y-4.626
X4.6063Y-4.9016
X4.6063Y-5.9843
X5.378Y-3.1102
X5.935Y-6.624
X6.378Y-3.1102
X6.8209Y-6.624
X7.9528Y-3.1102
X7.9528Y-6.624
X8.8386Y-6.624
X8.9528Y-3.1102
X9.5669Y-3.0709
X9.5669Y-4.1535
X9.5669Y-4.4291
X9.5669Y-5.5118
X9.5669Y-5.7874
X9.5669Y-6.8701
T5
X6.0827Y-7.1835
X6.0827Y-7.3835
X6.4764Y-7.1835
X6.4764Y-7.3835
X6.7815Y-3.2563
X6.7815Y-3.4563
X7.1752Y-3.2563
X7.1752Y-3.4563
X7.5787Y-3.2563
X7.5787Y-3.4563
X8.5236Y-7.1835
X8.5236Y-7.3835
X8.9173Y-7.1835
X8.9173Y-7.3835
T6
X7.0472Y-7.6181
X7.9921Y-7.628
T7
X6.9472Y-7.5181
X6.9472Y-7.7181
X7.1472Y-7.5181
X7.1472Y-7.7181
X7.8921Y-7.528
X7.8921Y-7.728
X8.0921Y-7.528
X8.0921Y-7.728
T8
X4.124Y-1.8012
X4.124Y-7.687
X10.0492Y-1.8012
X10.0492Y-7.687
T0
M30
