%TF.GenerationSoftware,KiCad,Pcbnew,5.1.10-88a1d61d58~90~ubuntu20.04.1*%
%TF.CreationDate,2021-08-16T21:09:42-07:00*%
%TF.ProjectId,lisn-pcb,6c69736e-2d70-4636-922e-6b696361645f,rev?*%
%TF.SameCoordinates,Original*%
%TF.FileFunction,Copper,L2,Bot*%
%TF.FilePolarity,Positive*%
%FSLAX46Y46*%
G04 Gerber Fmt 4.6, Leading zero omitted, Abs format (unit mm)*
G04 Created by KiCad (PCBNEW 5.1.10-88a1d61d58~90~ubuntu20.04.1) date 2021-08-16 21:09:42*
%MOMM*%
%LPD*%
G01*
G04 APERTURE LIST*
%TA.AperFunction,ComponentPad*%
%ADD10C,0.800000*%
%TD*%
%TA.AperFunction,ComponentPad*%
%ADD11C,6.400000*%
%TD*%
%TA.AperFunction,ComponentPad*%
%ADD12C,3.000000*%
%TD*%
%TA.AperFunction,ComponentPad*%
%ADD13C,2.000000*%
%TD*%
%TA.AperFunction,ComponentPad*%
%ADD14O,2.400000X2.400000*%
%TD*%
%TA.AperFunction,ComponentPad*%
%ADD15C,2.400000*%
%TD*%
%TA.AperFunction,ComponentPad*%
%ADD16C,2.250000*%
%TD*%
%TA.AperFunction,ViaPad*%
%ADD17C,0.600000*%
%TD*%
%TA.AperFunction,Conductor*%
%ADD18C,1.000000*%
%TD*%
%TA.AperFunction,Conductor*%
%ADD19C,0.100000*%
%TD*%
%TA.AperFunction,Conductor*%
%ADD20C,0.254000*%
%TD*%
G04 APERTURE END LIST*
D10*
%TO.P,H4,1*%
%TO.N,GND*%
X257000000Y-47500000D03*
X253500000Y-44000000D03*
X253500000Y-47500000D03*
X255250000Y-48250000D03*
X252750000Y-45750000D03*
X255250000Y-43250000D03*
X257000000Y-44000000D03*
X257750000Y-45750000D03*
D11*
X255250000Y-45750000D03*
%TD*%
D10*
%TO.P,H3,1*%
%TO.N,GND*%
X106500000Y-197000000D03*
X103000000Y-193500000D03*
X103000000Y-197000000D03*
X104750000Y-197750000D03*
X102250000Y-195250000D03*
X104750000Y-192750000D03*
X106500000Y-193500000D03*
X107250000Y-195250000D03*
D11*
X104750000Y-195250000D03*
%TD*%
D10*
%TO.P,H2,1*%
%TO.N,GND*%
X106500000Y-47500000D03*
X103000000Y-44000000D03*
X103000000Y-47500000D03*
X104750000Y-48250000D03*
X102250000Y-45750000D03*
X104750000Y-43250000D03*
X106500000Y-44000000D03*
X107250000Y-45750000D03*
D11*
X104750000Y-45750000D03*
%TD*%
D10*
%TO.P,H1,1*%
%TO.N,GND*%
X257000000Y-197000000D03*
X253500000Y-193500000D03*
X253500000Y-197000000D03*
X255250000Y-197750000D03*
X252750000Y-195250000D03*
X255250000Y-192750000D03*
X257000000Y-193500000D03*
X257750000Y-195250000D03*
D11*
X255250000Y-195250000D03*
%TD*%
D12*
%TO.P,J9,1*%
%TO.N,GND*%
X216500000Y-182460000D03*
X216500000Y-187540000D03*
%TD*%
%TO.P,J8,1*%
%TO.N,GND*%
X164500000Y-182460000D03*
X164500000Y-187540000D03*
%TD*%
%TO.P,J7,1*%
%TO.N,/DUT_NUT*%
X226500000Y-182460000D03*
X226500000Y-187540000D03*
%TD*%
%TO.P,J6,1*%
%TO.N,/DUT_LINE*%
X154500000Y-187540000D03*
X154500000Y-182460000D03*
%TD*%
%TO.P,J5,1*%
%TO.N,GND*%
X182250000Y-82710000D03*
X182250000Y-87790000D03*
%TD*%
%TO.P,J4,1*%
%TO.N,/NEUTRAL*%
X192500000Y-82710000D03*
X192500000Y-87790000D03*
%TD*%
%TO.P,J3,1*%
%TO.N,/LINE*%
X172250000Y-82710000D03*
X172250000Y-87790000D03*
%TD*%
D13*
%TO.P,GD2,2*%
%TO.N,GND*%
X205500000Y-155000000D03*
%TO.P,GD2,1*%
%TO.N,/SIG2*%
X195500000Y-155000000D03*
%TD*%
%TO.P,GD1,2*%
%TO.N,GND*%
X154500000Y-155000000D03*
%TO.P,GD1,1*%
%TO.N,/SIG1*%
X164500000Y-155000000D03*
%TD*%
D14*
%TO.P,R2,2*%
%TO.N,Net-(C4-Pad1)*%
X227400000Y-79000000D03*
D15*
%TO.P,R2,1*%
%TO.N,/NEUTRAL*%
X202000000Y-79000000D03*
%TD*%
D14*
%TO.P,R1,2*%
%TO.N,Net-(C1-Pad1)*%
X136600000Y-79000000D03*
D15*
%TO.P,R1,1*%
%TO.N,/LINE*%
X162000000Y-79000000D03*
%TD*%
D16*
%TO.P,J2,1*%
%TO.N,/DM_OUT*%
X179000000Y-193500000D03*
%TO.P,J2,2*%
%TO.N,GND*%
X176460000Y-190960000D03*
X176460000Y-196040000D03*
X181540000Y-196040000D03*
X181540000Y-190960000D03*
%TD*%
%TO.P,J1,1*%
%TO.N,/CM_OUT*%
X203000000Y-193750000D03*
%TO.P,J1,2*%
%TO.N,GND*%
X200460000Y-191210000D03*
X200460000Y-196290000D03*
X205540000Y-196290000D03*
X205540000Y-191210000D03*
%TD*%
D15*
%TO.P,C12,2*%
%TO.N,/SIG2*%
X202000000Y-168250000D03*
%TO.P,C12,1*%
%TO.N,/DUT_NUT*%
X224500000Y-168250000D03*
%TD*%
%TO.P,C9,2*%
%TO.N,/SIG1*%
X173250000Y-168250000D03*
%TO.P,C9,1*%
%TO.N,/DUT_LINE*%
X150750000Y-168250000D03*
%TD*%
%TO.P,C6,2*%
%TO.N,GND*%
X243000000Y-105500000D03*
%TO.P,C6,1*%
%TO.N,Net-(C4-Pad1)*%
X243000000Y-78000000D03*
%TD*%
%TO.P,C5,2*%
%TO.N,GND*%
X243000000Y-112500000D03*
%TO.P,C5,1*%
%TO.N,Net-(C4-Pad1)*%
X243000000Y-140000000D03*
%TD*%
%TO.P,C4,2*%
%TO.N,GND*%
X243000000Y-174500000D03*
%TO.P,C4,1*%
%TO.N,Net-(C4-Pad1)*%
X243000000Y-147000000D03*
%TD*%
%TO.P,C3,2*%
%TO.N,GND*%
X117000000Y-55500000D03*
%TO.P,C3,1*%
%TO.N,Net-(C1-Pad1)*%
X117000000Y-83000000D03*
%TD*%
%TO.P,C2,2*%
%TO.N,GND*%
X117000000Y-152000000D03*
%TO.P,C2,1*%
%TO.N,Net-(C1-Pad1)*%
X117000000Y-124500000D03*
%TD*%
%TO.P,C1,2*%
%TO.N,GND*%
X117000000Y-117500000D03*
%TO.P,C1,1*%
%TO.N,Net-(C1-Pad1)*%
X117000000Y-90000000D03*
%TD*%
D17*
%TO.N,GND*%
X168250000Y-146250000D03*
X168750000Y-146750000D03*
X168250000Y-147250000D03*
X160750000Y-146250000D03*
X160250000Y-146750000D03*
X160750000Y-147250000D03*
X168000000Y-136500000D03*
X168500000Y-137000000D03*
X168000000Y-137500000D03*
X160750000Y-136500000D03*
X160250000Y-137000000D03*
X160750000Y-137500000D03*
X160750000Y-122500000D03*
X160250000Y-123000000D03*
X160750000Y-123500000D03*
X160750000Y-112750000D03*
X160250000Y-113250000D03*
X160750000Y-113750000D03*
X168500000Y-112750000D03*
X168500000Y-113750000D03*
X169000000Y-113250000D03*
X199250000Y-146250000D03*
X199750000Y-146750000D03*
X199250000Y-147250000D03*
X191750000Y-146250000D03*
X191250000Y-146750000D03*
X191750000Y-147250000D03*
X199000000Y-136500000D03*
X199500000Y-137000000D03*
X199000000Y-137500000D03*
X192000000Y-136500000D03*
X191500000Y-137000000D03*
X192000000Y-137500000D03*
X199000000Y-122500000D03*
X199500000Y-123000000D03*
X199000000Y-123500000D03*
X199250000Y-112750000D03*
X199750000Y-113250000D03*
X199250000Y-113750000D03*
X191500000Y-112750000D03*
X191000000Y-113250000D03*
X191500000Y-113750000D03*
X191750000Y-106250000D03*
X191250000Y-106750000D03*
X191750000Y-107250000D03*
X168250000Y-106250000D03*
X168250000Y-107250000D03*
X168750000Y-106750000D03*
X189250000Y-179250000D03*
X188400000Y-180300000D03*
X188400000Y-184150000D03*
X189300000Y-185250000D03*
X192700000Y-185250000D03*
X193600000Y-184100000D03*
X192700000Y-179250000D03*
X193600000Y-180300000D03*
X184000000Y-173800000D03*
X185200000Y-172150000D03*
X185200000Y-175400000D03*
X198500000Y-106750000D03*
X199500000Y-105500000D03*
X199500000Y-106750000D03*
X199500000Y-108000000D03*
X199750000Y-128500000D03*
X200500000Y-128500000D03*
X199750000Y-131500000D03*
X200500000Y-131500000D03*
X160500000Y-105500000D03*
X160500000Y-106750000D03*
X160500000Y-108000000D03*
X161500000Y-106750000D03*
X159500000Y-128500000D03*
X160250000Y-128500000D03*
X159500000Y-131500000D03*
X160250000Y-131500000D03*
X102000000Y-190000000D03*
X102000000Y-188000000D03*
X102000000Y-186000000D03*
X102000000Y-184000000D03*
X102000000Y-182000000D03*
X102000000Y-180000000D03*
X102000000Y-178000000D03*
X102000000Y-176000000D03*
X102000000Y-174000000D03*
X102000000Y-172000000D03*
X102000000Y-170000000D03*
X102000000Y-168000000D03*
X102000000Y-166000000D03*
X102000000Y-164000000D03*
X102000000Y-162000000D03*
X102000000Y-160000000D03*
X102000000Y-158000000D03*
X102000000Y-156000000D03*
X102000000Y-154000000D03*
X102000000Y-152000000D03*
X102000000Y-150000000D03*
X102000000Y-148000000D03*
X102000000Y-146000000D03*
X102000000Y-144000000D03*
X102000000Y-142000000D03*
X102000000Y-140000000D03*
X102000000Y-138000000D03*
X102000000Y-136000000D03*
X102000000Y-134000000D03*
X102000000Y-132000000D03*
X102000000Y-130000000D03*
X102000000Y-128000000D03*
X102000000Y-126000000D03*
X102000000Y-124000000D03*
X102000000Y-122000000D03*
X102000000Y-120000000D03*
X102000000Y-118000000D03*
X102000000Y-116000000D03*
X102000000Y-114000000D03*
X102000000Y-112000000D03*
X102000000Y-110000000D03*
X102000000Y-108000000D03*
X102000000Y-106000000D03*
X102000000Y-104000000D03*
X102000000Y-102000000D03*
X102000000Y-100000000D03*
X102000000Y-98000000D03*
X102000000Y-96000000D03*
X102000000Y-94000000D03*
X102000000Y-92000000D03*
X102000000Y-90000000D03*
X102000000Y-88000000D03*
X102000000Y-86000000D03*
X102000000Y-84000000D03*
X102000000Y-82000000D03*
X102000000Y-80000000D03*
X102000000Y-78000000D03*
X102000000Y-76000000D03*
X102000000Y-74000000D03*
X102000000Y-72000000D03*
X102000000Y-70000000D03*
X102000000Y-68000000D03*
X102000000Y-66000000D03*
X102000000Y-64000000D03*
X102000000Y-62000000D03*
X102000000Y-60000000D03*
X102000000Y-58000000D03*
X102000000Y-56000000D03*
X102000000Y-54000000D03*
X102000000Y-52000000D03*
X258000000Y-190000000D03*
X258000000Y-188000000D03*
X258000000Y-186000000D03*
X258000000Y-184000000D03*
X258000000Y-182000000D03*
X258000000Y-180000000D03*
X258000000Y-178000000D03*
X258000000Y-176000000D03*
X258000000Y-174000000D03*
X258000000Y-172000000D03*
X258000000Y-170000000D03*
X258000000Y-168000000D03*
X258000000Y-166000000D03*
X258000000Y-164000000D03*
X258000000Y-162000000D03*
X258000000Y-160000000D03*
X258000000Y-158000000D03*
X258000000Y-156000000D03*
X258000000Y-154000000D03*
X258000000Y-152000000D03*
X258000000Y-150000000D03*
X258000000Y-148000000D03*
X258000000Y-146000000D03*
X258000000Y-144000000D03*
X258000000Y-142000000D03*
X258000000Y-140000000D03*
X258000000Y-138000000D03*
X258000000Y-136000000D03*
X258000000Y-134000000D03*
X258000000Y-132000000D03*
X258000000Y-130000000D03*
X258000000Y-128000000D03*
X258000000Y-126000000D03*
X258000000Y-124000000D03*
X258000000Y-122000000D03*
X258000000Y-120000000D03*
X258000000Y-118000000D03*
X258000000Y-116000000D03*
X258000000Y-114000000D03*
X258000000Y-112000000D03*
X258000000Y-110000000D03*
X258000000Y-108000000D03*
X258000000Y-106000000D03*
X258000000Y-104000000D03*
X258000000Y-102000000D03*
X258000000Y-100000000D03*
X258000000Y-98000000D03*
X258000000Y-96000000D03*
X258000000Y-94000000D03*
X258000000Y-92000000D03*
X258000000Y-90000000D03*
X258000000Y-88000000D03*
X258000000Y-86000000D03*
X258000000Y-84000000D03*
X258000000Y-82000000D03*
X258000000Y-80000000D03*
X258000000Y-78000000D03*
X258000000Y-76000000D03*
X258000000Y-74000000D03*
X258000000Y-72000000D03*
X258000000Y-70000000D03*
X258000000Y-68000000D03*
X258000000Y-66000000D03*
X258000000Y-64000000D03*
X258000000Y-62000000D03*
X258000000Y-60000000D03*
X258000000Y-58000000D03*
X258000000Y-56000000D03*
X258000000Y-54000000D03*
X258000000Y-52000000D03*
X158000000Y-95750000D03*
X160000000Y-95750000D03*
X162000000Y-95750000D03*
X164000000Y-95750000D03*
X166000000Y-95750000D03*
X168000000Y-95750000D03*
X170000000Y-95750000D03*
X172000000Y-95750000D03*
X174000000Y-95750000D03*
X176000000Y-95750000D03*
X178000000Y-95750000D03*
X180000000Y-95750000D03*
X182000000Y-95750000D03*
X184000000Y-95750000D03*
X186000000Y-95750000D03*
X188000000Y-95750000D03*
X190000000Y-95750000D03*
X192000000Y-95750000D03*
X194000000Y-95750000D03*
X196000000Y-95750000D03*
X198000000Y-95750000D03*
X200000000Y-95750000D03*
X202000000Y-95750000D03*
%TD*%
D18*
%TO.N,GND*%
X254475001Y-194475000D02*
X227516217Y-194475000D01*
X228541825Y-194270994D01*
X229815743Y-193743320D01*
X230962240Y-192977255D01*
X231937255Y-192002240D01*
X232703320Y-190855743D01*
X233230994Y-189581825D01*
X233500000Y-188229440D01*
X233500000Y-186850560D01*
X233230994Y-185498175D01*
X233024643Y-185000000D01*
X233230994Y-184501825D01*
X233500000Y-183149440D01*
X233500000Y-181770560D01*
X233230994Y-180418175D01*
X232703320Y-179144257D01*
X231937255Y-177997760D01*
X230962240Y-177022745D01*
X229815743Y-176256680D01*
X228541825Y-175729006D01*
X227189440Y-175460000D01*
X225810560Y-175460000D01*
X224458175Y-175729006D01*
X223184257Y-176256680D01*
X222037760Y-177022745D01*
X221062745Y-177997760D01*
X220296680Y-179144257D01*
X219769006Y-180418175D01*
X219500000Y-181770560D01*
X219500000Y-183149440D01*
X219769006Y-184501825D01*
X219975357Y-185000000D01*
X219769006Y-185498175D01*
X219500000Y-186850560D01*
X219500000Y-188229440D01*
X219769006Y-189581825D01*
X220296680Y-190855743D01*
X221062745Y-192002240D01*
X222037760Y-192977255D01*
X223184257Y-193743320D01*
X224458175Y-194270994D01*
X225483783Y-194475000D01*
X209610580Y-194475000D01*
X209625000Y-194402506D01*
X209625000Y-193097494D01*
X209370405Y-191817559D01*
X208870999Y-190611886D01*
X208145974Y-189526808D01*
X207223192Y-188604026D01*
X206138114Y-187879001D01*
X204932441Y-187379595D01*
X203652506Y-187125000D01*
X202347494Y-187125000D01*
X201067559Y-187379595D01*
X199861886Y-187879001D01*
X198776808Y-188604026D01*
X197854026Y-189526808D01*
X197129001Y-190611886D01*
X196629595Y-191817559D01*
X196375000Y-193097494D01*
X196375000Y-194402506D01*
X196389420Y-194475000D01*
X185560852Y-194475000D01*
X185625000Y-194152506D01*
X185625000Y-192847494D01*
X185370405Y-191567559D01*
X184870999Y-190361886D01*
X184145974Y-189276808D01*
X183223192Y-188354026D01*
X182138114Y-187629001D01*
X180932441Y-187129595D01*
X179652506Y-186875000D01*
X178347494Y-186875000D01*
X177067559Y-187129595D01*
X175861886Y-187629001D01*
X174776808Y-188354026D01*
X173854026Y-189276808D01*
X173129001Y-190361886D01*
X172629595Y-191567559D01*
X172375000Y-192847494D01*
X172375000Y-194152506D01*
X172439148Y-194475000D01*
X155516217Y-194475000D01*
X156541825Y-194270994D01*
X157815743Y-193743320D01*
X158962240Y-192977255D01*
X159937255Y-192002240D01*
X160703320Y-190855743D01*
X161230994Y-189581825D01*
X161500000Y-188229440D01*
X161500000Y-186850560D01*
X161230994Y-185498175D01*
X161024643Y-185000000D01*
X161230994Y-184501825D01*
X161500000Y-183149440D01*
X161500000Y-181770560D01*
X161230994Y-180418175D01*
X160703320Y-179144257D01*
X159937255Y-177997760D01*
X158962240Y-177022745D01*
X157815743Y-176256680D01*
X156541825Y-175729006D01*
X155189440Y-175460000D01*
X153810560Y-175460000D01*
X152458175Y-175729006D01*
X151184257Y-176256680D01*
X150037760Y-177022745D01*
X149062745Y-177997760D01*
X148296680Y-179144257D01*
X147769006Y-180418175D01*
X147500000Y-181770560D01*
X147500000Y-183149440D01*
X147769006Y-184501825D01*
X147975357Y-185000000D01*
X147769006Y-185498175D01*
X147500000Y-186850560D01*
X147500000Y-188229440D01*
X147769006Y-189581825D01*
X148296680Y-190855743D01*
X149062745Y-192002240D01*
X150037760Y-192977255D01*
X151184257Y-193743320D01*
X152458175Y-194270994D01*
X153483783Y-194475000D01*
X105525000Y-194475000D01*
X105525000Y-167590108D01*
X144050000Y-167590108D01*
X144050000Y-168909892D01*
X144307478Y-170204318D01*
X144812537Y-171423640D01*
X145545771Y-172521001D01*
X146478999Y-173454229D01*
X147576360Y-174187463D01*
X148795682Y-174692522D01*
X150090108Y-174950000D01*
X151409892Y-174950000D01*
X152704318Y-174692522D01*
X153923640Y-174187463D01*
X155021001Y-173454229D01*
X155954229Y-172521001D01*
X156687463Y-171423640D01*
X157192522Y-170204318D01*
X157450000Y-168909892D01*
X157450000Y-167590108D01*
X166550000Y-167590108D01*
X166550000Y-168909892D01*
X166807478Y-170204318D01*
X167312537Y-171423640D01*
X168045771Y-172521001D01*
X168978999Y-173454229D01*
X170076360Y-174187463D01*
X171295682Y-174692522D01*
X172590108Y-174950000D01*
X173909892Y-174950000D01*
X175204318Y-174692522D01*
X176423640Y-174187463D01*
X177521001Y-173454229D01*
X178454229Y-172521001D01*
X179187463Y-171423640D01*
X179692522Y-170204318D01*
X179950000Y-168909892D01*
X179950000Y-167590108D01*
X195300000Y-167590108D01*
X195300000Y-168909892D01*
X195557478Y-170204318D01*
X196062537Y-171423640D01*
X196795771Y-172521001D01*
X197728999Y-173454229D01*
X198826360Y-174187463D01*
X200045682Y-174692522D01*
X201340108Y-174950000D01*
X202659892Y-174950000D01*
X203954318Y-174692522D01*
X205173640Y-174187463D01*
X206271001Y-173454229D01*
X207204229Y-172521001D01*
X207937463Y-171423640D01*
X208442522Y-170204318D01*
X208700000Y-168909892D01*
X208700000Y-167590108D01*
X217800000Y-167590108D01*
X217800000Y-168909892D01*
X218057478Y-170204318D01*
X218562537Y-171423640D01*
X219295771Y-172521001D01*
X220228999Y-173454229D01*
X221326360Y-174187463D01*
X222545682Y-174692522D01*
X223840108Y-174950000D01*
X225159892Y-174950000D01*
X226454318Y-174692522D01*
X227673640Y-174187463D01*
X228771001Y-173454229D01*
X229704229Y-172521001D01*
X230437463Y-171423640D01*
X230942522Y-170204318D01*
X231200000Y-168909892D01*
X231200000Y-167590108D01*
X230942522Y-166295682D01*
X230437463Y-165076360D01*
X229704229Y-163978999D01*
X228771001Y-163045771D01*
X227673640Y-162312537D01*
X226454318Y-161807478D01*
X225159892Y-161550000D01*
X223840108Y-161550000D01*
X222545682Y-161807478D01*
X221326360Y-162312537D01*
X220228999Y-163045771D01*
X219295771Y-163978999D01*
X218562537Y-165076360D01*
X218057478Y-166295682D01*
X217800000Y-167590108D01*
X208700000Y-167590108D01*
X208442522Y-166295682D01*
X207937463Y-165076360D01*
X207204229Y-163978999D01*
X206271001Y-163045771D01*
X205173640Y-162312537D01*
X203954318Y-161807478D01*
X202659892Y-161550000D01*
X201340108Y-161550000D01*
X200045682Y-161807478D01*
X198826360Y-162312537D01*
X197728999Y-163045771D01*
X196795771Y-163978999D01*
X196062537Y-165076360D01*
X195557478Y-166295682D01*
X195300000Y-167590108D01*
X179950000Y-167590108D01*
X179692522Y-166295682D01*
X179187463Y-165076360D01*
X178454229Y-163978999D01*
X177521001Y-163045771D01*
X176423640Y-162312537D01*
X175204318Y-161807478D01*
X173909892Y-161550000D01*
X172590108Y-161550000D01*
X171295682Y-161807478D01*
X170076360Y-162312537D01*
X168978999Y-163045771D01*
X168045771Y-163978999D01*
X167312537Y-165076360D01*
X166807478Y-166295682D01*
X166550000Y-167590108D01*
X157450000Y-167590108D01*
X157192522Y-166295682D01*
X156687463Y-165076360D01*
X155954229Y-163978999D01*
X155021001Y-163045771D01*
X153923640Y-162312537D01*
X152704318Y-161807478D01*
X151409892Y-161550000D01*
X150090108Y-161550000D01*
X148795682Y-161807478D01*
X147576360Y-162312537D01*
X146478999Y-163045771D01*
X145545771Y-163978999D01*
X144812537Y-165076360D01*
X144307478Y-166295682D01*
X144050000Y-167590108D01*
X105525000Y-167590108D01*
X105525000Y-154359806D01*
X158000000Y-154359806D01*
X158000000Y-155640194D01*
X158249791Y-156895980D01*
X158739774Y-158078905D01*
X159451120Y-159143509D01*
X160356491Y-160048880D01*
X161421095Y-160760226D01*
X162604020Y-161250209D01*
X163859806Y-161500000D01*
X165140194Y-161500000D01*
X166395980Y-161250209D01*
X167578905Y-160760226D01*
X168643509Y-160048880D01*
X169548880Y-159143509D01*
X170260226Y-158078905D01*
X170750209Y-156895980D01*
X171000000Y-155640194D01*
X171000000Y-154359806D01*
X189000000Y-154359806D01*
X189000000Y-155640194D01*
X189249791Y-156895980D01*
X189739774Y-158078905D01*
X190451120Y-159143509D01*
X191356491Y-160048880D01*
X192421095Y-160760226D01*
X193604020Y-161250209D01*
X194859806Y-161500000D01*
X196140194Y-161500000D01*
X197395980Y-161250209D01*
X198578905Y-160760226D01*
X199643509Y-160048880D01*
X200548880Y-159143509D01*
X201260226Y-158078905D01*
X201750209Y-156895980D01*
X202000000Y-155640194D01*
X202000000Y-154359806D01*
X201750209Y-153104020D01*
X201260226Y-151921095D01*
X200548880Y-150856491D01*
X199643509Y-149951120D01*
X198578905Y-149239774D01*
X197395980Y-148749791D01*
X196140194Y-148500000D01*
X194859806Y-148500000D01*
X193604020Y-148749791D01*
X192421095Y-149239774D01*
X191356491Y-149951120D01*
X190451120Y-150856491D01*
X189739774Y-151921095D01*
X189249791Y-153104020D01*
X189000000Y-154359806D01*
X171000000Y-154359806D01*
X170750209Y-153104020D01*
X170260226Y-151921095D01*
X169548880Y-150856491D01*
X168643509Y-149951120D01*
X167578905Y-149239774D01*
X166395980Y-148749791D01*
X165140194Y-148500000D01*
X163859806Y-148500000D01*
X162604020Y-148749791D01*
X161421095Y-149239774D01*
X160356491Y-149951120D01*
X159451120Y-150856491D01*
X158739774Y-151921095D01*
X158249791Y-153104020D01*
X158000000Y-154359806D01*
X105525000Y-154359806D01*
X105525000Y-140250000D01*
X138500000Y-140250000D01*
X138500000Y-147750000D01*
X138509607Y-147847545D01*
X138538060Y-147941342D01*
X138584265Y-148027785D01*
X138646447Y-148103553D01*
X138722215Y-148165735D01*
X138808658Y-148211940D01*
X138902455Y-148240393D01*
X139000000Y-148250000D01*
X143000000Y-148250000D01*
X143097545Y-148240393D01*
X143191342Y-148211940D01*
X143277785Y-148165735D01*
X143353553Y-148103553D01*
X143415735Y-148027785D01*
X143461940Y-147941342D01*
X143490393Y-147847545D01*
X143500000Y-147750000D01*
X143500000Y-141250000D01*
X216500000Y-141250000D01*
X216500000Y-148750000D01*
X216509607Y-148847545D01*
X216538060Y-148941342D01*
X216584265Y-149027785D01*
X216646447Y-149103553D01*
X216722215Y-149165735D01*
X216808658Y-149211940D01*
X216902455Y-149240393D01*
X217000000Y-149250000D01*
X221000000Y-149250000D01*
X221097545Y-149240393D01*
X221191342Y-149211940D01*
X221277785Y-149165735D01*
X221353553Y-149103553D01*
X221415735Y-149027785D01*
X221461940Y-148941342D01*
X221490393Y-148847545D01*
X221500000Y-148750000D01*
X221500000Y-141250000D01*
X221490393Y-141152455D01*
X221461940Y-141058658D01*
X221415735Y-140972215D01*
X221353553Y-140896447D01*
X221277785Y-140834265D01*
X221191342Y-140788060D01*
X221097545Y-140759607D01*
X221000000Y-140750000D01*
X217000000Y-140750000D01*
X216902455Y-140759607D01*
X216808658Y-140788060D01*
X216722215Y-140834265D01*
X216646447Y-140896447D01*
X216584265Y-140972215D01*
X216538060Y-141058658D01*
X216509607Y-141152455D01*
X216500000Y-141250000D01*
X143500000Y-141250000D01*
X143500000Y-140250000D01*
X143490393Y-140152455D01*
X143461940Y-140058658D01*
X143415735Y-139972215D01*
X143353553Y-139896447D01*
X143277785Y-139834265D01*
X143191342Y-139788060D01*
X143097545Y-139759607D01*
X143000000Y-139750000D01*
X139000000Y-139750000D01*
X138902455Y-139759607D01*
X138808658Y-139788060D01*
X138722215Y-139834265D01*
X138646447Y-139896447D01*
X138584265Y-139972215D01*
X138538060Y-140058658D01*
X138509607Y-140152455D01*
X138500000Y-140250000D01*
X105525000Y-140250000D01*
X105525000Y-139340108D01*
X236300000Y-139340108D01*
X236300000Y-140659892D01*
X236557478Y-141954318D01*
X237062537Y-143173640D01*
X237280604Y-143500000D01*
X237062537Y-143826360D01*
X236557478Y-145045682D01*
X236300000Y-146340108D01*
X236300000Y-147659892D01*
X236557478Y-148954318D01*
X237062537Y-150173640D01*
X237795771Y-151271001D01*
X238728999Y-152204229D01*
X239826360Y-152937463D01*
X241045682Y-153442522D01*
X242340108Y-153700000D01*
X243659892Y-153700000D01*
X244954318Y-153442522D01*
X246173640Y-152937463D01*
X247271001Y-152204229D01*
X248204229Y-151271001D01*
X248937463Y-150173640D01*
X249442522Y-148954318D01*
X249700000Y-147659892D01*
X249700000Y-146340108D01*
X249442522Y-145045682D01*
X248937463Y-143826360D01*
X248719396Y-143500000D01*
X248937463Y-143173640D01*
X249442522Y-141954318D01*
X249700000Y-140659892D01*
X249700000Y-139340108D01*
X249442522Y-138045682D01*
X248937463Y-136826360D01*
X248204229Y-135728999D01*
X247271001Y-134795771D01*
X246173640Y-134062537D01*
X244954318Y-133557478D01*
X243659892Y-133300000D01*
X242340108Y-133300000D01*
X241045682Y-133557478D01*
X239826360Y-134062537D01*
X238728999Y-134795771D01*
X237795771Y-135728999D01*
X237062537Y-136826360D01*
X236557478Y-138045682D01*
X236300000Y-139340108D01*
X105525000Y-139340108D01*
X105525000Y-123840108D01*
X110300000Y-123840108D01*
X110300000Y-125159892D01*
X110557478Y-126454318D01*
X111062537Y-127673640D01*
X111795771Y-128771001D01*
X112728999Y-129704229D01*
X113826360Y-130437463D01*
X115045682Y-130942522D01*
X116340108Y-131200000D01*
X117659892Y-131200000D01*
X118954318Y-130942522D01*
X120173640Y-130437463D01*
X121271001Y-129704229D01*
X122204229Y-128771001D01*
X122937463Y-127673640D01*
X123442522Y-126454318D01*
X123483163Y-126250000D01*
X138500000Y-126250000D01*
X138500000Y-133750000D01*
X138509607Y-133847545D01*
X138538060Y-133941342D01*
X138584265Y-134027785D01*
X138646447Y-134103553D01*
X138722215Y-134165735D01*
X138808658Y-134211940D01*
X138902455Y-134240393D01*
X139000000Y-134250000D01*
X143000000Y-134250000D01*
X143097545Y-134240393D01*
X143191342Y-134211940D01*
X143277785Y-134165735D01*
X143353553Y-134103553D01*
X143415735Y-134027785D01*
X143461940Y-133941342D01*
X143490393Y-133847545D01*
X143500000Y-133750000D01*
X143500000Y-127250000D01*
X216500000Y-127250000D01*
X216500000Y-134750000D01*
X216509607Y-134847545D01*
X216538060Y-134941342D01*
X216584265Y-135027785D01*
X216646447Y-135103553D01*
X216722215Y-135165735D01*
X216808658Y-135211940D01*
X216902455Y-135240393D01*
X217000000Y-135250000D01*
X221000000Y-135250000D01*
X221097545Y-135240393D01*
X221191342Y-135211940D01*
X221277785Y-135165735D01*
X221353553Y-135103553D01*
X221415735Y-135027785D01*
X221461940Y-134941342D01*
X221490393Y-134847545D01*
X221500000Y-134750000D01*
X221500000Y-127250000D01*
X221490393Y-127152455D01*
X221461940Y-127058658D01*
X221415735Y-126972215D01*
X221353553Y-126896447D01*
X221277785Y-126834265D01*
X221191342Y-126788060D01*
X221097545Y-126759607D01*
X221000000Y-126750000D01*
X217000000Y-126750000D01*
X216902455Y-126759607D01*
X216808658Y-126788060D01*
X216722215Y-126834265D01*
X216646447Y-126896447D01*
X216584265Y-126972215D01*
X216538060Y-127058658D01*
X216509607Y-127152455D01*
X216500000Y-127250000D01*
X143500000Y-127250000D01*
X143500000Y-126250000D01*
X143490393Y-126152455D01*
X143461940Y-126058658D01*
X143415735Y-125972215D01*
X143353553Y-125896447D01*
X143277785Y-125834265D01*
X143191342Y-125788060D01*
X143097545Y-125759607D01*
X143000000Y-125750000D01*
X139000000Y-125750000D01*
X138902455Y-125759607D01*
X138808658Y-125788060D01*
X138722215Y-125834265D01*
X138646447Y-125896447D01*
X138584265Y-125972215D01*
X138538060Y-126058658D01*
X138509607Y-126152455D01*
X138500000Y-126250000D01*
X123483163Y-126250000D01*
X123700000Y-125159892D01*
X123700000Y-123840108D01*
X123442522Y-122545682D01*
X122937463Y-121326360D01*
X122204229Y-120228999D01*
X121271001Y-119295771D01*
X120173640Y-118562537D01*
X118954318Y-118057478D01*
X117659892Y-117800000D01*
X116340108Y-117800000D01*
X115045682Y-118057478D01*
X113826360Y-118562537D01*
X112728999Y-119295771D01*
X111795771Y-120228999D01*
X111062537Y-121326360D01*
X110557478Y-122545682D01*
X110300000Y-123840108D01*
X105525000Y-123840108D01*
X105525000Y-112250000D01*
X138500000Y-112250000D01*
X138500000Y-119750000D01*
X138509607Y-119847545D01*
X138538060Y-119941342D01*
X138584265Y-120027785D01*
X138646447Y-120103553D01*
X138722215Y-120165735D01*
X138808658Y-120211940D01*
X138902455Y-120240393D01*
X139000000Y-120250000D01*
X143000000Y-120250000D01*
X143097545Y-120240393D01*
X143191342Y-120211940D01*
X143277785Y-120165735D01*
X143353553Y-120103553D01*
X143415735Y-120027785D01*
X143461940Y-119941342D01*
X143490393Y-119847545D01*
X143500000Y-119750000D01*
X143500000Y-113250000D01*
X216500000Y-113250000D01*
X216500000Y-120750000D01*
X216509607Y-120847545D01*
X216538060Y-120941342D01*
X216584265Y-121027785D01*
X216646447Y-121103553D01*
X216722215Y-121165735D01*
X216808658Y-121211940D01*
X216902455Y-121240393D01*
X217000000Y-121250000D01*
X221000000Y-121250000D01*
X221097545Y-121240393D01*
X221191342Y-121211940D01*
X221277785Y-121165735D01*
X221353553Y-121103553D01*
X221415735Y-121027785D01*
X221461940Y-120941342D01*
X221490393Y-120847545D01*
X221500000Y-120750000D01*
X221500000Y-113250000D01*
X221490393Y-113152455D01*
X221461940Y-113058658D01*
X221415735Y-112972215D01*
X221353553Y-112896447D01*
X221277785Y-112834265D01*
X221191342Y-112788060D01*
X221097545Y-112759607D01*
X221000000Y-112750000D01*
X217000000Y-112750000D01*
X216902455Y-112759607D01*
X216808658Y-112788060D01*
X216722215Y-112834265D01*
X216646447Y-112896447D01*
X216584265Y-112972215D01*
X216538060Y-113058658D01*
X216509607Y-113152455D01*
X216500000Y-113250000D01*
X143500000Y-113250000D01*
X143500000Y-112250000D01*
X143490393Y-112152455D01*
X143461940Y-112058658D01*
X143415735Y-111972215D01*
X143353553Y-111896447D01*
X143277785Y-111834265D01*
X143191342Y-111788060D01*
X143097545Y-111759607D01*
X143000000Y-111750000D01*
X139000000Y-111750000D01*
X138902455Y-111759607D01*
X138808658Y-111788060D01*
X138722215Y-111834265D01*
X138646447Y-111896447D01*
X138584265Y-111972215D01*
X138538060Y-112058658D01*
X138509607Y-112152455D01*
X138500000Y-112250000D01*
X105525000Y-112250000D01*
X105525000Y-98250000D01*
X138500000Y-98250000D01*
X138500000Y-105750000D01*
X138509607Y-105847545D01*
X138538060Y-105941342D01*
X138584265Y-106027785D01*
X138646447Y-106103553D01*
X138722215Y-106165735D01*
X138808658Y-106211940D01*
X138902455Y-106240393D01*
X139000000Y-106250000D01*
X143000000Y-106250000D01*
X143097545Y-106240393D01*
X143191342Y-106211940D01*
X143277785Y-106165735D01*
X143353553Y-106103553D01*
X143415735Y-106027785D01*
X143461940Y-105941342D01*
X143490393Y-105847545D01*
X143500000Y-105750000D01*
X143500000Y-99250000D01*
X216500000Y-99250000D01*
X216500000Y-106750000D01*
X216509607Y-106847545D01*
X216538060Y-106941342D01*
X216584265Y-107027785D01*
X216646447Y-107103553D01*
X216722215Y-107165735D01*
X216808658Y-107211940D01*
X216902455Y-107240393D01*
X217000000Y-107250000D01*
X221000000Y-107250000D01*
X221097545Y-107240393D01*
X221191342Y-107211940D01*
X221277785Y-107165735D01*
X221353553Y-107103553D01*
X221415735Y-107027785D01*
X221461940Y-106941342D01*
X221490393Y-106847545D01*
X221500000Y-106750000D01*
X221500000Y-99250000D01*
X221490393Y-99152455D01*
X221461940Y-99058658D01*
X221415735Y-98972215D01*
X221353553Y-98896447D01*
X221277785Y-98834265D01*
X221191342Y-98788060D01*
X221097545Y-98759607D01*
X221000000Y-98750000D01*
X217000000Y-98750000D01*
X216902455Y-98759607D01*
X216808658Y-98788060D01*
X216722215Y-98834265D01*
X216646447Y-98896447D01*
X216584265Y-98972215D01*
X216538060Y-99058658D01*
X216509607Y-99152455D01*
X216500000Y-99250000D01*
X143500000Y-99250000D01*
X143500000Y-98250000D01*
X143490393Y-98152455D01*
X143461940Y-98058658D01*
X143415735Y-97972215D01*
X143353553Y-97896447D01*
X143277785Y-97834265D01*
X143191342Y-97788060D01*
X143097545Y-97759607D01*
X143000000Y-97750000D01*
X139000000Y-97750000D01*
X138902455Y-97759607D01*
X138808658Y-97788060D01*
X138722215Y-97834265D01*
X138646447Y-97896447D01*
X138584265Y-97972215D01*
X138538060Y-98058658D01*
X138509607Y-98152455D01*
X138500000Y-98250000D01*
X105525000Y-98250000D01*
X105525000Y-82340108D01*
X110300000Y-82340108D01*
X110300000Y-83659892D01*
X110557478Y-84954318D01*
X111062537Y-86173640D01*
X111280604Y-86500000D01*
X111062537Y-86826360D01*
X110557478Y-88045682D01*
X110300000Y-89340108D01*
X110300000Y-90659892D01*
X110557478Y-91954318D01*
X111062537Y-93173640D01*
X111795771Y-94271001D01*
X112728999Y-95204229D01*
X113826360Y-95937463D01*
X115045682Y-96442522D01*
X116340108Y-96700000D01*
X117659892Y-96700000D01*
X118954318Y-96442522D01*
X120173640Y-95937463D01*
X121271001Y-95204229D01*
X122204229Y-94271001D01*
X122937463Y-93173640D01*
X123442522Y-91954318D01*
X123700000Y-90659892D01*
X123700000Y-89340108D01*
X123442522Y-88045682D01*
X122937463Y-86826360D01*
X122719396Y-86500000D01*
X122937463Y-86173640D01*
X123442522Y-84954318D01*
X123700000Y-83659892D01*
X123700000Y-82340108D01*
X123442522Y-81045682D01*
X122937463Y-79826360D01*
X122204229Y-78728999D01*
X121815338Y-78340108D01*
X129900000Y-78340108D01*
X129900000Y-79659892D01*
X130157478Y-80954318D01*
X130662537Y-82173640D01*
X131395771Y-83271001D01*
X132328999Y-84204229D01*
X133426360Y-84937463D01*
X134645682Y-85442522D01*
X135940108Y-85700000D01*
X137259892Y-85700000D01*
X138554318Y-85442522D01*
X139773640Y-84937463D01*
X140871001Y-84204229D01*
X141804229Y-83271001D01*
X142537463Y-82173640D01*
X143042522Y-80954318D01*
X143300000Y-79659892D01*
X143300000Y-78340108D01*
X155300000Y-78340108D01*
X155300000Y-79659892D01*
X155557478Y-80954318D01*
X156062537Y-82173640D01*
X156795771Y-83271001D01*
X157728999Y-84204229D01*
X158826360Y-84937463D01*
X160045682Y-85442522D01*
X161340108Y-85700000D01*
X162659892Y-85700000D01*
X163954318Y-85442522D01*
X165173640Y-84937463D01*
X165511083Y-84711991D01*
X165519006Y-84751825D01*
X165725357Y-85250000D01*
X165519006Y-85748175D01*
X165250000Y-87100560D01*
X165250000Y-88479440D01*
X165519006Y-89831825D01*
X166046680Y-91105743D01*
X166812745Y-92252240D01*
X167787760Y-93227255D01*
X168934257Y-93993320D01*
X170208175Y-94520994D01*
X171560560Y-94790000D01*
X172939440Y-94790000D01*
X174291825Y-94520994D01*
X175565743Y-93993320D01*
X176712240Y-93227255D01*
X177687255Y-92252240D01*
X178453320Y-91105743D01*
X178980994Y-89831825D01*
X179250000Y-88479440D01*
X179250000Y-87100560D01*
X178980994Y-85748175D01*
X178774643Y-85250000D01*
X178980994Y-84751825D01*
X179250000Y-83399440D01*
X179250000Y-82020560D01*
X185500000Y-82020560D01*
X185500000Y-83399440D01*
X185769006Y-84751825D01*
X185975357Y-85250000D01*
X185769006Y-85748175D01*
X185500000Y-87100560D01*
X185500000Y-88479440D01*
X185769006Y-89831825D01*
X186296680Y-91105743D01*
X187062745Y-92252240D01*
X188037760Y-93227255D01*
X189184257Y-93993320D01*
X190458175Y-94520994D01*
X191810560Y-94790000D01*
X193189440Y-94790000D01*
X194541825Y-94520994D01*
X195815743Y-93993320D01*
X196962240Y-93227255D01*
X197937255Y-92252240D01*
X198703320Y-91105743D01*
X199230994Y-89831825D01*
X199500000Y-88479440D01*
X199500000Y-87100560D01*
X199230994Y-85748175D01*
X199024643Y-85250000D01*
X199106104Y-85053337D01*
X200045682Y-85442522D01*
X201340108Y-85700000D01*
X202659892Y-85700000D01*
X203954318Y-85442522D01*
X205173640Y-84937463D01*
X206271001Y-84204229D01*
X207204229Y-83271001D01*
X207937463Y-82173640D01*
X208442522Y-80954318D01*
X208700000Y-79659892D01*
X208700000Y-78340108D01*
X220700000Y-78340108D01*
X220700000Y-79659892D01*
X220957478Y-80954318D01*
X221462537Y-82173640D01*
X222195771Y-83271001D01*
X223128999Y-84204229D01*
X224226360Y-84937463D01*
X225445682Y-85442522D01*
X226740108Y-85700000D01*
X228059892Y-85700000D01*
X229354318Y-85442522D01*
X230573640Y-84937463D01*
X231671001Y-84204229D01*
X232604229Y-83271001D01*
X233337463Y-82173640D01*
X233842522Y-80954318D01*
X234100000Y-79659892D01*
X234100000Y-78340108D01*
X233901088Y-77340108D01*
X236300000Y-77340108D01*
X236300000Y-78659892D01*
X236557478Y-79954318D01*
X237062537Y-81173640D01*
X237795771Y-82271001D01*
X238728999Y-83204229D01*
X239826360Y-83937463D01*
X241045682Y-84442522D01*
X242340108Y-84700000D01*
X243659892Y-84700000D01*
X244954318Y-84442522D01*
X246173640Y-83937463D01*
X247271001Y-83204229D01*
X248204229Y-82271001D01*
X248937463Y-81173640D01*
X249442522Y-79954318D01*
X249700000Y-78659892D01*
X249700000Y-77340108D01*
X249442522Y-76045682D01*
X248937463Y-74826360D01*
X248204229Y-73728999D01*
X247271001Y-72795771D01*
X246173640Y-72062537D01*
X244954318Y-71557478D01*
X243659892Y-71300000D01*
X242340108Y-71300000D01*
X241045682Y-71557478D01*
X239826360Y-72062537D01*
X238728999Y-72795771D01*
X237795771Y-73728999D01*
X237062537Y-74826360D01*
X236557478Y-76045682D01*
X236300000Y-77340108D01*
X233901088Y-77340108D01*
X233842522Y-77045682D01*
X233337463Y-75826360D01*
X232604229Y-74728999D01*
X231671001Y-73795771D01*
X230573640Y-73062537D01*
X229354318Y-72557478D01*
X228059892Y-72300000D01*
X226740108Y-72300000D01*
X225445682Y-72557478D01*
X224226360Y-73062537D01*
X223128999Y-73795771D01*
X222195771Y-74728999D01*
X221462537Y-75826360D01*
X220957478Y-77045682D01*
X220700000Y-78340108D01*
X208700000Y-78340108D01*
X208442522Y-77045682D01*
X207937463Y-75826360D01*
X207204229Y-74728999D01*
X206271001Y-73795771D01*
X205173640Y-73062537D01*
X203954318Y-72557478D01*
X202659892Y-72300000D01*
X201340108Y-72300000D01*
X200045682Y-72557478D01*
X198826360Y-73062537D01*
X197728999Y-73795771D01*
X196795771Y-74728999D01*
X196062537Y-75826360D01*
X195785866Y-76494304D01*
X194541825Y-75979006D01*
X193189440Y-75710000D01*
X191810560Y-75710000D01*
X190458175Y-75979006D01*
X189184257Y-76506680D01*
X188037760Y-77272745D01*
X187062745Y-78247760D01*
X186296680Y-79394257D01*
X185769006Y-80668175D01*
X185500000Y-82020560D01*
X179250000Y-82020560D01*
X178980994Y-80668175D01*
X178453320Y-79394257D01*
X177687255Y-78247760D01*
X176712240Y-77272745D01*
X175565743Y-76506680D01*
X174291825Y-75979006D01*
X172939440Y-75710000D01*
X171560560Y-75710000D01*
X170208175Y-75979006D01*
X168934257Y-76506680D01*
X168374252Y-76880863D01*
X167937463Y-75826360D01*
X167204229Y-74728999D01*
X166271001Y-73795771D01*
X165173640Y-73062537D01*
X163954318Y-72557478D01*
X162659892Y-72300000D01*
X161340108Y-72300000D01*
X160045682Y-72557478D01*
X158826360Y-73062537D01*
X157728999Y-73795771D01*
X156795771Y-74728999D01*
X156062537Y-75826360D01*
X155557478Y-77045682D01*
X155300000Y-78340108D01*
X143300000Y-78340108D01*
X143042522Y-77045682D01*
X142537463Y-75826360D01*
X141804229Y-74728999D01*
X140871001Y-73795771D01*
X139773640Y-73062537D01*
X138554318Y-72557478D01*
X137259892Y-72300000D01*
X135940108Y-72300000D01*
X134645682Y-72557478D01*
X133426360Y-73062537D01*
X132328999Y-73795771D01*
X131395771Y-74728999D01*
X130662537Y-75826360D01*
X130157478Y-77045682D01*
X129900000Y-78340108D01*
X121815338Y-78340108D01*
X121271001Y-77795771D01*
X120173640Y-77062537D01*
X118954318Y-76557478D01*
X117659892Y-76300000D01*
X116340108Y-76300000D01*
X115045682Y-76557478D01*
X113826360Y-77062537D01*
X112728999Y-77795771D01*
X111795771Y-78728999D01*
X111062537Y-79826360D01*
X110557478Y-81045682D01*
X110300000Y-82340108D01*
X105525000Y-82340108D01*
X105525000Y-46525000D01*
X254475000Y-46525000D01*
X254475001Y-194475000D01*
%TA.AperFunction,Conductor*%
D19*
G36*
X254475001Y-194475000D02*
G01*
X227516217Y-194475000D01*
X228541825Y-194270994D01*
X229815743Y-193743320D01*
X230962240Y-192977255D01*
X231937255Y-192002240D01*
X232703320Y-190855743D01*
X233230994Y-189581825D01*
X233500000Y-188229440D01*
X233500000Y-186850560D01*
X233230994Y-185498175D01*
X233024643Y-185000000D01*
X233230994Y-184501825D01*
X233500000Y-183149440D01*
X233500000Y-181770560D01*
X233230994Y-180418175D01*
X232703320Y-179144257D01*
X231937255Y-177997760D01*
X230962240Y-177022745D01*
X229815743Y-176256680D01*
X228541825Y-175729006D01*
X227189440Y-175460000D01*
X225810560Y-175460000D01*
X224458175Y-175729006D01*
X223184257Y-176256680D01*
X222037760Y-177022745D01*
X221062745Y-177997760D01*
X220296680Y-179144257D01*
X219769006Y-180418175D01*
X219500000Y-181770560D01*
X219500000Y-183149440D01*
X219769006Y-184501825D01*
X219975357Y-185000000D01*
X219769006Y-185498175D01*
X219500000Y-186850560D01*
X219500000Y-188229440D01*
X219769006Y-189581825D01*
X220296680Y-190855743D01*
X221062745Y-192002240D01*
X222037760Y-192977255D01*
X223184257Y-193743320D01*
X224458175Y-194270994D01*
X225483783Y-194475000D01*
X209610580Y-194475000D01*
X209625000Y-194402506D01*
X209625000Y-193097494D01*
X209370405Y-191817559D01*
X208870999Y-190611886D01*
X208145974Y-189526808D01*
X207223192Y-188604026D01*
X206138114Y-187879001D01*
X204932441Y-187379595D01*
X203652506Y-187125000D01*
X202347494Y-187125000D01*
X201067559Y-187379595D01*
X199861886Y-187879001D01*
X198776808Y-188604026D01*
X197854026Y-189526808D01*
X197129001Y-190611886D01*
X196629595Y-191817559D01*
X196375000Y-193097494D01*
X196375000Y-194402506D01*
X196389420Y-194475000D01*
X185560852Y-194475000D01*
X185625000Y-194152506D01*
X185625000Y-192847494D01*
X185370405Y-191567559D01*
X184870999Y-190361886D01*
X184145974Y-189276808D01*
X183223192Y-188354026D01*
X182138114Y-187629001D01*
X180932441Y-187129595D01*
X179652506Y-186875000D01*
X178347494Y-186875000D01*
X177067559Y-187129595D01*
X175861886Y-187629001D01*
X174776808Y-188354026D01*
X173854026Y-189276808D01*
X173129001Y-190361886D01*
X172629595Y-191567559D01*
X172375000Y-192847494D01*
X172375000Y-194152506D01*
X172439148Y-194475000D01*
X155516217Y-194475000D01*
X156541825Y-194270994D01*
X157815743Y-193743320D01*
X158962240Y-192977255D01*
X159937255Y-192002240D01*
X160703320Y-190855743D01*
X161230994Y-189581825D01*
X161500000Y-188229440D01*
X161500000Y-186850560D01*
X161230994Y-185498175D01*
X161024643Y-185000000D01*
X161230994Y-184501825D01*
X161500000Y-183149440D01*
X161500000Y-181770560D01*
X161230994Y-180418175D01*
X160703320Y-179144257D01*
X159937255Y-177997760D01*
X158962240Y-177022745D01*
X157815743Y-176256680D01*
X156541825Y-175729006D01*
X155189440Y-175460000D01*
X153810560Y-175460000D01*
X152458175Y-175729006D01*
X151184257Y-176256680D01*
X150037760Y-177022745D01*
X149062745Y-177997760D01*
X148296680Y-179144257D01*
X147769006Y-180418175D01*
X147500000Y-181770560D01*
X147500000Y-183149440D01*
X147769006Y-184501825D01*
X147975357Y-185000000D01*
X147769006Y-185498175D01*
X147500000Y-186850560D01*
X147500000Y-188229440D01*
X147769006Y-189581825D01*
X148296680Y-190855743D01*
X149062745Y-192002240D01*
X150037760Y-192977255D01*
X151184257Y-193743320D01*
X152458175Y-194270994D01*
X153483783Y-194475000D01*
X105525000Y-194475000D01*
X105525000Y-167590108D01*
X144050000Y-167590108D01*
X144050000Y-168909892D01*
X144307478Y-170204318D01*
X144812537Y-171423640D01*
X145545771Y-172521001D01*
X146478999Y-173454229D01*
X147576360Y-174187463D01*
X148795682Y-174692522D01*
X150090108Y-174950000D01*
X151409892Y-174950000D01*
X152704318Y-174692522D01*
X153923640Y-174187463D01*
X155021001Y-173454229D01*
X155954229Y-172521001D01*
X156687463Y-171423640D01*
X157192522Y-170204318D01*
X157450000Y-168909892D01*
X157450000Y-167590108D01*
X166550000Y-167590108D01*
X166550000Y-168909892D01*
X166807478Y-170204318D01*
X167312537Y-171423640D01*
X168045771Y-172521001D01*
X168978999Y-173454229D01*
X170076360Y-174187463D01*
X171295682Y-174692522D01*
X172590108Y-174950000D01*
X173909892Y-174950000D01*
X175204318Y-174692522D01*
X176423640Y-174187463D01*
X177521001Y-173454229D01*
X178454229Y-172521001D01*
X179187463Y-171423640D01*
X179692522Y-170204318D01*
X179950000Y-168909892D01*
X179950000Y-167590108D01*
X195300000Y-167590108D01*
X195300000Y-168909892D01*
X195557478Y-170204318D01*
X196062537Y-171423640D01*
X196795771Y-172521001D01*
X197728999Y-173454229D01*
X198826360Y-174187463D01*
X200045682Y-174692522D01*
X201340108Y-174950000D01*
X202659892Y-174950000D01*
X203954318Y-174692522D01*
X205173640Y-174187463D01*
X206271001Y-173454229D01*
X207204229Y-172521001D01*
X207937463Y-171423640D01*
X208442522Y-170204318D01*
X208700000Y-168909892D01*
X208700000Y-167590108D01*
X217800000Y-167590108D01*
X217800000Y-168909892D01*
X218057478Y-170204318D01*
X218562537Y-171423640D01*
X219295771Y-172521001D01*
X220228999Y-173454229D01*
X221326360Y-174187463D01*
X222545682Y-174692522D01*
X223840108Y-174950000D01*
X225159892Y-174950000D01*
X226454318Y-174692522D01*
X227673640Y-174187463D01*
X228771001Y-173454229D01*
X229704229Y-172521001D01*
X230437463Y-171423640D01*
X230942522Y-170204318D01*
X231200000Y-168909892D01*
X231200000Y-167590108D01*
X230942522Y-166295682D01*
X230437463Y-165076360D01*
X229704229Y-163978999D01*
X228771001Y-163045771D01*
X227673640Y-162312537D01*
X226454318Y-161807478D01*
X225159892Y-161550000D01*
X223840108Y-161550000D01*
X222545682Y-161807478D01*
X221326360Y-162312537D01*
X220228999Y-163045771D01*
X219295771Y-163978999D01*
X218562537Y-165076360D01*
X218057478Y-166295682D01*
X217800000Y-167590108D01*
X208700000Y-167590108D01*
X208442522Y-166295682D01*
X207937463Y-165076360D01*
X207204229Y-163978999D01*
X206271001Y-163045771D01*
X205173640Y-162312537D01*
X203954318Y-161807478D01*
X202659892Y-161550000D01*
X201340108Y-161550000D01*
X200045682Y-161807478D01*
X198826360Y-162312537D01*
X197728999Y-163045771D01*
X196795771Y-163978999D01*
X196062537Y-165076360D01*
X195557478Y-166295682D01*
X195300000Y-167590108D01*
X179950000Y-167590108D01*
X179692522Y-166295682D01*
X179187463Y-165076360D01*
X178454229Y-163978999D01*
X177521001Y-163045771D01*
X176423640Y-162312537D01*
X175204318Y-161807478D01*
X173909892Y-161550000D01*
X172590108Y-161550000D01*
X171295682Y-161807478D01*
X170076360Y-162312537D01*
X168978999Y-163045771D01*
X168045771Y-163978999D01*
X167312537Y-165076360D01*
X166807478Y-166295682D01*
X166550000Y-167590108D01*
X157450000Y-167590108D01*
X157192522Y-166295682D01*
X156687463Y-165076360D01*
X155954229Y-163978999D01*
X155021001Y-163045771D01*
X153923640Y-162312537D01*
X152704318Y-161807478D01*
X151409892Y-161550000D01*
X150090108Y-161550000D01*
X148795682Y-161807478D01*
X147576360Y-162312537D01*
X146478999Y-163045771D01*
X145545771Y-163978999D01*
X144812537Y-165076360D01*
X144307478Y-166295682D01*
X144050000Y-167590108D01*
X105525000Y-167590108D01*
X105525000Y-154359806D01*
X158000000Y-154359806D01*
X158000000Y-155640194D01*
X158249791Y-156895980D01*
X158739774Y-158078905D01*
X159451120Y-159143509D01*
X160356491Y-160048880D01*
X161421095Y-160760226D01*
X162604020Y-161250209D01*
X163859806Y-161500000D01*
X165140194Y-161500000D01*
X166395980Y-161250209D01*
X167578905Y-160760226D01*
X168643509Y-160048880D01*
X169548880Y-159143509D01*
X170260226Y-158078905D01*
X170750209Y-156895980D01*
X171000000Y-155640194D01*
X171000000Y-154359806D01*
X189000000Y-154359806D01*
X189000000Y-155640194D01*
X189249791Y-156895980D01*
X189739774Y-158078905D01*
X190451120Y-159143509D01*
X191356491Y-160048880D01*
X192421095Y-160760226D01*
X193604020Y-161250209D01*
X194859806Y-161500000D01*
X196140194Y-161500000D01*
X197395980Y-161250209D01*
X198578905Y-160760226D01*
X199643509Y-160048880D01*
X200548880Y-159143509D01*
X201260226Y-158078905D01*
X201750209Y-156895980D01*
X202000000Y-155640194D01*
X202000000Y-154359806D01*
X201750209Y-153104020D01*
X201260226Y-151921095D01*
X200548880Y-150856491D01*
X199643509Y-149951120D01*
X198578905Y-149239774D01*
X197395980Y-148749791D01*
X196140194Y-148500000D01*
X194859806Y-148500000D01*
X193604020Y-148749791D01*
X192421095Y-149239774D01*
X191356491Y-149951120D01*
X190451120Y-150856491D01*
X189739774Y-151921095D01*
X189249791Y-153104020D01*
X189000000Y-154359806D01*
X171000000Y-154359806D01*
X170750209Y-153104020D01*
X170260226Y-151921095D01*
X169548880Y-150856491D01*
X168643509Y-149951120D01*
X167578905Y-149239774D01*
X166395980Y-148749791D01*
X165140194Y-148500000D01*
X163859806Y-148500000D01*
X162604020Y-148749791D01*
X161421095Y-149239774D01*
X160356491Y-149951120D01*
X159451120Y-150856491D01*
X158739774Y-151921095D01*
X158249791Y-153104020D01*
X158000000Y-154359806D01*
X105525000Y-154359806D01*
X105525000Y-140250000D01*
X138500000Y-140250000D01*
X138500000Y-147750000D01*
X138509607Y-147847545D01*
X138538060Y-147941342D01*
X138584265Y-148027785D01*
X138646447Y-148103553D01*
X138722215Y-148165735D01*
X138808658Y-148211940D01*
X138902455Y-148240393D01*
X139000000Y-148250000D01*
X143000000Y-148250000D01*
X143097545Y-148240393D01*
X143191342Y-148211940D01*
X143277785Y-148165735D01*
X143353553Y-148103553D01*
X143415735Y-148027785D01*
X143461940Y-147941342D01*
X143490393Y-147847545D01*
X143500000Y-147750000D01*
X143500000Y-141250000D01*
X216500000Y-141250000D01*
X216500000Y-148750000D01*
X216509607Y-148847545D01*
X216538060Y-148941342D01*
X216584265Y-149027785D01*
X216646447Y-149103553D01*
X216722215Y-149165735D01*
X216808658Y-149211940D01*
X216902455Y-149240393D01*
X217000000Y-149250000D01*
X221000000Y-149250000D01*
X221097545Y-149240393D01*
X221191342Y-149211940D01*
X221277785Y-149165735D01*
X221353553Y-149103553D01*
X221415735Y-149027785D01*
X221461940Y-148941342D01*
X221490393Y-148847545D01*
X221500000Y-148750000D01*
X221500000Y-141250000D01*
X221490393Y-141152455D01*
X221461940Y-141058658D01*
X221415735Y-140972215D01*
X221353553Y-140896447D01*
X221277785Y-140834265D01*
X221191342Y-140788060D01*
X221097545Y-140759607D01*
X221000000Y-140750000D01*
X217000000Y-140750000D01*
X216902455Y-140759607D01*
X216808658Y-140788060D01*
X216722215Y-140834265D01*
X216646447Y-140896447D01*
X216584265Y-140972215D01*
X216538060Y-141058658D01*
X216509607Y-141152455D01*
X216500000Y-141250000D01*
X143500000Y-141250000D01*
X143500000Y-140250000D01*
X143490393Y-140152455D01*
X143461940Y-140058658D01*
X143415735Y-139972215D01*
X143353553Y-139896447D01*
X143277785Y-139834265D01*
X143191342Y-139788060D01*
X143097545Y-139759607D01*
X143000000Y-139750000D01*
X139000000Y-139750000D01*
X138902455Y-139759607D01*
X138808658Y-139788060D01*
X138722215Y-139834265D01*
X138646447Y-139896447D01*
X138584265Y-139972215D01*
X138538060Y-140058658D01*
X138509607Y-140152455D01*
X138500000Y-140250000D01*
X105525000Y-140250000D01*
X105525000Y-139340108D01*
X236300000Y-139340108D01*
X236300000Y-140659892D01*
X236557478Y-141954318D01*
X237062537Y-143173640D01*
X237280604Y-143500000D01*
X237062537Y-143826360D01*
X236557478Y-145045682D01*
X236300000Y-146340108D01*
X236300000Y-147659892D01*
X236557478Y-148954318D01*
X237062537Y-150173640D01*
X237795771Y-151271001D01*
X238728999Y-152204229D01*
X239826360Y-152937463D01*
X241045682Y-153442522D01*
X242340108Y-153700000D01*
X243659892Y-153700000D01*
X244954318Y-153442522D01*
X246173640Y-152937463D01*
X247271001Y-152204229D01*
X248204229Y-151271001D01*
X248937463Y-150173640D01*
X249442522Y-148954318D01*
X249700000Y-147659892D01*
X249700000Y-146340108D01*
X249442522Y-145045682D01*
X248937463Y-143826360D01*
X248719396Y-143500000D01*
X248937463Y-143173640D01*
X249442522Y-141954318D01*
X249700000Y-140659892D01*
X249700000Y-139340108D01*
X249442522Y-138045682D01*
X248937463Y-136826360D01*
X248204229Y-135728999D01*
X247271001Y-134795771D01*
X246173640Y-134062537D01*
X244954318Y-133557478D01*
X243659892Y-133300000D01*
X242340108Y-133300000D01*
X241045682Y-133557478D01*
X239826360Y-134062537D01*
X238728999Y-134795771D01*
X237795771Y-135728999D01*
X237062537Y-136826360D01*
X236557478Y-138045682D01*
X236300000Y-139340108D01*
X105525000Y-139340108D01*
X105525000Y-123840108D01*
X110300000Y-123840108D01*
X110300000Y-125159892D01*
X110557478Y-126454318D01*
X111062537Y-127673640D01*
X111795771Y-128771001D01*
X112728999Y-129704229D01*
X113826360Y-130437463D01*
X115045682Y-130942522D01*
X116340108Y-131200000D01*
X117659892Y-131200000D01*
X118954318Y-130942522D01*
X120173640Y-130437463D01*
X121271001Y-129704229D01*
X122204229Y-128771001D01*
X122937463Y-127673640D01*
X123442522Y-126454318D01*
X123483163Y-126250000D01*
X138500000Y-126250000D01*
X138500000Y-133750000D01*
X138509607Y-133847545D01*
X138538060Y-133941342D01*
X138584265Y-134027785D01*
X138646447Y-134103553D01*
X138722215Y-134165735D01*
X138808658Y-134211940D01*
X138902455Y-134240393D01*
X139000000Y-134250000D01*
X143000000Y-134250000D01*
X143097545Y-134240393D01*
X143191342Y-134211940D01*
X143277785Y-134165735D01*
X143353553Y-134103553D01*
X143415735Y-134027785D01*
X143461940Y-133941342D01*
X143490393Y-133847545D01*
X143500000Y-133750000D01*
X143500000Y-127250000D01*
X216500000Y-127250000D01*
X216500000Y-134750000D01*
X216509607Y-134847545D01*
X216538060Y-134941342D01*
X216584265Y-135027785D01*
X216646447Y-135103553D01*
X216722215Y-135165735D01*
X216808658Y-135211940D01*
X216902455Y-135240393D01*
X217000000Y-135250000D01*
X221000000Y-135250000D01*
X221097545Y-135240393D01*
X221191342Y-135211940D01*
X221277785Y-135165735D01*
X221353553Y-135103553D01*
X221415735Y-135027785D01*
X221461940Y-134941342D01*
X221490393Y-134847545D01*
X221500000Y-134750000D01*
X221500000Y-127250000D01*
X221490393Y-127152455D01*
X221461940Y-127058658D01*
X221415735Y-126972215D01*
X221353553Y-126896447D01*
X221277785Y-126834265D01*
X221191342Y-126788060D01*
X221097545Y-126759607D01*
X221000000Y-126750000D01*
X217000000Y-126750000D01*
X216902455Y-126759607D01*
X216808658Y-126788060D01*
X216722215Y-126834265D01*
X216646447Y-126896447D01*
X216584265Y-126972215D01*
X216538060Y-127058658D01*
X216509607Y-127152455D01*
X216500000Y-127250000D01*
X143500000Y-127250000D01*
X143500000Y-126250000D01*
X143490393Y-126152455D01*
X143461940Y-126058658D01*
X143415735Y-125972215D01*
X143353553Y-125896447D01*
X143277785Y-125834265D01*
X143191342Y-125788060D01*
X143097545Y-125759607D01*
X143000000Y-125750000D01*
X139000000Y-125750000D01*
X138902455Y-125759607D01*
X138808658Y-125788060D01*
X138722215Y-125834265D01*
X138646447Y-125896447D01*
X138584265Y-125972215D01*
X138538060Y-126058658D01*
X138509607Y-126152455D01*
X138500000Y-126250000D01*
X123483163Y-126250000D01*
X123700000Y-125159892D01*
X123700000Y-123840108D01*
X123442522Y-122545682D01*
X122937463Y-121326360D01*
X122204229Y-120228999D01*
X121271001Y-119295771D01*
X120173640Y-118562537D01*
X118954318Y-118057478D01*
X117659892Y-117800000D01*
X116340108Y-117800000D01*
X115045682Y-118057478D01*
X113826360Y-118562537D01*
X112728999Y-119295771D01*
X111795771Y-120228999D01*
X111062537Y-121326360D01*
X110557478Y-122545682D01*
X110300000Y-123840108D01*
X105525000Y-123840108D01*
X105525000Y-112250000D01*
X138500000Y-112250000D01*
X138500000Y-119750000D01*
X138509607Y-119847545D01*
X138538060Y-119941342D01*
X138584265Y-120027785D01*
X138646447Y-120103553D01*
X138722215Y-120165735D01*
X138808658Y-120211940D01*
X138902455Y-120240393D01*
X139000000Y-120250000D01*
X143000000Y-120250000D01*
X143097545Y-120240393D01*
X143191342Y-120211940D01*
X143277785Y-120165735D01*
X143353553Y-120103553D01*
X143415735Y-120027785D01*
X143461940Y-119941342D01*
X143490393Y-119847545D01*
X143500000Y-119750000D01*
X143500000Y-113250000D01*
X216500000Y-113250000D01*
X216500000Y-120750000D01*
X216509607Y-120847545D01*
X216538060Y-120941342D01*
X216584265Y-121027785D01*
X216646447Y-121103553D01*
X216722215Y-121165735D01*
X216808658Y-121211940D01*
X216902455Y-121240393D01*
X217000000Y-121250000D01*
X221000000Y-121250000D01*
X221097545Y-121240393D01*
X221191342Y-121211940D01*
X221277785Y-121165735D01*
X221353553Y-121103553D01*
X221415735Y-121027785D01*
X221461940Y-120941342D01*
X221490393Y-120847545D01*
X221500000Y-120750000D01*
X221500000Y-113250000D01*
X221490393Y-113152455D01*
X221461940Y-113058658D01*
X221415735Y-112972215D01*
X221353553Y-112896447D01*
X221277785Y-112834265D01*
X221191342Y-112788060D01*
X221097545Y-112759607D01*
X221000000Y-112750000D01*
X217000000Y-112750000D01*
X216902455Y-112759607D01*
X216808658Y-112788060D01*
X216722215Y-112834265D01*
X216646447Y-112896447D01*
X216584265Y-112972215D01*
X216538060Y-113058658D01*
X216509607Y-113152455D01*
X216500000Y-113250000D01*
X143500000Y-113250000D01*
X143500000Y-112250000D01*
X143490393Y-112152455D01*
X143461940Y-112058658D01*
X143415735Y-111972215D01*
X143353553Y-111896447D01*
X143277785Y-111834265D01*
X143191342Y-111788060D01*
X143097545Y-111759607D01*
X143000000Y-111750000D01*
X139000000Y-111750000D01*
X138902455Y-111759607D01*
X138808658Y-111788060D01*
X138722215Y-111834265D01*
X138646447Y-111896447D01*
X138584265Y-111972215D01*
X138538060Y-112058658D01*
X138509607Y-112152455D01*
X138500000Y-112250000D01*
X105525000Y-112250000D01*
X105525000Y-98250000D01*
X138500000Y-98250000D01*
X138500000Y-105750000D01*
X138509607Y-105847545D01*
X138538060Y-105941342D01*
X138584265Y-106027785D01*
X138646447Y-106103553D01*
X138722215Y-106165735D01*
X138808658Y-106211940D01*
X138902455Y-106240393D01*
X139000000Y-106250000D01*
X143000000Y-106250000D01*
X143097545Y-106240393D01*
X143191342Y-106211940D01*
X143277785Y-106165735D01*
X143353553Y-106103553D01*
X143415735Y-106027785D01*
X143461940Y-105941342D01*
X143490393Y-105847545D01*
X143500000Y-105750000D01*
X143500000Y-99250000D01*
X216500000Y-99250000D01*
X216500000Y-106750000D01*
X216509607Y-106847545D01*
X216538060Y-106941342D01*
X216584265Y-107027785D01*
X216646447Y-107103553D01*
X216722215Y-107165735D01*
X216808658Y-107211940D01*
X216902455Y-107240393D01*
X217000000Y-107250000D01*
X221000000Y-107250000D01*
X221097545Y-107240393D01*
X221191342Y-107211940D01*
X221277785Y-107165735D01*
X221353553Y-107103553D01*
X221415735Y-107027785D01*
X221461940Y-106941342D01*
X221490393Y-106847545D01*
X221500000Y-106750000D01*
X221500000Y-99250000D01*
X221490393Y-99152455D01*
X221461940Y-99058658D01*
X221415735Y-98972215D01*
X221353553Y-98896447D01*
X221277785Y-98834265D01*
X221191342Y-98788060D01*
X221097545Y-98759607D01*
X221000000Y-98750000D01*
X217000000Y-98750000D01*
X216902455Y-98759607D01*
X216808658Y-98788060D01*
X216722215Y-98834265D01*
X216646447Y-98896447D01*
X216584265Y-98972215D01*
X216538060Y-99058658D01*
X216509607Y-99152455D01*
X216500000Y-99250000D01*
X143500000Y-99250000D01*
X143500000Y-98250000D01*
X143490393Y-98152455D01*
X143461940Y-98058658D01*
X143415735Y-97972215D01*
X143353553Y-97896447D01*
X143277785Y-97834265D01*
X143191342Y-97788060D01*
X143097545Y-97759607D01*
X143000000Y-97750000D01*
X139000000Y-97750000D01*
X138902455Y-97759607D01*
X138808658Y-97788060D01*
X138722215Y-97834265D01*
X138646447Y-97896447D01*
X138584265Y-97972215D01*
X138538060Y-98058658D01*
X138509607Y-98152455D01*
X138500000Y-98250000D01*
X105525000Y-98250000D01*
X105525000Y-82340108D01*
X110300000Y-82340108D01*
X110300000Y-83659892D01*
X110557478Y-84954318D01*
X111062537Y-86173640D01*
X111280604Y-86500000D01*
X111062537Y-86826360D01*
X110557478Y-88045682D01*
X110300000Y-89340108D01*
X110300000Y-90659892D01*
X110557478Y-91954318D01*
X111062537Y-93173640D01*
X111795771Y-94271001D01*
X112728999Y-95204229D01*
X113826360Y-95937463D01*
X115045682Y-96442522D01*
X116340108Y-96700000D01*
X117659892Y-96700000D01*
X118954318Y-96442522D01*
X120173640Y-95937463D01*
X121271001Y-95204229D01*
X122204229Y-94271001D01*
X122937463Y-93173640D01*
X123442522Y-91954318D01*
X123700000Y-90659892D01*
X123700000Y-89340108D01*
X123442522Y-88045682D01*
X122937463Y-86826360D01*
X122719396Y-86500000D01*
X122937463Y-86173640D01*
X123442522Y-84954318D01*
X123700000Y-83659892D01*
X123700000Y-82340108D01*
X123442522Y-81045682D01*
X122937463Y-79826360D01*
X122204229Y-78728999D01*
X121815338Y-78340108D01*
X129900000Y-78340108D01*
X129900000Y-79659892D01*
X130157478Y-80954318D01*
X130662537Y-82173640D01*
X131395771Y-83271001D01*
X132328999Y-84204229D01*
X133426360Y-84937463D01*
X134645682Y-85442522D01*
X135940108Y-85700000D01*
X137259892Y-85700000D01*
X138554318Y-85442522D01*
X139773640Y-84937463D01*
X140871001Y-84204229D01*
X141804229Y-83271001D01*
X142537463Y-82173640D01*
X143042522Y-80954318D01*
X143300000Y-79659892D01*
X143300000Y-78340108D01*
X155300000Y-78340108D01*
X155300000Y-79659892D01*
X155557478Y-80954318D01*
X156062537Y-82173640D01*
X156795771Y-83271001D01*
X157728999Y-84204229D01*
X158826360Y-84937463D01*
X160045682Y-85442522D01*
X161340108Y-85700000D01*
X162659892Y-85700000D01*
X163954318Y-85442522D01*
X165173640Y-84937463D01*
X165511083Y-84711991D01*
X165519006Y-84751825D01*
X165725357Y-85250000D01*
X165519006Y-85748175D01*
X165250000Y-87100560D01*
X165250000Y-88479440D01*
X165519006Y-89831825D01*
X166046680Y-91105743D01*
X166812745Y-92252240D01*
X167787760Y-93227255D01*
X168934257Y-93993320D01*
X170208175Y-94520994D01*
X171560560Y-94790000D01*
X172939440Y-94790000D01*
X174291825Y-94520994D01*
X175565743Y-93993320D01*
X176712240Y-93227255D01*
X177687255Y-92252240D01*
X178453320Y-91105743D01*
X178980994Y-89831825D01*
X179250000Y-88479440D01*
X179250000Y-87100560D01*
X178980994Y-85748175D01*
X178774643Y-85250000D01*
X178980994Y-84751825D01*
X179250000Y-83399440D01*
X179250000Y-82020560D01*
X185500000Y-82020560D01*
X185500000Y-83399440D01*
X185769006Y-84751825D01*
X185975357Y-85250000D01*
X185769006Y-85748175D01*
X185500000Y-87100560D01*
X185500000Y-88479440D01*
X185769006Y-89831825D01*
X186296680Y-91105743D01*
X187062745Y-92252240D01*
X188037760Y-93227255D01*
X189184257Y-93993320D01*
X190458175Y-94520994D01*
X191810560Y-94790000D01*
X193189440Y-94790000D01*
X194541825Y-94520994D01*
X195815743Y-93993320D01*
X196962240Y-93227255D01*
X197937255Y-92252240D01*
X198703320Y-91105743D01*
X199230994Y-89831825D01*
X199500000Y-88479440D01*
X199500000Y-87100560D01*
X199230994Y-85748175D01*
X199024643Y-85250000D01*
X199106104Y-85053337D01*
X200045682Y-85442522D01*
X201340108Y-85700000D01*
X202659892Y-85700000D01*
X203954318Y-85442522D01*
X205173640Y-84937463D01*
X206271001Y-84204229D01*
X207204229Y-83271001D01*
X207937463Y-82173640D01*
X208442522Y-80954318D01*
X208700000Y-79659892D01*
X208700000Y-78340108D01*
X220700000Y-78340108D01*
X220700000Y-79659892D01*
X220957478Y-80954318D01*
X221462537Y-82173640D01*
X222195771Y-83271001D01*
X223128999Y-84204229D01*
X224226360Y-84937463D01*
X225445682Y-85442522D01*
X226740108Y-85700000D01*
X228059892Y-85700000D01*
X229354318Y-85442522D01*
X230573640Y-84937463D01*
X231671001Y-84204229D01*
X232604229Y-83271001D01*
X233337463Y-82173640D01*
X233842522Y-80954318D01*
X234100000Y-79659892D01*
X234100000Y-78340108D01*
X233901088Y-77340108D01*
X236300000Y-77340108D01*
X236300000Y-78659892D01*
X236557478Y-79954318D01*
X237062537Y-81173640D01*
X237795771Y-82271001D01*
X238728999Y-83204229D01*
X239826360Y-83937463D01*
X241045682Y-84442522D01*
X242340108Y-84700000D01*
X243659892Y-84700000D01*
X244954318Y-84442522D01*
X246173640Y-83937463D01*
X247271001Y-83204229D01*
X248204229Y-82271001D01*
X248937463Y-81173640D01*
X249442522Y-79954318D01*
X249700000Y-78659892D01*
X249700000Y-77340108D01*
X249442522Y-76045682D01*
X248937463Y-74826360D01*
X248204229Y-73728999D01*
X247271001Y-72795771D01*
X246173640Y-72062537D01*
X244954318Y-71557478D01*
X243659892Y-71300000D01*
X242340108Y-71300000D01*
X241045682Y-71557478D01*
X239826360Y-72062537D01*
X238728999Y-72795771D01*
X237795771Y-73728999D01*
X237062537Y-74826360D01*
X236557478Y-76045682D01*
X236300000Y-77340108D01*
X233901088Y-77340108D01*
X233842522Y-77045682D01*
X233337463Y-75826360D01*
X232604229Y-74728999D01*
X231671001Y-73795771D01*
X230573640Y-73062537D01*
X229354318Y-72557478D01*
X228059892Y-72300000D01*
X226740108Y-72300000D01*
X225445682Y-72557478D01*
X224226360Y-73062537D01*
X223128999Y-73795771D01*
X222195771Y-74728999D01*
X221462537Y-75826360D01*
X220957478Y-77045682D01*
X220700000Y-78340108D01*
X208700000Y-78340108D01*
X208442522Y-77045682D01*
X207937463Y-75826360D01*
X207204229Y-74728999D01*
X206271001Y-73795771D01*
X205173640Y-73062537D01*
X203954318Y-72557478D01*
X202659892Y-72300000D01*
X201340108Y-72300000D01*
X200045682Y-72557478D01*
X198826360Y-73062537D01*
X197728999Y-73795771D01*
X196795771Y-74728999D01*
X196062537Y-75826360D01*
X195785866Y-76494304D01*
X194541825Y-75979006D01*
X193189440Y-75710000D01*
X191810560Y-75710000D01*
X190458175Y-75979006D01*
X189184257Y-76506680D01*
X188037760Y-77272745D01*
X187062745Y-78247760D01*
X186296680Y-79394257D01*
X185769006Y-80668175D01*
X185500000Y-82020560D01*
X179250000Y-82020560D01*
X178980994Y-80668175D01*
X178453320Y-79394257D01*
X177687255Y-78247760D01*
X176712240Y-77272745D01*
X175565743Y-76506680D01*
X174291825Y-75979006D01*
X172939440Y-75710000D01*
X171560560Y-75710000D01*
X170208175Y-75979006D01*
X168934257Y-76506680D01*
X168374252Y-76880863D01*
X167937463Y-75826360D01*
X167204229Y-74728999D01*
X166271001Y-73795771D01*
X165173640Y-73062537D01*
X163954318Y-72557478D01*
X162659892Y-72300000D01*
X161340108Y-72300000D01*
X160045682Y-72557478D01*
X158826360Y-73062537D01*
X157728999Y-73795771D01*
X156795771Y-74728999D01*
X156062537Y-75826360D01*
X155557478Y-77045682D01*
X155300000Y-78340108D01*
X143300000Y-78340108D01*
X143042522Y-77045682D01*
X142537463Y-75826360D01*
X141804229Y-74728999D01*
X140871001Y-73795771D01*
X139773640Y-73062537D01*
X138554318Y-72557478D01*
X137259892Y-72300000D01*
X135940108Y-72300000D01*
X134645682Y-72557478D01*
X133426360Y-73062537D01*
X132328999Y-73795771D01*
X131395771Y-74728999D01*
X130662537Y-75826360D01*
X130157478Y-77045682D01*
X129900000Y-78340108D01*
X121815338Y-78340108D01*
X121271001Y-77795771D01*
X120173640Y-77062537D01*
X118954318Y-76557478D01*
X117659892Y-76300000D01*
X116340108Y-76300000D01*
X115045682Y-76557478D01*
X113826360Y-77062537D01*
X112728999Y-77795771D01*
X111795771Y-78728999D01*
X111062537Y-79826360D01*
X110557478Y-81045682D01*
X110300000Y-82340108D01*
X105525000Y-82340108D01*
X105525000Y-46525000D01*
X254475000Y-46525000D01*
X254475001Y-194475000D01*
G37*
%TD.AperFunction*%
%TD*%
D20*
%TO.N,GND*%
X106123000Y-41372022D02*
X106123000Y-199748000D01*
X100252000Y-199748000D01*
X100252000Y-41252000D01*
X103122450Y-41252000D01*
X106123000Y-41372022D01*
%TA.AperFunction,Conductor*%
D19*
G36*
X106123000Y-41372022D02*
G01*
X106123000Y-199748000D01*
X100252000Y-199748000D01*
X100252000Y-41252000D01*
X103122450Y-41252000D01*
X106123000Y-41372022D01*
G37*
%TD.AperFunction*%
%TD*%
D20*
%TO.N,GND*%
X259748001Y-195873000D02*
X253877000Y-195873000D01*
X253877000Y-41252000D01*
X259748000Y-41252000D01*
X259748001Y-195873000D01*
%TA.AperFunction,Conductor*%
D19*
G36*
X259748001Y-195873000D02*
G01*
X253877000Y-195873000D01*
X253877000Y-41252000D01*
X259748000Y-41252000D01*
X259748001Y-195873000D01*
G37*
%TD.AperFunction*%
%TD*%
D20*
%TO.N,GND*%
X209562319Y-185970649D02*
X209685513Y-194501834D01*
X209688311Y-194526572D01*
X209695881Y-194550290D01*
X209707933Y-194572075D01*
X209724003Y-194591090D01*
X209743475Y-194606604D01*
X209765598Y-194618022D01*
X209789525Y-194624904D01*
X209813133Y-194626998D01*
X259348001Y-194380249D01*
X259348001Y-199348000D01*
X100652000Y-199348000D01*
X100652000Y-194628148D01*
X170999776Y-194752000D01*
X171024557Y-194749603D01*
X171048394Y-194742418D01*
X171070371Y-194730721D01*
X171089644Y-194714961D01*
X171105472Y-194695743D01*
X171117247Y-194673807D01*
X171124516Y-194649996D01*
X171126987Y-194623199D01*
X171108608Y-193327443D01*
X177248000Y-193327443D01*
X177248000Y-193672557D01*
X177315329Y-194011039D01*
X177447398Y-194329883D01*
X177639133Y-194616835D01*
X177883165Y-194860867D01*
X178170117Y-195052602D01*
X178488961Y-195184671D01*
X178827443Y-195252000D01*
X179172557Y-195252000D01*
X179511039Y-195184671D01*
X179829883Y-195052602D01*
X180116835Y-194860867D01*
X180360867Y-194616835D01*
X180552602Y-194329883D01*
X180684671Y-194011039D01*
X180752000Y-193672557D01*
X180752000Y-193577443D01*
X201248000Y-193577443D01*
X201248000Y-193922557D01*
X201315329Y-194261039D01*
X201447398Y-194579883D01*
X201639133Y-194866835D01*
X201883165Y-195110867D01*
X202170117Y-195302602D01*
X202488961Y-195434671D01*
X202827443Y-195502000D01*
X203172557Y-195502000D01*
X203511039Y-195434671D01*
X203829883Y-195302602D01*
X204116835Y-195110867D01*
X204360867Y-194866835D01*
X204552602Y-194579883D01*
X204684671Y-194261039D01*
X204752000Y-193922557D01*
X204752000Y-193577443D01*
X204684671Y-193238961D01*
X204552602Y-192920117D01*
X204360867Y-192633165D01*
X204116835Y-192389133D01*
X203829883Y-192197398D01*
X203511039Y-192065329D01*
X203172557Y-191998000D01*
X202827443Y-191998000D01*
X202488961Y-192065329D01*
X202170117Y-192197398D01*
X201883165Y-192389133D01*
X201639133Y-192633165D01*
X201447398Y-192920117D01*
X201315329Y-193238961D01*
X201248000Y-193577443D01*
X180752000Y-193577443D01*
X180752000Y-193327443D01*
X180684671Y-192988961D01*
X180552602Y-192670117D01*
X180360867Y-192383165D01*
X180116835Y-192139133D01*
X179829883Y-191947398D01*
X179511039Y-191815329D01*
X179172557Y-191748000D01*
X178827443Y-191748000D01*
X178488961Y-191815329D01*
X178170117Y-191947398D01*
X177883165Y-192139133D01*
X177639133Y-192383165D01*
X177447398Y-192670117D01*
X177315329Y-192988961D01*
X177248000Y-193327443D01*
X171108608Y-193327443D01*
X171003815Y-185939604D01*
X209562319Y-185970649D01*
%TA.AperFunction,Conductor*%
D19*
G36*
X209562319Y-185970649D02*
G01*
X209685513Y-194501834D01*
X209688311Y-194526572D01*
X209695881Y-194550290D01*
X209707933Y-194572075D01*
X209724003Y-194591090D01*
X209743475Y-194606604D01*
X209765598Y-194618022D01*
X209789525Y-194624904D01*
X209813133Y-194626998D01*
X259348001Y-194380249D01*
X259348001Y-199348000D01*
X100652000Y-199348000D01*
X100652000Y-194628148D01*
X170999776Y-194752000D01*
X171024557Y-194749603D01*
X171048394Y-194742418D01*
X171070371Y-194730721D01*
X171089644Y-194714961D01*
X171105472Y-194695743D01*
X171117247Y-194673807D01*
X171124516Y-194649996D01*
X171126987Y-194623199D01*
X171108608Y-193327443D01*
X177248000Y-193327443D01*
X177248000Y-193672557D01*
X177315329Y-194011039D01*
X177447398Y-194329883D01*
X177639133Y-194616835D01*
X177883165Y-194860867D01*
X178170117Y-195052602D01*
X178488961Y-195184671D01*
X178827443Y-195252000D01*
X179172557Y-195252000D01*
X179511039Y-195184671D01*
X179829883Y-195052602D01*
X180116835Y-194860867D01*
X180360867Y-194616835D01*
X180552602Y-194329883D01*
X180684671Y-194011039D01*
X180752000Y-193672557D01*
X180752000Y-193577443D01*
X201248000Y-193577443D01*
X201248000Y-193922557D01*
X201315329Y-194261039D01*
X201447398Y-194579883D01*
X201639133Y-194866835D01*
X201883165Y-195110867D01*
X202170117Y-195302602D01*
X202488961Y-195434671D01*
X202827443Y-195502000D01*
X203172557Y-195502000D01*
X203511039Y-195434671D01*
X203829883Y-195302602D01*
X204116835Y-195110867D01*
X204360867Y-194866835D01*
X204552602Y-194579883D01*
X204684671Y-194261039D01*
X204752000Y-193922557D01*
X204752000Y-193577443D01*
X204684671Y-193238961D01*
X204552602Y-192920117D01*
X204360867Y-192633165D01*
X204116835Y-192389133D01*
X203829883Y-192197398D01*
X203511039Y-192065329D01*
X203172557Y-191998000D01*
X202827443Y-191998000D01*
X202488961Y-192065329D01*
X202170117Y-192197398D01*
X201883165Y-192389133D01*
X201639133Y-192633165D01*
X201447398Y-192920117D01*
X201315329Y-193238961D01*
X201248000Y-193577443D01*
X180752000Y-193577443D01*
X180752000Y-193327443D01*
X180684671Y-192988961D01*
X180552602Y-192670117D01*
X180360867Y-192383165D01*
X180116835Y-192139133D01*
X179829883Y-191947398D01*
X179511039Y-191815329D01*
X179172557Y-191748000D01*
X178827443Y-191748000D01*
X178488961Y-191815329D01*
X178170117Y-191947398D01*
X177883165Y-192139133D01*
X177639133Y-192383165D01*
X177447398Y-192670117D01*
X177315329Y-192988961D01*
X177248000Y-193327443D01*
X171108608Y-193327443D01*
X171003815Y-185939604D01*
X209562319Y-185970649D01*
G37*
%TD.AperFunction*%
%TD*%
D18*
%TO.N,GND*%
X209000000Y-174750000D02*
X168039682Y-174750000D01*
X164160551Y-167984073D01*
X170550000Y-167984073D01*
X170550000Y-168515927D01*
X170653760Y-169037561D01*
X170857291Y-169528930D01*
X171152773Y-169971150D01*
X171528850Y-170347227D01*
X171971070Y-170642709D01*
X172462439Y-170846240D01*
X172984073Y-170950000D01*
X173515927Y-170950000D01*
X174037561Y-170846240D01*
X174528930Y-170642709D01*
X174971150Y-170347227D01*
X175347227Y-169971150D01*
X175642709Y-169528930D01*
X175846240Y-169037561D01*
X175950000Y-168515927D01*
X175950000Y-167984073D01*
X199300000Y-167984073D01*
X199300000Y-168515927D01*
X199403760Y-169037561D01*
X199607291Y-169528930D01*
X199902773Y-169971150D01*
X200278850Y-170347227D01*
X200721070Y-170642709D01*
X201212439Y-170846240D01*
X201734073Y-170950000D01*
X202265927Y-170950000D01*
X202787561Y-170846240D01*
X203278930Y-170642709D01*
X203721150Y-170347227D01*
X204097227Y-169971150D01*
X204392709Y-169528930D01*
X204596240Y-169037561D01*
X204700000Y-168515927D01*
X204700000Y-167984073D01*
X204596240Y-167462439D01*
X204392709Y-166971070D01*
X204097227Y-166528850D01*
X203721150Y-166152773D01*
X203278930Y-165857291D01*
X202787561Y-165653760D01*
X202265927Y-165550000D01*
X201734073Y-165550000D01*
X201212439Y-165653760D01*
X200721070Y-165857291D01*
X200278850Y-166152773D01*
X199902773Y-166528850D01*
X199607291Y-166971070D01*
X199403760Y-167462439D01*
X199300000Y-167984073D01*
X175950000Y-167984073D01*
X175846240Y-167462439D01*
X175642709Y-166971070D01*
X175347227Y-166528850D01*
X174971150Y-166152773D01*
X174528930Y-165857291D01*
X174037561Y-165653760D01*
X173515927Y-165550000D01*
X172984073Y-165550000D01*
X172462439Y-165653760D01*
X171971070Y-165857291D01*
X171528850Y-166152773D01*
X171152773Y-166528850D01*
X170857291Y-166971070D01*
X170653760Y-167462439D01*
X170550000Y-167984073D01*
X164160551Y-167984073D01*
X157500000Y-156366834D01*
X157500000Y-154753772D01*
X162000000Y-154753772D01*
X162000000Y-155246228D01*
X162096074Y-155729223D01*
X162284529Y-156184194D01*
X162558124Y-156593657D01*
X162906343Y-156941876D01*
X163315806Y-157215471D01*
X163770777Y-157403926D01*
X164253772Y-157500000D01*
X164746228Y-157500000D01*
X165229223Y-157403926D01*
X165684194Y-157215471D01*
X166093657Y-156941876D01*
X166441876Y-156593657D01*
X166715471Y-156184194D01*
X166903926Y-155729223D01*
X167000000Y-155246228D01*
X167000000Y-154753772D01*
X193000000Y-154753772D01*
X193000000Y-155246228D01*
X193096074Y-155729223D01*
X193284529Y-156184194D01*
X193558124Y-156593657D01*
X193906343Y-156941876D01*
X194315806Y-157215471D01*
X194770777Y-157403926D01*
X195253772Y-157500000D01*
X195746228Y-157500000D01*
X196229223Y-157403926D01*
X196684194Y-157215471D01*
X197093657Y-156941876D01*
X197441876Y-156593657D01*
X197715471Y-156184194D01*
X197903926Y-155729223D01*
X198000000Y-155246228D01*
X198000000Y-154753772D01*
X197903926Y-154270777D01*
X197715471Y-153815806D01*
X197441876Y-153406343D01*
X197093657Y-153058124D01*
X196684194Y-152784529D01*
X196229223Y-152596074D01*
X195746228Y-152500000D01*
X195253772Y-152500000D01*
X194770777Y-152596074D01*
X194315806Y-152784529D01*
X193906343Y-153058124D01*
X193558124Y-153406343D01*
X193284529Y-153815806D01*
X193096074Y-154270777D01*
X193000000Y-154753772D01*
X167000000Y-154753772D01*
X166903926Y-154270777D01*
X166715471Y-153815806D01*
X166441876Y-153406343D01*
X166093657Y-153058124D01*
X165684194Y-152784529D01*
X165229223Y-152596074D01*
X164746228Y-152500000D01*
X164253772Y-152500000D01*
X163770777Y-152596074D01*
X163315806Y-152784529D01*
X162906343Y-153058124D01*
X162558124Y-153406343D01*
X162284529Y-153815806D01*
X162096074Y-154270777D01*
X162000000Y-154753772D01*
X157500000Y-154753772D01*
X157500000Y-145000000D01*
X209000000Y-145000000D01*
X209000000Y-174750000D01*
%TA.AperFunction,Conductor*%
D19*
G36*
X209000000Y-174750000D02*
G01*
X168039682Y-174750000D01*
X164160551Y-167984073D01*
X170550000Y-167984073D01*
X170550000Y-168515927D01*
X170653760Y-169037561D01*
X170857291Y-169528930D01*
X171152773Y-169971150D01*
X171528850Y-170347227D01*
X171971070Y-170642709D01*
X172462439Y-170846240D01*
X172984073Y-170950000D01*
X173515927Y-170950000D01*
X174037561Y-170846240D01*
X174528930Y-170642709D01*
X174971150Y-170347227D01*
X175347227Y-169971150D01*
X175642709Y-169528930D01*
X175846240Y-169037561D01*
X175950000Y-168515927D01*
X175950000Y-167984073D01*
X199300000Y-167984073D01*
X199300000Y-168515927D01*
X199403760Y-169037561D01*
X199607291Y-169528930D01*
X199902773Y-169971150D01*
X200278850Y-170347227D01*
X200721070Y-170642709D01*
X201212439Y-170846240D01*
X201734073Y-170950000D01*
X202265927Y-170950000D01*
X202787561Y-170846240D01*
X203278930Y-170642709D01*
X203721150Y-170347227D01*
X204097227Y-169971150D01*
X204392709Y-169528930D01*
X204596240Y-169037561D01*
X204700000Y-168515927D01*
X204700000Y-167984073D01*
X204596240Y-167462439D01*
X204392709Y-166971070D01*
X204097227Y-166528850D01*
X203721150Y-166152773D01*
X203278930Y-165857291D01*
X202787561Y-165653760D01*
X202265927Y-165550000D01*
X201734073Y-165550000D01*
X201212439Y-165653760D01*
X200721070Y-165857291D01*
X200278850Y-166152773D01*
X199902773Y-166528850D01*
X199607291Y-166971070D01*
X199403760Y-167462439D01*
X199300000Y-167984073D01*
X175950000Y-167984073D01*
X175846240Y-167462439D01*
X175642709Y-166971070D01*
X175347227Y-166528850D01*
X174971150Y-166152773D01*
X174528930Y-165857291D01*
X174037561Y-165653760D01*
X173515927Y-165550000D01*
X172984073Y-165550000D01*
X172462439Y-165653760D01*
X171971070Y-165857291D01*
X171528850Y-166152773D01*
X171152773Y-166528850D01*
X170857291Y-166971070D01*
X170653760Y-167462439D01*
X170550000Y-167984073D01*
X164160551Y-167984073D01*
X157500000Y-156366834D01*
X157500000Y-154753772D01*
X162000000Y-154753772D01*
X162000000Y-155246228D01*
X162096074Y-155729223D01*
X162284529Y-156184194D01*
X162558124Y-156593657D01*
X162906343Y-156941876D01*
X163315806Y-157215471D01*
X163770777Y-157403926D01*
X164253772Y-157500000D01*
X164746228Y-157500000D01*
X165229223Y-157403926D01*
X165684194Y-157215471D01*
X166093657Y-156941876D01*
X166441876Y-156593657D01*
X166715471Y-156184194D01*
X166903926Y-155729223D01*
X167000000Y-155246228D01*
X167000000Y-154753772D01*
X193000000Y-154753772D01*
X193000000Y-155246228D01*
X193096074Y-155729223D01*
X193284529Y-156184194D01*
X193558124Y-156593657D01*
X193906343Y-156941876D01*
X194315806Y-157215471D01*
X194770777Y-157403926D01*
X195253772Y-157500000D01*
X195746228Y-157500000D01*
X196229223Y-157403926D01*
X196684194Y-157215471D01*
X197093657Y-156941876D01*
X197441876Y-156593657D01*
X197715471Y-156184194D01*
X197903926Y-155729223D01*
X198000000Y-155246228D01*
X198000000Y-154753772D01*
X197903926Y-154270777D01*
X197715471Y-153815806D01*
X197441876Y-153406343D01*
X197093657Y-153058124D01*
X196684194Y-152784529D01*
X196229223Y-152596074D01*
X195746228Y-152500000D01*
X195253772Y-152500000D01*
X194770777Y-152596074D01*
X194315806Y-152784529D01*
X193906343Y-153058124D01*
X193558124Y-153406343D01*
X193284529Y-153815806D01*
X193096074Y-154270777D01*
X193000000Y-154753772D01*
X167000000Y-154753772D01*
X166903926Y-154270777D01*
X166715471Y-153815806D01*
X166441876Y-153406343D01*
X166093657Y-153058124D01*
X165684194Y-152784529D01*
X165229223Y-152596074D01*
X164746228Y-152500000D01*
X164253772Y-152500000D01*
X163770777Y-152596074D01*
X163315806Y-152784529D01*
X162906343Y-153058124D01*
X162558124Y-153406343D01*
X162284529Y-153815806D01*
X162096074Y-154270777D01*
X162000000Y-154753772D01*
X157500000Y-154753772D01*
X157500000Y-145000000D01*
X209000000Y-145000000D01*
X209000000Y-174750000D01*
G37*
%TD.AperFunction*%
%TD*%
M02*
