%TF.GenerationSoftware,KiCad,Pcbnew,5.1.10-88a1d61d58~90~ubuntu20.04.1*%
%TF.CreationDate,2021-08-16T21:09:42-07:00*%
%TF.ProjectId,lisn-pcb,6c69736e-2d70-4636-922e-6b696361645f,rev?*%
%TF.SameCoordinates,Original*%
%TF.FileFunction,Soldermask,Top*%
%TF.FilePolarity,Negative*%
%FSLAX46Y46*%
G04 Gerber Fmt 4.6, Leading zero omitted, Abs format (unit mm)*
G04 Created by KiCad (PCBNEW 5.1.10-88a1d61d58~90~ubuntu20.04.1) date 2021-08-16 21:09:42*
%MOMM*%
%LPD*%
G01*
G04 APERTURE LIST*
%ADD10C,0.100000*%
%ADD11C,0.800000*%
%ADD12C,6.400000*%
%ADD13C,3.000000*%
%ADD14C,2.000000*%
%ADD15R,1.650000X2.540000*%
%ADD16O,2.400000X2.400000*%
%ADD17C,2.400000*%
%ADD18R,3.600000X2.300000*%
%ADD19R,1.650000X2.000000*%
%ADD20C,2.250000*%
%ADD21R,0.900000X0.800000*%
%ADD22R,0.600000X0.450000*%
G04 APERTURE END LIST*
D10*
G36*
X104500000Y-200000000D02*
G01*
X100000000Y-200000000D01*
X100000000Y-41000000D01*
X104500000Y-41000000D01*
X104500000Y-200000000D01*
G37*
X104500000Y-200000000D02*
X100000000Y-200000000D01*
X100000000Y-41000000D01*
X104500000Y-41000000D01*
X104500000Y-200000000D01*
G36*
X260000000Y-200000000D02*
G01*
X255500000Y-200000000D01*
X255500000Y-41000000D01*
X260000000Y-41000000D01*
X260000000Y-200000000D01*
G37*
X260000000Y-200000000D02*
X255500000Y-200000000D01*
X255500000Y-41000000D01*
X260000000Y-41000000D01*
X260000000Y-200000000D01*
D11*
%TO.C,H4*%
X257000000Y-47500000D03*
X253500000Y-44000000D03*
X253500000Y-47500000D03*
X255250000Y-48250000D03*
X252750000Y-45750000D03*
X255250000Y-43250000D03*
X257000000Y-44000000D03*
X257750000Y-45750000D03*
D12*
X255250000Y-45750000D03*
%TD*%
D11*
%TO.C,H3*%
X106500000Y-197000000D03*
X103000000Y-193500000D03*
X103000000Y-197000000D03*
X104750000Y-197750000D03*
X102250000Y-195250000D03*
X104750000Y-192750000D03*
X106500000Y-193500000D03*
X107250000Y-195250000D03*
D12*
X104750000Y-195250000D03*
%TD*%
D11*
%TO.C,H2*%
X106500000Y-47500000D03*
X103000000Y-44000000D03*
X103000000Y-47500000D03*
X104750000Y-48250000D03*
X102250000Y-45750000D03*
X104750000Y-43250000D03*
X106500000Y-44000000D03*
X107250000Y-45750000D03*
D12*
X104750000Y-45750000D03*
%TD*%
D11*
%TO.C,H1*%
X257000000Y-197000000D03*
X253500000Y-193500000D03*
X253500000Y-197000000D03*
X255250000Y-197750000D03*
X252750000Y-195250000D03*
X255250000Y-192750000D03*
X257000000Y-193500000D03*
X257750000Y-195250000D03*
D12*
X255250000Y-195250000D03*
%TD*%
D13*
%TO.C,J9*%
X216500000Y-182460000D03*
X216500000Y-187540000D03*
%TD*%
%TO.C,J8*%
X164500000Y-182460000D03*
X164500000Y-187540000D03*
%TD*%
%TO.C,J7*%
X226500000Y-182460000D03*
X226500000Y-187540000D03*
%TD*%
%TO.C,J6*%
X154500000Y-187540000D03*
X154500000Y-182460000D03*
%TD*%
%TO.C,J5*%
X182250000Y-82710000D03*
X182250000Y-87790000D03*
%TD*%
%TO.C,J4*%
X192500000Y-82710000D03*
X192500000Y-87790000D03*
%TD*%
%TO.C,J3*%
X172250000Y-82710000D03*
X172250000Y-87790000D03*
%TD*%
D14*
%TO.C,GD2*%
X205500000Y-155000000D03*
X195500000Y-155000000D03*
%TD*%
%TO.C,GD1*%
X154500000Y-155000000D03*
X164500000Y-155000000D03*
%TD*%
D15*
%TO.C,TR1*%
X185210000Y-168710000D03*
X187750000Y-168710000D03*
X190290000Y-168710000D03*
X190290000Y-173790000D03*
X187750000Y-173790000D03*
X185210000Y-173790000D03*
%TD*%
%TO.C,R42*%
G36*
G01*
X227625002Y-151100000D02*
X226374998Y-151100000D01*
G75*
G02*
X226125000Y-150850002I0J249998D01*
G01*
X226125000Y-150224998D01*
G75*
G02*
X226374998Y-149975000I249998J0D01*
G01*
X227625002Y-149975000D01*
G75*
G02*
X227875000Y-150224998I0J-249998D01*
G01*
X227875000Y-150850002D01*
G75*
G02*
X227625002Y-151100000I-249998J0D01*
G01*
G37*
G36*
G01*
X227625002Y-154025000D02*
X226374998Y-154025000D01*
G75*
G02*
X226125000Y-153775002I0J249998D01*
G01*
X226125000Y-153149998D01*
G75*
G02*
X226374998Y-152900000I249998J0D01*
G01*
X227625002Y-152900000D01*
G75*
G02*
X227875000Y-153149998I0J-249998D01*
G01*
X227875000Y-153775002D01*
G75*
G02*
X227625002Y-154025000I-249998J0D01*
G01*
G37*
%TD*%
%TO.C,R41*%
G36*
G01*
X227625002Y-137100000D02*
X226374998Y-137100000D01*
G75*
G02*
X226125000Y-136850002I0J249998D01*
G01*
X226125000Y-136224998D01*
G75*
G02*
X226374998Y-135975000I249998J0D01*
G01*
X227625002Y-135975000D01*
G75*
G02*
X227875000Y-136224998I0J-249998D01*
G01*
X227875000Y-136850002D01*
G75*
G02*
X227625002Y-137100000I-249998J0D01*
G01*
G37*
G36*
G01*
X227625002Y-140025000D02*
X226374998Y-140025000D01*
G75*
G02*
X226125000Y-139775002I0J249998D01*
G01*
X226125000Y-139149998D01*
G75*
G02*
X226374998Y-138900000I249998J0D01*
G01*
X227625002Y-138900000D01*
G75*
G02*
X227875000Y-139149998I0J-249998D01*
G01*
X227875000Y-139775002D01*
G75*
G02*
X227625002Y-140025000I-249998J0D01*
G01*
G37*
%TD*%
%TO.C,R40*%
G36*
G01*
X227625002Y-123100000D02*
X226374998Y-123100000D01*
G75*
G02*
X226125000Y-122850002I0J249998D01*
G01*
X226125000Y-122224998D01*
G75*
G02*
X226374998Y-121975000I249998J0D01*
G01*
X227625002Y-121975000D01*
G75*
G02*
X227875000Y-122224998I0J-249998D01*
G01*
X227875000Y-122850002D01*
G75*
G02*
X227625002Y-123100000I-249998J0D01*
G01*
G37*
G36*
G01*
X227625002Y-126025000D02*
X226374998Y-126025000D01*
G75*
G02*
X226125000Y-125775002I0J249998D01*
G01*
X226125000Y-125149998D01*
G75*
G02*
X226374998Y-124900000I249998J0D01*
G01*
X227625002Y-124900000D01*
G75*
G02*
X227875000Y-125149998I0J-249998D01*
G01*
X227875000Y-125775002D01*
G75*
G02*
X227625002Y-126025000I-249998J0D01*
G01*
G37*
%TD*%
%TO.C,R39*%
G36*
G01*
X227625002Y-109100000D02*
X226374998Y-109100000D01*
G75*
G02*
X226125000Y-108850002I0J249998D01*
G01*
X226125000Y-108224998D01*
G75*
G02*
X226374998Y-107975000I249998J0D01*
G01*
X227625002Y-107975000D01*
G75*
G02*
X227875000Y-108224998I0J-249998D01*
G01*
X227875000Y-108850002D01*
G75*
G02*
X227625002Y-109100000I-249998J0D01*
G01*
G37*
G36*
G01*
X227625002Y-112025000D02*
X226374998Y-112025000D01*
G75*
G02*
X226125000Y-111775002I0J249998D01*
G01*
X226125000Y-111149998D01*
G75*
G02*
X226374998Y-110900000I249998J0D01*
G01*
X227625002Y-110900000D01*
G75*
G02*
X227875000Y-111149998I0J-249998D01*
G01*
X227875000Y-111775002D01*
G75*
G02*
X227625002Y-112025000I-249998J0D01*
G01*
G37*
%TD*%
%TO.C,R38*%
G36*
G01*
X227625002Y-95100000D02*
X226374998Y-95100000D01*
G75*
G02*
X226125000Y-94850002I0J249998D01*
G01*
X226125000Y-94224998D01*
G75*
G02*
X226374998Y-93975000I249998J0D01*
G01*
X227625002Y-93975000D01*
G75*
G02*
X227875000Y-94224998I0J-249998D01*
G01*
X227875000Y-94850002D01*
G75*
G02*
X227625002Y-95100000I-249998J0D01*
G01*
G37*
G36*
G01*
X227625002Y-98025000D02*
X226374998Y-98025000D01*
G75*
G02*
X226125000Y-97775002I0J249998D01*
G01*
X226125000Y-97149998D01*
G75*
G02*
X226374998Y-96900000I249998J0D01*
G01*
X227625002Y-96900000D01*
G75*
G02*
X227875000Y-97149998I0J-249998D01*
G01*
X227875000Y-97775002D01*
G75*
G02*
X227625002Y-98025000I-249998J0D01*
G01*
G37*
%TD*%
%TO.C,R37*%
G36*
G01*
X193100000Y-106299998D02*
X193100000Y-107200002D01*
G75*
G02*
X192850002Y-107450000I-249998J0D01*
G01*
X192324998Y-107450000D01*
G75*
G02*
X192075000Y-107200002I0J249998D01*
G01*
X192075000Y-106299998D01*
G75*
G02*
X192324998Y-106050000I249998J0D01*
G01*
X192850002Y-106050000D01*
G75*
G02*
X193100000Y-106299998I0J-249998D01*
G01*
G37*
G36*
G01*
X194925000Y-106299998D02*
X194925000Y-107200002D01*
G75*
G02*
X194675002Y-107450000I-249998J0D01*
G01*
X194149998Y-107450000D01*
G75*
G02*
X193900000Y-107200002I0J249998D01*
G01*
X193900000Y-106299998D01*
G75*
G02*
X194149998Y-106050000I249998J0D01*
G01*
X194675002Y-106050000D01*
G75*
G02*
X194925000Y-106299998I0J-249998D01*
G01*
G37*
%TD*%
%TO.C,R36*%
G36*
G01*
X195049998Y-110650000D02*
X195950002Y-110650000D01*
G75*
G02*
X196200000Y-110899998I0J-249998D01*
G01*
X196200000Y-111425002D01*
G75*
G02*
X195950002Y-111675000I-249998J0D01*
G01*
X195049998Y-111675000D01*
G75*
G02*
X194800000Y-111425002I0J249998D01*
G01*
X194800000Y-110899998D01*
G75*
G02*
X195049998Y-110650000I249998J0D01*
G01*
G37*
G36*
G01*
X195049998Y-108825000D02*
X195950002Y-108825000D01*
G75*
G02*
X196200000Y-109074998I0J-249998D01*
G01*
X196200000Y-109600002D01*
G75*
G02*
X195950002Y-109850000I-249998J0D01*
G01*
X195049998Y-109850000D01*
G75*
G02*
X194800000Y-109600002I0J249998D01*
G01*
X194800000Y-109074998D01*
G75*
G02*
X195049998Y-108825000I249998J0D01*
G01*
G37*
%TD*%
%TO.C,R35*%
G36*
G01*
X197900000Y-113700002D02*
X197900000Y-112799998D01*
G75*
G02*
X198149998Y-112550000I249998J0D01*
G01*
X198675002Y-112550000D01*
G75*
G02*
X198925000Y-112799998I0J-249998D01*
G01*
X198925000Y-113700002D01*
G75*
G02*
X198675002Y-113950000I-249998J0D01*
G01*
X198149998Y-113950000D01*
G75*
G02*
X197900000Y-113700002I0J249998D01*
G01*
G37*
G36*
G01*
X196075000Y-113700002D02*
X196075000Y-112799998D01*
G75*
G02*
X196324998Y-112550000I249998J0D01*
G01*
X196850002Y-112550000D01*
G75*
G02*
X197100000Y-112799998I0J-249998D01*
G01*
X197100000Y-113700002D01*
G75*
G02*
X196850002Y-113950000I-249998J0D01*
G01*
X196324998Y-113950000D01*
G75*
G02*
X196075000Y-113700002I0J249998D01*
G01*
G37*
%TD*%
%TO.C,R34*%
G36*
G01*
X195950002Y-115850000D02*
X195049998Y-115850000D01*
G75*
G02*
X194800000Y-115600002I0J249998D01*
G01*
X194800000Y-115074998D01*
G75*
G02*
X195049998Y-114825000I249998J0D01*
G01*
X195950002Y-114825000D01*
G75*
G02*
X196200000Y-115074998I0J-249998D01*
G01*
X196200000Y-115600002D01*
G75*
G02*
X195950002Y-115850000I-249998J0D01*
G01*
G37*
G36*
G01*
X195950002Y-117675000D02*
X195049998Y-117675000D01*
G75*
G02*
X194800000Y-117425002I0J249998D01*
G01*
X194800000Y-116899998D01*
G75*
G02*
X195049998Y-116650000I249998J0D01*
G01*
X195950002Y-116650000D01*
G75*
G02*
X196200000Y-116899998I0J-249998D01*
G01*
X196200000Y-117425002D01*
G75*
G02*
X195950002Y-117675000I-249998J0D01*
G01*
G37*
%TD*%
%TO.C,R33*%
G36*
G01*
X195950002Y-119600000D02*
X195049998Y-119600000D01*
G75*
G02*
X194800000Y-119350002I0J249998D01*
G01*
X194800000Y-118824998D01*
G75*
G02*
X195049998Y-118575000I249998J0D01*
G01*
X195950002Y-118575000D01*
G75*
G02*
X196200000Y-118824998I0J-249998D01*
G01*
X196200000Y-119350002D01*
G75*
G02*
X195950002Y-119600000I-249998J0D01*
G01*
G37*
G36*
G01*
X195950002Y-121425000D02*
X195049998Y-121425000D01*
G75*
G02*
X194800000Y-121175002I0J249998D01*
G01*
X194800000Y-120649998D01*
G75*
G02*
X195049998Y-120400000I249998J0D01*
G01*
X195950002Y-120400000D01*
G75*
G02*
X196200000Y-120649998I0J-249998D01*
G01*
X196200000Y-121175002D01*
G75*
G02*
X195950002Y-121425000I-249998J0D01*
G01*
G37*
%TD*%
%TO.C,R32*%
G36*
G01*
X197650000Y-123450002D02*
X197650000Y-122549998D01*
G75*
G02*
X197899998Y-122300000I249998J0D01*
G01*
X198425002Y-122300000D01*
G75*
G02*
X198675000Y-122549998I0J-249998D01*
G01*
X198675000Y-123450002D01*
G75*
G02*
X198425002Y-123700000I-249998J0D01*
G01*
X197899998Y-123700000D01*
G75*
G02*
X197650000Y-123450002I0J249998D01*
G01*
G37*
G36*
G01*
X195825000Y-123450002D02*
X195825000Y-122549998D01*
G75*
G02*
X196074998Y-122300000I249998J0D01*
G01*
X196600002Y-122300000D01*
G75*
G02*
X196850000Y-122549998I0J-249998D01*
G01*
X196850000Y-123450002D01*
G75*
G02*
X196600002Y-123700000I-249998J0D01*
G01*
X196074998Y-123700000D01*
G75*
G02*
X195825000Y-123450002I0J249998D01*
G01*
G37*
%TD*%
%TO.C,R31*%
G36*
G01*
X197650000Y-137450002D02*
X197650000Y-136549998D01*
G75*
G02*
X197899998Y-136300000I249998J0D01*
G01*
X198425002Y-136300000D01*
G75*
G02*
X198675000Y-136549998I0J-249998D01*
G01*
X198675000Y-137450002D01*
G75*
G02*
X198425002Y-137700000I-249998J0D01*
G01*
X197899998Y-137700000D01*
G75*
G02*
X197650000Y-137450002I0J249998D01*
G01*
G37*
G36*
G01*
X195825000Y-137450002D02*
X195825000Y-136549998D01*
G75*
G02*
X196074998Y-136300000I249998J0D01*
G01*
X196600002Y-136300000D01*
G75*
G02*
X196850000Y-136549998I0J-249998D01*
G01*
X196850000Y-137450002D01*
G75*
G02*
X196600002Y-137700000I-249998J0D01*
G01*
X196074998Y-137700000D01*
G75*
G02*
X195825000Y-137450002I0J249998D01*
G01*
G37*
%TD*%
%TO.C,R30*%
G36*
G01*
X193350000Y-136549998D02*
X193350000Y-137450002D01*
G75*
G02*
X193100002Y-137700000I-249998J0D01*
G01*
X192574998Y-137700000D01*
G75*
G02*
X192325000Y-137450002I0J249998D01*
G01*
X192325000Y-136549998D01*
G75*
G02*
X192574998Y-136300000I249998J0D01*
G01*
X193100002Y-136300000D01*
G75*
G02*
X193350000Y-136549998I0J-249998D01*
G01*
G37*
G36*
G01*
X195175000Y-136549998D02*
X195175000Y-137450002D01*
G75*
G02*
X194925002Y-137700000I-249998J0D01*
G01*
X194399998Y-137700000D01*
G75*
G02*
X194150000Y-137450002I0J249998D01*
G01*
X194150000Y-136549998D01*
G75*
G02*
X194399998Y-136300000I249998J0D01*
G01*
X194925002Y-136300000D01*
G75*
G02*
X195175000Y-136549998I0J-249998D01*
G01*
G37*
%TD*%
%TO.C,R29*%
G36*
G01*
X195049998Y-140400000D02*
X195950002Y-140400000D01*
G75*
G02*
X196200000Y-140649998I0J-249998D01*
G01*
X196200000Y-141175002D01*
G75*
G02*
X195950002Y-141425000I-249998J0D01*
G01*
X195049998Y-141425000D01*
G75*
G02*
X194800000Y-141175002I0J249998D01*
G01*
X194800000Y-140649998D01*
G75*
G02*
X195049998Y-140400000I249998J0D01*
G01*
G37*
G36*
G01*
X195049998Y-138575000D02*
X195950002Y-138575000D01*
G75*
G02*
X196200000Y-138824998I0J-249998D01*
G01*
X196200000Y-139350002D01*
G75*
G02*
X195950002Y-139600000I-249998J0D01*
G01*
X195049998Y-139600000D01*
G75*
G02*
X194800000Y-139350002I0J249998D01*
G01*
X194800000Y-138824998D01*
G75*
G02*
X195049998Y-138575000I249998J0D01*
G01*
G37*
%TD*%
%TO.C,R28*%
G36*
G01*
X195049998Y-144150000D02*
X195950002Y-144150000D01*
G75*
G02*
X196200000Y-144399998I0J-249998D01*
G01*
X196200000Y-144925002D01*
G75*
G02*
X195950002Y-145175000I-249998J0D01*
G01*
X195049998Y-145175000D01*
G75*
G02*
X194800000Y-144925002I0J249998D01*
G01*
X194800000Y-144399998D01*
G75*
G02*
X195049998Y-144150000I249998J0D01*
G01*
G37*
G36*
G01*
X195049998Y-142325000D02*
X195950002Y-142325000D01*
G75*
G02*
X196200000Y-142574998I0J-249998D01*
G01*
X196200000Y-143100002D01*
G75*
G02*
X195950002Y-143350000I-249998J0D01*
G01*
X195049998Y-143350000D01*
G75*
G02*
X194800000Y-143100002I0J249998D01*
G01*
X194800000Y-142574998D01*
G75*
G02*
X195049998Y-142325000I249998J0D01*
G01*
G37*
%TD*%
%TO.C,R27*%
G36*
G01*
X197900000Y-147200002D02*
X197900000Y-146299998D01*
G75*
G02*
X198149998Y-146050000I249998J0D01*
G01*
X198675002Y-146050000D01*
G75*
G02*
X198925000Y-146299998I0J-249998D01*
G01*
X198925000Y-147200002D01*
G75*
G02*
X198675002Y-147450000I-249998J0D01*
G01*
X198149998Y-147450000D01*
G75*
G02*
X197900000Y-147200002I0J249998D01*
G01*
G37*
G36*
G01*
X196075000Y-147200002D02*
X196075000Y-146299998D01*
G75*
G02*
X196324998Y-146050000I249998J0D01*
G01*
X196850002Y-146050000D01*
G75*
G02*
X197100000Y-146299998I0J-249998D01*
G01*
X197100000Y-147200002D01*
G75*
G02*
X196850002Y-147450000I-249998J0D01*
G01*
X196324998Y-147450000D01*
G75*
G02*
X196075000Y-147200002I0J249998D01*
G01*
G37*
%TD*%
%TO.C,R26*%
G36*
G01*
X193100000Y-146299998D02*
X193100000Y-147200002D01*
G75*
G02*
X192850002Y-147450000I-249998J0D01*
G01*
X192324998Y-147450000D01*
G75*
G02*
X192075000Y-147200002I0J249998D01*
G01*
X192075000Y-146299998D01*
G75*
G02*
X192324998Y-146050000I249998J0D01*
G01*
X192850002Y-146050000D01*
G75*
G02*
X193100000Y-146299998I0J-249998D01*
G01*
G37*
G36*
G01*
X194925000Y-146299998D02*
X194925000Y-147200002D01*
G75*
G02*
X194675002Y-147450000I-249998J0D01*
G01*
X194149998Y-147450000D01*
G75*
G02*
X193900000Y-147200002I0J249998D01*
G01*
X193900000Y-146299998D01*
G75*
G02*
X194149998Y-146050000I249998J0D01*
G01*
X194675002Y-146050000D01*
G75*
G02*
X194925000Y-146299998I0J-249998D01*
G01*
G37*
%TD*%
%TO.C,R25*%
G36*
G01*
X133625002Y-150100000D02*
X132374998Y-150100000D01*
G75*
G02*
X132125000Y-149850002I0J249998D01*
G01*
X132125000Y-149224998D01*
G75*
G02*
X132374998Y-148975000I249998J0D01*
G01*
X133625002Y-148975000D01*
G75*
G02*
X133875000Y-149224998I0J-249998D01*
G01*
X133875000Y-149850002D01*
G75*
G02*
X133625002Y-150100000I-249998J0D01*
G01*
G37*
G36*
G01*
X133625002Y-153025000D02*
X132374998Y-153025000D01*
G75*
G02*
X132125000Y-152775002I0J249998D01*
G01*
X132125000Y-152149998D01*
G75*
G02*
X132374998Y-151900000I249998J0D01*
G01*
X133625002Y-151900000D01*
G75*
G02*
X133875000Y-152149998I0J-249998D01*
G01*
X133875000Y-152775002D01*
G75*
G02*
X133625002Y-153025000I-249998J0D01*
G01*
G37*
%TD*%
%TO.C,R24*%
G36*
G01*
X133625002Y-136100000D02*
X132374998Y-136100000D01*
G75*
G02*
X132125000Y-135850002I0J249998D01*
G01*
X132125000Y-135224998D01*
G75*
G02*
X132374998Y-134975000I249998J0D01*
G01*
X133625002Y-134975000D01*
G75*
G02*
X133875000Y-135224998I0J-249998D01*
G01*
X133875000Y-135850002D01*
G75*
G02*
X133625002Y-136100000I-249998J0D01*
G01*
G37*
G36*
G01*
X133625002Y-139025000D02*
X132374998Y-139025000D01*
G75*
G02*
X132125000Y-138775002I0J249998D01*
G01*
X132125000Y-138149998D01*
G75*
G02*
X132374998Y-137900000I249998J0D01*
G01*
X133625002Y-137900000D01*
G75*
G02*
X133875000Y-138149998I0J-249998D01*
G01*
X133875000Y-138775002D01*
G75*
G02*
X133625002Y-139025000I-249998J0D01*
G01*
G37*
%TD*%
%TO.C,R23*%
G36*
G01*
X133625002Y-122100000D02*
X132374998Y-122100000D01*
G75*
G02*
X132125000Y-121850002I0J249998D01*
G01*
X132125000Y-121224998D01*
G75*
G02*
X132374998Y-120975000I249998J0D01*
G01*
X133625002Y-120975000D01*
G75*
G02*
X133875000Y-121224998I0J-249998D01*
G01*
X133875000Y-121850002D01*
G75*
G02*
X133625002Y-122100000I-249998J0D01*
G01*
G37*
G36*
G01*
X133625002Y-125025000D02*
X132374998Y-125025000D01*
G75*
G02*
X132125000Y-124775002I0J249998D01*
G01*
X132125000Y-124149998D01*
G75*
G02*
X132374998Y-123900000I249998J0D01*
G01*
X133625002Y-123900000D01*
G75*
G02*
X133875000Y-124149998I0J-249998D01*
G01*
X133875000Y-124775002D01*
G75*
G02*
X133625002Y-125025000I-249998J0D01*
G01*
G37*
%TD*%
%TO.C,R22*%
G36*
G01*
X133625002Y-108100000D02*
X132374998Y-108100000D01*
G75*
G02*
X132125000Y-107850002I0J249998D01*
G01*
X132125000Y-107224998D01*
G75*
G02*
X132374998Y-106975000I249998J0D01*
G01*
X133625002Y-106975000D01*
G75*
G02*
X133875000Y-107224998I0J-249998D01*
G01*
X133875000Y-107850002D01*
G75*
G02*
X133625002Y-108100000I-249998J0D01*
G01*
G37*
G36*
G01*
X133625002Y-111025000D02*
X132374998Y-111025000D01*
G75*
G02*
X132125000Y-110775002I0J249998D01*
G01*
X132125000Y-110149998D01*
G75*
G02*
X132374998Y-109900000I249998J0D01*
G01*
X133625002Y-109900000D01*
G75*
G02*
X133875000Y-110149998I0J-249998D01*
G01*
X133875000Y-110775002D01*
G75*
G02*
X133625002Y-111025000I-249998J0D01*
G01*
G37*
%TD*%
%TO.C,R21*%
G36*
G01*
X133625002Y-94100000D02*
X132374998Y-94100000D01*
G75*
G02*
X132125000Y-93850002I0J249998D01*
G01*
X132125000Y-93224998D01*
G75*
G02*
X132374998Y-92975000I249998J0D01*
G01*
X133625002Y-92975000D01*
G75*
G02*
X133875000Y-93224998I0J-249998D01*
G01*
X133875000Y-93850002D01*
G75*
G02*
X133625002Y-94100000I-249998J0D01*
G01*
G37*
G36*
G01*
X133625002Y-97025000D02*
X132374998Y-97025000D01*
G75*
G02*
X132125000Y-96775002I0J249998D01*
G01*
X132125000Y-96149998D01*
G75*
G02*
X132374998Y-95900000I249998J0D01*
G01*
X133625002Y-95900000D01*
G75*
G02*
X133875000Y-96149998I0J-249998D01*
G01*
X133875000Y-96775002D01*
G75*
G02*
X133625002Y-97025000I-249998J0D01*
G01*
G37*
%TD*%
%TO.C,R20*%
G36*
G01*
X166900000Y-107200002D02*
X166900000Y-106299998D01*
G75*
G02*
X167149998Y-106050000I249998J0D01*
G01*
X167675002Y-106050000D01*
G75*
G02*
X167925000Y-106299998I0J-249998D01*
G01*
X167925000Y-107200002D01*
G75*
G02*
X167675002Y-107450000I-249998J0D01*
G01*
X167149998Y-107450000D01*
G75*
G02*
X166900000Y-107200002I0J249998D01*
G01*
G37*
G36*
G01*
X165075000Y-107200002D02*
X165075000Y-106299998D01*
G75*
G02*
X165324998Y-106050000I249998J0D01*
G01*
X165850002Y-106050000D01*
G75*
G02*
X166100000Y-106299998I0J-249998D01*
G01*
X166100000Y-107200002D01*
G75*
G02*
X165850002Y-107450000I-249998J0D01*
G01*
X165324998Y-107450000D01*
G75*
G02*
X165075000Y-107200002I0J249998D01*
G01*
G37*
%TD*%
%TO.C,R19*%
G36*
G01*
X164049998Y-110650000D02*
X164950002Y-110650000D01*
G75*
G02*
X165200000Y-110899998I0J-249998D01*
G01*
X165200000Y-111425002D01*
G75*
G02*
X164950002Y-111675000I-249998J0D01*
G01*
X164049998Y-111675000D01*
G75*
G02*
X163800000Y-111425002I0J249998D01*
G01*
X163800000Y-110899998D01*
G75*
G02*
X164049998Y-110650000I249998J0D01*
G01*
G37*
G36*
G01*
X164049998Y-108825000D02*
X164950002Y-108825000D01*
G75*
G02*
X165200000Y-109074998I0J-249998D01*
G01*
X165200000Y-109600002D01*
G75*
G02*
X164950002Y-109850000I-249998J0D01*
G01*
X164049998Y-109850000D01*
G75*
G02*
X163800000Y-109600002I0J249998D01*
G01*
X163800000Y-109074998D01*
G75*
G02*
X164049998Y-108825000I249998J0D01*
G01*
G37*
%TD*%
%TO.C,R18*%
G36*
G01*
X162100000Y-112799998D02*
X162100000Y-113700002D01*
G75*
G02*
X161850002Y-113950000I-249998J0D01*
G01*
X161324998Y-113950000D01*
G75*
G02*
X161075000Y-113700002I0J249998D01*
G01*
X161075000Y-112799998D01*
G75*
G02*
X161324998Y-112550000I249998J0D01*
G01*
X161850002Y-112550000D01*
G75*
G02*
X162100000Y-112799998I0J-249998D01*
G01*
G37*
G36*
G01*
X163925000Y-112799998D02*
X163925000Y-113700002D01*
G75*
G02*
X163675002Y-113950000I-249998J0D01*
G01*
X163149998Y-113950000D01*
G75*
G02*
X162900000Y-113700002I0J249998D01*
G01*
X162900000Y-112799998D01*
G75*
G02*
X163149998Y-112550000I249998J0D01*
G01*
X163675002Y-112550000D01*
G75*
G02*
X163925000Y-112799998I0J-249998D01*
G01*
G37*
%TD*%
%TO.C,R17*%
G36*
G01*
X164950002Y-115850000D02*
X164049998Y-115850000D01*
G75*
G02*
X163800000Y-115600002I0J249998D01*
G01*
X163800000Y-115074998D01*
G75*
G02*
X164049998Y-114825000I249998J0D01*
G01*
X164950002Y-114825000D01*
G75*
G02*
X165200000Y-115074998I0J-249998D01*
G01*
X165200000Y-115600002D01*
G75*
G02*
X164950002Y-115850000I-249998J0D01*
G01*
G37*
G36*
G01*
X164950002Y-117675000D02*
X164049998Y-117675000D01*
G75*
G02*
X163800000Y-117425002I0J249998D01*
G01*
X163800000Y-116899998D01*
G75*
G02*
X164049998Y-116650000I249998J0D01*
G01*
X164950002Y-116650000D01*
G75*
G02*
X165200000Y-116899998I0J-249998D01*
G01*
X165200000Y-117425002D01*
G75*
G02*
X164950002Y-117675000I-249998J0D01*
G01*
G37*
%TD*%
%TO.C,R16*%
G36*
G01*
X164950002Y-119600000D02*
X164049998Y-119600000D01*
G75*
G02*
X163800000Y-119350002I0J249998D01*
G01*
X163800000Y-118824998D01*
G75*
G02*
X164049998Y-118575000I249998J0D01*
G01*
X164950002Y-118575000D01*
G75*
G02*
X165200000Y-118824998I0J-249998D01*
G01*
X165200000Y-119350002D01*
G75*
G02*
X164950002Y-119600000I-249998J0D01*
G01*
G37*
G36*
G01*
X164950002Y-121425000D02*
X164049998Y-121425000D01*
G75*
G02*
X163800000Y-121175002I0J249998D01*
G01*
X163800000Y-120649998D01*
G75*
G02*
X164049998Y-120400000I249998J0D01*
G01*
X164950002Y-120400000D01*
G75*
G02*
X165200000Y-120649998I0J-249998D01*
G01*
X165200000Y-121175002D01*
G75*
G02*
X164950002Y-121425000I-249998J0D01*
G01*
G37*
%TD*%
%TO.C,R15*%
G36*
G01*
X162100000Y-122549998D02*
X162100000Y-123450002D01*
G75*
G02*
X161850002Y-123700000I-249998J0D01*
G01*
X161324998Y-123700000D01*
G75*
G02*
X161075000Y-123450002I0J249998D01*
G01*
X161075000Y-122549998D01*
G75*
G02*
X161324998Y-122300000I249998J0D01*
G01*
X161850002Y-122300000D01*
G75*
G02*
X162100000Y-122549998I0J-249998D01*
G01*
G37*
G36*
G01*
X163925000Y-122549998D02*
X163925000Y-123450002D01*
G75*
G02*
X163675002Y-123700000I-249998J0D01*
G01*
X163149998Y-123700000D01*
G75*
G02*
X162900000Y-123450002I0J249998D01*
G01*
X162900000Y-122549998D01*
G75*
G02*
X163149998Y-122300000I249998J0D01*
G01*
X163675002Y-122300000D01*
G75*
G02*
X163925000Y-122549998I0J-249998D01*
G01*
G37*
%TD*%
%TO.C,R14*%
G36*
G01*
X162100000Y-136549998D02*
X162100000Y-137450002D01*
G75*
G02*
X161850002Y-137700000I-249998J0D01*
G01*
X161324998Y-137700000D01*
G75*
G02*
X161075000Y-137450002I0J249998D01*
G01*
X161075000Y-136549998D01*
G75*
G02*
X161324998Y-136300000I249998J0D01*
G01*
X161850002Y-136300000D01*
G75*
G02*
X162100000Y-136549998I0J-249998D01*
G01*
G37*
G36*
G01*
X163925000Y-136549998D02*
X163925000Y-137450002D01*
G75*
G02*
X163675002Y-137700000I-249998J0D01*
G01*
X163149998Y-137700000D01*
G75*
G02*
X162900000Y-137450002I0J249998D01*
G01*
X162900000Y-136549998D01*
G75*
G02*
X163149998Y-136300000I249998J0D01*
G01*
X163675002Y-136300000D01*
G75*
G02*
X163925000Y-136549998I0J-249998D01*
G01*
G37*
%TD*%
%TO.C,R13*%
G36*
G01*
X166650000Y-137450002D02*
X166650000Y-136549998D01*
G75*
G02*
X166899998Y-136300000I249998J0D01*
G01*
X167425002Y-136300000D01*
G75*
G02*
X167675000Y-136549998I0J-249998D01*
G01*
X167675000Y-137450002D01*
G75*
G02*
X167425002Y-137700000I-249998J0D01*
G01*
X166899998Y-137700000D01*
G75*
G02*
X166650000Y-137450002I0J249998D01*
G01*
G37*
G36*
G01*
X164825000Y-137450002D02*
X164825000Y-136549998D01*
G75*
G02*
X165074998Y-136300000I249998J0D01*
G01*
X165600002Y-136300000D01*
G75*
G02*
X165850000Y-136549998I0J-249998D01*
G01*
X165850000Y-137450002D01*
G75*
G02*
X165600002Y-137700000I-249998J0D01*
G01*
X165074998Y-137700000D01*
G75*
G02*
X164825000Y-137450002I0J249998D01*
G01*
G37*
%TD*%
%TO.C,R12*%
G36*
G01*
X164049998Y-140400000D02*
X164950002Y-140400000D01*
G75*
G02*
X165200000Y-140649998I0J-249998D01*
G01*
X165200000Y-141175002D01*
G75*
G02*
X164950002Y-141425000I-249998J0D01*
G01*
X164049998Y-141425000D01*
G75*
G02*
X163800000Y-141175002I0J249998D01*
G01*
X163800000Y-140649998D01*
G75*
G02*
X164049998Y-140400000I249998J0D01*
G01*
G37*
G36*
G01*
X164049998Y-138575000D02*
X164950002Y-138575000D01*
G75*
G02*
X165200000Y-138824998I0J-249998D01*
G01*
X165200000Y-139350002D01*
G75*
G02*
X164950002Y-139600000I-249998J0D01*
G01*
X164049998Y-139600000D01*
G75*
G02*
X163800000Y-139350002I0J249998D01*
G01*
X163800000Y-138824998D01*
G75*
G02*
X164049998Y-138575000I249998J0D01*
G01*
G37*
%TD*%
%TO.C,R11*%
G36*
G01*
X164049998Y-144150000D02*
X164950002Y-144150000D01*
G75*
G02*
X165200000Y-144399998I0J-249998D01*
G01*
X165200000Y-144925002D01*
G75*
G02*
X164950002Y-145175000I-249998J0D01*
G01*
X164049998Y-145175000D01*
G75*
G02*
X163800000Y-144925002I0J249998D01*
G01*
X163800000Y-144399998D01*
G75*
G02*
X164049998Y-144150000I249998J0D01*
G01*
G37*
G36*
G01*
X164049998Y-142325000D02*
X164950002Y-142325000D01*
G75*
G02*
X165200000Y-142574998I0J-249998D01*
G01*
X165200000Y-143100002D01*
G75*
G02*
X164950002Y-143350000I-249998J0D01*
G01*
X164049998Y-143350000D01*
G75*
G02*
X163800000Y-143100002I0J249998D01*
G01*
X163800000Y-142574998D01*
G75*
G02*
X164049998Y-142325000I249998J0D01*
G01*
G37*
%TD*%
%TO.C,R10*%
G36*
G01*
X166900000Y-147200002D02*
X166900000Y-146299998D01*
G75*
G02*
X167149998Y-146050000I249998J0D01*
G01*
X167675002Y-146050000D01*
G75*
G02*
X167925000Y-146299998I0J-249998D01*
G01*
X167925000Y-147200002D01*
G75*
G02*
X167675002Y-147450000I-249998J0D01*
G01*
X167149998Y-147450000D01*
G75*
G02*
X166900000Y-147200002I0J249998D01*
G01*
G37*
G36*
G01*
X165075000Y-147200002D02*
X165075000Y-146299998D01*
G75*
G02*
X165324998Y-146050000I249998J0D01*
G01*
X165850002Y-146050000D01*
G75*
G02*
X166100000Y-146299998I0J-249998D01*
G01*
X166100000Y-147200002D01*
G75*
G02*
X165850002Y-147450000I-249998J0D01*
G01*
X165324998Y-147450000D01*
G75*
G02*
X165075000Y-147200002I0J249998D01*
G01*
G37*
%TD*%
%TO.C,R9*%
G36*
G01*
X162100000Y-146299998D02*
X162100000Y-147200002D01*
G75*
G02*
X161850002Y-147450000I-249998J0D01*
G01*
X161324998Y-147450000D01*
G75*
G02*
X161075000Y-147200002I0J249998D01*
G01*
X161075000Y-146299998D01*
G75*
G02*
X161324998Y-146050000I249998J0D01*
G01*
X161850002Y-146050000D01*
G75*
G02*
X162100000Y-146299998I0J-249998D01*
G01*
G37*
G36*
G01*
X163925000Y-146299998D02*
X163925000Y-147200002D01*
G75*
G02*
X163675002Y-147450000I-249998J0D01*
G01*
X163149998Y-147450000D01*
G75*
G02*
X162900000Y-147200002I0J249998D01*
G01*
X162900000Y-146299998D01*
G75*
G02*
X163149998Y-146050000I249998J0D01*
G01*
X163675002Y-146050000D01*
G75*
G02*
X163925000Y-146299998I0J-249998D01*
G01*
G37*
%TD*%
%TO.C,R8*%
G36*
G01*
X187900000Y-185700002D02*
X187900000Y-184799998D01*
G75*
G02*
X188149998Y-184550000I249998J0D01*
G01*
X188675002Y-184550000D01*
G75*
G02*
X188925000Y-184799998I0J-249998D01*
G01*
X188925000Y-185700002D01*
G75*
G02*
X188675002Y-185950000I-249998J0D01*
G01*
X188149998Y-185950000D01*
G75*
G02*
X187900000Y-185700002I0J249998D01*
G01*
G37*
G36*
G01*
X186075000Y-185700002D02*
X186075000Y-184799998D01*
G75*
G02*
X186324998Y-184550000I249998J0D01*
G01*
X186850002Y-184550000D01*
G75*
G02*
X187100000Y-184799998I0J-249998D01*
G01*
X187100000Y-185700002D01*
G75*
G02*
X186850002Y-185950000I-249998J0D01*
G01*
X186324998Y-185950000D01*
G75*
G02*
X186075000Y-185700002I0J249998D01*
G01*
G37*
%TD*%
%TO.C,R7*%
G36*
G01*
X185799998Y-182650000D02*
X186700002Y-182650000D01*
G75*
G02*
X186950000Y-182899998I0J-249998D01*
G01*
X186950000Y-183425002D01*
G75*
G02*
X186700002Y-183675000I-249998J0D01*
G01*
X185799998Y-183675000D01*
G75*
G02*
X185550000Y-183425002I0J249998D01*
G01*
X185550000Y-182899998D01*
G75*
G02*
X185799998Y-182650000I249998J0D01*
G01*
G37*
G36*
G01*
X185799998Y-180825000D02*
X186700002Y-180825000D01*
G75*
G02*
X186950000Y-181074998I0J-249998D01*
G01*
X186950000Y-181600002D01*
G75*
G02*
X186700002Y-181850000I-249998J0D01*
G01*
X185799998Y-181850000D01*
G75*
G02*
X185550000Y-181600002I0J249998D01*
G01*
X185550000Y-181074998D01*
G75*
G02*
X185799998Y-180825000I249998J0D01*
G01*
G37*
%TD*%
%TO.C,R6*%
G36*
G01*
X194100000Y-184799998D02*
X194100000Y-185700002D01*
G75*
G02*
X193850002Y-185950000I-249998J0D01*
G01*
X193324998Y-185950000D01*
G75*
G02*
X193075000Y-185700002I0J249998D01*
G01*
X193075000Y-184799998D01*
G75*
G02*
X193324998Y-184550000I249998J0D01*
G01*
X193850002Y-184550000D01*
G75*
G02*
X194100000Y-184799998I0J-249998D01*
G01*
G37*
G36*
G01*
X195925000Y-184799998D02*
X195925000Y-185700002D01*
G75*
G02*
X195675002Y-185950000I-249998J0D01*
G01*
X195149998Y-185950000D01*
G75*
G02*
X194900000Y-185700002I0J249998D01*
G01*
X194900000Y-184799998D01*
G75*
G02*
X195149998Y-184550000I249998J0D01*
G01*
X195675002Y-184550000D01*
G75*
G02*
X195925000Y-184799998I0J-249998D01*
G01*
G37*
%TD*%
%TO.C,R5*%
G36*
G01*
X187900000Y-179700002D02*
X187900000Y-178799998D01*
G75*
G02*
X188149998Y-178550000I249998J0D01*
G01*
X188675002Y-178550000D01*
G75*
G02*
X188925000Y-178799998I0J-249998D01*
G01*
X188925000Y-179700002D01*
G75*
G02*
X188675002Y-179950000I-249998J0D01*
G01*
X188149998Y-179950000D01*
G75*
G02*
X187900000Y-179700002I0J249998D01*
G01*
G37*
G36*
G01*
X186075000Y-179700002D02*
X186075000Y-178799998D01*
G75*
G02*
X186324998Y-178550000I249998J0D01*
G01*
X186850002Y-178550000D01*
G75*
G02*
X187100000Y-178799998I0J-249998D01*
G01*
X187100000Y-179700002D01*
G75*
G02*
X186850002Y-179950000I-249998J0D01*
G01*
X186324998Y-179950000D01*
G75*
G02*
X186075000Y-179700002I0J249998D01*
G01*
G37*
%TD*%
%TO.C,R4*%
G36*
G01*
X195049998Y-182650000D02*
X195950002Y-182650000D01*
G75*
G02*
X196200000Y-182899998I0J-249998D01*
G01*
X196200000Y-183425002D01*
G75*
G02*
X195950002Y-183675000I-249998J0D01*
G01*
X195049998Y-183675000D01*
G75*
G02*
X194800000Y-183425002I0J249998D01*
G01*
X194800000Y-182899998D01*
G75*
G02*
X195049998Y-182650000I249998J0D01*
G01*
G37*
G36*
G01*
X195049998Y-180825000D02*
X195950002Y-180825000D01*
G75*
G02*
X196200000Y-181074998I0J-249998D01*
G01*
X196200000Y-181600002D01*
G75*
G02*
X195950002Y-181850000I-249998J0D01*
G01*
X195049998Y-181850000D01*
G75*
G02*
X194800000Y-181600002I0J249998D01*
G01*
X194800000Y-181074998D01*
G75*
G02*
X195049998Y-180825000I249998J0D01*
G01*
G37*
%TD*%
%TO.C,R3*%
G36*
G01*
X194100000Y-178799998D02*
X194100000Y-179700002D01*
G75*
G02*
X193850002Y-179950000I-249998J0D01*
G01*
X193324998Y-179950000D01*
G75*
G02*
X193075000Y-179700002I0J249998D01*
G01*
X193075000Y-178799998D01*
G75*
G02*
X193324998Y-178550000I249998J0D01*
G01*
X193850002Y-178550000D01*
G75*
G02*
X194100000Y-178799998I0J-249998D01*
G01*
G37*
G36*
G01*
X195925000Y-178799998D02*
X195925000Y-179700002D01*
G75*
G02*
X195675002Y-179950000I-249998J0D01*
G01*
X195149998Y-179950000D01*
G75*
G02*
X194900000Y-179700002I0J249998D01*
G01*
X194900000Y-178799998D01*
G75*
G02*
X195149998Y-178550000I249998J0D01*
G01*
X195675002Y-178550000D01*
G75*
G02*
X195925000Y-178799998I0J-249998D01*
G01*
G37*
%TD*%
D16*
%TO.C,R2*%
X227400000Y-79000000D03*
D17*
X202000000Y-79000000D03*
%TD*%
D16*
%TO.C,R1*%
X136600000Y-79000000D03*
D17*
X162000000Y-79000000D03*
%TD*%
D18*
%TO.C,L12*%
X219000000Y-156600000D03*
X219000000Y-147400000D03*
%TD*%
%TO.C,L11*%
X219000000Y-142600000D03*
X219000000Y-133400000D03*
%TD*%
%TO.C,L10*%
X219000000Y-128600000D03*
X219000000Y-119400000D03*
%TD*%
%TO.C,L9*%
X219000000Y-114600000D03*
X219000000Y-105400000D03*
%TD*%
%TO.C,L8*%
X219000000Y-100600000D03*
X219000000Y-91400000D03*
%TD*%
D19*
%TO.C,L7*%
X200100000Y-130000000D03*
X195900000Y-130000000D03*
%TD*%
D18*
%TO.C,L6*%
X141000000Y-155600000D03*
X141000000Y-146400000D03*
%TD*%
%TO.C,L5*%
X141000000Y-141600000D03*
X141000000Y-132400000D03*
%TD*%
%TO.C,L4*%
X141000000Y-127600000D03*
X141000000Y-118400000D03*
%TD*%
%TO.C,L3*%
X141000000Y-113600000D03*
X141000000Y-104400000D03*
%TD*%
%TO.C,L2*%
X141000000Y-99600000D03*
X141000000Y-90400000D03*
%TD*%
D19*
%TO.C,L1*%
X159900000Y-130000000D03*
X164100000Y-130000000D03*
%TD*%
D20*
%TO.C,J2*%
X179000000Y-193500000D03*
X176460000Y-190960000D03*
X176460000Y-196040000D03*
X181540000Y-196040000D03*
X181540000Y-190960000D03*
%TD*%
%TO.C,J1*%
X203000000Y-193750000D03*
X200460000Y-191210000D03*
X200460000Y-196290000D03*
X205540000Y-196290000D03*
X205540000Y-191210000D03*
%TD*%
D21*
%TO.C,D4*%
X196500000Y-106750000D03*
X198500000Y-105800000D03*
X198500000Y-107700000D03*
%TD*%
D22*
%TO.C,D3*%
X192200000Y-113250000D03*
X194300000Y-113250000D03*
%TD*%
D21*
%TO.C,D2*%
X163500000Y-106750000D03*
X161500000Y-107700000D03*
X161500000Y-105800000D03*
%TD*%
D22*
%TO.C,D1*%
X167800000Y-113250000D03*
X165700000Y-113250000D03*
%TD*%
D17*
%TO.C,C12*%
X202000000Y-168250000D03*
X224500000Y-168250000D03*
%TD*%
%TO.C,C11*%
G36*
G01*
X195025000Y-126450000D02*
X195975000Y-126450000D01*
G75*
G02*
X196225000Y-126700000I0J-250000D01*
G01*
X196225000Y-127200000D01*
G75*
G02*
X195975000Y-127450000I-250000J0D01*
G01*
X195025000Y-127450000D01*
G75*
G02*
X194775000Y-127200000I0J250000D01*
G01*
X194775000Y-126700000D01*
G75*
G02*
X195025000Y-126450000I250000J0D01*
G01*
G37*
G36*
G01*
X195025000Y-124550000D02*
X195975000Y-124550000D01*
G75*
G02*
X196225000Y-124800000I0J-250000D01*
G01*
X196225000Y-125300000D01*
G75*
G02*
X195975000Y-125550000I-250000J0D01*
G01*
X195025000Y-125550000D01*
G75*
G02*
X194775000Y-125300000I0J250000D01*
G01*
X194775000Y-124800000D01*
G75*
G02*
X195025000Y-124550000I250000J0D01*
G01*
G37*
%TD*%
%TO.C,C10*%
G36*
G01*
X195025000Y-134450000D02*
X195975000Y-134450000D01*
G75*
G02*
X196225000Y-134700000I0J-250000D01*
G01*
X196225000Y-135200000D01*
G75*
G02*
X195975000Y-135450000I-250000J0D01*
G01*
X195025000Y-135450000D01*
G75*
G02*
X194775000Y-135200000I0J250000D01*
G01*
X194775000Y-134700000D01*
G75*
G02*
X195025000Y-134450000I250000J0D01*
G01*
G37*
G36*
G01*
X195025000Y-132550000D02*
X195975000Y-132550000D01*
G75*
G02*
X196225000Y-132800000I0J-250000D01*
G01*
X196225000Y-133300000D01*
G75*
G02*
X195975000Y-133550000I-250000J0D01*
G01*
X195025000Y-133550000D01*
G75*
G02*
X194775000Y-133300000I0J250000D01*
G01*
X194775000Y-132800000D01*
G75*
G02*
X195025000Y-132550000I250000J0D01*
G01*
G37*
%TD*%
%TO.C,C9*%
X173250000Y-168250000D03*
X150750000Y-168250000D03*
%TD*%
%TO.C,C8*%
G36*
G01*
X164025000Y-126450000D02*
X164975000Y-126450000D01*
G75*
G02*
X165225000Y-126700000I0J-250000D01*
G01*
X165225000Y-127200000D01*
G75*
G02*
X164975000Y-127450000I-250000J0D01*
G01*
X164025000Y-127450000D01*
G75*
G02*
X163775000Y-127200000I0J250000D01*
G01*
X163775000Y-126700000D01*
G75*
G02*
X164025000Y-126450000I250000J0D01*
G01*
G37*
G36*
G01*
X164025000Y-124550000D02*
X164975000Y-124550000D01*
G75*
G02*
X165225000Y-124800000I0J-250000D01*
G01*
X165225000Y-125300000D01*
G75*
G02*
X164975000Y-125550000I-250000J0D01*
G01*
X164025000Y-125550000D01*
G75*
G02*
X163775000Y-125300000I0J250000D01*
G01*
X163775000Y-124800000D01*
G75*
G02*
X164025000Y-124550000I250000J0D01*
G01*
G37*
%TD*%
%TO.C,C7*%
G36*
G01*
X164025000Y-134450000D02*
X164975000Y-134450000D01*
G75*
G02*
X165225000Y-134700000I0J-250000D01*
G01*
X165225000Y-135200000D01*
G75*
G02*
X164975000Y-135450000I-250000J0D01*
G01*
X164025000Y-135450000D01*
G75*
G02*
X163775000Y-135200000I0J250000D01*
G01*
X163775000Y-134700000D01*
G75*
G02*
X164025000Y-134450000I250000J0D01*
G01*
G37*
G36*
G01*
X164025000Y-132550000D02*
X164975000Y-132550000D01*
G75*
G02*
X165225000Y-132800000I0J-250000D01*
G01*
X165225000Y-133300000D01*
G75*
G02*
X164975000Y-133550000I-250000J0D01*
G01*
X164025000Y-133550000D01*
G75*
G02*
X163775000Y-133300000I0J250000D01*
G01*
X163775000Y-132800000D01*
G75*
G02*
X164025000Y-132550000I250000J0D01*
G01*
G37*
%TD*%
%TO.C,C6*%
X243000000Y-105500000D03*
X243000000Y-78000000D03*
%TD*%
%TO.C,C5*%
X243000000Y-112500000D03*
X243000000Y-140000000D03*
%TD*%
%TO.C,C4*%
X243000000Y-174500000D03*
X243000000Y-147000000D03*
%TD*%
%TO.C,C3*%
X117000000Y-55500000D03*
X117000000Y-83000000D03*
%TD*%
%TO.C,C2*%
X117000000Y-152000000D03*
X117000000Y-124500000D03*
%TD*%
%TO.C,C1*%
X117000000Y-117500000D03*
X117000000Y-90000000D03*
%TD*%
M02*
