0
SECTION
2
HEADER
9
$INSUNITS
70
4
9
$ACADVER
1
AC1014
9
$HANDSEED
5
FFFF
0
ENDSEC
0
SECTION
2
TABLES
0
TABLE
2
VPORT
5
8
100
AcDbSymbolTable
0
ENDTAB
0
TABLE
2
LTYPE
5
5
100
AcDbSymbolTable
0
LTYPE
5
14
100
AcDbSymbolTableRecord
100
AcDbLinetypeTableRecord
2
BYBLOCK
70
0
0
LTYPE
5
15
100
AcDbSymbolTableRecord
100
AcDbLinetypeTableRecord
2
BYLAYER
70
0
0
ENDTAB
0
TABLE
2
LAYER
5
2
100
AcDbSymbolTable
70
2
0
LAYER
5
50
100
AcDbSymbolTableRecord
100
AcDbLayerTableRecord
2
0
70
0
6
CONTINUOUS
0
ENDTAB
0
TABLE
2
STYLE
5
3
100
AcDbSymbolTable
70
1
0
STYLE
5
11
100
AcDbSymbolTableRecord
100
AcDbTextStyleTableRecord
2
STANDARD
70
0
0
ENDTAB
0
TABLE
2
VIEW
5
6
100
AcDbSymbolTable
70
0
0
ENDTAB
0
TABLE
2
UCS
5
7
100
AcDbSymbolTable
70
0
0
ENDTAB
0
TABLE
2
APPID
5
9
100
AcDbSymbolTable
70
2
0
APPID
5
12
100
AcDbSymbolTableRecord
100
AcDbRegAppTableRecord
2
ACAD
70
0
0
ENDTAB
0
TABLE
2
DIMSTYLE
5
A
100
AcDbSymbolTable
70
1
0
ENDTAB
0
TABLE
2
BLOCK_RECORD
5
1
100
AcDbSymbolTable
70
1
0
BLOCK_RECORD
5
1F
100
AcDbSymbolTableRecord
100
AcDbBlockTableRecord
2
*MODEL_SPACE
0
BLOCK_RECORD
5
1B
100
AcDbSymbolTableRecord
100
AcDbBlockTableRecord
2
*PAPER_SPACE
0
ENDTAB
0
ENDSEC
0
SECTION
2
BLOCKS
0
BLOCK
5
20
100
AcDbEntity
100
AcDbBlockBegin
2
*MODEL_SPACE
0
ENDBLK
5
21
100
AcDbEntity
100
AcDbBlockEnd
0
BLOCK
5
1C
100
AcDbEntity
100
AcDbBlockBegin
2
*PAPER_SPACE
0
ENDBLK
5
1D
100
AcDbEntity
100
AcDbBlockEnd
0
ENDSEC
0
SECTION
2
ENTITIES
0
CIRCLE
5
100
100
AcDbEntity
8
0
100
AcDbCircle
10
231.87382507324946
20
17.239402170925931
30
0
40
3.5000000000000737
210
4.5590034312042714e-48
220
2.7733391199176196e-32
230
1
0
CIRCLE
5
101
100
AcDbEntity
8
0
100
AcDbCircle
10
255.8738250732473
20
17.239402170925942
30
0
40
3.5000000000000737
210
4.5590034312042714e-48
220
2.7733391199176196e-32
230
1
0
LWPOLYLINE
5
102
100
AcDbEntity
8
0
100
AcDbPolyline
90
20
70
1
43
0.0
10
188.96920020876794
20
21.514339386183046
10
188.96920020878133
20
30.714339386183212
42
2.4142135623404308
10
188.26920020876796
20
31.414339386183215
10
184.86920020876835
20
31.414339386183208
10
184.86920020876829
20
36.414339386183208
42
2.4142135623730843
10
184.1692002087683
20
37.114339386183218
10
167.56920020876856
20
37.11433938618319
42
2.4142135623731265
10
166.86920020876858
20
36.414339386183194
10
166.86920020876863
20
31.414339386183183
10
163.46920020876831
20
31.41433938618318
42
2.414213562387109
10
162.76920020877407
20
30.714339386183159
10
162.76920020876963
20
21.514339386183007
42
2.4142135623728671
10
163.46920020876968
20
20.814339386182972
10
171.16920020876853
20
20.814339386183008
10
171.16920020876859
20
15.814339386182851
42
2.4142135623731158
10
171.86920020876855
20
15.114339386182829
10
179.8692002087684
20
15.114339386182836
42
2.4142135623730674
10
180.56920020876842
20
15.814339386182892
10
180.56920020876842
20
20.814339386183022
10
188.26920020876796
20
20.81433938618305
42
2.4142135623731051
0
LWPOLYLINE
5
103
100
AcDbEntity
8
0
100
AcDbPolyline
90
8
70
1
43
0.0
10
154.02382507322758
20
-1.7333106422041977
42
-0.41421356237309476
10
150.12382507322954
20
2.1666893577976332
10
150.12382507325043
20
45.496689357798374
42
-0.4142135623730937
10
154.02382507325237
20
49.396689357796539
10
311.22382507325017
20
49.396689357720177
42
-0.41421356237309642
10
315.12382507324821
20
45.496689357718338
10
315.12382507322735
20
2.1666893577176252
42
-0.41421356237309265
10
311.22382507322538
20
-1.7333106422805669
0
CIRCLE
5
104
100
AcDbEntity
8
0
100
AcDbCircle
10
310.38382507324837
20
45.594689357720661
30
0
40
1.7500000000000298
210
-1.5721264028171982e-31
220
-1.540743955502162e-32
230
1
0
CIRCLE
5
105
100
AcDbEntity
8
0
100
AcDbCircle
10
154.86382507322941
20
2.0686893577953214
30
0
40
1.7500000000000298
210
-1.5721264028171982e-31
220
-1.540743955502162e-32
230
1
0
CIRCLE
5
106
100
AcDbEntity
8
0
100
AcDbCircle
10
310.38382507322729
20
2.0686893577198973
30
0
40
1.7500000000000298
210
-1.5721264028171982e-31
220
-1.540743955502162e-32
230
1
0
CIRCLE
5
107
100
AcDbEntity
8
0
100
AcDbCircle
10
154.86382507325055
20
45.594689357796085
30
0
40
1.7500000000000298
210
-1.5721264028171982e-31
220
-1.540743955502162e-32
230
1
0
ENDSEC
0
SECTION
2
OBJECTS
0
DICTIONARY
5
C
100
AcDbDictionary
3
ACAD_GROUP
350
D
3
ACAD_MLINESTYLE
350
17
0
DICTIONARY
5
D
100
AcDbDictionary
0
DICTIONARY
5
1A
330
C
100
AcDbDictionary
0
DICTIONARY
5
17
100
AcDbDictionary
0
ENDSEC
0
EOF
