0
SECTION
2
HEADER
9
$INSUNITS
70
4
9
$ACADVER
1
AC1014
9
$HANDSEED
5
FFFF
0
ENDSEC
0
SECTION
2
TABLES
0
TABLE
2
VPORT
5
8
100
AcDbSymbolTable
0
ENDTAB
0
TABLE
2
LTYPE
5
5
100
AcDbSymbolTable
0
LTYPE
5
14
100
AcDbSymbolTableRecord
100
AcDbLinetypeTableRecord
2
BYBLOCK
70
0
0
LTYPE
5
15
100
AcDbSymbolTableRecord
100
AcDbLinetypeTableRecord
2
BYLAYER
70
0
0
ENDTAB
0
TABLE
2
LAYER
5
2
100
AcDbSymbolTable
70
2
0
LAYER
5
50
100
AcDbSymbolTableRecord
100
AcDbLayerTableRecord
2
0
70
0
6
CONTINUOUS
0
ENDTAB
0
TABLE
2
STYLE
5
3
100
AcDbSymbolTable
70
1
0
STYLE
5
11
100
AcDbSymbolTableRecord
100
AcDbTextStyleTableRecord
2
STANDARD
70
0
0
ENDTAB
0
TABLE
2
VIEW
5
6
100
AcDbSymbolTable
70
0
0
ENDTAB
0
TABLE
2
UCS
5
7
100
AcDbSymbolTable
70
0
0
ENDTAB
0
TABLE
2
APPID
5
9
100
AcDbSymbolTable
70
2
0
APPID
5
12
100
AcDbSymbolTableRecord
100
AcDbRegAppTableRecord
2
ACAD
70
0
0
ENDTAB
0
TABLE
2
DIMSTYLE
5
A
100
AcDbSymbolTable
70
1
0
ENDTAB
0
TABLE
2
BLOCK_RECORD
5
1
100
AcDbSymbolTable
70
1
0
BLOCK_RECORD
5
1F
100
AcDbSymbolTableRecord
100
AcDbBlockTableRecord
2
*MODEL_SPACE
0
BLOCK_RECORD
5
1B
100
AcDbSymbolTableRecord
100
AcDbBlockTableRecord
2
*PAPER_SPACE
0
ENDTAB
0
ENDSEC
0
SECTION
2
BLOCKS
0
BLOCK
5
20
100
AcDbEntity
100
AcDbBlockBegin
2
*MODEL_SPACE
0
ENDBLK
5
21
100
AcDbEntity
100
AcDbBlockEnd
0
BLOCK
5
1C
100
AcDbEntity
100
AcDbBlockBegin
2
*PAPER_SPACE
0
ENDBLK
5
1D
100
AcDbEntity
100
AcDbBlockEnd
0
ENDSEC
0
SECTION
2
ENTITIES
0
CIRCLE
5
100
100
AcDbEntity
8
0
100
AcDbCircle
10
-249.83086601728604
20
25.492777407869745
30
0
40
1.7800000000000296
210
7.134542997428775e-34
220
2.0029671421627253e-32
230
1
0
LWPOLYLINE
5
101
100
AcDbEntity
8
0
100
AcDbPolyline
90
2
70
1
43
0.0
10
-267.32781070651174
20
31.871452818960591
42
-10.3029403289974
10
-269.82781070648491
20
31.871452818920424
42
-0.99999999999999989
0
CIRCLE
5
102
100
AcDbEntity
8
0
100
AcDbCircle
10
-209.82086601728665
20
25.492777407889239
30
0
40
1.7800000000000296
210
7.134542997428775e-34
220
2.0029671421627253e-32
230
1
0
LWPOLYLINE
5
103
100
AcDbEntity
8
0
100
AcDbPolyline
90
8
70
1
43
0.0
10
-214.58586601728513
20
18.092777407869711
10
-214.58586601728513
20
32.892777407887152
42
0.41421356237311241
10
-217.58586601727967
20
35.892777407881795
10
-242.06586601729686
20
35.892777407881781
42
0.41421356237311324
10
-245.06586601728935
20
32.892777407889213
10
-245.06586601728938
20
18.092777407920821
42
0.41421356237312584
10
-242.06586601724698
20
15.092777407878376
10
-217.58586601727632
20
15.092777407878382
42
0.41421356237311741
0
LWPOLYLINE
5
104
100
AcDbEntity
8
0
100
AcDbPolyline
90
2
70
1
43
0.0
10
-293.3278107064906
20
31.871452818943858
42
-10.302940328850863
10
-295.82781070649474
20
31.871452818924524
42
-0.99999999999999989
0
LWPOLYLINE
5
105
100
AcDbEntity
8
0
100
AcDbPolyline
90
8
70
1
43
0.0
10
-198.82107151639585
20
34.442777407903016
10
-198.82107151638314
20
16.542777407902697
42
2.4142135623718985
10
-198.1210715163827
20
15.842777407902686
10
-186.62107151638284
20
15.842777407902698
42
2.414213562389329
10
-185.92107151638947
20
16.542777407902697
10
-185.92107151638285
20
34.442777407903002
42
2.4142135623730736
10
-186.62107151638284
20
35.142777407903012
10
-198.12107151639634
20
35.142777407903026
42
2.414213562374373
0
LWPOLYLINE
5
106
100
AcDbEntity
8
0
100
AcDbPolyline
90
8
70
1
43
0.0
10
-154.02382507322761
20
-1.7992834472274297
10
-311.22382507322538
20
-1.7992834473038997
42
-0.41421356237311946
10
-315.12382507322724
20
2.1007165526942639
10
-315.12382507324833
20
45.430716552694989
42
-0.4142135623731244
10
-311.22382507325028
20
49.330716552696956
10
-154.02382507325251
20
49.330716552773445
42
-0.41421356237311568
10
-150.12382507325066
20
45.430716552775259
10
-150.12382507322957
20
2.1007165527745437
42
-0.41421356237311752
0
CIRCLE
5
107
100
AcDbEntity
8
0
100
AcDbCircle
10
-310.38382507324849
20
45.528716552697304
30
0
40
1.7500000000000298
210
-1.8015581597654641e-31
220
-1.3866695599675772e-32
230
1
0
CIRCLE
5
108
100
AcDbEntity
8
0
100
AcDbCircle
10
-310.38382507322729
20
2.0027165526965574
30
0
40
1.7500000000000298
210
-1.8015581597654641e-31
220
-1.3866695599675772e-32
230
1
0
CIRCLE
5
109
100
AcDbEntity
8
0
100
AcDbCircle
10
-154.86382507322946
20
2.0027165527722213
30
0
40
1.7500000000000298
210
-1.8015581597654641e-31
220
-1.3866695599675772e-32
230
1
0
CIRCLE
5
110
100
AcDbEntity
8
0
100
AcDbCircle
10
-154.86382507325064
20
45.52871655277297
30
0
40
1.7500000000000298
210
-1.8015581597654641e-31
220
-1.3866695599675772e-32
230
1
0
ENDSEC
0
SECTION
2
OBJECTS
0
DICTIONARY
5
C
100
AcDbDictionary
3
ACAD_GROUP
350
D
3
ACAD_MLINESTYLE
350
17
0
DICTIONARY
5
D
100
AcDbDictionary
0
DICTIONARY
5
1A
330
C
100
AcDbDictionary
0
DICTIONARY
5
17
100
AcDbDictionary
0
ENDSEC
0
EOF
