%TF.GenerationSoftware,KiCad,Pcbnew,5.1.10-88a1d61d58~90~ubuntu20.04.1*%
%TF.CreationDate,2021-08-16T21:10:36-07:00*%
%TF.ProjectId,front-panel,66726f6e-742d-4706-916e-656c2e6b6963,rev?*%
%TF.SameCoordinates,Original*%
%TF.FileFunction,Legend,Top*%
%TF.FilePolarity,Positive*%
%FSLAX46Y46*%
G04 Gerber Fmt 4.6, Leading zero omitted, Abs format (unit mm)*
G04 Created by KiCad (PCBNEW 5.1.10-88a1d61d58~90~ubuntu20.04.1) date 2021-08-16 21:10:36*
%MOMM*%
%LPD*%
G01*
G04 APERTURE LIST*
%ADD10C,0.400000*%
%ADD11C,0.150000*%
%ADD12C,0.300000*%
%ADD13C,0.010000*%
G04 APERTURE END LIST*
D10*
X132630952Y-64380952D02*
X131440476Y-64380952D01*
X131321428Y-65571428D01*
X131440476Y-65452380D01*
X131678571Y-65333333D01*
X132273809Y-65333333D01*
X132511904Y-65452380D01*
X132630952Y-65571428D01*
X132750000Y-65809523D01*
X132750000Y-66404761D01*
X132630952Y-66642857D01*
X132511904Y-66761904D01*
X132273809Y-66880952D01*
X131678571Y-66880952D01*
X131440476Y-66761904D01*
X131321428Y-66642857D01*
X134297619Y-64380952D02*
X134535714Y-64380952D01*
X134773809Y-64500000D01*
X134892857Y-64619047D01*
X135011904Y-64857142D01*
X135130952Y-65333333D01*
X135130952Y-65928571D01*
X135011904Y-66404761D01*
X134892857Y-66642857D01*
X134773809Y-66761904D01*
X134535714Y-66880952D01*
X134297619Y-66880952D01*
X134059523Y-66761904D01*
X133940476Y-66642857D01*
X133821428Y-66404761D01*
X133702380Y-65928571D01*
X133702380Y-65333333D01*
X133821428Y-64857142D01*
X133940476Y-64619047D01*
X134059523Y-64500000D01*
X134297619Y-64380952D01*
X137273809Y-65214285D02*
X137273809Y-66880952D01*
X136202380Y-65214285D02*
X136202380Y-66523809D01*
X136321428Y-66761904D01*
X136559523Y-66880952D01*
X136916666Y-66880952D01*
X137154761Y-66761904D01*
X137273809Y-66642857D01*
X138464285Y-66880952D02*
X138464285Y-64380952D01*
X138464285Y-65571428D02*
X139892857Y-65571428D01*
X139892857Y-66880952D02*
X139892857Y-64380952D01*
X142869047Y-66166666D02*
X144059523Y-66166666D01*
X142630952Y-66880952D02*
X143464285Y-64380952D01*
X144297619Y-66880952D01*
X146559523Y-66642857D02*
X146440476Y-66761904D01*
X146083333Y-66880952D01*
X145845238Y-66880952D01*
X145488095Y-66761904D01*
X145250000Y-66523809D01*
X145130952Y-66285714D01*
X145011904Y-65809523D01*
X145011904Y-65452380D01*
X145130952Y-64976190D01*
X145250000Y-64738095D01*
X145488095Y-64500000D01*
X145845238Y-64380952D01*
X146083333Y-64380952D01*
X146440476Y-64500000D01*
X146559523Y-64619047D01*
X150726190Y-66880952D02*
X149535714Y-66880952D01*
X149535714Y-64380952D01*
X151559523Y-66880952D02*
X151559523Y-64380952D01*
X152630952Y-66761904D02*
X152988095Y-66880952D01*
X153583333Y-66880952D01*
X153821428Y-66761904D01*
X153940476Y-66642857D01*
X154059523Y-66404761D01*
X154059523Y-66166666D01*
X153940476Y-65928571D01*
X153821428Y-65809523D01*
X153583333Y-65690476D01*
X153107142Y-65571428D01*
X152869047Y-65452380D01*
X152750000Y-65333333D01*
X152630952Y-65095238D01*
X152630952Y-64857142D01*
X152750000Y-64619047D01*
X152869047Y-64500000D01*
X153107142Y-64380952D01*
X153702380Y-64380952D01*
X154059523Y-64500000D01*
X155130952Y-66880952D02*
X155130952Y-64380952D01*
X156559523Y-66880952D01*
X156559523Y-64380952D01*
D11*
X176464285Y-96785714D02*
X176464285Y-97595238D01*
X176416666Y-97690476D01*
X176369047Y-97738095D01*
X176273809Y-97785714D01*
X176130952Y-97785714D01*
X176035714Y-97738095D01*
X176464285Y-97404761D02*
X176369047Y-97452380D01*
X176178571Y-97452380D01*
X176083333Y-97404761D01*
X176035714Y-97357142D01*
X175988095Y-97261904D01*
X175988095Y-96976190D01*
X176035714Y-96880952D01*
X176083333Y-96833333D01*
X176178571Y-96785714D01*
X176369047Y-96785714D01*
X176464285Y-96833333D01*
X176940476Y-97452380D02*
X176940476Y-96785714D01*
X176940476Y-96452380D02*
X176892857Y-96500000D01*
X176940476Y-96547619D01*
X176988095Y-96500000D01*
X176940476Y-96452380D01*
X176940476Y-96547619D01*
X177273809Y-96785714D02*
X177654761Y-96785714D01*
X177416666Y-96452380D02*
X177416666Y-97309523D01*
X177464285Y-97404761D01*
X177559523Y-97452380D01*
X177654761Y-97452380D01*
X177988095Y-97452380D02*
X177988095Y-96452380D01*
X178416666Y-97452380D02*
X178416666Y-96928571D01*
X178369047Y-96833333D01*
X178273809Y-96785714D01*
X178130952Y-96785714D01*
X178035714Y-96833333D01*
X177988095Y-96880952D01*
X179321428Y-96785714D02*
X179321428Y-97452380D01*
X178892857Y-96785714D02*
X178892857Y-97309523D01*
X178940476Y-97404761D01*
X179035714Y-97452380D01*
X179178571Y-97452380D01*
X179273809Y-97404761D01*
X179321428Y-97357142D01*
X179797619Y-97452380D02*
X179797619Y-96452380D01*
X179797619Y-96833333D02*
X179892857Y-96785714D01*
X180083333Y-96785714D01*
X180178571Y-96833333D01*
X180226190Y-96880952D01*
X180273809Y-96976190D01*
X180273809Y-97261904D01*
X180226190Y-97357142D01*
X180178571Y-97404761D01*
X180083333Y-97452380D01*
X179892857Y-97452380D01*
X179797619Y-97404761D01*
X180702380Y-97357142D02*
X180750000Y-97404761D01*
X180702380Y-97452380D01*
X180654761Y-97404761D01*
X180702380Y-97357142D01*
X180702380Y-97452380D01*
X181607142Y-97404761D02*
X181511904Y-97452380D01*
X181321428Y-97452380D01*
X181226190Y-97404761D01*
X181178571Y-97357142D01*
X181130952Y-97261904D01*
X181130952Y-96976190D01*
X181178571Y-96880952D01*
X181226190Y-96833333D01*
X181321428Y-96785714D01*
X181511904Y-96785714D01*
X181607142Y-96833333D01*
X182178571Y-97452380D02*
X182083333Y-97404761D01*
X182035714Y-97357142D01*
X181988095Y-97261904D01*
X181988095Y-96976190D01*
X182035714Y-96880952D01*
X182083333Y-96833333D01*
X182178571Y-96785714D01*
X182321428Y-96785714D01*
X182416666Y-96833333D01*
X182464285Y-96880952D01*
X182511904Y-96976190D01*
X182511904Y-97261904D01*
X182464285Y-97357142D01*
X182416666Y-97404761D01*
X182321428Y-97452380D01*
X182178571Y-97452380D01*
X182940476Y-97452380D02*
X182940476Y-96785714D01*
X182940476Y-96880952D02*
X182988095Y-96833333D01*
X183083333Y-96785714D01*
X183226190Y-96785714D01*
X183321428Y-96833333D01*
X183369047Y-96928571D01*
X183369047Y-97452380D01*
X183369047Y-96928571D02*
X183416666Y-96833333D01*
X183511904Y-96785714D01*
X183654761Y-96785714D01*
X183750000Y-96833333D01*
X183797619Y-96928571D01*
X183797619Y-97452380D01*
X184988095Y-96404761D02*
X184130952Y-97690476D01*
X185226190Y-96785714D02*
X185416666Y-97452380D01*
X185607142Y-96976190D01*
X185797619Y-97452380D01*
X185988095Y-96785714D01*
X186750000Y-97404761D02*
X186654761Y-97452380D01*
X186464285Y-97452380D01*
X186369047Y-97404761D01*
X186321428Y-97309523D01*
X186321428Y-96928571D01*
X186369047Y-96833333D01*
X186464285Y-96785714D01*
X186654761Y-96785714D01*
X186750000Y-96833333D01*
X186797619Y-96928571D01*
X186797619Y-97023809D01*
X186321428Y-97119047D01*
X187178571Y-97404761D02*
X187273809Y-97452380D01*
X187464285Y-97452380D01*
X187559523Y-97404761D01*
X187607142Y-97309523D01*
X187607142Y-97261904D01*
X187559523Y-97166666D01*
X187464285Y-97119047D01*
X187321428Y-97119047D01*
X187226190Y-97071428D01*
X187178571Y-96976190D01*
X187178571Y-96928571D01*
X187226190Y-96833333D01*
X187321428Y-96785714D01*
X187464285Y-96785714D01*
X187559523Y-96833333D01*
X187892857Y-96785714D02*
X188273809Y-96785714D01*
X188035714Y-96452380D02*
X188035714Y-97309523D01*
X188083333Y-97404761D01*
X188178571Y-97452380D01*
X188273809Y-97452380D01*
X188750000Y-97452380D02*
X188654761Y-97404761D01*
X188607142Y-97357142D01*
X188559523Y-97261904D01*
X188559523Y-96976190D01*
X188607142Y-96880952D01*
X188654761Y-96833333D01*
X188750000Y-96785714D01*
X188892857Y-96785714D01*
X188988095Y-96833333D01*
X189035714Y-96880952D01*
X189083333Y-96976190D01*
X189083333Y-97261904D01*
X189035714Y-97357142D01*
X188988095Y-97404761D01*
X188892857Y-97452380D01*
X188750000Y-97452380D01*
X189511904Y-96785714D02*
X189511904Y-97452380D01*
X189511904Y-96880952D02*
X189559523Y-96833333D01*
X189654761Y-96785714D01*
X189797619Y-96785714D01*
X189892857Y-96833333D01*
X189940476Y-96928571D01*
X189940476Y-97452380D01*
X190416666Y-97452380D02*
X190416666Y-96452380D01*
X190416666Y-96833333D02*
X190511904Y-96785714D01*
X190702380Y-96785714D01*
X190797619Y-96833333D01*
X190845238Y-96880952D01*
X190892857Y-96976190D01*
X190892857Y-97261904D01*
X190845238Y-97357142D01*
X190797619Y-97404761D01*
X190702380Y-97452380D01*
X190511904Y-97452380D01*
X190416666Y-97404761D01*
X192035714Y-96404761D02*
X191178571Y-97690476D01*
X192511904Y-97452380D02*
X192416666Y-97404761D01*
X192369047Y-97309523D01*
X192369047Y-96452380D01*
X193273809Y-97404761D02*
X193178571Y-97452380D01*
X192988095Y-97452380D01*
X192892857Y-97404761D01*
X192845238Y-97309523D01*
X192845238Y-96928571D01*
X192892857Y-96833333D01*
X192988095Y-96785714D01*
X193178571Y-96785714D01*
X193273809Y-96833333D01*
X193321428Y-96928571D01*
X193321428Y-97023809D01*
X192845238Y-97119047D01*
X194130952Y-97404761D02*
X194035714Y-97452380D01*
X193845238Y-97452380D01*
X193750000Y-97404761D01*
X193702380Y-97309523D01*
X193702380Y-96928571D01*
X193750000Y-96833333D01*
X193845238Y-96785714D01*
X194035714Y-96785714D01*
X194130952Y-96833333D01*
X194178571Y-96928571D01*
X194178571Y-97023809D01*
X193702380Y-97119047D01*
X194607142Y-97452380D02*
X194607142Y-96785714D01*
X194607142Y-96976190D02*
X194654761Y-96880952D01*
X194702380Y-96833333D01*
X194797619Y-96785714D01*
X194892857Y-96785714D01*
X195130952Y-96785714D02*
X195369047Y-97452380D01*
X195607142Y-96785714D02*
X195369047Y-97452380D01*
X195273809Y-97690476D01*
X195226190Y-97738095D01*
X195130952Y-97785714D01*
X195988095Y-97071428D02*
X196750000Y-97071428D01*
X197369047Y-97452380D02*
X197273809Y-97404761D01*
X197226190Y-97309523D01*
X197226190Y-96452380D01*
X197750000Y-97452380D02*
X197750000Y-96785714D01*
X197750000Y-96452380D02*
X197702380Y-96500000D01*
X197750000Y-96547619D01*
X197797619Y-96500000D01*
X197750000Y-96452380D01*
X197750000Y-96547619D01*
X198178571Y-97404761D02*
X198273809Y-97452380D01*
X198464285Y-97452380D01*
X198559523Y-97404761D01*
X198607142Y-97309523D01*
X198607142Y-97261904D01*
X198559523Y-97166666D01*
X198464285Y-97119047D01*
X198321428Y-97119047D01*
X198226190Y-97071428D01*
X198178571Y-96976190D01*
X198178571Y-96928571D01*
X198226190Y-96833333D01*
X198321428Y-96785714D01*
X198464285Y-96785714D01*
X198559523Y-96833333D01*
X199035714Y-96785714D02*
X199035714Y-97452380D01*
X199035714Y-96880952D02*
X199083333Y-96833333D01*
X199178571Y-96785714D01*
X199321428Y-96785714D01*
X199416666Y-96833333D01*
X199464285Y-96928571D01*
X199464285Y-97452380D01*
D12*
X71142857Y-98725000D02*
X71857142Y-98725000D01*
X71000000Y-99153571D02*
X71500000Y-97653571D01*
X72000000Y-99153571D01*
X73357142Y-99010714D02*
X73285714Y-99082142D01*
X73071428Y-99153571D01*
X72928571Y-99153571D01*
X72714285Y-99082142D01*
X72571428Y-98939285D01*
X72500000Y-98796428D01*
X72428571Y-98510714D01*
X72428571Y-98296428D01*
X72500000Y-98010714D01*
X72571428Y-97867857D01*
X72714285Y-97725000D01*
X72928571Y-97653571D01*
X73071428Y-97653571D01*
X73285714Y-97725000D01*
X73357142Y-97796428D01*
X75428571Y-97653571D02*
X75714285Y-97653571D01*
X75857142Y-97725000D01*
X76000000Y-97867857D01*
X76071428Y-98153571D01*
X76071428Y-98653571D01*
X76000000Y-98939285D01*
X75857142Y-99082142D01*
X75714285Y-99153571D01*
X75428571Y-99153571D01*
X75285714Y-99082142D01*
X75142857Y-98939285D01*
X75071428Y-98653571D01*
X75071428Y-98153571D01*
X75142857Y-97867857D01*
X75285714Y-97725000D01*
X75428571Y-97653571D01*
X77357142Y-98153571D02*
X77357142Y-99153571D01*
X76714285Y-98153571D02*
X76714285Y-98939285D01*
X76785714Y-99082142D01*
X76928571Y-99153571D01*
X77142857Y-99153571D01*
X77285714Y-99082142D01*
X77357142Y-99010714D01*
X77857142Y-98153571D02*
X78428571Y-98153571D01*
X78071428Y-97653571D02*
X78071428Y-98939285D01*
X78142857Y-99082142D01*
X78285714Y-99153571D01*
X78428571Y-99153571D01*
X78928571Y-98153571D02*
X78928571Y-99653571D01*
X78928571Y-98225000D02*
X79071428Y-98153571D01*
X79357142Y-98153571D01*
X79500000Y-98225000D01*
X79571428Y-98296428D01*
X79642857Y-98439285D01*
X79642857Y-98867857D01*
X79571428Y-99010714D01*
X79500000Y-99082142D01*
X79357142Y-99153571D01*
X79071428Y-99153571D01*
X78928571Y-99082142D01*
X80928571Y-98153571D02*
X80928571Y-99153571D01*
X80285714Y-98153571D02*
X80285714Y-98939285D01*
X80357142Y-99082142D01*
X80500000Y-99153571D01*
X80714285Y-99153571D01*
X80857142Y-99082142D01*
X80928571Y-99010714D01*
X81428571Y-98153571D02*
X82000000Y-98153571D01*
X81642857Y-97653571D02*
X81642857Y-98939285D01*
X81714285Y-99082142D01*
X81857142Y-99153571D01*
X82000000Y-99153571D01*
X67607142Y-100203571D02*
X66892857Y-100203571D01*
X66821428Y-100917857D01*
X66892857Y-100846428D01*
X67035714Y-100775000D01*
X67392857Y-100775000D01*
X67535714Y-100846428D01*
X67607142Y-100917857D01*
X67678571Y-101060714D01*
X67678571Y-101417857D01*
X67607142Y-101560714D01*
X67535714Y-101632142D01*
X67392857Y-101703571D01*
X67035714Y-101703571D01*
X66892857Y-101632142D01*
X66821428Y-101560714D01*
X69392857Y-101275000D02*
X70107142Y-101275000D01*
X69250000Y-101703571D02*
X69750000Y-100203571D01*
X70250000Y-101703571D01*
X70750000Y-101703571D02*
X70750000Y-100703571D01*
X70750000Y-100846428D02*
X70821428Y-100775000D01*
X70964285Y-100703571D01*
X71178571Y-100703571D01*
X71321428Y-100775000D01*
X71392857Y-100917857D01*
X71392857Y-101703571D01*
X71392857Y-100917857D02*
X71464285Y-100775000D01*
X71607142Y-100703571D01*
X71821428Y-100703571D01*
X71964285Y-100775000D01*
X72035714Y-100917857D01*
X72035714Y-101703571D01*
X72750000Y-100703571D02*
X72750000Y-102203571D01*
X72750000Y-100775000D02*
X72892857Y-100703571D01*
X73178571Y-100703571D01*
X73321428Y-100775000D01*
X73392857Y-100846428D01*
X73464285Y-100989285D01*
X73464285Y-101417857D01*
X73392857Y-101560714D01*
X73321428Y-101632142D01*
X73178571Y-101703571D01*
X72892857Y-101703571D01*
X72750000Y-101632142D01*
X74035714Y-101632142D02*
X74178571Y-101703571D01*
X74464285Y-101703571D01*
X74607142Y-101632142D01*
X74678571Y-101489285D01*
X74678571Y-101417857D01*
X74607142Y-101275000D01*
X74464285Y-101203571D01*
X74250000Y-101203571D01*
X74107142Y-101132142D01*
X74035714Y-100989285D01*
X74035714Y-100917857D01*
X74107142Y-100775000D01*
X74250000Y-100703571D01*
X74464285Y-100703571D01*
X74607142Y-100775000D01*
X76464285Y-101703571D02*
X76464285Y-100203571D01*
X76964285Y-101275000D01*
X77464285Y-100203571D01*
X77464285Y-101703571D01*
X78821428Y-101703571D02*
X78821428Y-100917857D01*
X78750000Y-100775000D01*
X78607142Y-100703571D01*
X78321428Y-100703571D01*
X78178571Y-100775000D01*
X78821428Y-101632142D02*
X78678571Y-101703571D01*
X78321428Y-101703571D01*
X78178571Y-101632142D01*
X78107142Y-101489285D01*
X78107142Y-101346428D01*
X78178571Y-101203571D01*
X78321428Y-101132142D01*
X78678571Y-101132142D01*
X78821428Y-101060714D01*
X79392857Y-101703571D02*
X80178571Y-100703571D01*
X79392857Y-100703571D02*
X80178571Y-101703571D01*
X80750000Y-101703571D02*
X80750000Y-100703571D01*
X80750000Y-100203571D02*
X80678571Y-100275000D01*
X80750000Y-100346428D01*
X80821428Y-100275000D01*
X80750000Y-100203571D01*
X80750000Y-100346428D01*
X81464285Y-101703571D02*
X81464285Y-100703571D01*
X81464285Y-100846428D02*
X81535714Y-100775000D01*
X81678571Y-100703571D01*
X81892857Y-100703571D01*
X82035714Y-100775000D01*
X82107142Y-100917857D01*
X82107142Y-101703571D01*
X82107142Y-100917857D02*
X82178571Y-100775000D01*
X82321428Y-100703571D01*
X82535714Y-100703571D01*
X82678571Y-100775000D01*
X82750000Y-100917857D01*
X82750000Y-101703571D01*
X84107142Y-100703571D02*
X84107142Y-101703571D01*
X83464285Y-100703571D02*
X83464285Y-101489285D01*
X83535714Y-101632142D01*
X83678571Y-101703571D01*
X83892857Y-101703571D01*
X84035714Y-101632142D01*
X84107142Y-101560714D01*
X84821428Y-101703571D02*
X84821428Y-100703571D01*
X84821428Y-100846428D02*
X84892857Y-100775000D01*
X85035714Y-100703571D01*
X85250000Y-100703571D01*
X85392857Y-100775000D01*
X85464285Y-100917857D01*
X85464285Y-101703571D01*
X85464285Y-100917857D02*
X85535714Y-100775000D01*
X85678571Y-100703571D01*
X85892857Y-100703571D01*
X86035714Y-100775000D01*
X86107142Y-100917857D01*
X86107142Y-101703571D01*
X124571428Y-98653571D02*
X123714285Y-98653571D01*
X124142857Y-98653571D02*
X124142857Y-97153571D01*
X123999999Y-97367857D01*
X123857142Y-97510714D01*
X123714285Y-97582142D01*
X125499999Y-97153571D02*
X125642857Y-97153571D01*
X125785714Y-97225000D01*
X125857142Y-97296428D01*
X125928571Y-97439285D01*
X125999999Y-97725000D01*
X125999999Y-98082142D01*
X125928571Y-98367857D01*
X125857142Y-98510714D01*
X125785714Y-98582142D01*
X125642857Y-98653571D01*
X125499999Y-98653571D01*
X125357142Y-98582142D01*
X125285714Y-98510714D01*
X125214285Y-98367857D01*
X125142857Y-98082142D01*
X125142857Y-97725000D01*
X125214285Y-97439285D01*
X125285714Y-97296428D01*
X125357142Y-97225000D01*
X125499999Y-97153571D01*
X127285714Y-98653571D02*
X127285714Y-97153571D01*
X127285714Y-98582142D02*
X127142857Y-98653571D01*
X126857142Y-98653571D01*
X126714285Y-98582142D01*
X126642857Y-98510714D01*
X126571428Y-98367857D01*
X126571428Y-97939285D01*
X126642857Y-97796428D01*
X126714285Y-97725000D01*
X126857142Y-97653571D01*
X127142857Y-97653571D01*
X127285714Y-97725000D01*
X128499999Y-97867857D02*
X128714285Y-97939285D01*
X128785714Y-98010714D01*
X128857142Y-98153571D01*
X128857142Y-98367857D01*
X128785714Y-98510714D01*
X128714285Y-98582142D01*
X128571428Y-98653571D01*
X127999999Y-98653571D01*
X127999999Y-97153571D01*
X128499999Y-97153571D01*
X128642857Y-97225000D01*
X128714285Y-97296428D01*
X128785714Y-97439285D01*
X128785714Y-97582142D01*
X128714285Y-97725000D01*
X128642857Y-97796428D01*
X128499999Y-97867857D01*
X127999999Y-97867857D01*
X131285714Y-98653571D02*
X131285714Y-97867857D01*
X131214285Y-97725000D01*
X131071428Y-97653571D01*
X130785714Y-97653571D01*
X130642857Y-97725000D01*
X131285714Y-98582142D02*
X131142857Y-98653571D01*
X130785714Y-98653571D01*
X130642857Y-98582142D01*
X130571428Y-98439285D01*
X130571428Y-98296428D01*
X130642857Y-98153571D01*
X130785714Y-98082142D01*
X131142857Y-98082142D01*
X131285714Y-98010714D01*
X131785714Y-97653571D02*
X132357142Y-97653571D01*
X131999999Y-97153571D02*
X131999999Y-98439285D01*
X132071428Y-98582142D01*
X132214285Y-98653571D01*
X132357142Y-98653571D01*
X132642857Y-97653571D02*
X133214285Y-97653571D01*
X132857142Y-97153571D02*
X132857142Y-98439285D01*
X132928571Y-98582142D01*
X133071428Y-98653571D01*
X133214285Y-98653571D01*
X134285714Y-98582142D02*
X134142857Y-98653571D01*
X133857142Y-98653571D01*
X133714285Y-98582142D01*
X133642857Y-98439285D01*
X133642857Y-97867857D01*
X133714285Y-97725000D01*
X133857142Y-97653571D01*
X134142857Y-97653571D01*
X134285714Y-97725000D01*
X134357142Y-97867857D01*
X134357142Y-98010714D01*
X133642857Y-98153571D01*
X135000000Y-97653571D02*
X135000000Y-98653571D01*
X135000000Y-97796428D02*
X135071428Y-97725000D01*
X135214285Y-97653571D01*
X135428571Y-97653571D01*
X135571428Y-97725000D01*
X135642857Y-97867857D01*
X135642857Y-98653571D01*
X137000000Y-97653571D02*
X137000000Y-98653571D01*
X136357142Y-97653571D02*
X136357142Y-98439285D01*
X136428571Y-98582142D01*
X136571428Y-98653571D01*
X136785714Y-98653571D01*
X136928571Y-98582142D01*
X137000000Y-98510714D01*
X138357142Y-98653571D02*
X138357142Y-97867857D01*
X138285714Y-97725000D01*
X138142857Y-97653571D01*
X137857142Y-97653571D01*
X137714285Y-97725000D01*
X138357142Y-98582142D02*
X138214285Y-98653571D01*
X137857142Y-98653571D01*
X137714285Y-98582142D01*
X137642857Y-98439285D01*
X137642857Y-98296428D01*
X137714285Y-98153571D01*
X137857142Y-98082142D01*
X138214285Y-98082142D01*
X138357142Y-98010714D01*
X138857142Y-97653571D02*
X139428571Y-97653571D01*
X139071428Y-97153571D02*
X139071428Y-98439285D01*
X139142857Y-98582142D01*
X139285714Y-98653571D01*
X139428571Y-98653571D01*
X139928571Y-98653571D02*
X139928571Y-97653571D01*
X139928571Y-97153571D02*
X139857142Y-97225000D01*
X139928571Y-97296428D01*
X140000000Y-97225000D01*
X139928571Y-97153571D01*
X139928571Y-97296428D01*
X140857142Y-98653571D02*
X140714285Y-98582142D01*
X140642857Y-98510714D01*
X140571428Y-98367857D01*
X140571428Y-97939285D01*
X140642857Y-97796428D01*
X140714285Y-97725000D01*
X140857142Y-97653571D01*
X141071428Y-97653571D01*
X141214285Y-97725000D01*
X141285714Y-97796428D01*
X141357142Y-97939285D01*
X141357142Y-98367857D01*
X141285714Y-98510714D01*
X141214285Y-98582142D01*
X141071428Y-98653571D01*
X140857142Y-98653571D01*
X142000000Y-97653571D02*
X142000000Y-98653571D01*
X142000000Y-97796428D02*
X142071428Y-97725000D01*
X142214285Y-97653571D01*
X142428571Y-97653571D01*
X142571428Y-97725000D01*
X142642857Y-97867857D01*
X142642857Y-98653571D01*
X144714285Y-98653571D02*
X144571428Y-98582142D01*
X144500000Y-98510714D01*
X144428571Y-98367857D01*
X144428571Y-97939285D01*
X144500000Y-97796428D01*
X144571428Y-97725000D01*
X144714285Y-97653571D01*
X144928571Y-97653571D01*
X145071428Y-97725000D01*
X145142857Y-97796428D01*
X145214285Y-97939285D01*
X145214285Y-98367857D01*
X145142857Y-98510714D01*
X145071428Y-98582142D01*
X144928571Y-98653571D01*
X144714285Y-98653571D01*
X145857142Y-97653571D02*
X145857142Y-98653571D01*
X145857142Y-97796428D02*
X145928571Y-97725000D01*
X146071428Y-97653571D01*
X146285714Y-97653571D01*
X146428571Y-97725000D01*
X146500000Y-97867857D01*
X146500000Y-98653571D01*
X148357142Y-98653571D02*
X148357142Y-97153571D01*
X148357142Y-97725000D02*
X148500000Y-97653571D01*
X148785714Y-97653571D01*
X148928571Y-97725000D01*
X149000000Y-97796428D01*
X149071428Y-97939285D01*
X149071428Y-98367857D01*
X149000000Y-98510714D01*
X148928571Y-98582142D01*
X148785714Y-98653571D01*
X148500000Y-98653571D01*
X148357142Y-98582142D01*
X149928571Y-98653571D02*
X149785714Y-98582142D01*
X149714285Y-98510714D01*
X149642857Y-98367857D01*
X149642857Y-97939285D01*
X149714285Y-97796428D01*
X149785714Y-97725000D01*
X149928571Y-97653571D01*
X150142857Y-97653571D01*
X150285714Y-97725000D01*
X150357142Y-97796428D01*
X150428571Y-97939285D01*
X150428571Y-98367857D01*
X150357142Y-98510714D01*
X150285714Y-98582142D01*
X150142857Y-98653571D01*
X149928571Y-98653571D01*
X150857142Y-97653571D02*
X151428571Y-97653571D01*
X151071428Y-97153571D02*
X151071428Y-98439285D01*
X151142857Y-98582142D01*
X151285714Y-98653571D01*
X151428571Y-98653571D01*
X151928571Y-98653571D02*
X151928571Y-97153571D01*
X152571428Y-98653571D02*
X152571428Y-97867857D01*
X152500000Y-97725000D01*
X152357142Y-97653571D01*
X152142857Y-97653571D01*
X152000000Y-97725000D01*
X151928571Y-97796428D01*
X154642857Y-98653571D02*
X154500000Y-98582142D01*
X154428571Y-98510714D01*
X154357142Y-98367857D01*
X154357142Y-97939285D01*
X154428571Y-97796428D01*
X154500000Y-97725000D01*
X154642857Y-97653571D01*
X154857142Y-97653571D01*
X155000000Y-97725000D01*
X155071428Y-97796428D01*
X155142857Y-97939285D01*
X155142857Y-98367857D01*
X155071428Y-98510714D01*
X155000000Y-98582142D01*
X154857142Y-98653571D01*
X154642857Y-98653571D01*
X156428571Y-97653571D02*
X156428571Y-98653571D01*
X155785714Y-97653571D02*
X155785714Y-98439285D01*
X155857142Y-98582142D01*
X156000000Y-98653571D01*
X156214285Y-98653571D01*
X156357142Y-98582142D01*
X156428571Y-98510714D01*
X156928571Y-97653571D02*
X157500000Y-97653571D01*
X157142857Y-97153571D02*
X157142857Y-98439285D01*
X157214285Y-98582142D01*
X157357142Y-98653571D01*
X157500000Y-98653571D01*
X158000000Y-97653571D02*
X158000000Y-99153571D01*
X158000000Y-97725000D02*
X158142857Y-97653571D01*
X158428571Y-97653571D01*
X158571428Y-97725000D01*
X158642857Y-97796428D01*
X158714285Y-97939285D01*
X158714285Y-98367857D01*
X158642857Y-98510714D01*
X158571428Y-98582142D01*
X158428571Y-98653571D01*
X158142857Y-98653571D01*
X158000000Y-98582142D01*
X160000000Y-97653571D02*
X160000000Y-98653571D01*
X159357142Y-97653571D02*
X159357142Y-98439285D01*
X159428571Y-98582142D01*
X159571428Y-98653571D01*
X159785714Y-98653571D01*
X159928571Y-98582142D01*
X160000000Y-98510714D01*
X160500000Y-97653571D02*
X161071428Y-97653571D01*
X160714285Y-97153571D02*
X160714285Y-98439285D01*
X160785714Y-98582142D01*
X160928571Y-98653571D01*
X161071428Y-98653571D01*
X161500000Y-98582142D02*
X161642857Y-98653571D01*
X161928571Y-98653571D01*
X162071428Y-98582142D01*
X162142857Y-98439285D01*
X162142857Y-98367857D01*
X162071428Y-98225000D01*
X161928571Y-98153571D01*
X161714285Y-98153571D01*
X161571428Y-98082142D01*
X161500000Y-97939285D01*
X161500000Y-97867857D01*
X161571428Y-97725000D01*
X161714285Y-97653571D01*
X161928571Y-97653571D01*
X162071428Y-97725000D01*
X128892857Y-99703571D02*
X129750000Y-99703571D01*
X129321428Y-101203571D02*
X129321428Y-99703571D01*
X130821428Y-101132142D02*
X130678571Y-101203571D01*
X130392857Y-101203571D01*
X130250000Y-101132142D01*
X130178571Y-100989285D01*
X130178571Y-100417857D01*
X130250000Y-100275000D01*
X130392857Y-100203571D01*
X130678571Y-100203571D01*
X130821428Y-100275000D01*
X130892857Y-100417857D01*
X130892857Y-100560714D01*
X130178571Y-100703571D01*
X131535714Y-101203571D02*
X131535714Y-100203571D01*
X131535714Y-100489285D02*
X131607142Y-100346428D01*
X131678571Y-100275000D01*
X131821428Y-100203571D01*
X131964285Y-100203571D01*
X132464285Y-101203571D02*
X132464285Y-100203571D01*
X132464285Y-100346428D02*
X132535714Y-100275000D01*
X132678571Y-100203571D01*
X132892857Y-100203571D01*
X133035714Y-100275000D01*
X133107142Y-100417857D01*
X133107142Y-101203571D01*
X133107142Y-100417857D02*
X133178571Y-100275000D01*
X133321428Y-100203571D01*
X133535714Y-100203571D01*
X133678571Y-100275000D01*
X133750000Y-100417857D01*
X133750000Y-101203571D01*
X134464285Y-101203571D02*
X134464285Y-100203571D01*
X134464285Y-99703571D02*
X134392857Y-99775000D01*
X134464285Y-99846428D01*
X134535714Y-99775000D01*
X134464285Y-99703571D01*
X134464285Y-99846428D01*
X135178571Y-100203571D02*
X135178571Y-101203571D01*
X135178571Y-100346428D02*
X135250000Y-100275000D01*
X135392857Y-100203571D01*
X135607142Y-100203571D01*
X135750000Y-100275000D01*
X135821428Y-100417857D01*
X135821428Y-101203571D01*
X137178571Y-101203571D02*
X137178571Y-100417857D01*
X137107142Y-100275000D01*
X136964285Y-100203571D01*
X136678571Y-100203571D01*
X136535714Y-100275000D01*
X137178571Y-101132142D02*
X137035714Y-101203571D01*
X136678571Y-101203571D01*
X136535714Y-101132142D01*
X136464285Y-100989285D01*
X136464285Y-100846428D01*
X136535714Y-100703571D01*
X136678571Y-100632142D01*
X137035714Y-100632142D01*
X137178571Y-100560714D01*
X137678571Y-100203571D02*
X138250000Y-100203571D01*
X137892857Y-99703571D02*
X137892857Y-100989285D01*
X137964285Y-101132142D01*
X138107142Y-101203571D01*
X138250000Y-101203571D01*
X139321428Y-101132142D02*
X139178571Y-101203571D01*
X138892857Y-101203571D01*
X138750000Y-101132142D01*
X138678571Y-100989285D01*
X138678571Y-100417857D01*
X138750000Y-100275000D01*
X138892857Y-100203571D01*
X139178571Y-100203571D01*
X139321428Y-100275000D01*
X139392857Y-100417857D01*
X139392857Y-100560714D01*
X138678571Y-100703571D01*
X141821428Y-100203571D02*
X141821428Y-101203571D01*
X141178571Y-100203571D02*
X141178571Y-100989285D01*
X141250000Y-101132142D01*
X141392857Y-101203571D01*
X141607142Y-101203571D01*
X141750000Y-101132142D01*
X141821428Y-101060714D01*
X142535714Y-100203571D02*
X142535714Y-101203571D01*
X142535714Y-100346428D02*
X142607142Y-100275000D01*
X142750000Y-100203571D01*
X142964285Y-100203571D01*
X143107142Y-100275000D01*
X143178571Y-100417857D01*
X143178571Y-101203571D01*
X144535714Y-100203571D02*
X144535714Y-101203571D01*
X143892857Y-100203571D02*
X143892857Y-100989285D01*
X143964285Y-101132142D01*
X144107142Y-101203571D01*
X144321428Y-101203571D01*
X144464285Y-101132142D01*
X144535714Y-101060714D01*
X145178571Y-101132142D02*
X145321428Y-101203571D01*
X145607142Y-101203571D01*
X145750000Y-101132142D01*
X145821428Y-100989285D01*
X145821428Y-100917857D01*
X145750000Y-100775000D01*
X145607142Y-100703571D01*
X145392857Y-100703571D01*
X145250000Y-100632142D01*
X145178571Y-100489285D01*
X145178571Y-100417857D01*
X145250000Y-100275000D01*
X145392857Y-100203571D01*
X145607142Y-100203571D01*
X145750000Y-100275000D01*
X147035714Y-101132142D02*
X146892857Y-101203571D01*
X146607142Y-101203571D01*
X146464285Y-101132142D01*
X146392857Y-100989285D01*
X146392857Y-100417857D01*
X146464285Y-100275000D01*
X146607142Y-100203571D01*
X146892857Y-100203571D01*
X147035714Y-100275000D01*
X147107142Y-100417857D01*
X147107142Y-100560714D01*
X146392857Y-100703571D01*
X148392857Y-101203571D02*
X148392857Y-99703571D01*
X148392857Y-101132142D02*
X148250000Y-101203571D01*
X147964285Y-101203571D01*
X147821428Y-101132142D01*
X147750000Y-101060714D01*
X147678571Y-100917857D01*
X147678571Y-100489285D01*
X147750000Y-100346428D01*
X147821428Y-100275000D01*
X147964285Y-100203571D01*
X148250000Y-100203571D01*
X148392857Y-100275000D01*
X150464285Y-101203571D02*
X150321428Y-101132142D01*
X150250000Y-101060714D01*
X150178571Y-100917857D01*
X150178571Y-100489285D01*
X150250000Y-100346428D01*
X150321428Y-100275000D01*
X150464285Y-100203571D01*
X150678571Y-100203571D01*
X150821428Y-100275000D01*
X150892857Y-100346428D01*
X150964285Y-100489285D01*
X150964285Y-100917857D01*
X150892857Y-101060714D01*
X150821428Y-101132142D01*
X150678571Y-101203571D01*
X150464285Y-101203571D01*
X152250000Y-100203571D02*
X152250000Y-101203571D01*
X151607142Y-100203571D02*
X151607142Y-100989285D01*
X151678571Y-101132142D01*
X151821428Y-101203571D01*
X152035714Y-101203571D01*
X152178571Y-101132142D01*
X152250000Y-101060714D01*
X152750000Y-100203571D02*
X153321428Y-100203571D01*
X152964285Y-99703571D02*
X152964285Y-100989285D01*
X153035714Y-101132142D01*
X153178571Y-101203571D01*
X153321428Y-101203571D01*
X153821428Y-100203571D02*
X153821428Y-101703571D01*
X153821428Y-100275000D02*
X153964285Y-100203571D01*
X154250000Y-100203571D01*
X154392857Y-100275000D01*
X154464285Y-100346428D01*
X154535714Y-100489285D01*
X154535714Y-100917857D01*
X154464285Y-101060714D01*
X154392857Y-101132142D01*
X154250000Y-101203571D01*
X153964285Y-101203571D01*
X153821428Y-101132142D01*
X155821428Y-100203571D02*
X155821428Y-101203571D01*
X155178571Y-100203571D02*
X155178571Y-100989285D01*
X155250000Y-101132142D01*
X155392857Y-101203571D01*
X155607142Y-101203571D01*
X155750000Y-101132142D01*
X155821428Y-101060714D01*
X156321428Y-100203571D02*
X156892857Y-100203571D01*
X156535714Y-99703571D02*
X156535714Y-100989285D01*
X156607142Y-101132142D01*
X156750000Y-101203571D01*
X156892857Y-101203571D01*
X157321428Y-101132142D02*
X157464285Y-101203571D01*
X157750000Y-101203571D01*
X157892857Y-101132142D01*
X157964285Y-100989285D01*
X157964285Y-100917857D01*
X157892857Y-100775000D01*
X157750000Y-100703571D01*
X157535714Y-100703571D01*
X157392857Y-100632142D01*
X157321428Y-100489285D01*
X157321428Y-100417857D01*
X157392857Y-100275000D01*
X157535714Y-100203571D01*
X157750000Y-100203571D01*
X157892857Y-100275000D01*
X148499999Y-78260714D02*
X148428571Y-78332142D01*
X148214285Y-78403571D01*
X148071428Y-78403571D01*
X147857142Y-78332142D01*
X147714285Y-78189285D01*
X147642857Y-78046428D01*
X147571428Y-77760714D01*
X147571428Y-77546428D01*
X147642857Y-77260714D01*
X147714285Y-77117857D01*
X147857142Y-76975000D01*
X148071428Y-76903571D01*
X148214285Y-76903571D01*
X148428571Y-76975000D01*
X148499999Y-77046428D01*
X149357142Y-78403571D02*
X149214285Y-78332142D01*
X149142857Y-78260714D01*
X149071428Y-78117857D01*
X149071428Y-77689285D01*
X149142857Y-77546428D01*
X149214285Y-77475000D01*
X149357142Y-77403571D01*
X149571428Y-77403571D01*
X149714285Y-77475000D01*
X149785714Y-77546428D01*
X149857142Y-77689285D01*
X149857142Y-78117857D01*
X149785714Y-78260714D01*
X149714285Y-78332142D01*
X149571428Y-78403571D01*
X149357142Y-78403571D01*
X150499999Y-78403571D02*
X150499999Y-77403571D01*
X150499999Y-77546428D02*
X150571428Y-77475000D01*
X150714285Y-77403571D01*
X150928571Y-77403571D01*
X151071428Y-77475000D01*
X151142857Y-77617857D01*
X151142857Y-78403571D01*
X151142857Y-77617857D02*
X151214285Y-77475000D01*
X151357142Y-77403571D01*
X151571428Y-77403571D01*
X151714285Y-77475000D01*
X151785714Y-77617857D01*
X151785714Y-78403571D01*
X152499999Y-78403571D02*
X152499999Y-77403571D01*
X152499999Y-77546428D02*
X152571428Y-77475000D01*
X152714285Y-77403571D01*
X152928571Y-77403571D01*
X153071428Y-77475000D01*
X153142857Y-77617857D01*
X153142857Y-78403571D01*
X153142857Y-77617857D02*
X153214285Y-77475000D01*
X153357142Y-77403571D01*
X153571428Y-77403571D01*
X153714285Y-77475000D01*
X153785714Y-77617857D01*
X153785714Y-78403571D01*
X154714285Y-78403571D02*
X154571428Y-78332142D01*
X154499999Y-78260714D01*
X154428571Y-78117857D01*
X154428571Y-77689285D01*
X154499999Y-77546428D01*
X154571428Y-77475000D01*
X154714285Y-77403571D01*
X154928571Y-77403571D01*
X155071428Y-77475000D01*
X155142857Y-77546428D01*
X155214285Y-77689285D01*
X155214285Y-78117857D01*
X155142857Y-78260714D01*
X155071428Y-78332142D01*
X154928571Y-78403571D01*
X154714285Y-78403571D01*
X155857142Y-77403571D02*
X155857142Y-78403571D01*
X155857142Y-77546428D02*
X155928571Y-77475000D01*
X156071428Y-77403571D01*
X156285714Y-77403571D01*
X156428571Y-77475000D01*
X156499999Y-77617857D01*
X156499999Y-78403571D01*
X158357142Y-78403571D02*
X158357142Y-76903571D01*
X158857142Y-77975000D01*
X159357142Y-76903571D01*
X159357142Y-78403571D01*
X160285714Y-78403571D02*
X160142857Y-78332142D01*
X160071428Y-78260714D01*
X159999999Y-78117857D01*
X159999999Y-77689285D01*
X160071428Y-77546428D01*
X160142857Y-77475000D01*
X160285714Y-77403571D01*
X160499999Y-77403571D01*
X160642857Y-77475000D01*
X160714285Y-77546428D01*
X160785714Y-77689285D01*
X160785714Y-78117857D01*
X160714285Y-78260714D01*
X160642857Y-78332142D01*
X160499999Y-78403571D01*
X160285714Y-78403571D01*
X162071428Y-78403571D02*
X162071428Y-76903571D01*
X162071428Y-78332142D02*
X161928571Y-78403571D01*
X161642857Y-78403571D01*
X161499999Y-78332142D01*
X161428571Y-78260714D01*
X161357142Y-78117857D01*
X161357142Y-77689285D01*
X161428571Y-77546428D01*
X161499999Y-77475000D01*
X161642857Y-77403571D01*
X161928571Y-77403571D01*
X162071428Y-77475000D01*
X163357142Y-78332142D02*
X163214285Y-78403571D01*
X162928571Y-78403571D01*
X162785714Y-78332142D01*
X162714285Y-78189285D01*
X162714285Y-77617857D01*
X162785714Y-77475000D01*
X162928571Y-77403571D01*
X163214285Y-77403571D01*
X163357142Y-77475000D01*
X163428571Y-77617857D01*
X163428571Y-77760714D01*
X162714285Y-77903571D01*
X152464285Y-79453571D02*
X152750000Y-79453571D01*
X152892857Y-79525000D01*
X153035714Y-79667857D01*
X153107142Y-79953571D01*
X153107142Y-80453571D01*
X153035714Y-80739285D01*
X152892857Y-80882142D01*
X152750000Y-80953571D01*
X152464285Y-80953571D01*
X152321428Y-80882142D01*
X152178571Y-80739285D01*
X152107142Y-80453571D01*
X152107142Y-79953571D01*
X152178571Y-79667857D01*
X152321428Y-79525000D01*
X152464285Y-79453571D01*
X154392857Y-79953571D02*
X154392857Y-80953571D01*
X153750000Y-79953571D02*
X153750000Y-80739285D01*
X153821428Y-80882142D01*
X153964285Y-80953571D01*
X154178571Y-80953571D01*
X154321428Y-80882142D01*
X154392857Y-80810714D01*
X154892857Y-79953571D02*
X155464285Y-79953571D01*
X155107142Y-79453571D02*
X155107142Y-80739285D01*
X155178571Y-80882142D01*
X155321428Y-80953571D01*
X155464285Y-80953571D01*
X155964285Y-79953571D02*
X155964285Y-81453571D01*
X155964285Y-80025000D02*
X156107142Y-79953571D01*
X156392857Y-79953571D01*
X156535714Y-80025000D01*
X156607142Y-80096428D01*
X156678571Y-80239285D01*
X156678571Y-80667857D01*
X156607142Y-80810714D01*
X156535714Y-80882142D01*
X156392857Y-80953571D01*
X156107142Y-80953571D01*
X155964285Y-80882142D01*
X157964285Y-79953571D02*
X157964285Y-80953571D01*
X157321428Y-79953571D02*
X157321428Y-80739285D01*
X157392857Y-80882142D01*
X157535714Y-80953571D01*
X157750000Y-80953571D01*
X157892857Y-80882142D01*
X157964285Y-80810714D01*
X158464285Y-79953571D02*
X159035714Y-79953571D01*
X158678571Y-79453571D02*
X158678571Y-80739285D01*
X158750000Y-80882142D01*
X158892857Y-80953571D01*
X159035714Y-80953571D01*
X125607142Y-78153571D02*
X125607142Y-76653571D01*
X125964285Y-76653571D01*
X126178571Y-76725000D01*
X126321428Y-76867857D01*
X126392857Y-77010714D01*
X126464285Y-77296428D01*
X126464285Y-77510714D01*
X126392857Y-77796428D01*
X126321428Y-77939285D01*
X126178571Y-78082142D01*
X125964285Y-78153571D01*
X125607142Y-78153571D01*
X127107142Y-78153571D02*
X127107142Y-77153571D01*
X127107142Y-76653571D02*
X127035714Y-76725000D01*
X127107142Y-76796428D01*
X127178571Y-76725000D01*
X127107142Y-76653571D01*
X127107142Y-76796428D01*
X127607142Y-77153571D02*
X128178571Y-77153571D01*
X127821428Y-78153571D02*
X127821428Y-76867857D01*
X127892857Y-76725000D01*
X128035714Y-76653571D01*
X128178571Y-76653571D01*
X128464285Y-77153571D02*
X129035714Y-77153571D01*
X128678571Y-78153571D02*
X128678571Y-76867857D01*
X128750000Y-76725000D01*
X128892857Y-76653571D01*
X129035714Y-76653571D01*
X130107142Y-78082142D02*
X129964285Y-78153571D01*
X129678571Y-78153571D01*
X129535714Y-78082142D01*
X129464285Y-77939285D01*
X129464285Y-77367857D01*
X129535714Y-77225000D01*
X129678571Y-77153571D01*
X129964285Y-77153571D01*
X130107142Y-77225000D01*
X130178571Y-77367857D01*
X130178571Y-77510714D01*
X129464285Y-77653571D01*
X130821428Y-78153571D02*
X130821428Y-77153571D01*
X130821428Y-77439285D02*
X130892857Y-77296428D01*
X130964285Y-77225000D01*
X131107142Y-77153571D01*
X131250000Y-77153571D01*
X132321428Y-78082142D02*
X132178571Y-78153571D01*
X131892857Y-78153571D01*
X131750000Y-78082142D01*
X131678571Y-77939285D01*
X131678571Y-77367857D01*
X131750000Y-77225000D01*
X131892857Y-77153571D01*
X132178571Y-77153571D01*
X132321428Y-77225000D01*
X132392857Y-77367857D01*
X132392857Y-77510714D01*
X131678571Y-77653571D01*
X133035714Y-77153571D02*
X133035714Y-78153571D01*
X133035714Y-77296428D02*
X133107142Y-77225000D01*
X133250000Y-77153571D01*
X133464285Y-77153571D01*
X133607142Y-77225000D01*
X133678571Y-77367857D01*
X133678571Y-78153571D01*
X134178571Y-77153571D02*
X134750000Y-77153571D01*
X134392857Y-76653571D02*
X134392857Y-77939285D01*
X134464285Y-78082142D01*
X134607142Y-78153571D01*
X134750000Y-78153571D01*
X135250000Y-78153571D02*
X135250000Y-77153571D01*
X135250000Y-76653571D02*
X135178571Y-76725000D01*
X135250000Y-76796428D01*
X135321428Y-76725000D01*
X135250000Y-76653571D01*
X135250000Y-76796428D01*
X136607142Y-78153571D02*
X136607142Y-77367857D01*
X136535714Y-77225000D01*
X136392857Y-77153571D01*
X136107142Y-77153571D01*
X135964285Y-77225000D01*
X136607142Y-78082142D02*
X136464285Y-78153571D01*
X136107142Y-78153571D01*
X135964285Y-78082142D01*
X135892857Y-77939285D01*
X135892857Y-77796428D01*
X135964285Y-77653571D01*
X136107142Y-77582142D01*
X136464285Y-77582142D01*
X136607142Y-77510714D01*
X137535714Y-78153571D02*
X137392857Y-78082142D01*
X137321428Y-77939285D01*
X137321428Y-76653571D01*
X124750000Y-80703571D02*
X124750000Y-79203571D01*
X125250000Y-80275000D01*
X125750000Y-79203571D01*
X125750000Y-80703571D01*
X126678571Y-80703571D02*
X126535714Y-80632142D01*
X126464285Y-80560714D01*
X126392857Y-80417857D01*
X126392857Y-79989285D01*
X126464285Y-79846428D01*
X126535714Y-79775000D01*
X126678571Y-79703571D01*
X126892857Y-79703571D01*
X127035714Y-79775000D01*
X127107142Y-79846428D01*
X127178571Y-79989285D01*
X127178571Y-80417857D01*
X127107142Y-80560714D01*
X127035714Y-80632142D01*
X126892857Y-80703571D01*
X126678571Y-80703571D01*
X128464285Y-80703571D02*
X128464285Y-79203571D01*
X128464285Y-80632142D02*
X128321428Y-80703571D01*
X128035714Y-80703571D01*
X127892857Y-80632142D01*
X127821428Y-80560714D01*
X127750000Y-80417857D01*
X127750000Y-79989285D01*
X127821428Y-79846428D01*
X127892857Y-79775000D01*
X128035714Y-79703571D01*
X128321428Y-79703571D01*
X128464285Y-79775000D01*
X129750000Y-80632142D02*
X129607142Y-80703571D01*
X129321428Y-80703571D01*
X129178571Y-80632142D01*
X129107142Y-80489285D01*
X129107142Y-79917857D01*
X129178571Y-79775000D01*
X129321428Y-79703571D01*
X129607142Y-79703571D01*
X129750000Y-79775000D01*
X129821428Y-79917857D01*
X129821428Y-80060714D01*
X129107142Y-80203571D01*
X131892857Y-79203571D02*
X132178571Y-79203571D01*
X132321428Y-79275000D01*
X132464285Y-79417857D01*
X132535714Y-79703571D01*
X132535714Y-80203571D01*
X132464285Y-80489285D01*
X132321428Y-80632142D01*
X132178571Y-80703571D01*
X131892857Y-80703571D01*
X131750000Y-80632142D01*
X131607142Y-80489285D01*
X131535714Y-80203571D01*
X131535714Y-79703571D01*
X131607142Y-79417857D01*
X131750000Y-79275000D01*
X131892857Y-79203571D01*
X133821428Y-79703571D02*
X133821428Y-80703571D01*
X133178571Y-79703571D02*
X133178571Y-80489285D01*
X133250000Y-80632142D01*
X133392857Y-80703571D01*
X133607142Y-80703571D01*
X133750000Y-80632142D01*
X133821428Y-80560714D01*
X134321428Y-79703571D02*
X134892857Y-79703571D01*
X134535714Y-79203571D02*
X134535714Y-80489285D01*
X134607142Y-80632142D01*
X134750000Y-80703571D01*
X134892857Y-80703571D01*
X135392857Y-79703571D02*
X135392857Y-81203571D01*
X135392857Y-79775000D02*
X135535714Y-79703571D01*
X135821428Y-79703571D01*
X135964285Y-79775000D01*
X136035714Y-79846428D01*
X136107142Y-79989285D01*
X136107142Y-80417857D01*
X136035714Y-80560714D01*
X135964285Y-80632142D01*
X135821428Y-80703571D01*
X135535714Y-80703571D01*
X135392857Y-80632142D01*
X137392857Y-79703571D02*
X137392857Y-80703571D01*
X136750000Y-79703571D02*
X136750000Y-80489285D01*
X136821428Y-80632142D01*
X136964285Y-80703571D01*
X137178571Y-80703571D01*
X137321428Y-80632142D01*
X137392857Y-80560714D01*
X137892857Y-79703571D02*
X138464285Y-79703571D01*
X138107142Y-79203571D02*
X138107142Y-80489285D01*
X138178571Y-80632142D01*
X138321428Y-80703571D01*
X138464285Y-80703571D01*
D13*
%TO.C,G\u002A\u002A\u002A*%
G36*
X189776443Y-78672612D02*
G01*
X189845741Y-78680281D01*
X189905074Y-78695186D01*
X189939334Y-78707731D01*
X190078903Y-78781179D01*
X190197007Y-78880249D01*
X190291346Y-79002643D01*
X190348669Y-79117066D01*
X190374063Y-79209428D01*
X190386686Y-79319442D01*
X190386463Y-79434437D01*
X190373319Y-79541746D01*
X190351636Y-79618192D01*
X190279377Y-79757062D01*
X190183325Y-79875431D01*
X190067052Y-79969673D01*
X189943602Y-80032600D01*
X189824691Y-80064800D01*
X189694450Y-80077444D01*
X189566380Y-80070063D01*
X189473025Y-80048927D01*
X189334957Y-79986545D01*
X189212396Y-79896764D01*
X189110340Y-79784277D01*
X189033789Y-79653780D01*
X189021635Y-79625066D01*
X188995285Y-79527476D01*
X188983248Y-79412433D01*
X188985515Y-79292972D01*
X189002075Y-79182128D01*
X189021999Y-79117066D01*
X189095446Y-78977497D01*
X189194516Y-78859393D01*
X189316910Y-78765054D01*
X189431334Y-78707731D01*
X189490304Y-78687868D01*
X189552417Y-78676245D01*
X189629520Y-78671121D01*
X189685334Y-78670443D01*
X189776443Y-78672612D01*
G37*
X189776443Y-78672612D02*
X189845741Y-78680281D01*
X189905074Y-78695186D01*
X189939334Y-78707731D01*
X190078903Y-78781179D01*
X190197007Y-78880249D01*
X190291346Y-79002643D01*
X190348669Y-79117066D01*
X190374063Y-79209428D01*
X190386686Y-79319442D01*
X190386463Y-79434437D01*
X190373319Y-79541746D01*
X190351636Y-79618192D01*
X190279377Y-79757062D01*
X190183325Y-79875431D01*
X190067052Y-79969673D01*
X189943602Y-80032600D01*
X189824691Y-80064800D01*
X189694450Y-80077444D01*
X189566380Y-80070063D01*
X189473025Y-80048927D01*
X189334957Y-79986545D01*
X189212396Y-79896764D01*
X189110340Y-79784277D01*
X189033789Y-79653780D01*
X189021635Y-79625066D01*
X188995285Y-79527476D01*
X188983248Y-79412433D01*
X188985515Y-79292972D01*
X189002075Y-79182128D01*
X189021999Y-79117066D01*
X189095446Y-78977497D01*
X189194516Y-78859393D01*
X189316910Y-78765054D01*
X189431334Y-78707731D01*
X189490304Y-78687868D01*
X189552417Y-78676245D01*
X189629520Y-78671121D01*
X189685334Y-78670443D01*
X189776443Y-78672612D01*
G36*
X187195608Y-78672989D02*
G01*
X187238467Y-78682885D01*
X187381514Y-78737694D01*
X187509714Y-78819903D01*
X187618028Y-78925417D01*
X187701414Y-79050141D01*
X187708927Y-79065019D01*
X187732632Y-79115442D01*
X187748237Y-79157296D01*
X187757427Y-79200051D01*
X187761888Y-79253177D01*
X187763306Y-79326144D01*
X187763400Y-79371066D01*
X187762664Y-79458737D01*
X187759484Y-79521854D01*
X187752402Y-79569718D01*
X187739961Y-79611628D01*
X187720702Y-79656884D01*
X187717529Y-79663695D01*
X187646293Y-79780433D01*
X187550055Y-79886684D01*
X187437632Y-79973712D01*
X187363767Y-80014139D01*
X187235143Y-80057830D01*
X187096424Y-80077934D01*
X186959468Y-80073406D01*
X186877523Y-80056905D01*
X186738158Y-80001024D01*
X186616897Y-79919014D01*
X186516277Y-79814825D01*
X186438838Y-79692407D01*
X186387118Y-79555711D01*
X186363656Y-79408685D01*
X186369395Y-79266335D01*
X186404664Y-79125774D01*
X186467678Y-78998601D01*
X186554280Y-78887607D01*
X186660312Y-78795581D01*
X186781618Y-78725316D01*
X186914041Y-78679602D01*
X187053423Y-78661229D01*
X187195608Y-78672989D01*
G37*
X187195608Y-78672989D02*
X187238467Y-78682885D01*
X187381514Y-78737694D01*
X187509714Y-78819903D01*
X187618028Y-78925417D01*
X187701414Y-79050141D01*
X187708927Y-79065019D01*
X187732632Y-79115442D01*
X187748237Y-79157296D01*
X187757427Y-79200051D01*
X187761888Y-79253177D01*
X187763306Y-79326144D01*
X187763400Y-79371066D01*
X187762664Y-79458737D01*
X187759484Y-79521854D01*
X187752402Y-79569718D01*
X187739961Y-79611628D01*
X187720702Y-79656884D01*
X187717529Y-79663695D01*
X187646293Y-79780433D01*
X187550055Y-79886684D01*
X187437632Y-79973712D01*
X187363767Y-80014139D01*
X187235143Y-80057830D01*
X187096424Y-80077934D01*
X186959468Y-80073406D01*
X186877523Y-80056905D01*
X186738158Y-80001024D01*
X186616897Y-79919014D01*
X186516277Y-79814825D01*
X186438838Y-79692407D01*
X186387118Y-79555711D01*
X186363656Y-79408685D01*
X186369395Y-79266335D01*
X186404664Y-79125774D01*
X186467678Y-78998601D01*
X186554280Y-78887607D01*
X186660312Y-78795581D01*
X186781618Y-78725316D01*
X186914041Y-78679602D01*
X187053423Y-78661229D01*
X187195608Y-78672989D01*
G36*
X192878805Y-80576248D02*
G01*
X192970904Y-80579192D01*
X192995801Y-80580112D01*
X193291700Y-80605092D01*
X193567169Y-80657071D01*
X193822058Y-80735926D01*
X194056218Y-80841534D01*
X194269499Y-80973771D01*
X194461752Y-81132515D01*
X194632829Y-81317643D01*
X194782579Y-81529031D01*
X194910854Y-81766556D01*
X195017505Y-82030096D01*
X195101877Y-82317466D01*
X195134150Y-82457330D01*
X195160098Y-82590345D01*
X195180688Y-82724137D01*
X195196884Y-82866333D01*
X195209653Y-83024560D01*
X195219960Y-83206444D01*
X195223039Y-83274200D01*
X195232133Y-83465678D01*
X195241722Y-83627029D01*
X195252193Y-83761994D01*
X195263935Y-83874311D01*
X195277336Y-83967722D01*
X195292784Y-84045964D01*
X195309764Y-84109832D01*
X195376265Y-84275756D01*
X195468451Y-84425825D01*
X195582789Y-84555523D01*
X195715747Y-84660333D01*
X195762105Y-84688133D01*
X195875335Y-84753917D01*
X195961954Y-84810980D01*
X196026909Y-84862890D01*
X196075147Y-84913216D01*
X196076502Y-84914880D01*
X196128467Y-84979025D01*
X196133905Y-85251315D01*
X196134238Y-85390886D01*
X196127181Y-85502365D01*
X196109964Y-85591214D01*
X196079816Y-85662891D01*
X196033968Y-85722855D01*
X195969650Y-85776566D01*
X195884091Y-85829484D01*
X195824207Y-85861671D01*
X195704663Y-85936333D01*
X195590350Y-86030681D01*
X195490460Y-86136094D01*
X195414183Y-86243952D01*
X195411420Y-86248783D01*
X195367433Y-86333197D01*
X195330982Y-86419553D01*
X195301225Y-86512334D01*
X195277316Y-86616023D01*
X195258415Y-86735104D01*
X195243675Y-86874058D01*
X195232255Y-87037370D01*
X195223310Y-87229523D01*
X195222415Y-87253330D01*
X195215066Y-87418663D01*
X195205671Y-87576023D01*
X195194743Y-87718554D01*
X195182792Y-87839401D01*
X195173129Y-87913933D01*
X195112798Y-88232678D01*
X195031436Y-88524908D01*
X194928923Y-88790748D01*
X194805141Y-89030322D01*
X194659971Y-89243753D01*
X194493294Y-89431167D01*
X194304991Y-89592687D01*
X194094942Y-89728437D01*
X193863028Y-89838543D01*
X193609131Y-89923128D01*
X193333131Y-89982317D01*
X193170035Y-90004289D01*
X193012418Y-90018136D01*
X192885685Y-90021983D01*
X192788349Y-90015788D01*
X192718925Y-89999510D01*
X192700511Y-89991191D01*
X192664345Y-89969508D01*
X192636262Y-89945042D01*
X192615253Y-89913439D01*
X192600307Y-89870343D01*
X192590414Y-89811397D01*
X192584562Y-89732245D01*
X192581742Y-89628532D01*
X192580942Y-89495902D01*
X192580934Y-89475753D01*
X192581443Y-89328698D01*
X192584424Y-89211738D01*
X192592057Y-89121104D01*
X192606522Y-89053025D01*
X192629999Y-89003731D01*
X192664667Y-88969452D01*
X192712707Y-88946418D01*
X192776299Y-88930860D01*
X192857622Y-88919007D01*
X192906207Y-88913222D01*
X193092033Y-88884633D01*
X193249978Y-88844374D01*
X193384602Y-88790505D01*
X193500463Y-88721087D01*
X193602120Y-88634181D01*
X193629567Y-88605460D01*
X193698671Y-88522157D01*
X193758906Y-88431365D01*
X193810919Y-88330288D01*
X193855356Y-88216133D01*
X193892865Y-88086106D01*
X193924093Y-87937412D01*
X193949685Y-87767256D01*
X193970289Y-87572845D01*
X193986552Y-87351383D01*
X193999120Y-87100078D01*
X194003241Y-86991066D01*
X194009962Y-86820632D01*
X194017327Y-86679873D01*
X194025664Y-86564599D01*
X194035298Y-86470621D01*
X194046557Y-86393748D01*
X194052054Y-86364533D01*
X194113216Y-86125946D01*
X194194767Y-85912612D01*
X194296306Y-85725204D01*
X194417433Y-85564397D01*
X194557746Y-85430863D01*
X194645966Y-85367333D01*
X194750724Y-85299625D01*
X194677596Y-85253590D01*
X194520916Y-85135470D01*
X194384564Y-84991050D01*
X194268362Y-84820033D01*
X194172132Y-84622124D01*
X194095697Y-84397028D01*
X194052142Y-84214601D01*
X194039915Y-84142367D01*
X194029422Y-84053803D01*
X194020345Y-83944869D01*
X194012369Y-83811525D01*
X194005173Y-83649731D01*
X194002846Y-83587466D01*
X193991238Y-83324634D01*
X193976075Y-83092733D01*
X193956780Y-82888959D01*
X193932781Y-82710507D01*
X193903501Y-82554572D01*
X193868367Y-82418351D01*
X193826803Y-82299039D01*
X193778236Y-82193832D01*
X193722089Y-82099925D01*
X193688346Y-82052835D01*
X193589922Y-81941813D01*
X193477838Y-81851868D01*
X193348209Y-81781124D01*
X193197147Y-81727703D01*
X193020764Y-81689726D01*
X192903837Y-81673869D01*
X192796597Y-81657523D01*
X192717461Y-81634213D01*
X192660944Y-81601299D01*
X192621561Y-81556137D01*
X192608137Y-81531473D01*
X192598684Y-81505900D01*
X192591616Y-81471311D01*
X192586620Y-81422955D01*
X192583386Y-81356080D01*
X192581601Y-81265936D01*
X192580954Y-81147771D01*
X192580934Y-81116330D01*
X192581573Y-80980201D01*
X192584096Y-80873503D01*
X192589412Y-80791814D01*
X192598429Y-80730712D01*
X192612055Y-80685776D01*
X192631200Y-80652583D01*
X192656771Y-80626712D01*
X192685748Y-80606213D01*
X192709550Y-80592506D01*
X192734502Y-80583183D01*
X192766859Y-80577716D01*
X192812874Y-80575580D01*
X192878805Y-80576248D01*
G37*
X192878805Y-80576248D02*
X192970904Y-80579192D01*
X192995801Y-80580112D01*
X193291700Y-80605092D01*
X193567169Y-80657071D01*
X193822058Y-80735926D01*
X194056218Y-80841534D01*
X194269499Y-80973771D01*
X194461752Y-81132515D01*
X194632829Y-81317643D01*
X194782579Y-81529031D01*
X194910854Y-81766556D01*
X195017505Y-82030096D01*
X195101877Y-82317466D01*
X195134150Y-82457330D01*
X195160098Y-82590345D01*
X195180688Y-82724137D01*
X195196884Y-82866333D01*
X195209653Y-83024560D01*
X195219960Y-83206444D01*
X195223039Y-83274200D01*
X195232133Y-83465678D01*
X195241722Y-83627029D01*
X195252193Y-83761994D01*
X195263935Y-83874311D01*
X195277336Y-83967722D01*
X195292784Y-84045964D01*
X195309764Y-84109832D01*
X195376265Y-84275756D01*
X195468451Y-84425825D01*
X195582789Y-84555523D01*
X195715747Y-84660333D01*
X195762105Y-84688133D01*
X195875335Y-84753917D01*
X195961954Y-84810980D01*
X196026909Y-84862890D01*
X196075147Y-84913216D01*
X196076502Y-84914880D01*
X196128467Y-84979025D01*
X196133905Y-85251315D01*
X196134238Y-85390886D01*
X196127181Y-85502365D01*
X196109964Y-85591214D01*
X196079816Y-85662891D01*
X196033968Y-85722855D01*
X195969650Y-85776566D01*
X195884091Y-85829484D01*
X195824207Y-85861671D01*
X195704663Y-85936333D01*
X195590350Y-86030681D01*
X195490460Y-86136094D01*
X195414183Y-86243952D01*
X195411420Y-86248783D01*
X195367433Y-86333197D01*
X195330982Y-86419553D01*
X195301225Y-86512334D01*
X195277316Y-86616023D01*
X195258415Y-86735104D01*
X195243675Y-86874058D01*
X195232255Y-87037370D01*
X195223310Y-87229523D01*
X195222415Y-87253330D01*
X195215066Y-87418663D01*
X195205671Y-87576023D01*
X195194743Y-87718554D01*
X195182792Y-87839401D01*
X195173129Y-87913933D01*
X195112798Y-88232678D01*
X195031436Y-88524908D01*
X194928923Y-88790748D01*
X194805141Y-89030322D01*
X194659971Y-89243753D01*
X194493294Y-89431167D01*
X194304991Y-89592687D01*
X194094942Y-89728437D01*
X193863028Y-89838543D01*
X193609131Y-89923128D01*
X193333131Y-89982317D01*
X193170035Y-90004289D01*
X193012418Y-90018136D01*
X192885685Y-90021983D01*
X192788349Y-90015788D01*
X192718925Y-89999510D01*
X192700511Y-89991191D01*
X192664345Y-89969508D01*
X192636262Y-89945042D01*
X192615253Y-89913439D01*
X192600307Y-89870343D01*
X192590414Y-89811397D01*
X192584562Y-89732245D01*
X192581742Y-89628532D01*
X192580942Y-89495902D01*
X192580934Y-89475753D01*
X192581443Y-89328698D01*
X192584424Y-89211738D01*
X192592057Y-89121104D01*
X192606522Y-89053025D01*
X192629999Y-89003731D01*
X192664667Y-88969452D01*
X192712707Y-88946418D01*
X192776299Y-88930860D01*
X192857622Y-88919007D01*
X192906207Y-88913222D01*
X193092033Y-88884633D01*
X193249978Y-88844374D01*
X193384602Y-88790505D01*
X193500463Y-88721087D01*
X193602120Y-88634181D01*
X193629567Y-88605460D01*
X193698671Y-88522157D01*
X193758906Y-88431365D01*
X193810919Y-88330288D01*
X193855356Y-88216133D01*
X193892865Y-88086106D01*
X193924093Y-87937412D01*
X193949685Y-87767256D01*
X193970289Y-87572845D01*
X193986552Y-87351383D01*
X193999120Y-87100078D01*
X194003241Y-86991066D01*
X194009962Y-86820632D01*
X194017327Y-86679873D01*
X194025664Y-86564599D01*
X194035298Y-86470621D01*
X194046557Y-86393748D01*
X194052054Y-86364533D01*
X194113216Y-86125946D01*
X194194767Y-85912612D01*
X194296306Y-85725204D01*
X194417433Y-85564397D01*
X194557746Y-85430863D01*
X194645966Y-85367333D01*
X194750724Y-85299625D01*
X194677596Y-85253590D01*
X194520916Y-85135470D01*
X194384564Y-84991050D01*
X194268362Y-84820033D01*
X194172132Y-84622124D01*
X194095697Y-84397028D01*
X194052142Y-84214601D01*
X194039915Y-84142367D01*
X194029422Y-84053803D01*
X194020345Y-83944869D01*
X194012369Y-83811525D01*
X194005173Y-83649731D01*
X194002846Y-83587466D01*
X193991238Y-83324634D01*
X193976075Y-83092733D01*
X193956780Y-82888959D01*
X193932781Y-82710507D01*
X193903501Y-82554572D01*
X193868367Y-82418351D01*
X193826803Y-82299039D01*
X193778236Y-82193832D01*
X193722089Y-82099925D01*
X193688346Y-82052835D01*
X193589922Y-81941813D01*
X193477838Y-81851868D01*
X193348209Y-81781124D01*
X193197147Y-81727703D01*
X193020764Y-81689726D01*
X192903837Y-81673869D01*
X192796597Y-81657523D01*
X192717461Y-81634213D01*
X192660944Y-81601299D01*
X192621561Y-81556137D01*
X192608137Y-81531473D01*
X192598684Y-81505900D01*
X192591616Y-81471311D01*
X192586620Y-81422955D01*
X192583386Y-81356080D01*
X192581601Y-81265936D01*
X192580954Y-81147771D01*
X192580934Y-81116330D01*
X192581573Y-80980201D01*
X192584096Y-80873503D01*
X192589412Y-80791814D01*
X192598429Y-80730712D01*
X192612055Y-80685776D01*
X192631200Y-80652583D01*
X192656771Y-80626712D01*
X192685748Y-80606213D01*
X192709550Y-80592506D01*
X192734502Y-80583183D01*
X192766859Y-80577716D01*
X192812874Y-80575580D01*
X192878805Y-80576248D01*
G36*
X184278141Y-80585013D02*
G01*
X184324194Y-80588494D01*
X184355892Y-80595264D01*
X184379735Y-80606078D01*
X184396375Y-80617299D01*
X184424043Y-80639317D01*
X184445378Y-80662464D01*
X184461204Y-80691261D01*
X184472344Y-80730233D01*
X184479622Y-80783902D01*
X184483861Y-80856791D01*
X184485884Y-80953425D01*
X184486515Y-81078325D01*
X184486551Y-81112640D01*
X184485897Y-81260316D01*
X184482522Y-81377803D01*
X184474625Y-81468768D01*
X184460410Y-81536874D01*
X184438076Y-81585789D01*
X184405826Y-81619177D01*
X184361861Y-81640704D01*
X184304382Y-81654035D01*
X184231592Y-81662837D01*
X184215867Y-81664301D01*
X184002724Y-81695341D01*
X183815367Y-81747723D01*
X183652828Y-81822021D01*
X183514142Y-81918809D01*
X183398344Y-82038659D01*
X183304465Y-82182147D01*
X183287185Y-82215866D01*
X183246019Y-82306798D01*
X183210632Y-82401537D01*
X183180431Y-82503730D01*
X183154823Y-82617022D01*
X183133216Y-82745057D01*
X183115015Y-82891481D01*
X183099628Y-83059938D01*
X183086463Y-83254075D01*
X183074925Y-83477536D01*
X183072300Y-83536666D01*
X183062598Y-83739302D01*
X183051786Y-83912637D01*
X183038953Y-84061236D01*
X183023189Y-84189666D01*
X183003585Y-84302491D01*
X182979229Y-84404276D01*
X182949213Y-84499588D01*
X182912625Y-84592991D01*
X182868555Y-84689050D01*
X182825590Y-84774172D01*
X182756019Y-84887037D01*
X182666153Y-85002045D01*
X182565103Y-85108959D01*
X182461980Y-85197546D01*
X182426034Y-85223026D01*
X182376168Y-85257071D01*
X182350918Y-85278554D01*
X182346253Y-85292977D01*
X182358141Y-85305844D01*
X182362889Y-85309228D01*
X182504727Y-85414603D01*
X182619815Y-85517231D01*
X182713996Y-85623558D01*
X182793115Y-85740032D01*
X182850699Y-85847317D01*
X182896996Y-85946775D01*
X182935790Y-86041671D01*
X182967932Y-86136598D01*
X182994276Y-86236151D01*
X183015672Y-86344922D01*
X183032973Y-86467505D01*
X183047032Y-86608494D01*
X183058700Y-86772481D01*
X183068830Y-86964061D01*
X183072316Y-87041866D01*
X183085329Y-87298428D01*
X183101273Y-87524108D01*
X183120856Y-87721815D01*
X183144786Y-87894462D01*
X183173769Y-88044957D01*
X183208513Y-88176213D01*
X183249724Y-88291140D01*
X183298111Y-88392649D01*
X183354380Y-88483650D01*
X183419238Y-88567054D01*
X183451614Y-88603096D01*
X183549094Y-88694480D01*
X183655580Y-88767576D01*
X183776395Y-88824658D01*
X183916859Y-88868002D01*
X184082293Y-88899885D01*
X184173791Y-88911979D01*
X184259736Y-88922505D01*
X184319301Y-88931926D01*
X184359810Y-88942448D01*
X184388586Y-88956279D01*
X184412953Y-88975626D01*
X184425572Y-88987857D01*
X184478334Y-89040587D01*
X184483428Y-89447535D01*
X184484893Y-89575898D01*
X184485472Y-89674974D01*
X184484871Y-89749339D01*
X184482793Y-89803568D01*
X184478945Y-89842235D01*
X184473031Y-89869917D01*
X184464756Y-89891189D01*
X184453824Y-89910624D01*
X184453528Y-89911105D01*
X184420588Y-89953406D01*
X184378400Y-89984726D01*
X184322869Y-90005766D01*
X184249897Y-90017227D01*
X184155391Y-90019809D01*
X184035252Y-90014212D01*
X183911911Y-90003739D01*
X183649182Y-89964994D01*
X183393023Y-89901028D01*
X183152865Y-89814307D01*
X183102911Y-89792326D01*
X182891249Y-89677456D01*
X182696844Y-89534178D01*
X182520556Y-89363721D01*
X182363249Y-89167312D01*
X182225783Y-88946178D01*
X182109020Y-88701546D01*
X182013823Y-88434644D01*
X181941053Y-88146699D01*
X181938480Y-88134066D01*
X181916314Y-88019798D01*
X181898400Y-87915677D01*
X181884048Y-87814949D01*
X181872568Y-87710863D01*
X181863268Y-87596666D01*
X181855458Y-87465606D01*
X181848448Y-87310929D01*
X181844903Y-87219316D01*
X181835735Y-87019982D01*
X181823604Y-86850129D01*
X181807587Y-86705430D01*
X181786757Y-86581560D01*
X181760190Y-86474193D01*
X181726959Y-86379004D01*
X181686140Y-86291667D01*
X181636807Y-86207857D01*
X181624516Y-86189158D01*
X181542006Y-86081214D01*
X181446972Y-85988601D01*
X181331637Y-85904521D01*
X181230912Y-85845038D01*
X181121184Y-85779284D01*
X181040368Y-85717533D01*
X180984357Y-85656260D01*
X180956854Y-85609986D01*
X180945913Y-85568520D01*
X180937689Y-85501128D01*
X180932221Y-85415646D01*
X180929550Y-85319907D01*
X180929715Y-85221746D01*
X180932755Y-85128999D01*
X180938711Y-85049501D01*
X180947623Y-84991085D01*
X180953612Y-84971222D01*
X180992326Y-84910632D01*
X181056158Y-84846522D01*
X181137849Y-84785304D01*
X181214045Y-84741266D01*
X181358382Y-84657187D01*
X181481734Y-84560072D01*
X181585144Y-84447607D01*
X181669653Y-84317479D01*
X181736304Y-84167373D01*
X181786138Y-83994976D01*
X181820197Y-83797973D01*
X181839522Y-83574051D01*
X181845186Y-83339494D01*
X181855835Y-83043868D01*
X181886874Y-82748209D01*
X181936998Y-82459408D01*
X182004907Y-82184353D01*
X182089297Y-81929934D01*
X182131277Y-81826389D01*
X182245134Y-81601314D01*
X182384579Y-81392306D01*
X182546423Y-81202825D01*
X182727479Y-81036331D01*
X182924558Y-80896282D01*
X183055934Y-80822975D01*
X183270917Y-80731562D01*
X183507572Y-80660998D01*
X183759877Y-80612632D01*
X184021812Y-80587815D01*
X184116975Y-80584910D01*
X184211234Y-80584070D01*
X184278141Y-80585013D01*
G37*
X184278141Y-80585013D02*
X184324194Y-80588494D01*
X184355892Y-80595264D01*
X184379735Y-80606078D01*
X184396375Y-80617299D01*
X184424043Y-80639317D01*
X184445378Y-80662464D01*
X184461204Y-80691261D01*
X184472344Y-80730233D01*
X184479622Y-80783902D01*
X184483861Y-80856791D01*
X184485884Y-80953425D01*
X184486515Y-81078325D01*
X184486551Y-81112640D01*
X184485897Y-81260316D01*
X184482522Y-81377803D01*
X184474625Y-81468768D01*
X184460410Y-81536874D01*
X184438076Y-81585789D01*
X184405826Y-81619177D01*
X184361861Y-81640704D01*
X184304382Y-81654035D01*
X184231592Y-81662837D01*
X184215867Y-81664301D01*
X184002724Y-81695341D01*
X183815367Y-81747723D01*
X183652828Y-81822021D01*
X183514142Y-81918809D01*
X183398344Y-82038659D01*
X183304465Y-82182147D01*
X183287185Y-82215866D01*
X183246019Y-82306798D01*
X183210632Y-82401537D01*
X183180431Y-82503730D01*
X183154823Y-82617022D01*
X183133216Y-82745057D01*
X183115015Y-82891481D01*
X183099628Y-83059938D01*
X183086463Y-83254075D01*
X183074925Y-83477536D01*
X183072300Y-83536666D01*
X183062598Y-83739302D01*
X183051786Y-83912637D01*
X183038953Y-84061236D01*
X183023189Y-84189666D01*
X183003585Y-84302491D01*
X182979229Y-84404276D01*
X182949213Y-84499588D01*
X182912625Y-84592991D01*
X182868555Y-84689050D01*
X182825590Y-84774172D01*
X182756019Y-84887037D01*
X182666153Y-85002045D01*
X182565103Y-85108959D01*
X182461980Y-85197546D01*
X182426034Y-85223026D01*
X182376168Y-85257071D01*
X182350918Y-85278554D01*
X182346253Y-85292977D01*
X182358141Y-85305844D01*
X182362889Y-85309228D01*
X182504727Y-85414603D01*
X182619815Y-85517231D01*
X182713996Y-85623558D01*
X182793115Y-85740032D01*
X182850699Y-85847317D01*
X182896996Y-85946775D01*
X182935790Y-86041671D01*
X182967932Y-86136598D01*
X182994276Y-86236151D01*
X183015672Y-86344922D01*
X183032973Y-86467505D01*
X183047032Y-86608494D01*
X183058700Y-86772481D01*
X183068830Y-86964061D01*
X183072316Y-87041866D01*
X183085329Y-87298428D01*
X183101273Y-87524108D01*
X183120856Y-87721815D01*
X183144786Y-87894462D01*
X183173769Y-88044957D01*
X183208513Y-88176213D01*
X183249724Y-88291140D01*
X183298111Y-88392649D01*
X183354380Y-88483650D01*
X183419238Y-88567054D01*
X183451614Y-88603096D01*
X183549094Y-88694480D01*
X183655580Y-88767576D01*
X183776395Y-88824658D01*
X183916859Y-88868002D01*
X184082293Y-88899885D01*
X184173791Y-88911979D01*
X184259736Y-88922505D01*
X184319301Y-88931926D01*
X184359810Y-88942448D01*
X184388586Y-88956279D01*
X184412953Y-88975626D01*
X184425572Y-88987857D01*
X184478334Y-89040587D01*
X184483428Y-89447535D01*
X184484893Y-89575898D01*
X184485472Y-89674974D01*
X184484871Y-89749339D01*
X184482793Y-89803568D01*
X184478945Y-89842235D01*
X184473031Y-89869917D01*
X184464756Y-89891189D01*
X184453824Y-89910624D01*
X184453528Y-89911105D01*
X184420588Y-89953406D01*
X184378400Y-89984726D01*
X184322869Y-90005766D01*
X184249897Y-90017227D01*
X184155391Y-90019809D01*
X184035252Y-90014212D01*
X183911911Y-90003739D01*
X183649182Y-89964994D01*
X183393023Y-89901028D01*
X183152865Y-89814307D01*
X183102911Y-89792326D01*
X182891249Y-89677456D01*
X182696844Y-89534178D01*
X182520556Y-89363721D01*
X182363249Y-89167312D01*
X182225783Y-88946178D01*
X182109020Y-88701546D01*
X182013823Y-88434644D01*
X181941053Y-88146699D01*
X181938480Y-88134066D01*
X181916314Y-88019798D01*
X181898400Y-87915677D01*
X181884048Y-87814949D01*
X181872568Y-87710863D01*
X181863268Y-87596666D01*
X181855458Y-87465606D01*
X181848448Y-87310929D01*
X181844903Y-87219316D01*
X181835735Y-87019982D01*
X181823604Y-86850129D01*
X181807587Y-86705430D01*
X181786757Y-86581560D01*
X181760190Y-86474193D01*
X181726959Y-86379004D01*
X181686140Y-86291667D01*
X181636807Y-86207857D01*
X181624516Y-86189158D01*
X181542006Y-86081214D01*
X181446972Y-85988601D01*
X181331637Y-85904521D01*
X181230912Y-85845038D01*
X181121184Y-85779284D01*
X181040368Y-85717533D01*
X180984357Y-85656260D01*
X180956854Y-85609986D01*
X180945913Y-85568520D01*
X180937689Y-85501128D01*
X180932221Y-85415646D01*
X180929550Y-85319907D01*
X180929715Y-85221746D01*
X180932755Y-85128999D01*
X180938711Y-85049501D01*
X180947623Y-84991085D01*
X180953612Y-84971222D01*
X180992326Y-84910632D01*
X181056158Y-84846522D01*
X181137849Y-84785304D01*
X181214045Y-84741266D01*
X181358382Y-84657187D01*
X181481734Y-84560072D01*
X181585144Y-84447607D01*
X181669653Y-84317479D01*
X181736304Y-84167373D01*
X181786138Y-83994976D01*
X181820197Y-83797973D01*
X181839522Y-83574051D01*
X181845186Y-83339494D01*
X181855835Y-83043868D01*
X181886874Y-82748209D01*
X181936998Y-82459408D01*
X182004907Y-82184353D01*
X182089297Y-81929934D01*
X182131277Y-81826389D01*
X182245134Y-81601314D01*
X182384579Y-81392306D01*
X182546423Y-81202825D01*
X182727479Y-81036331D01*
X182924558Y-80896282D01*
X183055934Y-80822975D01*
X183270917Y-80731562D01*
X183507572Y-80660998D01*
X183759877Y-80612632D01*
X184021812Y-80587815D01*
X184116975Y-80584910D01*
X184211234Y-80584070D01*
X184278141Y-80585013D01*
G36*
X188703185Y-80519996D02*
G01*
X189052035Y-80563129D01*
X189385012Y-80635253D01*
X189701447Y-80736172D01*
X190000666Y-80865691D01*
X190282000Y-81023613D01*
X190413467Y-81111549D01*
X190525060Y-81197831D01*
X190647126Y-81304787D01*
X190771836Y-81424596D01*
X190891359Y-81549439D01*
X190997867Y-81671495D01*
X191078337Y-81775599D01*
X191206183Y-81975834D01*
X191323390Y-82199956D01*
X191426021Y-82438656D01*
X191510140Y-82682626D01*
X191571812Y-82922556D01*
X191579523Y-82960933D01*
X191590515Y-83019899D01*
X191600336Y-83077719D01*
X191609044Y-83136515D01*
X191616695Y-83198412D01*
X191623348Y-83265533D01*
X191629059Y-83340000D01*
X191633887Y-83423938D01*
X191637888Y-83519469D01*
X191641120Y-83628717D01*
X191643640Y-83753804D01*
X191645505Y-83896855D01*
X191646774Y-84059993D01*
X191647503Y-84245340D01*
X191647749Y-84455020D01*
X191647571Y-84691157D01*
X191647025Y-84955873D01*
X191646170Y-85251292D01*
X191645655Y-85407800D01*
X191644654Y-85705784D01*
X191643709Y-85972086D01*
X191642714Y-86208890D01*
X191641566Y-86418379D01*
X191640159Y-86602739D01*
X191638389Y-86764153D01*
X191636150Y-86904805D01*
X191633339Y-87026878D01*
X191629849Y-87132558D01*
X191625577Y-87224029D01*
X191620418Y-87303473D01*
X191614267Y-87373076D01*
X191607019Y-87435021D01*
X191598570Y-87491493D01*
X191588814Y-87544675D01*
X191577647Y-87596752D01*
X191564964Y-87649907D01*
X191550661Y-87706325D01*
X191534632Y-87768190D01*
X191531926Y-87778637D01*
X191436399Y-88082502D01*
X191312074Y-88369682D01*
X191160391Y-88638744D01*
X190982791Y-88888253D01*
X190780713Y-89116776D01*
X190555597Y-89322880D01*
X190308883Y-89505131D01*
X190042013Y-89662095D01*
X189756425Y-89792339D01*
X189453560Y-89894428D01*
X189389000Y-89911871D01*
X189227752Y-89950807D01*
X189076867Y-89980580D01*
X188927217Y-90002317D01*
X188769673Y-90017148D01*
X188595107Y-90026200D01*
X188432267Y-90030110D01*
X188317671Y-90031437D01*
X188210620Y-90032014D01*
X188117093Y-90031860D01*
X188043066Y-90030997D01*
X187994519Y-90029442D01*
X187983534Y-90028627D01*
X187625968Y-89977540D01*
X187290907Y-89901248D01*
X186978050Y-89799582D01*
X186687099Y-89672376D01*
X186417754Y-89519462D01*
X186169715Y-89340675D01*
X185942683Y-89135845D01*
X185736359Y-88904807D01*
X185574836Y-88684399D01*
X185427912Y-88436041D01*
X185303554Y-88165392D01*
X185203217Y-87876644D01*
X185128353Y-87573985D01*
X185101266Y-87397466D01*
X186384180Y-87397466D01*
X186394160Y-87452499D01*
X186403969Y-87493585D01*
X186421521Y-87555668D01*
X186443631Y-87627691D01*
X186452462Y-87655047D01*
X186545310Y-87886062D01*
X186665412Y-88098408D01*
X186810794Y-88290523D01*
X186979479Y-88460844D01*
X187169492Y-88607809D01*
X187378858Y-88729855D01*
X187605602Y-88825420D01*
X187847748Y-88892939D01*
X188059734Y-88926640D01*
X188150046Y-88932781D01*
X188262816Y-88935236D01*
X188386861Y-88934235D01*
X188511001Y-88930007D01*
X188624054Y-88922782D01*
X188711667Y-88913254D01*
X188969996Y-88860398D01*
X189210562Y-88779499D01*
X189432427Y-88671092D01*
X189634652Y-88535713D01*
X189816299Y-88373898D01*
X189969532Y-88195400D01*
X190079377Y-88029700D01*
X190177559Y-87842969D01*
X190258358Y-87647513D01*
X190316053Y-87455644D01*
X190318766Y-87444033D01*
X190329446Y-87397466D01*
X186384180Y-87397466D01*
X185101266Y-87397466D01*
X185080417Y-87261607D01*
X185080077Y-87258434D01*
X185077221Y-87214050D01*
X185074614Y-87138635D01*
X185072255Y-87034980D01*
X185070145Y-86905875D01*
X185068283Y-86754112D01*
X185066668Y-86582480D01*
X185065302Y-86393772D01*
X185064182Y-86190777D01*
X185063310Y-85976288D01*
X185062684Y-85753094D01*
X185062305Y-85523986D01*
X185062173Y-85291756D01*
X185062286Y-85059194D01*
X185062645Y-84829092D01*
X185063069Y-84671200D01*
X186332534Y-84671200D01*
X186332534Y-86093600D01*
X190362667Y-86093600D01*
X190362667Y-84671200D01*
X186332534Y-84671200D01*
X185063069Y-84671200D01*
X185063250Y-84604240D01*
X185064100Y-84387428D01*
X185065194Y-84181449D01*
X185066534Y-83989092D01*
X185068118Y-83813149D01*
X185069946Y-83656411D01*
X185072019Y-83521667D01*
X185074335Y-83411711D01*
X185076239Y-83350400D01*
X186350314Y-83350400D01*
X188348024Y-83350400D01*
X188655188Y-83350353D01*
X188930173Y-83350199D01*
X189174663Y-83349918D01*
X189390346Y-83349490D01*
X189578908Y-83348896D01*
X189742035Y-83348115D01*
X189881414Y-83347128D01*
X189998730Y-83345914D01*
X190095671Y-83344455D01*
X190173923Y-83342730D01*
X190235172Y-83340718D01*
X190281104Y-83338401D01*
X190313405Y-83335759D01*
X190333763Y-83332771D01*
X190343864Y-83329418D01*
X190345734Y-83326870D01*
X190341016Y-83278820D01*
X190328269Y-83207544D01*
X190309602Y-83122127D01*
X190287126Y-83031657D01*
X190262950Y-82945219D01*
X190241844Y-82879420D01*
X190143142Y-82645254D01*
X190018835Y-82432294D01*
X189870486Y-82241525D01*
X189699655Y-82073929D01*
X189507905Y-81930492D01*
X189296796Y-81812196D01*
X189067890Y-81720024D01*
X188822749Y-81654961D01*
X188562934Y-81617991D01*
X188290006Y-81610095D01*
X188230270Y-81612266D01*
X187970084Y-81636116D01*
X187732867Y-81682592D01*
X187515223Y-81753064D01*
X187313755Y-81848902D01*
X187125069Y-81971474D01*
X186945767Y-82122150D01*
X186930925Y-82136226D01*
X186779205Y-82298761D01*
X186651603Y-82474225D01*
X186546328Y-82666254D01*
X186461587Y-82878482D01*
X186395591Y-83114544D01*
X186359680Y-83295366D01*
X186350314Y-83350400D01*
X185076239Y-83350400D01*
X185076894Y-83329331D01*
X185079697Y-83277319D01*
X185080445Y-83269299D01*
X185131896Y-82938879D01*
X185212328Y-82624801D01*
X185321438Y-82327745D01*
X185458920Y-82048389D01*
X185624471Y-81787413D01*
X185817785Y-81545495D01*
X185887856Y-81469713D01*
X186119944Y-81251551D01*
X186371495Y-81060946D01*
X186642017Y-80898091D01*
X186931018Y-80763179D01*
X187238006Y-80656404D01*
X187562488Y-80577960D01*
X187903973Y-80528039D01*
X188261968Y-80506836D01*
X188339134Y-80506051D01*
X188703185Y-80519996D01*
G37*
X188703185Y-80519996D02*
X189052035Y-80563129D01*
X189385012Y-80635253D01*
X189701447Y-80736172D01*
X190000666Y-80865691D01*
X190282000Y-81023613D01*
X190413467Y-81111549D01*
X190525060Y-81197831D01*
X190647126Y-81304787D01*
X190771836Y-81424596D01*
X190891359Y-81549439D01*
X190997867Y-81671495D01*
X191078337Y-81775599D01*
X191206183Y-81975834D01*
X191323390Y-82199956D01*
X191426021Y-82438656D01*
X191510140Y-82682626D01*
X191571812Y-82922556D01*
X191579523Y-82960933D01*
X191590515Y-83019899D01*
X191600336Y-83077719D01*
X191609044Y-83136515D01*
X191616695Y-83198412D01*
X191623348Y-83265533D01*
X191629059Y-83340000D01*
X191633887Y-83423938D01*
X191637888Y-83519469D01*
X191641120Y-83628717D01*
X191643640Y-83753804D01*
X191645505Y-83896855D01*
X191646774Y-84059993D01*
X191647503Y-84245340D01*
X191647749Y-84455020D01*
X191647571Y-84691157D01*
X191647025Y-84955873D01*
X191646170Y-85251292D01*
X191645655Y-85407800D01*
X191644654Y-85705784D01*
X191643709Y-85972086D01*
X191642714Y-86208890D01*
X191641566Y-86418379D01*
X191640159Y-86602739D01*
X191638389Y-86764153D01*
X191636150Y-86904805D01*
X191633339Y-87026878D01*
X191629849Y-87132558D01*
X191625577Y-87224029D01*
X191620418Y-87303473D01*
X191614267Y-87373076D01*
X191607019Y-87435021D01*
X191598570Y-87491493D01*
X191588814Y-87544675D01*
X191577647Y-87596752D01*
X191564964Y-87649907D01*
X191550661Y-87706325D01*
X191534632Y-87768190D01*
X191531926Y-87778637D01*
X191436399Y-88082502D01*
X191312074Y-88369682D01*
X191160391Y-88638744D01*
X190982791Y-88888253D01*
X190780713Y-89116776D01*
X190555597Y-89322880D01*
X190308883Y-89505131D01*
X190042013Y-89662095D01*
X189756425Y-89792339D01*
X189453560Y-89894428D01*
X189389000Y-89911871D01*
X189227752Y-89950807D01*
X189076867Y-89980580D01*
X188927217Y-90002317D01*
X188769673Y-90017148D01*
X188595107Y-90026200D01*
X188432267Y-90030110D01*
X188317671Y-90031437D01*
X188210620Y-90032014D01*
X188117093Y-90031860D01*
X188043066Y-90030997D01*
X187994519Y-90029442D01*
X187983534Y-90028627D01*
X187625968Y-89977540D01*
X187290907Y-89901248D01*
X186978050Y-89799582D01*
X186687099Y-89672376D01*
X186417754Y-89519462D01*
X186169715Y-89340675D01*
X185942683Y-89135845D01*
X185736359Y-88904807D01*
X185574836Y-88684399D01*
X185427912Y-88436041D01*
X185303554Y-88165392D01*
X185203217Y-87876644D01*
X185128353Y-87573985D01*
X185101266Y-87397466D01*
X186384180Y-87397466D01*
X186394160Y-87452499D01*
X186403969Y-87493585D01*
X186421521Y-87555668D01*
X186443631Y-87627691D01*
X186452462Y-87655047D01*
X186545310Y-87886062D01*
X186665412Y-88098408D01*
X186810794Y-88290523D01*
X186979479Y-88460844D01*
X187169492Y-88607809D01*
X187378858Y-88729855D01*
X187605602Y-88825420D01*
X187847748Y-88892939D01*
X188059734Y-88926640D01*
X188150046Y-88932781D01*
X188262816Y-88935236D01*
X188386861Y-88934235D01*
X188511001Y-88930007D01*
X188624054Y-88922782D01*
X188711667Y-88913254D01*
X188969996Y-88860398D01*
X189210562Y-88779499D01*
X189432427Y-88671092D01*
X189634652Y-88535713D01*
X189816299Y-88373898D01*
X189969532Y-88195400D01*
X190079377Y-88029700D01*
X190177559Y-87842969D01*
X190258358Y-87647513D01*
X190316053Y-87455644D01*
X190318766Y-87444033D01*
X190329446Y-87397466D01*
X186384180Y-87397466D01*
X185101266Y-87397466D01*
X185080417Y-87261607D01*
X185080077Y-87258434D01*
X185077221Y-87214050D01*
X185074614Y-87138635D01*
X185072255Y-87034980D01*
X185070145Y-86905875D01*
X185068283Y-86754112D01*
X185066668Y-86582480D01*
X185065302Y-86393772D01*
X185064182Y-86190777D01*
X185063310Y-85976288D01*
X185062684Y-85753094D01*
X185062305Y-85523986D01*
X185062173Y-85291756D01*
X185062286Y-85059194D01*
X185062645Y-84829092D01*
X185063069Y-84671200D01*
X186332534Y-84671200D01*
X186332534Y-86093600D01*
X190362667Y-86093600D01*
X190362667Y-84671200D01*
X186332534Y-84671200D01*
X185063069Y-84671200D01*
X185063250Y-84604240D01*
X185064100Y-84387428D01*
X185065194Y-84181449D01*
X185066534Y-83989092D01*
X185068118Y-83813149D01*
X185069946Y-83656411D01*
X185072019Y-83521667D01*
X185074335Y-83411711D01*
X185076239Y-83350400D01*
X186350314Y-83350400D01*
X188348024Y-83350400D01*
X188655188Y-83350353D01*
X188930173Y-83350199D01*
X189174663Y-83349918D01*
X189390346Y-83349490D01*
X189578908Y-83348896D01*
X189742035Y-83348115D01*
X189881414Y-83347128D01*
X189998730Y-83345914D01*
X190095671Y-83344455D01*
X190173923Y-83342730D01*
X190235172Y-83340718D01*
X190281104Y-83338401D01*
X190313405Y-83335759D01*
X190333763Y-83332771D01*
X190343864Y-83329418D01*
X190345734Y-83326870D01*
X190341016Y-83278820D01*
X190328269Y-83207544D01*
X190309602Y-83122127D01*
X190287126Y-83031657D01*
X190262950Y-82945219D01*
X190241844Y-82879420D01*
X190143142Y-82645254D01*
X190018835Y-82432294D01*
X189870486Y-82241525D01*
X189699655Y-82073929D01*
X189507905Y-81930492D01*
X189296796Y-81812196D01*
X189067890Y-81720024D01*
X188822749Y-81654961D01*
X188562934Y-81617991D01*
X188290006Y-81610095D01*
X188230270Y-81612266D01*
X187970084Y-81636116D01*
X187732867Y-81682592D01*
X187515223Y-81753064D01*
X187313755Y-81848902D01*
X187125069Y-81971474D01*
X186945767Y-82122150D01*
X186930925Y-82136226D01*
X186779205Y-82298761D01*
X186651603Y-82474225D01*
X186546328Y-82666254D01*
X186461587Y-82878482D01*
X186395591Y-83114544D01*
X186359680Y-83295366D01*
X186350314Y-83350400D01*
X185076239Y-83350400D01*
X185076894Y-83329331D01*
X185079697Y-83277319D01*
X185080445Y-83269299D01*
X185131896Y-82938879D01*
X185212328Y-82624801D01*
X185321438Y-82327745D01*
X185458920Y-82048389D01*
X185624471Y-81787413D01*
X185817785Y-81545495D01*
X185887856Y-81469713D01*
X186119944Y-81251551D01*
X186371495Y-81060946D01*
X186642017Y-80898091D01*
X186931018Y-80763179D01*
X187238006Y-80656404D01*
X187562488Y-80577960D01*
X187903973Y-80528039D01*
X188261968Y-80506836D01*
X188339134Y-80506051D01*
X188703185Y-80519996D01*
G36*
X185504177Y-92627594D02*
G01*
X185549863Y-92666179D01*
X185576658Y-92720586D01*
X185580625Y-92782715D01*
X185557831Y-92844467D01*
X185556793Y-92846076D01*
X185527026Y-92867874D01*
X185478296Y-92883629D01*
X185425450Y-92889254D01*
X185405771Y-92887640D01*
X185365102Y-92867525D01*
X185326973Y-92828284D01*
X185302845Y-92783280D01*
X185299601Y-92763846D01*
X185314321Y-92701857D01*
X185352853Y-92650584D01*
X185406751Y-92618880D01*
X185443534Y-92612933D01*
X185504177Y-92627594D01*
G37*
X185504177Y-92627594D02*
X185549863Y-92666179D01*
X185576658Y-92720586D01*
X185580625Y-92782715D01*
X185557831Y-92844467D01*
X185556793Y-92846076D01*
X185527026Y-92867874D01*
X185478296Y-92883629D01*
X185425450Y-92889254D01*
X185405771Y-92887640D01*
X185365102Y-92867525D01*
X185326973Y-92828284D01*
X185302845Y-92783280D01*
X185299601Y-92763846D01*
X185314321Y-92701857D01*
X185352853Y-92650584D01*
X185406751Y-92618880D01*
X185443534Y-92612933D01*
X185504177Y-92627594D01*
G36*
X192699467Y-94238533D02*
G01*
X193581617Y-94238533D01*
X193576575Y-94344366D01*
X193571534Y-94450200D01*
X193028487Y-94454663D01*
X192896098Y-94455402D01*
X192774665Y-94455409D01*
X192668305Y-94454738D01*
X192581134Y-94453439D01*
X192517270Y-94451566D01*
X192480828Y-94449171D01*
X192473920Y-94447608D01*
X192471721Y-94428950D01*
X192469660Y-94379597D01*
X192467777Y-94302724D01*
X192466112Y-94201502D01*
X192464706Y-94079105D01*
X192463598Y-93938704D01*
X192462830Y-93783473D01*
X192462441Y-93616585D01*
X192462401Y-93541444D01*
X192462401Y-92646800D01*
X192699467Y-92646800D01*
X192699467Y-94238533D01*
G37*
X192699467Y-94238533D02*
X193581617Y-94238533D01*
X193576575Y-94344366D01*
X193571534Y-94450200D01*
X193028487Y-94454663D01*
X192896098Y-94455402D01*
X192774665Y-94455409D01*
X192668305Y-94454738D01*
X192581134Y-94453439D01*
X192517270Y-94451566D01*
X192480828Y-94449171D01*
X192473920Y-94447608D01*
X192471721Y-94428950D01*
X192469660Y-94379597D01*
X192467777Y-94302724D01*
X192466112Y-94201502D01*
X192464706Y-94079105D01*
X192463598Y-93938704D01*
X192462830Y-93783473D01*
X192462441Y-93616585D01*
X192462401Y-93541444D01*
X192462401Y-92646800D01*
X192699467Y-92646800D01*
X192699467Y-94238533D01*
G36*
X188601600Y-94238533D02*
G01*
X189043483Y-94238533D01*
X189038442Y-94344366D01*
X189033400Y-94450200D01*
X188478391Y-94454665D01*
X188322964Y-94455709D01*
X188198200Y-94456003D01*
X188100903Y-94455440D01*
X188027875Y-94453912D01*
X187975918Y-94451310D01*
X187941837Y-94447525D01*
X187922434Y-94442451D01*
X187914511Y-94435978D01*
X187914345Y-94435580D01*
X187910020Y-94405512D01*
X187909377Y-94356194D01*
X187910554Y-94329515D01*
X187915800Y-94247000D01*
X188364534Y-94237550D01*
X188364534Y-92748400D01*
X187907334Y-92748400D01*
X187907334Y-92545200D01*
X188601600Y-92545200D01*
X188601600Y-94238533D01*
G37*
X188601600Y-94238533D02*
X189043483Y-94238533D01*
X189038442Y-94344366D01*
X189033400Y-94450200D01*
X188478391Y-94454665D01*
X188322964Y-94455709D01*
X188198200Y-94456003D01*
X188100903Y-94455440D01*
X188027875Y-94453912D01*
X187975918Y-94451310D01*
X187941837Y-94447525D01*
X187922434Y-94442451D01*
X187914511Y-94435978D01*
X187914345Y-94435580D01*
X187910020Y-94405512D01*
X187909377Y-94356194D01*
X187910554Y-94329515D01*
X187915800Y-94247000D01*
X188364534Y-94237550D01*
X188364534Y-92748400D01*
X187907334Y-92748400D01*
X187907334Y-92545200D01*
X188601600Y-92545200D01*
X188601600Y-94238533D01*
G36*
X185570534Y-94238533D02*
G01*
X186012417Y-94238533D01*
X186007375Y-94344366D01*
X186002334Y-94450200D01*
X185450817Y-94454660D01*
X185317373Y-94455396D01*
X185194862Y-94455410D01*
X185087367Y-94454756D01*
X184998972Y-94453484D01*
X184933760Y-94451644D01*
X184895814Y-94449289D01*
X184887784Y-94447605D01*
X184881564Y-94425634D01*
X184877382Y-94380704D01*
X184876267Y-94337311D01*
X184876267Y-94238533D01*
X185333467Y-94238533D01*
X185333467Y-93307200D01*
X184876267Y-93307200D01*
X184876267Y-93104000D01*
X185570534Y-93104000D01*
X185570534Y-94238533D01*
G37*
X185570534Y-94238533D02*
X186012417Y-94238533D01*
X186007375Y-94344366D01*
X186002334Y-94450200D01*
X185450817Y-94454660D01*
X185317373Y-94455396D01*
X185194862Y-94455410D01*
X185087367Y-94454756D01*
X184998972Y-94453484D01*
X184933760Y-94451644D01*
X184895814Y-94449289D01*
X184887784Y-94447605D01*
X184881564Y-94425634D01*
X184877382Y-94380704D01*
X184876267Y-94337311D01*
X184876267Y-94238533D01*
X185333467Y-94238533D01*
X185333467Y-93307200D01*
X184876267Y-93307200D01*
X184876267Y-93104000D01*
X185570534Y-93104000D01*
X185570534Y-94238533D01*
G36*
X184282447Y-92499382D02*
G01*
X184360833Y-92506714D01*
X184422743Y-92516504D01*
X184427534Y-92517586D01*
X184477106Y-92530492D01*
X184501560Y-92543924D01*
X184508847Y-92565718D01*
X184507502Y-92596394D01*
X184500231Y-92665858D01*
X184490374Y-92706872D01*
X184475402Y-92724854D01*
X184452783Y-92725221D01*
X184447933Y-92723903D01*
X184413635Y-92717433D01*
X184356668Y-92710372D01*
X184288171Y-92704061D01*
X184274060Y-92703006D01*
X184153348Y-92704044D01*
X184058200Y-92726914D01*
X183987589Y-92772478D01*
X183940487Y-92841595D01*
X183915867Y-92935125D01*
X183911439Y-93006633D01*
X183911067Y-93104000D01*
X184419067Y-93104000D01*
X184419067Y-93290266D01*
X183911512Y-93290266D01*
X183907056Y-93870233D01*
X183902601Y-94450200D01*
X183791816Y-94455126D01*
X183733298Y-94455946D01*
X183688878Y-94453263D01*
X183669050Y-94448071D01*
X183666210Y-94428873D01*
X183663611Y-94379816D01*
X183661334Y-94304907D01*
X183659461Y-94208152D01*
X183658075Y-94093558D01*
X183657258Y-93965132D01*
X183657067Y-93863177D01*
X183657067Y-93290266D01*
X183301467Y-93290266D01*
X183301467Y-93104000D01*
X183653630Y-93104000D01*
X183664890Y-92981233D01*
X183691083Y-92838565D01*
X183740974Y-92720042D01*
X183814069Y-92626110D01*
X183909870Y-92557215D01*
X184027885Y-92513804D01*
X184167616Y-92496324D01*
X184203349Y-92496025D01*
X184282447Y-92499382D01*
G37*
X184282447Y-92499382D02*
X184360833Y-92506714D01*
X184422743Y-92516504D01*
X184427534Y-92517586D01*
X184477106Y-92530492D01*
X184501560Y-92543924D01*
X184508847Y-92565718D01*
X184507502Y-92596394D01*
X184500231Y-92665858D01*
X184490374Y-92706872D01*
X184475402Y-92724854D01*
X184452783Y-92725221D01*
X184447933Y-92723903D01*
X184413635Y-92717433D01*
X184356668Y-92710372D01*
X184288171Y-92704061D01*
X184274060Y-92703006D01*
X184153348Y-92704044D01*
X184058200Y-92726914D01*
X183987589Y-92772478D01*
X183940487Y-92841595D01*
X183915867Y-92935125D01*
X183911439Y-93006633D01*
X183911067Y-93104000D01*
X184419067Y-93104000D01*
X184419067Y-93290266D01*
X183911512Y-93290266D01*
X183907056Y-93870233D01*
X183902601Y-94450200D01*
X183791816Y-94455126D01*
X183733298Y-94455946D01*
X183688878Y-94453263D01*
X183669050Y-94448071D01*
X183666210Y-94428873D01*
X183663611Y-94379816D01*
X183661334Y-94304907D01*
X183659461Y-94208152D01*
X183658075Y-94093558D01*
X183657258Y-93965132D01*
X183657067Y-93863177D01*
X183657067Y-93290266D01*
X183301467Y-93290266D01*
X183301467Y-93104000D01*
X183653630Y-93104000D01*
X183664890Y-92981233D01*
X183691083Y-92838565D01*
X183740974Y-92720042D01*
X183814069Y-92626110D01*
X183909870Y-92557215D01*
X184027885Y-92513804D01*
X184167616Y-92496324D01*
X184203349Y-92496025D01*
X184282447Y-92499382D01*
G36*
X179131634Y-92651106D02*
G01*
X179261911Y-92654406D01*
X179374657Y-92659141D01*
X179465632Y-92665044D01*
X179530593Y-92671848D01*
X179562203Y-92678146D01*
X179657530Y-92722462D01*
X179747505Y-92787690D01*
X179819922Y-92864411D01*
X179838107Y-92891005D01*
X179864339Y-92937212D01*
X179879757Y-92978040D01*
X179887158Y-93025570D01*
X179889342Y-93091881D01*
X179889401Y-93112375D01*
X179888090Y-93184945D01*
X179882449Y-93235016D01*
X179869919Y-93273907D01*
X179847937Y-93312940D01*
X179841951Y-93322108D01*
X179798048Y-93376132D01*
X179742617Y-93428823D01*
X179719554Y-93446636D01*
X179644607Y-93499464D01*
X179727840Y-93547000D01*
X179821707Y-93617814D01*
X179889329Y-93704731D01*
X179931184Y-93803054D01*
X179947754Y-93908086D01*
X179939516Y-94015129D01*
X179906952Y-94119485D01*
X179850541Y-94216457D01*
X179770763Y-94301346D01*
X179668097Y-94369457D01*
X179642591Y-94381676D01*
X179565796Y-94410100D01*
X179479201Y-94433417D01*
X179425836Y-94443085D01*
X179371014Y-94448149D01*
X179296916Y-94452204D01*
X179209958Y-94455208D01*
X179116555Y-94457118D01*
X179023121Y-94457893D01*
X178936073Y-94457490D01*
X178861824Y-94455866D01*
X178806791Y-94452980D01*
X178777388Y-94448789D01*
X178774623Y-94447377D01*
X178772470Y-94428765D01*
X178770451Y-94379456D01*
X178768607Y-94302619D01*
X178767575Y-94238533D01*
X179000401Y-94238533D01*
X179224767Y-94238161D01*
X179324652Y-94237055D01*
X179397828Y-94233610D01*
X179451416Y-94227060D01*
X179492536Y-94216642D01*
X179517568Y-94206704D01*
X179601943Y-94152347D01*
X179661199Y-94081254D01*
X179695324Y-93999299D01*
X179704308Y-93912357D01*
X179688139Y-93826303D01*
X179646807Y-93747011D01*
X179580300Y-93680357D01*
X179518616Y-93644298D01*
X179481899Y-93630581D01*
X179438295Y-93621312D01*
X179380610Y-93615709D01*
X179301647Y-93612988D01*
X179224767Y-93612371D01*
X179000401Y-93612000D01*
X179000401Y-94238533D01*
X178767575Y-94238533D01*
X178766976Y-94201424D01*
X178765597Y-94079040D01*
X178764512Y-93938637D01*
X178763757Y-93783383D01*
X178763375Y-93616450D01*
X178763334Y-93540260D01*
X178763334Y-93412201D01*
X179000401Y-93412201D01*
X179216301Y-93405712D01*
X179311606Y-93401998D01*
X179380644Y-93396754D01*
X179431010Y-93388823D01*
X179470301Y-93377046D01*
X179502741Y-93362062D01*
X179581534Y-93306715D01*
X179630221Y-93237872D01*
X179651129Y-93151779D01*
X179652334Y-93120933D01*
X179646775Y-93049104D01*
X179627662Y-92995523D01*
X179614567Y-92974854D01*
X179578073Y-92932112D01*
X179534641Y-92900666D01*
X179478510Y-92878715D01*
X179403921Y-92864457D01*
X179305112Y-92856090D01*
X179224767Y-92852947D01*
X179000401Y-92846677D01*
X179000401Y-93412201D01*
X178763334Y-93412201D01*
X178763334Y-92644432D01*
X179131634Y-92651106D01*
G37*
X179131634Y-92651106D02*
X179261911Y-92654406D01*
X179374657Y-92659141D01*
X179465632Y-92665044D01*
X179530593Y-92671848D01*
X179562203Y-92678146D01*
X179657530Y-92722462D01*
X179747505Y-92787690D01*
X179819922Y-92864411D01*
X179838107Y-92891005D01*
X179864339Y-92937212D01*
X179879757Y-92978040D01*
X179887158Y-93025570D01*
X179889342Y-93091881D01*
X179889401Y-93112375D01*
X179888090Y-93184945D01*
X179882449Y-93235016D01*
X179869919Y-93273907D01*
X179847937Y-93312940D01*
X179841951Y-93322108D01*
X179798048Y-93376132D01*
X179742617Y-93428823D01*
X179719554Y-93446636D01*
X179644607Y-93499464D01*
X179727840Y-93547000D01*
X179821707Y-93617814D01*
X179889329Y-93704731D01*
X179931184Y-93803054D01*
X179947754Y-93908086D01*
X179939516Y-94015129D01*
X179906952Y-94119485D01*
X179850541Y-94216457D01*
X179770763Y-94301346D01*
X179668097Y-94369457D01*
X179642591Y-94381676D01*
X179565796Y-94410100D01*
X179479201Y-94433417D01*
X179425836Y-94443085D01*
X179371014Y-94448149D01*
X179296916Y-94452204D01*
X179209958Y-94455208D01*
X179116555Y-94457118D01*
X179023121Y-94457893D01*
X178936073Y-94457490D01*
X178861824Y-94455866D01*
X178806791Y-94452980D01*
X178777388Y-94448789D01*
X178774623Y-94447377D01*
X178772470Y-94428765D01*
X178770451Y-94379456D01*
X178768607Y-94302619D01*
X178767575Y-94238533D01*
X179000401Y-94238533D01*
X179224767Y-94238161D01*
X179324652Y-94237055D01*
X179397828Y-94233610D01*
X179451416Y-94227060D01*
X179492536Y-94216642D01*
X179517568Y-94206704D01*
X179601943Y-94152347D01*
X179661199Y-94081254D01*
X179695324Y-93999299D01*
X179704308Y-93912357D01*
X179688139Y-93826303D01*
X179646807Y-93747011D01*
X179580300Y-93680357D01*
X179518616Y-93644298D01*
X179481899Y-93630581D01*
X179438295Y-93621312D01*
X179380610Y-93615709D01*
X179301647Y-93612988D01*
X179224767Y-93612371D01*
X179000401Y-93612000D01*
X179000401Y-94238533D01*
X178767575Y-94238533D01*
X178766976Y-94201424D01*
X178765597Y-94079040D01*
X178764512Y-93938637D01*
X178763757Y-93783383D01*
X178763375Y-93616450D01*
X178763334Y-93540260D01*
X178763334Y-93412201D01*
X179000401Y-93412201D01*
X179216301Y-93405712D01*
X179311606Y-93401998D01*
X179380644Y-93396754D01*
X179431010Y-93388823D01*
X179470301Y-93377046D01*
X179502741Y-93362062D01*
X179581534Y-93306715D01*
X179630221Y-93237872D01*
X179651129Y-93151779D01*
X179652334Y-93120933D01*
X179646775Y-93049104D01*
X179627662Y-92995523D01*
X179614567Y-92974854D01*
X179578073Y-92932112D01*
X179534641Y-92900666D01*
X179478510Y-92878715D01*
X179403921Y-92864457D01*
X179305112Y-92856090D01*
X179224767Y-92852947D01*
X179000401Y-92846677D01*
X179000401Y-93412201D01*
X178763334Y-93412201D01*
X178763334Y-92644432D01*
X179131634Y-92651106D01*
G36*
X197705666Y-93096962D02*
G01*
X197831968Y-93133054D01*
X197936357Y-93191644D01*
X198016952Y-93271451D01*
X198071870Y-93371196D01*
X198093205Y-93447687D01*
X198104970Y-93510400D01*
X197871724Y-93510400D01*
X197838296Y-93438433D01*
X197785731Y-93363072D01*
X197711329Y-93309977D01*
X197620494Y-93281295D01*
X197518634Y-93279173D01*
X197462948Y-93289319D01*
X197370947Y-93322782D01*
X197310056Y-93369118D01*
X197279960Y-93428573D01*
X197278961Y-93433428D01*
X197274400Y-93489817D01*
X197286399Y-93535722D01*
X197318309Y-93573751D01*
X197373479Y-93606510D01*
X197455259Y-93636606D01*
X197566998Y-93666645D01*
X197583829Y-93670665D01*
X197734198Y-93711138D01*
X197853931Y-93754706D01*
X197946215Y-93802794D01*
X198014240Y-93856826D01*
X198024289Y-93867442D01*
X198081799Y-93953320D01*
X198108507Y-94045453D01*
X198105622Y-94139031D01*
X198074351Y-94229247D01*
X198015901Y-94311294D01*
X197931481Y-94380364D01*
X197889534Y-94403869D01*
X197780767Y-94443830D01*
X197654606Y-94467566D01*
X197524099Y-94473696D01*
X197402292Y-94460839D01*
X197385698Y-94457215D01*
X197276153Y-94418599D01*
X197175599Y-94359176D01*
X197091118Y-94284623D01*
X197029797Y-94200615D01*
X197009726Y-94155971D01*
X196989964Y-94095936D01*
X196986146Y-94060091D01*
X197002982Y-94042199D01*
X197045180Y-94036025D01*
X197100821Y-94035333D01*
X197218041Y-94035333D01*
X197236779Y-94092109D01*
X197278678Y-94167780D01*
X197346973Y-94223553D01*
X197440044Y-94258556D01*
X197556268Y-94271919D01*
X197571490Y-94272028D01*
X197665788Y-94264110D01*
X197748082Y-94242740D01*
X197811068Y-94210546D01*
X197845834Y-94173352D01*
X197858554Y-94132698D01*
X197864124Y-94081457D01*
X197864134Y-94079439D01*
X197855916Y-94028730D01*
X197829034Y-93986016D01*
X197780143Y-93949138D01*
X197705899Y-93915940D01*
X197602957Y-93884263D01*
X197535377Y-93867295D01*
X197377778Y-93823316D01*
X197252041Y-93773200D01*
X197156509Y-93715647D01*
X197089524Y-93649356D01*
X197049429Y-93573026D01*
X197034567Y-93485355D01*
X197034401Y-93474087D01*
X197050129Y-93372169D01*
X197095264Y-93282114D01*
X197166728Y-93206205D01*
X197261442Y-93146725D01*
X197376331Y-93105958D01*
X197508316Y-93086186D01*
X197559334Y-93084647D01*
X197705666Y-93096962D01*
G37*
X197705666Y-93096962D02*
X197831968Y-93133054D01*
X197936357Y-93191644D01*
X198016952Y-93271451D01*
X198071870Y-93371196D01*
X198093205Y-93447687D01*
X198104970Y-93510400D01*
X197871724Y-93510400D01*
X197838296Y-93438433D01*
X197785731Y-93363072D01*
X197711329Y-93309977D01*
X197620494Y-93281295D01*
X197518634Y-93279173D01*
X197462948Y-93289319D01*
X197370947Y-93322782D01*
X197310056Y-93369118D01*
X197279960Y-93428573D01*
X197278961Y-93433428D01*
X197274400Y-93489817D01*
X197286399Y-93535722D01*
X197318309Y-93573751D01*
X197373479Y-93606510D01*
X197455259Y-93636606D01*
X197566998Y-93666645D01*
X197583829Y-93670665D01*
X197734198Y-93711138D01*
X197853931Y-93754706D01*
X197946215Y-93802794D01*
X198014240Y-93856826D01*
X198024289Y-93867442D01*
X198081799Y-93953320D01*
X198108507Y-94045453D01*
X198105622Y-94139031D01*
X198074351Y-94229247D01*
X198015901Y-94311294D01*
X197931481Y-94380364D01*
X197889534Y-94403869D01*
X197780767Y-94443830D01*
X197654606Y-94467566D01*
X197524099Y-94473696D01*
X197402292Y-94460839D01*
X197385698Y-94457215D01*
X197276153Y-94418599D01*
X197175599Y-94359176D01*
X197091118Y-94284623D01*
X197029797Y-94200615D01*
X197009726Y-94155971D01*
X196989964Y-94095936D01*
X196986146Y-94060091D01*
X197002982Y-94042199D01*
X197045180Y-94036025D01*
X197100821Y-94035333D01*
X197218041Y-94035333D01*
X197236779Y-94092109D01*
X197278678Y-94167780D01*
X197346973Y-94223553D01*
X197440044Y-94258556D01*
X197556268Y-94271919D01*
X197571490Y-94272028D01*
X197665788Y-94264110D01*
X197748082Y-94242740D01*
X197811068Y-94210546D01*
X197845834Y-94173352D01*
X197858554Y-94132698D01*
X197864124Y-94081457D01*
X197864134Y-94079439D01*
X197855916Y-94028730D01*
X197829034Y-93986016D01*
X197780143Y-93949138D01*
X197705899Y-93915940D01*
X197602957Y-93884263D01*
X197535377Y-93867295D01*
X197377778Y-93823316D01*
X197252041Y-93773200D01*
X197156509Y-93715647D01*
X197089524Y-93649356D01*
X197049429Y-93573026D01*
X197034567Y-93485355D01*
X197034401Y-93474087D01*
X197050129Y-93372169D01*
X197095264Y-93282114D01*
X197166728Y-93206205D01*
X197261442Y-93146725D01*
X197376331Y-93105958D01*
X197508316Y-93086186D01*
X197559334Y-93084647D01*
X197705666Y-93096962D01*
G36*
X195713601Y-93228436D02*
G01*
X195751911Y-93192445D01*
X195827187Y-93141693D01*
X195923898Y-93105788D01*
X196032226Y-93086541D01*
X196142350Y-93085761D01*
X196237149Y-93103012D01*
X196342548Y-93151483D01*
X196432815Y-93228313D01*
X196506253Y-93330772D01*
X196561167Y-93456130D01*
X196595859Y-93601657D01*
X196606213Y-93696768D01*
X196605536Y-93865062D01*
X196581990Y-94017380D01*
X196537430Y-94151592D01*
X196473710Y-94265568D01*
X196392683Y-94357178D01*
X196296203Y-94424291D01*
X196186125Y-94464777D01*
X196064302Y-94476506D01*
X195942201Y-94459766D01*
X195838389Y-94418934D01*
X195748687Y-94353580D01*
X195743918Y-94348899D01*
X195698739Y-94303720D01*
X195688201Y-94450200D01*
X195468067Y-94450200D01*
X195463524Y-93460778D01*
X195713601Y-93460778D01*
X195713712Y-93769222D01*
X195714262Y-93888149D01*
X195716650Y-93978536D01*
X195722133Y-94045707D01*
X195731967Y-94094984D01*
X195747407Y-94131689D01*
X195769709Y-94161144D01*
X195800130Y-94188673D01*
X195815570Y-94200895D01*
X195900754Y-94246825D01*
X195997830Y-94266439D01*
X196096935Y-94259372D01*
X196188199Y-94225259D01*
X196204454Y-94215284D01*
X196268299Y-94153845D01*
X196318021Y-94066118D01*
X196352005Y-93957289D01*
X196368631Y-93832542D01*
X196366282Y-93697065D01*
X196366247Y-93696666D01*
X196343418Y-93559778D01*
X196301853Y-93451046D01*
X196241442Y-93370344D01*
X196162078Y-93317546D01*
X196063652Y-93292525D01*
X196018401Y-93290266D01*
X195918915Y-93301225D01*
X195837973Y-93336475D01*
X195768369Y-93398400D01*
X195713601Y-93460778D01*
X195463524Y-93460778D01*
X195459319Y-92545200D01*
X195713601Y-92545200D01*
X195713601Y-93228436D01*
G37*
X195713601Y-93228436D02*
X195751911Y-93192445D01*
X195827187Y-93141693D01*
X195923898Y-93105788D01*
X196032226Y-93086541D01*
X196142350Y-93085761D01*
X196237149Y-93103012D01*
X196342548Y-93151483D01*
X196432815Y-93228313D01*
X196506253Y-93330772D01*
X196561167Y-93456130D01*
X196595859Y-93601657D01*
X196606213Y-93696768D01*
X196605536Y-93865062D01*
X196581990Y-94017380D01*
X196537430Y-94151592D01*
X196473710Y-94265568D01*
X196392683Y-94357178D01*
X196296203Y-94424291D01*
X196186125Y-94464777D01*
X196064302Y-94476506D01*
X195942201Y-94459766D01*
X195838389Y-94418934D01*
X195748687Y-94353580D01*
X195743918Y-94348899D01*
X195698739Y-94303720D01*
X195688201Y-94450200D01*
X195468067Y-94450200D01*
X195463524Y-93460778D01*
X195713601Y-93460778D01*
X195713712Y-93769222D01*
X195714262Y-93888149D01*
X195716650Y-93978536D01*
X195722133Y-94045707D01*
X195731967Y-94094984D01*
X195747407Y-94131689D01*
X195769709Y-94161144D01*
X195800130Y-94188673D01*
X195815570Y-94200895D01*
X195900754Y-94246825D01*
X195997830Y-94266439D01*
X196096935Y-94259372D01*
X196188199Y-94225259D01*
X196204454Y-94215284D01*
X196268299Y-94153845D01*
X196318021Y-94066118D01*
X196352005Y-93957289D01*
X196368631Y-93832542D01*
X196366282Y-93697065D01*
X196366247Y-93696666D01*
X196343418Y-93559778D01*
X196301853Y-93451046D01*
X196241442Y-93370344D01*
X196162078Y-93317546D01*
X196063652Y-93292525D01*
X196018401Y-93290266D01*
X195918915Y-93301225D01*
X195837973Y-93336475D01*
X195768369Y-93398400D01*
X195713601Y-93460778D01*
X195463524Y-93460778D01*
X195459319Y-92545200D01*
X195713601Y-92545200D01*
X195713601Y-93228436D01*
G36*
X194643878Y-93096903D02*
G01*
X194770576Y-93133523D01*
X194874067Y-93194290D01*
X194953922Y-93278985D01*
X194988550Y-93337577D01*
X195000251Y-93362905D01*
X195009526Y-93388837D01*
X195016781Y-93419783D01*
X195022425Y-93460154D01*
X195026865Y-93514360D01*
X195030510Y-93586812D01*
X195033766Y-93681920D01*
X195037041Y-93804095D01*
X195038963Y-93882933D01*
X195042346Y-94008118D01*
X195046219Y-94124703D01*
X195050358Y-94227646D01*
X195054539Y-94311909D01*
X195058536Y-94372451D01*
X195062127Y-94404232D01*
X195062166Y-94404416D01*
X195074208Y-94460232D01*
X194949404Y-94455216D01*
X194824601Y-94450200D01*
X194809115Y-94380471D01*
X194793630Y-94310742D01*
X194719499Y-94367327D01*
X194612587Y-94428710D01*
X194490717Y-94464617D01*
X194362869Y-94473532D01*
X194238021Y-94453939D01*
X194226684Y-94450553D01*
X194114261Y-94400192D01*
X194027414Y-94328592D01*
X193967698Y-94238218D01*
X193936672Y-94131536D01*
X193935894Y-94011010D01*
X193936609Y-94005643D01*
X194175818Y-94005643D01*
X194176656Y-94080999D01*
X194197575Y-94151097D01*
X194236312Y-94205788D01*
X194261742Y-94224233D01*
X194351337Y-94254863D01*
X194453863Y-94260068D01*
X194560245Y-94240163D01*
X194632430Y-94211316D01*
X194699627Y-94172669D01*
X194743632Y-94131564D01*
X194769001Y-94079745D01*
X194780294Y-94008958D01*
X194782267Y-93939916D01*
X194782267Y-93798266D01*
X194649112Y-93798266D01*
X194505912Y-93804886D01*
X194386007Y-93824251D01*
X194291837Y-93855624D01*
X194225842Y-93898263D01*
X194197321Y-93935175D01*
X194175818Y-94005643D01*
X193936609Y-94005643D01*
X193938162Y-93994009D01*
X193969645Y-93888774D01*
X194029830Y-93801112D01*
X194118344Y-93731223D01*
X194234817Y-93679310D01*
X194378876Y-93645576D01*
X194550151Y-93630223D01*
X194608701Y-93629227D01*
X194782267Y-93628933D01*
X194782204Y-93540033D01*
X194769456Y-93444844D01*
X194731016Y-93371226D01*
X194666364Y-93318657D01*
X194574980Y-93286619D01*
X194520332Y-93278262D01*
X194426601Y-93279902D01*
X194340530Y-93302208D01*
X194268841Y-93341742D01*
X194218256Y-93395068D01*
X194197967Y-93443124D01*
X194190348Y-93470411D01*
X194176984Y-93485472D01*
X194149307Y-93491938D01*
X194098747Y-93493440D01*
X194079188Y-93493466D01*
X194021798Y-93491049D01*
X193978962Y-93484745D01*
X193961242Y-93476924D01*
X193956098Y-93439713D01*
X193970918Y-93386580D01*
X194001949Y-93325778D01*
X194045438Y-93265560D01*
X194069025Y-93239896D01*
X194159735Y-93166120D01*
X194262014Y-93117160D01*
X194381801Y-93090848D01*
X194494401Y-93084647D01*
X194643878Y-93096903D01*
G37*
X194643878Y-93096903D02*
X194770576Y-93133523D01*
X194874067Y-93194290D01*
X194953922Y-93278985D01*
X194988550Y-93337577D01*
X195000251Y-93362905D01*
X195009526Y-93388837D01*
X195016781Y-93419783D01*
X195022425Y-93460154D01*
X195026865Y-93514360D01*
X195030510Y-93586812D01*
X195033766Y-93681920D01*
X195037041Y-93804095D01*
X195038963Y-93882933D01*
X195042346Y-94008118D01*
X195046219Y-94124703D01*
X195050358Y-94227646D01*
X195054539Y-94311909D01*
X195058536Y-94372451D01*
X195062127Y-94404232D01*
X195062166Y-94404416D01*
X195074208Y-94460232D01*
X194949404Y-94455216D01*
X194824601Y-94450200D01*
X194809115Y-94380471D01*
X194793630Y-94310742D01*
X194719499Y-94367327D01*
X194612587Y-94428710D01*
X194490717Y-94464617D01*
X194362869Y-94473532D01*
X194238021Y-94453939D01*
X194226684Y-94450553D01*
X194114261Y-94400192D01*
X194027414Y-94328592D01*
X193967698Y-94238218D01*
X193936672Y-94131536D01*
X193935894Y-94011010D01*
X193936609Y-94005643D01*
X194175818Y-94005643D01*
X194176656Y-94080999D01*
X194197575Y-94151097D01*
X194236312Y-94205788D01*
X194261742Y-94224233D01*
X194351337Y-94254863D01*
X194453863Y-94260068D01*
X194560245Y-94240163D01*
X194632430Y-94211316D01*
X194699627Y-94172669D01*
X194743632Y-94131564D01*
X194769001Y-94079745D01*
X194780294Y-94008958D01*
X194782267Y-93939916D01*
X194782267Y-93798266D01*
X194649112Y-93798266D01*
X194505912Y-93804886D01*
X194386007Y-93824251D01*
X194291837Y-93855624D01*
X194225842Y-93898263D01*
X194197321Y-93935175D01*
X194175818Y-94005643D01*
X193936609Y-94005643D01*
X193938162Y-93994009D01*
X193969645Y-93888774D01*
X194029830Y-93801112D01*
X194118344Y-93731223D01*
X194234817Y-93679310D01*
X194378876Y-93645576D01*
X194550151Y-93630223D01*
X194608701Y-93629227D01*
X194782267Y-93628933D01*
X194782204Y-93540033D01*
X194769456Y-93444844D01*
X194731016Y-93371226D01*
X194666364Y-93318657D01*
X194574980Y-93286619D01*
X194520332Y-93278262D01*
X194426601Y-93279902D01*
X194340530Y-93302208D01*
X194268841Y-93341742D01*
X194218256Y-93395068D01*
X194197967Y-93443124D01*
X194190348Y-93470411D01*
X194176984Y-93485472D01*
X194149307Y-93491938D01*
X194098747Y-93493440D01*
X194079188Y-93493466D01*
X194021798Y-93491049D01*
X193978962Y-93484745D01*
X193961242Y-93476924D01*
X193956098Y-93439713D01*
X193970918Y-93386580D01*
X194001949Y-93325778D01*
X194045438Y-93265560D01*
X194069025Y-93239896D01*
X194159735Y-93166120D01*
X194262014Y-93117160D01*
X194381801Y-93090848D01*
X194494401Y-93084647D01*
X194643878Y-93096903D01*
G36*
X190494041Y-93497700D02*
G01*
X190489667Y-94450200D01*
X190269534Y-94450200D01*
X190264280Y-94386722D01*
X190259025Y-94323244D01*
X190194654Y-94374975D01*
X190095962Y-94433460D01*
X189981507Y-94466229D01*
X189858928Y-94472047D01*
X189735862Y-94449682D01*
X189734595Y-94449293D01*
X189635316Y-94401719D01*
X189545180Y-94325178D01*
X189468023Y-94224150D01*
X189407685Y-94103118D01*
X189387122Y-94043585D01*
X189365677Y-93939163D01*
X189356280Y-93817033D01*
X189357295Y-93764400D01*
X189596749Y-93764400D01*
X189606210Y-93908690D01*
X189635907Y-94031173D01*
X189684285Y-94130165D01*
X189749785Y-94203983D01*
X189830853Y-94250944D01*
X189925931Y-94269364D01*
X190033464Y-94257560D01*
X190049019Y-94253512D01*
X190102763Y-94229271D01*
X190159424Y-94189812D01*
X190180252Y-94170932D01*
X190244134Y-94107050D01*
X190244134Y-93776158D01*
X190244019Y-93662491D01*
X190243300Y-93577589D01*
X190241411Y-93516348D01*
X190237788Y-93473664D01*
X190231867Y-93444436D01*
X190223084Y-93423561D01*
X190210873Y-93405935D01*
X190201997Y-93395188D01*
X190129984Y-93333749D01*
X190039090Y-93299157D01*
X189947547Y-93290266D01*
X189842231Y-93304722D01*
X189754724Y-93347461D01*
X189685724Y-93417537D01*
X189635929Y-93514008D01*
X189606040Y-93635929D01*
X189596749Y-93764400D01*
X189357295Y-93764400D01*
X189358734Y-93689859D01*
X189372842Y-93570306D01*
X189395942Y-93477937D01*
X189456079Y-93341160D01*
X189531740Y-93234247D01*
X189623756Y-93156549D01*
X189732954Y-93107420D01*
X189860165Y-93086209D01*
X189898373Y-93085185D01*
X190018385Y-93095962D01*
X190122022Y-93130517D01*
X190206034Y-93181704D01*
X190244134Y-93209730D01*
X190244134Y-92545200D01*
X190498416Y-92545200D01*
X190494041Y-93497700D01*
G37*
X190494041Y-93497700D02*
X190489667Y-94450200D01*
X190269534Y-94450200D01*
X190264280Y-94386722D01*
X190259025Y-94323244D01*
X190194654Y-94374975D01*
X190095962Y-94433460D01*
X189981507Y-94466229D01*
X189858928Y-94472047D01*
X189735862Y-94449682D01*
X189734595Y-94449293D01*
X189635316Y-94401719D01*
X189545180Y-94325178D01*
X189468023Y-94224150D01*
X189407685Y-94103118D01*
X189387122Y-94043585D01*
X189365677Y-93939163D01*
X189356280Y-93817033D01*
X189357295Y-93764400D01*
X189596749Y-93764400D01*
X189606210Y-93908690D01*
X189635907Y-94031173D01*
X189684285Y-94130165D01*
X189749785Y-94203983D01*
X189830853Y-94250944D01*
X189925931Y-94269364D01*
X190033464Y-94257560D01*
X190049019Y-94253512D01*
X190102763Y-94229271D01*
X190159424Y-94189812D01*
X190180252Y-94170932D01*
X190244134Y-94107050D01*
X190244134Y-93776158D01*
X190244019Y-93662491D01*
X190243300Y-93577589D01*
X190241411Y-93516348D01*
X190237788Y-93473664D01*
X190231867Y-93444436D01*
X190223084Y-93423561D01*
X190210873Y-93405935D01*
X190201997Y-93395188D01*
X190129984Y-93333749D01*
X190039090Y-93299157D01*
X189947547Y-93290266D01*
X189842231Y-93304722D01*
X189754724Y-93347461D01*
X189685724Y-93417537D01*
X189635929Y-93514008D01*
X189606040Y-93635929D01*
X189596749Y-93764400D01*
X189357295Y-93764400D01*
X189358734Y-93689859D01*
X189372842Y-93570306D01*
X189395942Y-93477937D01*
X189456079Y-93341160D01*
X189531740Y-93234247D01*
X189623756Y-93156549D01*
X189732954Y-93107420D01*
X189860165Y-93086209D01*
X189898373Y-93085185D01*
X190018385Y-93095962D01*
X190122022Y-93130517D01*
X190206034Y-93181704D01*
X190244134Y-93209730D01*
X190244134Y-92545200D01*
X190498416Y-92545200D01*
X190494041Y-93497700D01*
G36*
X187070190Y-93097388D02*
G01*
X187193794Y-93137673D01*
X187297945Y-93205559D01*
X187383469Y-93301603D01*
X187451192Y-93426362D01*
X187457913Y-93442666D01*
X187475786Y-93506401D01*
X187489516Y-93594085D01*
X187496944Y-93683966D01*
X187505462Y-93849066D01*
X187029064Y-93849066D01*
X186885066Y-93849347D01*
X186771727Y-93850289D01*
X186685844Y-93852044D01*
X186624215Y-93854760D01*
X186583636Y-93858588D01*
X186560904Y-93863678D01*
X186552816Y-93870181D01*
X186552667Y-93871393D01*
X186562555Y-93932285D01*
X186588405Y-94005826D01*
X186624493Y-94078651D01*
X186665098Y-94137392D01*
X186667923Y-94140589D01*
X186747055Y-94210965D01*
X186835402Y-94253259D01*
X186940680Y-94270752D01*
X186976000Y-94271656D01*
X187091830Y-94259672D01*
X187192554Y-94221288D01*
X187285943Y-94154514D01*
X187348137Y-94099906D01*
X187415952Y-94153617D01*
X187455915Y-94188319D01*
X187471922Y-94212910D01*
X187468702Y-94235280D01*
X187466970Y-94238714D01*
X187435688Y-94277743D01*
X187383269Y-94324314D01*
X187319081Y-94371256D01*
X187252491Y-94411399D01*
X187221572Y-94426527D01*
X187134503Y-94453184D01*
X187028590Y-94467870D01*
X186916915Y-94469915D01*
X186812559Y-94458646D01*
X186773211Y-94449545D01*
X186636387Y-94395049D01*
X186521056Y-94314385D01*
X186427323Y-94207641D01*
X186368689Y-94105098D01*
X186350138Y-94062913D01*
X186337566Y-94024448D01*
X186329824Y-93981568D01*
X186325766Y-93926138D01*
X186324242Y-93850023D01*
X186324067Y-93788921D01*
X186324067Y-93645866D01*
X186569601Y-93645866D01*
X187268196Y-93645866D01*
X187256984Y-93573900D01*
X187230415Y-93485957D01*
X187182791Y-93404476D01*
X187121313Y-93340270D01*
X187086067Y-93317199D01*
X186991369Y-93285811D01*
X186890757Y-93283600D01*
X186792696Y-93309082D01*
X186705653Y-93360772D01*
X186675046Y-93389271D01*
X186634912Y-93442457D01*
X186599868Y-93507030D01*
X186576292Y-93569726D01*
X186569972Y-93607766D01*
X186569601Y-93645866D01*
X186324067Y-93645866D01*
X186324067Y-93567910D01*
X186387836Y-93438882D01*
X186467486Y-93310267D01*
X186564850Y-93209520D01*
X186678409Y-93137640D01*
X186806646Y-93095627D01*
X186926309Y-93084147D01*
X187070190Y-93097388D01*
G37*
X187070190Y-93097388D02*
X187193794Y-93137673D01*
X187297945Y-93205559D01*
X187383469Y-93301603D01*
X187451192Y-93426362D01*
X187457913Y-93442666D01*
X187475786Y-93506401D01*
X187489516Y-93594085D01*
X187496944Y-93683966D01*
X187505462Y-93849066D01*
X187029064Y-93849066D01*
X186885066Y-93849347D01*
X186771727Y-93850289D01*
X186685844Y-93852044D01*
X186624215Y-93854760D01*
X186583636Y-93858588D01*
X186560904Y-93863678D01*
X186552816Y-93870181D01*
X186552667Y-93871393D01*
X186562555Y-93932285D01*
X186588405Y-94005826D01*
X186624493Y-94078651D01*
X186665098Y-94137392D01*
X186667923Y-94140589D01*
X186747055Y-94210965D01*
X186835402Y-94253259D01*
X186940680Y-94270752D01*
X186976000Y-94271656D01*
X187091830Y-94259672D01*
X187192554Y-94221288D01*
X187285943Y-94154514D01*
X187348137Y-94099906D01*
X187415952Y-94153617D01*
X187455915Y-94188319D01*
X187471922Y-94212910D01*
X187468702Y-94235280D01*
X187466970Y-94238714D01*
X187435688Y-94277743D01*
X187383269Y-94324314D01*
X187319081Y-94371256D01*
X187252491Y-94411399D01*
X187221572Y-94426527D01*
X187134503Y-94453184D01*
X187028590Y-94467870D01*
X186916915Y-94469915D01*
X186812559Y-94458646D01*
X186773211Y-94449545D01*
X186636387Y-94395049D01*
X186521056Y-94314385D01*
X186427323Y-94207641D01*
X186368689Y-94105098D01*
X186350138Y-94062913D01*
X186337566Y-94024448D01*
X186329824Y-93981568D01*
X186325766Y-93926138D01*
X186324242Y-93850023D01*
X186324067Y-93788921D01*
X186324067Y-93645866D01*
X186569601Y-93645866D01*
X187268196Y-93645866D01*
X187256984Y-93573900D01*
X187230415Y-93485957D01*
X187182791Y-93404476D01*
X187121313Y-93340270D01*
X187086067Y-93317199D01*
X186991369Y-93285811D01*
X186890757Y-93283600D01*
X186792696Y-93309082D01*
X186705653Y-93360772D01*
X186675046Y-93389271D01*
X186634912Y-93442457D01*
X186599868Y-93507030D01*
X186576292Y-93569726D01*
X186569972Y-93607766D01*
X186569601Y-93645866D01*
X186324067Y-93645866D01*
X186324067Y-93567910D01*
X186387836Y-93438882D01*
X186467486Y-93310267D01*
X186564850Y-93209520D01*
X186678409Y-93137640D01*
X186806646Y-93095627D01*
X186926309Y-93084147D01*
X187070190Y-93097388D01*
G36*
X182479233Y-93091097D02*
G01*
X182602250Y-93123594D01*
X182712976Y-93184824D01*
X182804407Y-93270767D01*
X182814455Y-93283472D01*
X182866591Y-93361733D01*
X182902767Y-93442607D01*
X182925968Y-93535509D01*
X182939176Y-93649855D01*
X182941326Y-93683966D01*
X182950395Y-93849066D01*
X182473998Y-93849066D01*
X182329999Y-93849347D01*
X182216660Y-93850289D01*
X182130778Y-93852044D01*
X182069149Y-93854760D01*
X182028570Y-93858588D01*
X182005838Y-93863678D01*
X181997750Y-93870181D01*
X181997600Y-93871393D01*
X182007435Y-93930842D01*
X182033215Y-94003369D01*
X182069357Y-94075908D01*
X182110279Y-94135394D01*
X182110574Y-94135739D01*
X182187486Y-94207565D01*
X182274287Y-94251369D01*
X182378193Y-94270313D01*
X182420934Y-94271656D01*
X182536764Y-94259672D01*
X182637487Y-94221288D01*
X182730876Y-94154514D01*
X182793070Y-94099906D01*
X182861002Y-94153709D01*
X182899735Y-94186785D01*
X182924333Y-94212403D01*
X182928934Y-94220866D01*
X182915722Y-94244287D01*
X182880929Y-94279632D01*
X182831824Y-94321078D01*
X182775672Y-94362807D01*
X182719740Y-94398997D01*
X182680533Y-94419824D01*
X182580687Y-94452128D01*
X182463631Y-94469003D01*
X182342727Y-94469591D01*
X182231337Y-94453032D01*
X182218144Y-94449545D01*
X182081314Y-94395053D01*
X181966065Y-94314468D01*
X181872602Y-94207965D01*
X181814104Y-94105183D01*
X181795648Y-94062755D01*
X181783130Y-94023825D01*
X181775396Y-93980233D01*
X181771293Y-93923817D01*
X181769667Y-93846418D01*
X181769405Y-93788921D01*
X181769080Y-93611294D01*
X182013499Y-93611294D01*
X182026839Y-93627943D01*
X182058144Y-93638184D01*
X182110939Y-93643561D01*
X182188747Y-93645620D01*
X182295091Y-93645905D01*
X182361667Y-93645866D01*
X182708801Y-93645866D01*
X182708801Y-93598391D01*
X182696978Y-93536901D01*
X182666133Y-93465947D01*
X182623201Y-93397814D01*
X182575118Y-93344789D01*
X182558553Y-93332204D01*
X182467731Y-93291073D01*
X182371571Y-93279840D01*
X182276019Y-93296472D01*
X182187021Y-93338936D01*
X182110523Y-93405198D01*
X182052472Y-93493226D01*
X182046040Y-93507440D01*
X182026623Y-93552587D01*
X182014601Y-93586690D01*
X182013499Y-93611294D01*
X181769080Y-93611294D01*
X181769000Y-93567910D01*
X181832879Y-93438661D01*
X181913037Y-93309667D01*
X182011308Y-93208994D01*
X182126253Y-93137415D01*
X182256437Y-93095702D01*
X182400423Y-93084628D01*
X182479233Y-93091097D01*
G37*
X182479233Y-93091097D02*
X182602250Y-93123594D01*
X182712976Y-93184824D01*
X182804407Y-93270767D01*
X182814455Y-93283472D01*
X182866591Y-93361733D01*
X182902767Y-93442607D01*
X182925968Y-93535509D01*
X182939176Y-93649855D01*
X182941326Y-93683966D01*
X182950395Y-93849066D01*
X182473998Y-93849066D01*
X182329999Y-93849347D01*
X182216660Y-93850289D01*
X182130778Y-93852044D01*
X182069149Y-93854760D01*
X182028570Y-93858588D01*
X182005838Y-93863678D01*
X181997750Y-93870181D01*
X181997600Y-93871393D01*
X182007435Y-93930842D01*
X182033215Y-94003369D01*
X182069357Y-94075908D01*
X182110279Y-94135394D01*
X182110574Y-94135739D01*
X182187486Y-94207565D01*
X182274287Y-94251369D01*
X182378193Y-94270313D01*
X182420934Y-94271656D01*
X182536764Y-94259672D01*
X182637487Y-94221288D01*
X182730876Y-94154514D01*
X182793070Y-94099906D01*
X182861002Y-94153709D01*
X182899735Y-94186785D01*
X182924333Y-94212403D01*
X182928934Y-94220866D01*
X182915722Y-94244287D01*
X182880929Y-94279632D01*
X182831824Y-94321078D01*
X182775672Y-94362807D01*
X182719740Y-94398997D01*
X182680533Y-94419824D01*
X182580687Y-94452128D01*
X182463631Y-94469003D01*
X182342727Y-94469591D01*
X182231337Y-94453032D01*
X182218144Y-94449545D01*
X182081314Y-94395053D01*
X181966065Y-94314468D01*
X181872602Y-94207965D01*
X181814104Y-94105183D01*
X181795648Y-94062755D01*
X181783130Y-94023825D01*
X181775396Y-93980233D01*
X181771293Y-93923817D01*
X181769667Y-93846418D01*
X181769405Y-93788921D01*
X181769080Y-93611294D01*
X182013499Y-93611294D01*
X182026839Y-93627943D01*
X182058144Y-93638184D01*
X182110939Y-93643561D01*
X182188747Y-93645620D01*
X182295091Y-93645905D01*
X182361667Y-93645866D01*
X182708801Y-93645866D01*
X182708801Y-93598391D01*
X182696978Y-93536901D01*
X182666133Y-93465947D01*
X182623201Y-93397814D01*
X182575118Y-93344789D01*
X182558553Y-93332204D01*
X182467731Y-93291073D01*
X182371571Y-93279840D01*
X182276019Y-93296472D01*
X182187021Y-93338936D01*
X182110523Y-93405198D01*
X182052472Y-93493226D01*
X182046040Y-93507440D01*
X182026623Y-93552587D01*
X182014601Y-93586690D01*
X182013499Y-93611294D01*
X181769080Y-93611294D01*
X181769000Y-93567910D01*
X181832879Y-93438661D01*
X181913037Y-93309667D01*
X182011308Y-93208994D01*
X182126253Y-93137415D01*
X182256437Y-93095702D01*
X182400423Y-93084628D01*
X182479233Y-93091097D01*
G36*
X180998863Y-93095961D02*
G01*
X181118490Y-93136550D01*
X181167867Y-93163946D01*
X181261775Y-93243494D01*
X181337391Y-93348915D01*
X181393132Y-93476629D01*
X181427416Y-93623051D01*
X181438673Y-93777100D01*
X181438800Y-93849066D01*
X180477973Y-93849066D01*
X180492722Y-93928016D01*
X180529710Y-94044161D01*
X180591634Y-94139224D01*
X180675458Y-94210652D01*
X180778149Y-94255887D01*
X180896671Y-94272374D01*
X180901729Y-94272400D01*
X181015389Y-94261070D01*
X181112060Y-94224871D01*
X181194600Y-94166088D01*
X181237573Y-94129618D01*
X181264753Y-94112950D01*
X181285210Y-94112889D01*
X181307898Y-94126160D01*
X181363262Y-94166982D01*
X181394012Y-94195013D01*
X181404761Y-94214573D01*
X181404934Y-94217076D01*
X181391634Y-94242349D01*
X181356524Y-94279265D01*
X181306783Y-94321961D01*
X181249594Y-94364576D01*
X181192138Y-94401250D01*
X181156533Y-94419824D01*
X181065347Y-94449620D01*
X180956613Y-94467138D01*
X180844415Y-94471317D01*
X180742834Y-94461097D01*
X180710667Y-94453426D01*
X180570557Y-94397033D01*
X180453414Y-94316848D01*
X180360392Y-94214985D01*
X180292648Y-94093557D01*
X180251336Y-93954681D01*
X180237611Y-93800470D01*
X180251477Y-93645866D01*
X180487843Y-93645866D01*
X181197361Y-93645866D01*
X181183169Y-93569898D01*
X181154162Y-93469808D01*
X181106876Y-93392436D01*
X181066350Y-93352201D01*
X180999621Y-93310911D01*
X180919792Y-93282440D01*
X180854600Y-93273522D01*
X180758680Y-93289629D01*
X180669712Y-93334719D01*
X180593121Y-93403940D01*
X180534331Y-93492442D01*
X180499722Y-93590833D01*
X180487843Y-93645866D01*
X180251477Y-93645866D01*
X180252628Y-93633038D01*
X180255067Y-93619343D01*
X180297489Y-93474503D01*
X180366902Y-93346808D01*
X180460799Y-93239608D01*
X180576674Y-93156258D01*
X180616561Y-93135836D01*
X180739543Y-93095178D01*
X180869762Y-93082029D01*
X180998863Y-93095961D01*
G37*
X180998863Y-93095961D02*
X181118490Y-93136550D01*
X181167867Y-93163946D01*
X181261775Y-93243494D01*
X181337391Y-93348915D01*
X181393132Y-93476629D01*
X181427416Y-93623051D01*
X181438673Y-93777100D01*
X181438800Y-93849066D01*
X180477973Y-93849066D01*
X180492722Y-93928016D01*
X180529710Y-94044161D01*
X180591634Y-94139224D01*
X180675458Y-94210652D01*
X180778149Y-94255887D01*
X180896671Y-94272374D01*
X180901729Y-94272400D01*
X181015389Y-94261070D01*
X181112060Y-94224871D01*
X181194600Y-94166088D01*
X181237573Y-94129618D01*
X181264753Y-94112950D01*
X181285210Y-94112889D01*
X181307898Y-94126160D01*
X181363262Y-94166982D01*
X181394012Y-94195013D01*
X181404761Y-94214573D01*
X181404934Y-94217076D01*
X181391634Y-94242349D01*
X181356524Y-94279265D01*
X181306783Y-94321961D01*
X181249594Y-94364576D01*
X181192138Y-94401250D01*
X181156533Y-94419824D01*
X181065347Y-94449620D01*
X180956613Y-94467138D01*
X180844415Y-94471317D01*
X180742834Y-94461097D01*
X180710667Y-94453426D01*
X180570557Y-94397033D01*
X180453414Y-94316848D01*
X180360392Y-94214985D01*
X180292648Y-94093557D01*
X180251336Y-93954681D01*
X180237611Y-93800470D01*
X180251477Y-93645866D01*
X180487843Y-93645866D01*
X181197361Y-93645866D01*
X181183169Y-93569898D01*
X181154162Y-93469808D01*
X181106876Y-93392436D01*
X181066350Y-93352201D01*
X180999621Y-93310911D01*
X180919792Y-93282440D01*
X180854600Y-93273522D01*
X180758680Y-93289629D01*
X180669712Y-93334719D01*
X180593121Y-93403940D01*
X180534331Y-93492442D01*
X180499722Y-93590833D01*
X180487843Y-93645866D01*
X180251477Y-93645866D01*
X180252628Y-93633038D01*
X180255067Y-93619343D01*
X180297489Y-93474503D01*
X180366902Y-93346808D01*
X180460799Y-93239608D01*
X180576674Y-93156258D01*
X180616561Y-93135836D01*
X180739543Y-93095178D01*
X180869762Y-93082029D01*
X180998863Y-93095961D01*
%TD*%
M02*
