%TF.GenerationSoftware,KiCad,Pcbnew,5.1.10-88a1d61d58~90~ubuntu20.04.1*%
%TF.CreationDate,2021-08-16T21:11:30-07:00*%
%TF.ProjectId,rear-panel,72656172-2d70-4616-9e65-6c2e6b696361,rev?*%
%TF.SameCoordinates,Original*%
%TF.FileFunction,Copper,L2,Bot*%
%TF.FilePolarity,Positive*%
%FSLAX46Y46*%
G04 Gerber Fmt 4.6, Leading zero omitted, Abs format (unit mm)*
G04 Created by KiCad (PCBNEW 5.1.10-88a1d61d58~90~ubuntu20.04.1) date 2021-08-16 21:11:30*
%MOMM*%
%LPD*%
G01*
G04 APERTURE LIST*
%TA.AperFunction,NonConductor*%
%ADD10C,0.300000*%
%TD*%
%TA.AperFunction,NonConductor*%
%ADD11C,0.100000*%
%TD*%
G04 APERTURE END LIST*
D10*
X216204157Y-60157123D02*
X216829567Y-60345946D01*
X217406389Y-60652648D01*
X217912652Y-61065547D01*
X218329075Y-61568916D01*
X218639795Y-62143582D01*
X218832978Y-62767656D01*
X218903985Y-63443237D01*
X218903986Y-106743816D01*
X218837596Y-107420908D01*
X218648774Y-108046318D01*
X218342074Y-108623136D01*
X217929172Y-109129404D01*
X217425806Y-109545825D01*
X216851138Y-109856545D01*
X216227067Y-110049728D01*
X215551484Y-110120735D01*
X58380874Y-110120735D01*
X57703813Y-110054348D01*
X57078403Y-109865526D01*
X56501586Y-109558827D01*
X55995319Y-109145927D01*
X55578896Y-108642559D01*
X55268175Y-108067890D01*
X55074992Y-107443818D01*
X55003985Y-106768235D01*
X55003985Y-106641336D01*
X56885156Y-106641336D01*
X56885156Y-107096136D01*
X56973883Y-107542196D01*
X57147928Y-107962376D01*
X57400601Y-108340528D01*
X57722193Y-108662120D01*
X58100345Y-108914793D01*
X58520525Y-109088838D01*
X58966585Y-109177565D01*
X59421385Y-109177565D01*
X59867445Y-109088838D01*
X60287625Y-108914793D01*
X60665777Y-108662120D01*
X60987369Y-108340528D01*
X61240042Y-107962376D01*
X61414087Y-107542196D01*
X61502814Y-107096136D01*
X61502814Y-106641336D01*
X212405156Y-106641336D01*
X212405156Y-107096136D01*
X212493883Y-107542196D01*
X212667928Y-107962376D01*
X212920601Y-108340528D01*
X213242193Y-108662120D01*
X213620345Y-108914793D01*
X214040525Y-109088838D01*
X214486585Y-109177565D01*
X214941385Y-109177565D01*
X215387445Y-109088838D01*
X215807625Y-108914793D01*
X216185777Y-108662120D01*
X216507369Y-108340528D01*
X216760042Y-107962376D01*
X216934087Y-107542196D01*
X217022814Y-107096136D01*
X217022814Y-106641336D01*
X216934087Y-106195276D01*
X216760042Y-105775096D01*
X216507369Y-105396944D01*
X216185777Y-105075352D01*
X215807625Y-104822679D01*
X215387445Y-104648634D01*
X214941385Y-104559907D01*
X214486585Y-104559907D01*
X214040525Y-104648634D01*
X213620345Y-104822679D01*
X213242193Y-105075352D01*
X212920601Y-105396944D01*
X212667928Y-105775096D01*
X212493883Y-106195276D01*
X212405156Y-106641336D01*
X61502814Y-106641336D01*
X61414087Y-106195276D01*
X61240042Y-105775096D01*
X60987369Y-105396944D01*
X60665777Y-105075352D01*
X60287625Y-104822679D01*
X59867445Y-104648634D01*
X59421385Y-104559907D01*
X58966585Y-104559907D01*
X58520525Y-104648634D01*
X58100345Y-104822679D01*
X57722193Y-105075352D01*
X57400601Y-105396944D01*
X57147928Y-105775096D01*
X56973883Y-106195276D01*
X56885156Y-106641336D01*
X55003985Y-106641336D01*
X55003985Y-83165060D01*
X67954801Y-83165060D01*
X67997735Y-84184124D01*
X68008122Y-84269802D01*
X68008125Y-84269814D01*
X68209944Y-85269594D01*
X68209945Y-85269604D01*
X68218404Y-85299273D01*
X68233607Y-85352603D01*
X68233614Y-85352618D01*
X68589345Y-86308511D01*
X68589348Y-86308522D01*
X68625703Y-86386797D01*
X69126603Y-87275298D01*
X69174755Y-87346922D01*
X69808477Y-88146119D01*
X69808481Y-88146126D01*
X69836792Y-88176578D01*
X69867244Y-88209335D01*
X69867251Y-88209340D01*
X70618184Y-88899557D01*
X70618190Y-88899563D01*
X70651393Y-88925585D01*
X70686118Y-88952801D01*
X70686124Y-88952804D01*
X71535788Y-89517053D01*
X71535794Y-89517057D01*
X71611215Y-89559014D01*
X72538700Y-89983405D01*
X72619755Y-90013047D01*
X73602210Y-90287122D01*
X73686904Y-90303719D01*
X74700138Y-90420730D01*
X74786385Y-90423874D01*
X74786387Y-90423874D01*
X75805449Y-90380940D01*
X75805450Y-90380940D01*
X75814714Y-90379817D01*
X75891127Y-90370553D01*
X75891139Y-90370550D01*
X76890919Y-90168731D01*
X76890929Y-90168730D01*
X76923742Y-90159375D01*
X76973928Y-90145068D01*
X76973943Y-90145061D01*
X77929836Y-89789330D01*
X77929847Y-89789327D01*
X78008122Y-89752972D01*
X78896623Y-89252072D01*
X78927764Y-89231136D01*
X78968247Y-89203920D01*
X79767444Y-88570198D01*
X79767451Y-88570194D01*
X79811641Y-88529112D01*
X79830660Y-88511431D01*
X79830665Y-88511424D01*
X80520882Y-87760491D01*
X80520888Y-87760485D01*
X80561802Y-87708281D01*
X80574126Y-87692557D01*
X80574129Y-87692551D01*
X81138378Y-86842887D01*
X81138382Y-86842881D01*
X81180339Y-86767460D01*
X81604730Y-85839975D01*
X81634372Y-85758920D01*
X81908447Y-84776465D01*
X81925044Y-84691771D01*
X82042055Y-83678537D01*
X82042700Y-83660843D01*
X82045199Y-83592290D01*
X82027200Y-83165060D01*
X93954801Y-83165060D01*
X93997735Y-84184124D01*
X94008122Y-84269802D01*
X94008125Y-84269814D01*
X94209944Y-85269594D01*
X94209945Y-85269604D01*
X94218404Y-85299273D01*
X94233607Y-85352603D01*
X94233614Y-85352618D01*
X94589345Y-86308511D01*
X94589348Y-86308522D01*
X94625703Y-86386797D01*
X95126603Y-87275298D01*
X95174755Y-87346922D01*
X95808477Y-88146119D01*
X95808481Y-88146126D01*
X95836792Y-88176578D01*
X95867244Y-88209335D01*
X95867251Y-88209340D01*
X96618184Y-88899557D01*
X96618190Y-88899563D01*
X96651393Y-88925585D01*
X96686118Y-88952801D01*
X96686124Y-88952804D01*
X97535788Y-89517053D01*
X97535794Y-89517057D01*
X97611215Y-89559014D01*
X98538700Y-89983405D01*
X98619755Y-90013047D01*
X99602210Y-90287122D01*
X99686904Y-90303719D01*
X100700138Y-90420730D01*
X100786385Y-90423874D01*
X100786387Y-90423874D01*
X101805449Y-90380940D01*
X101805450Y-90380940D01*
X101814714Y-90379817D01*
X101891127Y-90370553D01*
X101891139Y-90370550D01*
X102890919Y-90168731D01*
X102890929Y-90168730D01*
X102923742Y-90159375D01*
X102973928Y-90145068D01*
X102973943Y-90145061D01*
X103929836Y-89789330D01*
X103929847Y-89789327D01*
X104008122Y-89752972D01*
X104896623Y-89252072D01*
X104927764Y-89231136D01*
X104968247Y-89203920D01*
X105767444Y-88570198D01*
X105767451Y-88570194D01*
X105811641Y-88529112D01*
X105830660Y-88511431D01*
X105830665Y-88511424D01*
X106520882Y-87760491D01*
X106520888Y-87760485D01*
X106561802Y-87708281D01*
X106574126Y-87692557D01*
X106574129Y-87692551D01*
X107138378Y-86842887D01*
X107138382Y-86842881D01*
X107180339Y-86767460D01*
X107604730Y-85839975D01*
X107634372Y-85758920D01*
X107908447Y-84776465D01*
X107925044Y-84691771D01*
X108042055Y-83678537D01*
X108042700Y-83660843D01*
X108045199Y-83592290D01*
X108026495Y-83148335D01*
X117408260Y-83148335D01*
X117408260Y-83609015D01*
X117498134Y-84060844D01*
X117674429Y-84486457D01*
X117930369Y-84869499D01*
X118256120Y-85195250D01*
X118639162Y-85451190D01*
X119064775Y-85627485D01*
X119516604Y-85717359D01*
X119977284Y-85717359D01*
X120429113Y-85627485D01*
X120854726Y-85451190D01*
X121237768Y-85195250D01*
X121563519Y-84869499D01*
X121819459Y-84486457D01*
X121995754Y-84060844D01*
X122085628Y-83609015D01*
X122085628Y-83148335D01*
X121995754Y-82696506D01*
X121819459Y-82270893D01*
X121563519Y-81887851D01*
X121237768Y-81562100D01*
X120854726Y-81306160D01*
X120429113Y-81129865D01*
X119977284Y-81039991D01*
X119516604Y-81039991D01*
X119064775Y-81129865D01*
X118639162Y-81306160D01*
X118256120Y-81562100D01*
X117930369Y-81887851D01*
X117674429Y-82270893D01*
X117498134Y-82696506D01*
X117408260Y-83148335D01*
X108026495Y-83148335D01*
X108002265Y-82573226D01*
X107991878Y-82487548D01*
X107991875Y-82487536D01*
X107790057Y-81487758D01*
X107790055Y-81487746D01*
X107766393Y-81404748D01*
X107766388Y-81404737D01*
X107410655Y-80448839D01*
X107410652Y-80448828D01*
X107374297Y-80370553D01*
X106873397Y-79482052D01*
X106825245Y-79410428D01*
X106825238Y-79410421D01*
X106191519Y-78611224D01*
X106132756Y-78548015D01*
X105381816Y-77857793D01*
X105381810Y-77857787D01*
X105313882Y-77804549D01*
X104464212Y-77240297D01*
X104464206Y-77240293D01*
X104388786Y-77198336D01*
X103461300Y-76773945D01*
X103380245Y-76744303D01*
X102744790Y-76567030D01*
X102673173Y-76341268D01*
X102653551Y-76295486D01*
X102634541Y-76249365D01*
X102630888Y-76242610D01*
X102513361Y-76028828D01*
X102485186Y-75987680D01*
X102461254Y-75951658D01*
X123961944Y-75951658D01*
X123961945Y-90805693D01*
X123964412Y-90830738D01*
X123964281Y-90849467D01*
X123965030Y-90857110D01*
X124026231Y-91439399D01*
X124036258Y-91488249D01*
X124045596Y-91537197D01*
X124047815Y-91544549D01*
X124220952Y-92103862D01*
X124240270Y-92149818D01*
X124258943Y-92196034D01*
X124262548Y-92202815D01*
X124541024Y-92717847D01*
X124568925Y-92759211D01*
X124596196Y-92800886D01*
X124601049Y-92806837D01*
X124974259Y-93257970D01*
X125009640Y-93293105D01*
X125044508Y-93328711D01*
X125050419Y-93333601D01*
X125050425Y-93333607D01*
X125050432Y-93333611D01*
X125504153Y-93703658D01*
X125545656Y-93731233D01*
X125586805Y-93759408D01*
X125593560Y-93763060D01*
X126110524Y-94037935D01*
X126156623Y-94056935D01*
X126202430Y-94076568D01*
X126209766Y-94078839D01*
X126770274Y-94248066D01*
X126819185Y-94257750D01*
X126867933Y-94268112D01*
X126875570Y-94268915D01*
X127458273Y-94326050D01*
X127484926Y-94328675D01*
X152018962Y-94328675D01*
X152044017Y-94326207D01*
X152062736Y-94326338D01*
X152070379Y-94325589D01*
X152652668Y-94264388D01*
X152701518Y-94254361D01*
X152750466Y-94245023D01*
X152757818Y-94242804D01*
X153317131Y-94069667D01*
X153363087Y-94050349D01*
X153409303Y-94031676D01*
X153416084Y-94028071D01*
X153931116Y-93749595D01*
X153972480Y-93721694D01*
X154014155Y-93694423D01*
X154020106Y-93689570D01*
X154471239Y-93316360D01*
X154506374Y-93280979D01*
X154541980Y-93246111D01*
X154546870Y-93240200D01*
X154546876Y-93240194D01*
X154546880Y-93240187D01*
X154748950Y-92992425D01*
X169508736Y-92992425D01*
X169509433Y-93042298D01*
X169509433Y-93092122D01*
X169510235Y-93099759D01*
X169525464Y-93235523D01*
X169535828Y-93284280D01*
X169545510Y-93333179D01*
X169547781Y-93340514D01*
X169589089Y-93470736D01*
X169608725Y-93516550D01*
X169627724Y-93562645D01*
X169631376Y-93569400D01*
X169697192Y-93689118D01*
X169725374Y-93730276D01*
X169752941Y-93771768D01*
X169757835Y-93777685D01*
X169845650Y-93882339D01*
X169881276Y-93917226D01*
X169916392Y-93952588D01*
X169922343Y-93957442D01*
X170028813Y-94043046D01*
X170070532Y-94070346D01*
X170111850Y-94098215D01*
X170118630Y-94101821D01*
X170239699Y-94165115D01*
X170285940Y-94183797D01*
X170331877Y-94203107D01*
X170339228Y-94205327D01*
X170470286Y-94243899D01*
X170519229Y-94253235D01*
X170568081Y-94263263D01*
X170575724Y-94264012D01*
X170711777Y-94276394D01*
X170761625Y-94276046D01*
X170811473Y-94276394D01*
X170819115Y-94275645D01*
X170819117Y-94275645D01*
X170954983Y-94261365D01*
X171003793Y-94251346D01*
X171052784Y-94242000D01*
X171060136Y-94239780D01*
X171190642Y-94199381D01*
X171236611Y-94180057D01*
X171282813Y-94161390D01*
X171289594Y-94157785D01*
X171409768Y-94092807D01*
X171451104Y-94064926D01*
X171492804Y-94037638D01*
X171498755Y-94032785D01*
X171498758Y-94032783D01*
X171498761Y-94032780D01*
X171604020Y-93945703D01*
X171639157Y-93910320D01*
X171674764Y-93875451D01*
X171679658Y-93869536D01*
X171679659Y-93869534D01*
X171766004Y-93763664D01*
X171793596Y-93722135D01*
X171821753Y-93681012D01*
X171825406Y-93674257D01*
X171876227Y-93578675D01*
X182535979Y-93578675D01*
X182601829Y-93696499D01*
X182630287Y-93737443D01*
X182658151Y-93778754D01*
X182663087Y-93784637D01*
X182751630Y-93888676D01*
X182787473Y-93923290D01*
X182822861Y-93958432D01*
X182828846Y-93963244D01*
X182935911Y-94048103D01*
X182977825Y-94075114D01*
X183019334Y-94102693D01*
X183026140Y-94106251D01*
X183147648Y-94168698D01*
X183194023Y-94187059D01*
X183240087Y-94206045D01*
X183247454Y-94208214D01*
X183378777Y-94245869D01*
X183427804Y-94254867D01*
X183476705Y-94264550D01*
X183484352Y-94265246D01*
X183620489Y-94276678D01*
X183670362Y-94275981D01*
X183720186Y-94275981D01*
X183727823Y-94275179D01*
X183863587Y-94259950D01*
X183912344Y-94249586D01*
X183961243Y-94239904D01*
X183968578Y-94237633D01*
X183968579Y-94237633D01*
X183968582Y-94237632D01*
X183968584Y-94237631D01*
X184098800Y-94196325D01*
X184144614Y-94176689D01*
X184190709Y-94157690D01*
X184197464Y-94154038D01*
X184317182Y-94088222D01*
X184358340Y-94060040D01*
X184399832Y-94032473D01*
X184405749Y-94027579D01*
X184510403Y-93939764D01*
X184545290Y-93904138D01*
X184580652Y-93869022D01*
X184585506Y-93863071D01*
X184671110Y-93756601D01*
X184698410Y-93714882D01*
X184726279Y-93673564D01*
X184729885Y-93666784D01*
X184793179Y-93545715D01*
X184811861Y-93499474D01*
X184831171Y-93453537D01*
X184833391Y-93446186D01*
X184871963Y-93315128D01*
X184881299Y-93266185D01*
X184891327Y-93217333D01*
X184892076Y-93209690D01*
X184904458Y-93073637D01*
X184904110Y-93023789D01*
X184904458Y-92973941D01*
X184903709Y-92966298D01*
X184889429Y-92830431D01*
X184879410Y-92781621D01*
X184870064Y-92732630D01*
X184867844Y-92725278D01*
X184827445Y-92594772D01*
X184808126Y-92548815D01*
X184789454Y-92502601D01*
X184785849Y-92495820D01*
X184720871Y-92375646D01*
X184692990Y-92334310D01*
X184665702Y-92292610D01*
X184660849Y-92286658D01*
X184573767Y-92181394D01*
X184538384Y-92146257D01*
X184503515Y-92110650D01*
X184497604Y-92105760D01*
X184497601Y-92105757D01*
X184497598Y-92105755D01*
X184391728Y-92019410D01*
X184350199Y-91991818D01*
X184309076Y-91963661D01*
X184302321Y-91960008D01*
X184206739Y-91909187D01*
X184206739Y-74849435D01*
X184324563Y-74783585D01*
X184365507Y-74755127D01*
X184406818Y-74727263D01*
X184412701Y-74722327D01*
X184516740Y-74633784D01*
X184551354Y-74597941D01*
X184586496Y-74562553D01*
X184591308Y-74556568D01*
X184676167Y-74449503D01*
X184703178Y-74407589D01*
X184730757Y-74366080D01*
X184734315Y-74359274D01*
X184796762Y-74237766D01*
X184815123Y-74191391D01*
X184834109Y-74145327D01*
X184836278Y-74137960D01*
X184873933Y-74006637D01*
X184882931Y-73957610D01*
X184892614Y-73908709D01*
X184893310Y-73901062D01*
X184904742Y-73764925D01*
X184904045Y-73715052D01*
X184904045Y-73665227D01*
X184903243Y-73657590D01*
X184888014Y-73521827D01*
X184877647Y-73473056D01*
X184867968Y-73424172D01*
X184865698Y-73416836D01*
X184824389Y-73286615D01*
X184804759Y-73240814D01*
X184785754Y-73194705D01*
X184782102Y-73187950D01*
X184716286Y-73068232D01*
X184688115Y-73027090D01*
X184660537Y-72985582D01*
X184655643Y-72979665D01*
X184567828Y-72875011D01*
X184532202Y-72840124D01*
X184497086Y-72804762D01*
X184491135Y-72799908D01*
X184384665Y-72714304D01*
X184342946Y-72687004D01*
X184301628Y-72659135D01*
X184294848Y-72655529D01*
X184173779Y-72592235D01*
X184127527Y-72573548D01*
X184081601Y-72554243D01*
X184074256Y-72552025D01*
X184074254Y-72552024D01*
X184074252Y-72552024D01*
X184074250Y-72552023D01*
X183943192Y-72513451D01*
X183894249Y-72504115D01*
X183845397Y-72494087D01*
X183837754Y-72493338D01*
X183701700Y-72480956D01*
X183651853Y-72481304D01*
X183602005Y-72480956D01*
X183594362Y-72481705D01*
X183458495Y-72495985D01*
X183409685Y-72506004D01*
X183360694Y-72515350D01*
X183353342Y-72517570D01*
X183222836Y-72557969D01*
X183176879Y-72577288D01*
X183130665Y-72595960D01*
X183123884Y-72599565D01*
X183003710Y-72664543D01*
X182962374Y-72692424D01*
X182920674Y-72719712D01*
X182914722Y-72724565D01*
X182809458Y-72811647D01*
X182774321Y-72847030D01*
X182738714Y-72881899D01*
X182733824Y-72887810D01*
X182733821Y-72887813D01*
X182733819Y-72887816D01*
X182647474Y-72993686D01*
X182619882Y-73035215D01*
X182591725Y-73076338D01*
X182588072Y-73083093D01*
X182537251Y-73178675D01*
X171877499Y-73178675D01*
X171811649Y-73060851D01*
X171783204Y-73019924D01*
X171755327Y-72978595D01*
X171750391Y-72972713D01*
X171661848Y-72868674D01*
X171625985Y-72834041D01*
X171590616Y-72798918D01*
X171584632Y-72794106D01*
X171477567Y-72709247D01*
X171435650Y-72682234D01*
X171394143Y-72654657D01*
X171387338Y-72651099D01*
X171265829Y-72588652D01*
X171219468Y-72570296D01*
X171173391Y-72551305D01*
X171166024Y-72549136D01*
X171034700Y-72511480D01*
X170985649Y-72502478D01*
X170936773Y-72492800D01*
X170929126Y-72492104D01*
X170792989Y-72480672D01*
X170743116Y-72481369D01*
X170693291Y-72481369D01*
X170685654Y-72482171D01*
X170549891Y-72497400D01*
X170501120Y-72507767D01*
X170452236Y-72517446D01*
X170444900Y-72519716D01*
X170314679Y-72561025D01*
X170268878Y-72580655D01*
X170222769Y-72599660D01*
X170216014Y-72603312D01*
X170096296Y-72669128D01*
X170055154Y-72697299D01*
X170013646Y-72724877D01*
X170007729Y-72729771D01*
X169903075Y-72817586D01*
X169868188Y-72853212D01*
X169832826Y-72888328D01*
X169827972Y-72894279D01*
X169742368Y-73000749D01*
X169715068Y-73042468D01*
X169687199Y-73083786D01*
X169683593Y-73090566D01*
X169620299Y-73211635D01*
X169601612Y-73257887D01*
X169582307Y-73303813D01*
X169580087Y-73311164D01*
X169541515Y-73442222D01*
X169532179Y-73491165D01*
X169522151Y-73540017D01*
X169521402Y-73547660D01*
X169509020Y-73683714D01*
X169509368Y-73733562D01*
X169509020Y-73783409D01*
X169509769Y-73791051D01*
X169524049Y-73926919D01*
X169534068Y-73975729D01*
X169543414Y-74024720D01*
X169545634Y-74032072D01*
X169586033Y-74162578D01*
X169605357Y-74208547D01*
X169624024Y-74254749D01*
X169627629Y-74261530D01*
X169692607Y-74381704D01*
X169720488Y-74423040D01*
X169747776Y-74464740D01*
X169752629Y-74470691D01*
X169839711Y-74575956D01*
X169875094Y-74611093D01*
X169909963Y-74646700D01*
X169915874Y-74651590D01*
X169915877Y-74651593D01*
X169915880Y-74651595D01*
X170021750Y-74737940D01*
X170063279Y-74765532D01*
X170104402Y-74793689D01*
X170111157Y-74797342D01*
X170206739Y-74848164D01*
X170206740Y-91907914D01*
X170088915Y-91973765D01*
X170047988Y-92002210D01*
X170006659Y-92030087D01*
X170000777Y-92035023D01*
X169896738Y-92123566D01*
X169862105Y-92159429D01*
X169826982Y-92194798D01*
X169822170Y-92200782D01*
X169737311Y-92307847D01*
X169710298Y-92349764D01*
X169682721Y-92391271D01*
X169679163Y-92398076D01*
X169616716Y-92519585D01*
X169598360Y-92565946D01*
X169579369Y-92612023D01*
X169577200Y-92619390D01*
X169539544Y-92750714D01*
X169530542Y-92799765D01*
X169520864Y-92848641D01*
X169520168Y-92856288D01*
X169508736Y-92992425D01*
X154748950Y-92992425D01*
X154916927Y-92786466D01*
X154944502Y-92744963D01*
X154972677Y-92703814D01*
X154976329Y-92697059D01*
X155251204Y-92180095D01*
X155270204Y-92133996D01*
X155289837Y-92088189D01*
X155292108Y-92080853D01*
X155461335Y-91520345D01*
X155471019Y-91471434D01*
X155481381Y-91422686D01*
X155482184Y-91415049D01*
X155539319Y-90832346D01*
X155541944Y-90805693D01*
X155541944Y-83148335D01*
X157418260Y-83148335D01*
X157418260Y-83609015D01*
X157508134Y-84060844D01*
X157684429Y-84486457D01*
X157940369Y-84869499D01*
X158266120Y-85195250D01*
X158649162Y-85451190D01*
X159074775Y-85627485D01*
X159526604Y-85717359D01*
X159987284Y-85717359D01*
X160439113Y-85627485D01*
X160864726Y-85451190D01*
X161247768Y-85195250D01*
X161573519Y-84869499D01*
X161829459Y-84486457D01*
X162005754Y-84060844D01*
X162095628Y-83609015D01*
X162095628Y-83148335D01*
X162005754Y-82696506D01*
X161829459Y-82270893D01*
X161573519Y-81887851D01*
X161247768Y-81562100D01*
X160864726Y-81306160D01*
X160439113Y-81129865D01*
X159987284Y-81039991D01*
X159526604Y-81039991D01*
X159074775Y-81129865D01*
X158649162Y-81306160D01*
X158266120Y-81562100D01*
X157940369Y-81887851D01*
X157684429Y-82270893D01*
X157508134Y-82696506D01*
X157418260Y-83148335D01*
X155541944Y-83148335D01*
X155541944Y-75951657D01*
X155539476Y-75926602D01*
X155539607Y-75907883D01*
X155538858Y-75900240D01*
X155477657Y-75317950D01*
X155467628Y-75269094D01*
X155458292Y-75220153D01*
X155456073Y-75212801D01*
X155282936Y-74653488D01*
X155263610Y-74607515D01*
X155244945Y-74561316D01*
X155241340Y-74554535D01*
X154962864Y-74039503D01*
X154934963Y-73998139D01*
X154907692Y-73956464D01*
X154902839Y-73950513D01*
X154529629Y-73499380D01*
X154494265Y-73464262D01*
X154459380Y-73428639D01*
X154453464Y-73423744D01*
X153999735Y-73053692D01*
X153958248Y-73026128D01*
X153917083Y-72997942D01*
X153910328Y-72994290D01*
X153393364Y-72719416D01*
X153347286Y-72700424D01*
X153301458Y-72680782D01*
X153294122Y-72678511D01*
X152733614Y-72509284D01*
X152684703Y-72499600D01*
X152635955Y-72489238D01*
X152628318Y-72488435D01*
X152045615Y-72431300D01*
X152018962Y-72428675D01*
X127484926Y-72428675D01*
X127459871Y-72431143D01*
X127441152Y-72431012D01*
X127433509Y-72431761D01*
X126851219Y-72492962D01*
X126802363Y-72502991D01*
X126753422Y-72512327D01*
X126746070Y-72514546D01*
X126186757Y-72687683D01*
X126140784Y-72707009D01*
X126094585Y-72725674D01*
X126087804Y-72729279D01*
X125572772Y-73007755D01*
X125531408Y-73035656D01*
X125489733Y-73062927D01*
X125483782Y-73067780D01*
X125032649Y-73440990D01*
X124997531Y-73476354D01*
X124961908Y-73511239D01*
X124957013Y-73517155D01*
X124586961Y-73970884D01*
X124559397Y-74012371D01*
X124531211Y-74053536D01*
X124527559Y-74060291D01*
X124252685Y-74577255D01*
X124233693Y-74623333D01*
X124214051Y-74669161D01*
X124211780Y-74676497D01*
X124042553Y-75237005D01*
X124032869Y-75285916D01*
X124022507Y-75334664D01*
X124021704Y-75342301D01*
X123964569Y-75925004D01*
X123961944Y-75951658D01*
X102461254Y-75951658D01*
X102457610Y-75946174D01*
X102452716Y-75940257D01*
X102295903Y-75753375D01*
X102260260Y-75718471D01*
X102225161Y-75683127D01*
X102219211Y-75678273D01*
X102029086Y-75525409D01*
X101987384Y-75498120D01*
X101946048Y-75470239D01*
X101939268Y-75466634D01*
X101723072Y-75353608D01*
X101676847Y-75334933D01*
X101630897Y-75315617D01*
X101623546Y-75313397D01*
X101389515Y-75244518D01*
X101340550Y-75235178D01*
X101291718Y-75225154D01*
X101284076Y-75224405D01*
X101041122Y-75202294D01*
X100991272Y-75202642D01*
X100941423Y-75202294D01*
X100933781Y-75203043D01*
X100691161Y-75228544D01*
X100642311Y-75238572D01*
X100593365Y-75247909D01*
X100586014Y-75250128D01*
X100352967Y-75322268D01*
X100307036Y-75341576D01*
X100260794Y-75360259D01*
X100254013Y-75363864D01*
X100039416Y-75479896D01*
X99998075Y-75507781D01*
X99956377Y-75535068D01*
X99950426Y-75539921D01*
X99762454Y-75695425D01*
X99727336Y-75730789D01*
X99691713Y-75765674D01*
X99686818Y-75771591D01*
X99532629Y-75960644D01*
X99505022Y-76002196D01*
X99476880Y-76043296D01*
X99473227Y-76050051D01*
X99358696Y-76265452D01*
X99339694Y-76311554D01*
X99320062Y-76357360D01*
X99317791Y-76364695D01*
X99261334Y-76551690D01*
X99089505Y-76592943D01*
X99057970Y-76603189D01*
X99026073Y-76612283D01*
X98070164Y-76968020D01*
X98070153Y-76968023D01*
X97991878Y-77004378D01*
X97103377Y-77505278D01*
X97031753Y-77553430D01*
X97031746Y-77553437D01*
X96232549Y-78187156D01*
X96169340Y-78245919D01*
X95479118Y-78996859D01*
X95479112Y-78996865D01*
X95425874Y-79064793D01*
X94861622Y-79914463D01*
X94861618Y-79914469D01*
X94819661Y-79989889D01*
X94395270Y-80917375D01*
X94365628Y-80998430D01*
X94091553Y-81980885D01*
X94074956Y-82065579D01*
X93957945Y-83078813D01*
X93954801Y-83165060D01*
X82027200Y-83165060D01*
X82002265Y-82573226D01*
X81991878Y-82487548D01*
X81991875Y-82487536D01*
X81790057Y-81487758D01*
X81790055Y-81487746D01*
X81766393Y-81404748D01*
X81766388Y-81404737D01*
X81410655Y-80448839D01*
X81410652Y-80448828D01*
X81374297Y-80370553D01*
X80873397Y-79482052D01*
X80825245Y-79410428D01*
X80825238Y-79410421D01*
X80191519Y-78611224D01*
X80132756Y-78548015D01*
X79381816Y-77857793D01*
X79381810Y-77857787D01*
X79313882Y-77804549D01*
X78464212Y-77240297D01*
X78464206Y-77240293D01*
X78388786Y-77198336D01*
X77461300Y-76773945D01*
X77380245Y-76744303D01*
X76744790Y-76567030D01*
X76673173Y-76341268D01*
X76653551Y-76295486D01*
X76634541Y-76249365D01*
X76630888Y-76242610D01*
X76513361Y-76028828D01*
X76485186Y-75987680D01*
X76457610Y-75946174D01*
X76452716Y-75940257D01*
X76295903Y-75753375D01*
X76260260Y-75718471D01*
X76225161Y-75683127D01*
X76219211Y-75678273D01*
X76029086Y-75525409D01*
X75987384Y-75498120D01*
X75946048Y-75470239D01*
X75939268Y-75466634D01*
X75723072Y-75353608D01*
X75676847Y-75334933D01*
X75630897Y-75315617D01*
X75623546Y-75313397D01*
X75389515Y-75244518D01*
X75340550Y-75235178D01*
X75291718Y-75225154D01*
X75284076Y-75224405D01*
X75041122Y-75202294D01*
X74991272Y-75202642D01*
X74941423Y-75202294D01*
X74933781Y-75203043D01*
X74691161Y-75228544D01*
X74642311Y-75238572D01*
X74593365Y-75247909D01*
X74586014Y-75250128D01*
X74352967Y-75322268D01*
X74307036Y-75341576D01*
X74260794Y-75360259D01*
X74254013Y-75363864D01*
X74039416Y-75479896D01*
X73998075Y-75507781D01*
X73956377Y-75535068D01*
X73950426Y-75539921D01*
X73762454Y-75695425D01*
X73727336Y-75730789D01*
X73691713Y-75765674D01*
X73686818Y-75771591D01*
X73532629Y-75960644D01*
X73505022Y-76002196D01*
X73476880Y-76043296D01*
X73473227Y-76050051D01*
X73358696Y-76265452D01*
X73339694Y-76311554D01*
X73320062Y-76357360D01*
X73317791Y-76364695D01*
X73261334Y-76551690D01*
X73089505Y-76592943D01*
X73057970Y-76603189D01*
X73026073Y-76612283D01*
X72070164Y-76968020D01*
X72070153Y-76968023D01*
X71991878Y-77004378D01*
X71103377Y-77505278D01*
X71031753Y-77553430D01*
X71031746Y-77553437D01*
X70232549Y-78187156D01*
X70169340Y-78245919D01*
X69479118Y-78996859D01*
X69479112Y-78996865D01*
X69425874Y-79064793D01*
X68861622Y-79914463D01*
X68861618Y-79914469D01*
X68819661Y-79989889D01*
X68395270Y-80917375D01*
X68365628Y-80998430D01*
X68091553Y-81980885D01*
X68074956Y-82065579D01*
X67957945Y-83078813D01*
X67954801Y-83165060D01*
X55003985Y-83165060D01*
X55003985Y-63467635D01*
X55038528Y-63115336D01*
X56885156Y-63115336D01*
X56885156Y-63570136D01*
X56973883Y-64016196D01*
X57147928Y-64436376D01*
X57400601Y-64814528D01*
X57722193Y-65136120D01*
X58100345Y-65388793D01*
X58520525Y-65562838D01*
X58966585Y-65651565D01*
X59421385Y-65651565D01*
X59867445Y-65562838D01*
X60287625Y-65388793D01*
X60665777Y-65136120D01*
X60987369Y-64814528D01*
X61240042Y-64436376D01*
X61414087Y-64016196D01*
X61502814Y-63570136D01*
X61502814Y-63115336D01*
X212405156Y-63115336D01*
X212405156Y-63570136D01*
X212493883Y-64016196D01*
X212667928Y-64436376D01*
X212920601Y-64814528D01*
X213242193Y-65136120D01*
X213620345Y-65388793D01*
X214040525Y-65562838D01*
X214486585Y-65651565D01*
X214941385Y-65651565D01*
X215387445Y-65562838D01*
X215807625Y-65388793D01*
X216185777Y-65136120D01*
X216507369Y-64814528D01*
X216760042Y-64436376D01*
X216934087Y-64016196D01*
X217022814Y-63570136D01*
X217022814Y-63115336D01*
X216934087Y-62669276D01*
X216760042Y-62249096D01*
X216507369Y-61870944D01*
X216185777Y-61549352D01*
X215807625Y-61296679D01*
X215387445Y-61122634D01*
X214941385Y-61033907D01*
X214486585Y-61033907D01*
X214040525Y-61122634D01*
X213620345Y-61296679D01*
X213242193Y-61549352D01*
X212920601Y-61870944D01*
X212667928Y-62249096D01*
X212493883Y-62669276D01*
X212405156Y-63115336D01*
X61502814Y-63115336D01*
X61414087Y-62669276D01*
X61240042Y-62249096D01*
X60987369Y-61870944D01*
X60665777Y-61549352D01*
X60287625Y-61296679D01*
X59867445Y-61122634D01*
X59421385Y-61033907D01*
X58966585Y-61033907D01*
X58520525Y-61122634D01*
X58100345Y-61296679D01*
X57722193Y-61549352D01*
X57400601Y-61870944D01*
X57147928Y-62249096D01*
X56973883Y-62669276D01*
X56885156Y-63115336D01*
X55038528Y-63115336D01*
X55070372Y-62790564D01*
X55259195Y-62165154D01*
X55565897Y-61588332D01*
X55978796Y-61082069D01*
X56482165Y-60665646D01*
X57056831Y-60354926D01*
X57680905Y-60161743D01*
X58356486Y-60090736D01*
X215527086Y-60090736D01*
X216204157Y-60157123D01*
%TA.AperFunction,NonConductor*%
D11*
G36*
X216204157Y-60157123D02*
G01*
X216829567Y-60345946D01*
X217406389Y-60652648D01*
X217912652Y-61065547D01*
X218329075Y-61568916D01*
X218639795Y-62143582D01*
X218832978Y-62767656D01*
X218903985Y-63443237D01*
X218903986Y-106743816D01*
X218837596Y-107420908D01*
X218648774Y-108046318D01*
X218342074Y-108623136D01*
X217929172Y-109129404D01*
X217425806Y-109545825D01*
X216851138Y-109856545D01*
X216227067Y-110049728D01*
X215551484Y-110120735D01*
X58380874Y-110120735D01*
X57703813Y-110054348D01*
X57078403Y-109865526D01*
X56501586Y-109558827D01*
X55995319Y-109145927D01*
X55578896Y-108642559D01*
X55268175Y-108067890D01*
X55074992Y-107443818D01*
X55003985Y-106768235D01*
X55003985Y-106641336D01*
X56885156Y-106641336D01*
X56885156Y-107096136D01*
X56973883Y-107542196D01*
X57147928Y-107962376D01*
X57400601Y-108340528D01*
X57722193Y-108662120D01*
X58100345Y-108914793D01*
X58520525Y-109088838D01*
X58966585Y-109177565D01*
X59421385Y-109177565D01*
X59867445Y-109088838D01*
X60287625Y-108914793D01*
X60665777Y-108662120D01*
X60987369Y-108340528D01*
X61240042Y-107962376D01*
X61414087Y-107542196D01*
X61502814Y-107096136D01*
X61502814Y-106641336D01*
X212405156Y-106641336D01*
X212405156Y-107096136D01*
X212493883Y-107542196D01*
X212667928Y-107962376D01*
X212920601Y-108340528D01*
X213242193Y-108662120D01*
X213620345Y-108914793D01*
X214040525Y-109088838D01*
X214486585Y-109177565D01*
X214941385Y-109177565D01*
X215387445Y-109088838D01*
X215807625Y-108914793D01*
X216185777Y-108662120D01*
X216507369Y-108340528D01*
X216760042Y-107962376D01*
X216934087Y-107542196D01*
X217022814Y-107096136D01*
X217022814Y-106641336D01*
X216934087Y-106195276D01*
X216760042Y-105775096D01*
X216507369Y-105396944D01*
X216185777Y-105075352D01*
X215807625Y-104822679D01*
X215387445Y-104648634D01*
X214941385Y-104559907D01*
X214486585Y-104559907D01*
X214040525Y-104648634D01*
X213620345Y-104822679D01*
X213242193Y-105075352D01*
X212920601Y-105396944D01*
X212667928Y-105775096D01*
X212493883Y-106195276D01*
X212405156Y-106641336D01*
X61502814Y-106641336D01*
X61414087Y-106195276D01*
X61240042Y-105775096D01*
X60987369Y-105396944D01*
X60665777Y-105075352D01*
X60287625Y-104822679D01*
X59867445Y-104648634D01*
X59421385Y-104559907D01*
X58966585Y-104559907D01*
X58520525Y-104648634D01*
X58100345Y-104822679D01*
X57722193Y-105075352D01*
X57400601Y-105396944D01*
X57147928Y-105775096D01*
X56973883Y-106195276D01*
X56885156Y-106641336D01*
X55003985Y-106641336D01*
X55003985Y-83165060D01*
X67954801Y-83165060D01*
X67997735Y-84184124D01*
X68008122Y-84269802D01*
X68008125Y-84269814D01*
X68209944Y-85269594D01*
X68209945Y-85269604D01*
X68218404Y-85299273D01*
X68233607Y-85352603D01*
X68233614Y-85352618D01*
X68589345Y-86308511D01*
X68589348Y-86308522D01*
X68625703Y-86386797D01*
X69126603Y-87275298D01*
X69174755Y-87346922D01*
X69808477Y-88146119D01*
X69808481Y-88146126D01*
X69836792Y-88176578D01*
X69867244Y-88209335D01*
X69867251Y-88209340D01*
X70618184Y-88899557D01*
X70618190Y-88899563D01*
X70651393Y-88925585D01*
X70686118Y-88952801D01*
X70686124Y-88952804D01*
X71535788Y-89517053D01*
X71535794Y-89517057D01*
X71611215Y-89559014D01*
X72538700Y-89983405D01*
X72619755Y-90013047D01*
X73602210Y-90287122D01*
X73686904Y-90303719D01*
X74700138Y-90420730D01*
X74786385Y-90423874D01*
X74786387Y-90423874D01*
X75805449Y-90380940D01*
X75805450Y-90380940D01*
X75814714Y-90379817D01*
X75891127Y-90370553D01*
X75891139Y-90370550D01*
X76890919Y-90168731D01*
X76890929Y-90168730D01*
X76923742Y-90159375D01*
X76973928Y-90145068D01*
X76973943Y-90145061D01*
X77929836Y-89789330D01*
X77929847Y-89789327D01*
X78008122Y-89752972D01*
X78896623Y-89252072D01*
X78927764Y-89231136D01*
X78968247Y-89203920D01*
X79767444Y-88570198D01*
X79767451Y-88570194D01*
X79811641Y-88529112D01*
X79830660Y-88511431D01*
X79830665Y-88511424D01*
X80520882Y-87760491D01*
X80520888Y-87760485D01*
X80561802Y-87708281D01*
X80574126Y-87692557D01*
X80574129Y-87692551D01*
X81138378Y-86842887D01*
X81138382Y-86842881D01*
X81180339Y-86767460D01*
X81604730Y-85839975D01*
X81634372Y-85758920D01*
X81908447Y-84776465D01*
X81925044Y-84691771D01*
X82042055Y-83678537D01*
X82042700Y-83660843D01*
X82045199Y-83592290D01*
X82027200Y-83165060D01*
X93954801Y-83165060D01*
X93997735Y-84184124D01*
X94008122Y-84269802D01*
X94008125Y-84269814D01*
X94209944Y-85269594D01*
X94209945Y-85269604D01*
X94218404Y-85299273D01*
X94233607Y-85352603D01*
X94233614Y-85352618D01*
X94589345Y-86308511D01*
X94589348Y-86308522D01*
X94625703Y-86386797D01*
X95126603Y-87275298D01*
X95174755Y-87346922D01*
X95808477Y-88146119D01*
X95808481Y-88146126D01*
X95836792Y-88176578D01*
X95867244Y-88209335D01*
X95867251Y-88209340D01*
X96618184Y-88899557D01*
X96618190Y-88899563D01*
X96651393Y-88925585D01*
X96686118Y-88952801D01*
X96686124Y-88952804D01*
X97535788Y-89517053D01*
X97535794Y-89517057D01*
X97611215Y-89559014D01*
X98538700Y-89983405D01*
X98619755Y-90013047D01*
X99602210Y-90287122D01*
X99686904Y-90303719D01*
X100700138Y-90420730D01*
X100786385Y-90423874D01*
X100786387Y-90423874D01*
X101805449Y-90380940D01*
X101805450Y-90380940D01*
X101814714Y-90379817D01*
X101891127Y-90370553D01*
X101891139Y-90370550D01*
X102890919Y-90168731D01*
X102890929Y-90168730D01*
X102923742Y-90159375D01*
X102973928Y-90145068D01*
X102973943Y-90145061D01*
X103929836Y-89789330D01*
X103929847Y-89789327D01*
X104008122Y-89752972D01*
X104896623Y-89252072D01*
X104927764Y-89231136D01*
X104968247Y-89203920D01*
X105767444Y-88570198D01*
X105767451Y-88570194D01*
X105811641Y-88529112D01*
X105830660Y-88511431D01*
X105830665Y-88511424D01*
X106520882Y-87760491D01*
X106520888Y-87760485D01*
X106561802Y-87708281D01*
X106574126Y-87692557D01*
X106574129Y-87692551D01*
X107138378Y-86842887D01*
X107138382Y-86842881D01*
X107180339Y-86767460D01*
X107604730Y-85839975D01*
X107634372Y-85758920D01*
X107908447Y-84776465D01*
X107925044Y-84691771D01*
X108042055Y-83678537D01*
X108042700Y-83660843D01*
X108045199Y-83592290D01*
X108026495Y-83148335D01*
X117408260Y-83148335D01*
X117408260Y-83609015D01*
X117498134Y-84060844D01*
X117674429Y-84486457D01*
X117930369Y-84869499D01*
X118256120Y-85195250D01*
X118639162Y-85451190D01*
X119064775Y-85627485D01*
X119516604Y-85717359D01*
X119977284Y-85717359D01*
X120429113Y-85627485D01*
X120854726Y-85451190D01*
X121237768Y-85195250D01*
X121563519Y-84869499D01*
X121819459Y-84486457D01*
X121995754Y-84060844D01*
X122085628Y-83609015D01*
X122085628Y-83148335D01*
X121995754Y-82696506D01*
X121819459Y-82270893D01*
X121563519Y-81887851D01*
X121237768Y-81562100D01*
X120854726Y-81306160D01*
X120429113Y-81129865D01*
X119977284Y-81039991D01*
X119516604Y-81039991D01*
X119064775Y-81129865D01*
X118639162Y-81306160D01*
X118256120Y-81562100D01*
X117930369Y-81887851D01*
X117674429Y-82270893D01*
X117498134Y-82696506D01*
X117408260Y-83148335D01*
X108026495Y-83148335D01*
X108002265Y-82573226D01*
X107991878Y-82487548D01*
X107991875Y-82487536D01*
X107790057Y-81487758D01*
X107790055Y-81487746D01*
X107766393Y-81404748D01*
X107766388Y-81404737D01*
X107410655Y-80448839D01*
X107410652Y-80448828D01*
X107374297Y-80370553D01*
X106873397Y-79482052D01*
X106825245Y-79410428D01*
X106825238Y-79410421D01*
X106191519Y-78611224D01*
X106132756Y-78548015D01*
X105381816Y-77857793D01*
X105381810Y-77857787D01*
X105313882Y-77804549D01*
X104464212Y-77240297D01*
X104464206Y-77240293D01*
X104388786Y-77198336D01*
X103461300Y-76773945D01*
X103380245Y-76744303D01*
X102744790Y-76567030D01*
X102673173Y-76341268D01*
X102653551Y-76295486D01*
X102634541Y-76249365D01*
X102630888Y-76242610D01*
X102513361Y-76028828D01*
X102485186Y-75987680D01*
X102461254Y-75951658D01*
X123961944Y-75951658D01*
X123961945Y-90805693D01*
X123964412Y-90830738D01*
X123964281Y-90849467D01*
X123965030Y-90857110D01*
X124026231Y-91439399D01*
X124036258Y-91488249D01*
X124045596Y-91537197D01*
X124047815Y-91544549D01*
X124220952Y-92103862D01*
X124240270Y-92149818D01*
X124258943Y-92196034D01*
X124262548Y-92202815D01*
X124541024Y-92717847D01*
X124568925Y-92759211D01*
X124596196Y-92800886D01*
X124601049Y-92806837D01*
X124974259Y-93257970D01*
X125009640Y-93293105D01*
X125044508Y-93328711D01*
X125050419Y-93333601D01*
X125050425Y-93333607D01*
X125050432Y-93333611D01*
X125504153Y-93703658D01*
X125545656Y-93731233D01*
X125586805Y-93759408D01*
X125593560Y-93763060D01*
X126110524Y-94037935D01*
X126156623Y-94056935D01*
X126202430Y-94076568D01*
X126209766Y-94078839D01*
X126770274Y-94248066D01*
X126819185Y-94257750D01*
X126867933Y-94268112D01*
X126875570Y-94268915D01*
X127458273Y-94326050D01*
X127484926Y-94328675D01*
X152018962Y-94328675D01*
X152044017Y-94326207D01*
X152062736Y-94326338D01*
X152070379Y-94325589D01*
X152652668Y-94264388D01*
X152701518Y-94254361D01*
X152750466Y-94245023D01*
X152757818Y-94242804D01*
X153317131Y-94069667D01*
X153363087Y-94050349D01*
X153409303Y-94031676D01*
X153416084Y-94028071D01*
X153931116Y-93749595D01*
X153972480Y-93721694D01*
X154014155Y-93694423D01*
X154020106Y-93689570D01*
X154471239Y-93316360D01*
X154506374Y-93280979D01*
X154541980Y-93246111D01*
X154546870Y-93240200D01*
X154546876Y-93240194D01*
X154546880Y-93240187D01*
X154748950Y-92992425D01*
X169508736Y-92992425D01*
X169509433Y-93042298D01*
X169509433Y-93092122D01*
X169510235Y-93099759D01*
X169525464Y-93235523D01*
X169535828Y-93284280D01*
X169545510Y-93333179D01*
X169547781Y-93340514D01*
X169589089Y-93470736D01*
X169608725Y-93516550D01*
X169627724Y-93562645D01*
X169631376Y-93569400D01*
X169697192Y-93689118D01*
X169725374Y-93730276D01*
X169752941Y-93771768D01*
X169757835Y-93777685D01*
X169845650Y-93882339D01*
X169881276Y-93917226D01*
X169916392Y-93952588D01*
X169922343Y-93957442D01*
X170028813Y-94043046D01*
X170070532Y-94070346D01*
X170111850Y-94098215D01*
X170118630Y-94101821D01*
X170239699Y-94165115D01*
X170285940Y-94183797D01*
X170331877Y-94203107D01*
X170339228Y-94205327D01*
X170470286Y-94243899D01*
X170519229Y-94253235D01*
X170568081Y-94263263D01*
X170575724Y-94264012D01*
X170711777Y-94276394D01*
X170761625Y-94276046D01*
X170811473Y-94276394D01*
X170819115Y-94275645D01*
X170819117Y-94275645D01*
X170954983Y-94261365D01*
X171003793Y-94251346D01*
X171052784Y-94242000D01*
X171060136Y-94239780D01*
X171190642Y-94199381D01*
X171236611Y-94180057D01*
X171282813Y-94161390D01*
X171289594Y-94157785D01*
X171409768Y-94092807D01*
X171451104Y-94064926D01*
X171492804Y-94037638D01*
X171498755Y-94032785D01*
X171498758Y-94032783D01*
X171498761Y-94032780D01*
X171604020Y-93945703D01*
X171639157Y-93910320D01*
X171674764Y-93875451D01*
X171679658Y-93869536D01*
X171679659Y-93869534D01*
X171766004Y-93763664D01*
X171793596Y-93722135D01*
X171821753Y-93681012D01*
X171825406Y-93674257D01*
X171876227Y-93578675D01*
X182535979Y-93578675D01*
X182601829Y-93696499D01*
X182630287Y-93737443D01*
X182658151Y-93778754D01*
X182663087Y-93784637D01*
X182751630Y-93888676D01*
X182787473Y-93923290D01*
X182822861Y-93958432D01*
X182828846Y-93963244D01*
X182935911Y-94048103D01*
X182977825Y-94075114D01*
X183019334Y-94102693D01*
X183026140Y-94106251D01*
X183147648Y-94168698D01*
X183194023Y-94187059D01*
X183240087Y-94206045D01*
X183247454Y-94208214D01*
X183378777Y-94245869D01*
X183427804Y-94254867D01*
X183476705Y-94264550D01*
X183484352Y-94265246D01*
X183620489Y-94276678D01*
X183670362Y-94275981D01*
X183720186Y-94275981D01*
X183727823Y-94275179D01*
X183863587Y-94259950D01*
X183912344Y-94249586D01*
X183961243Y-94239904D01*
X183968578Y-94237633D01*
X183968579Y-94237633D01*
X183968582Y-94237632D01*
X183968584Y-94237631D01*
X184098800Y-94196325D01*
X184144614Y-94176689D01*
X184190709Y-94157690D01*
X184197464Y-94154038D01*
X184317182Y-94088222D01*
X184358340Y-94060040D01*
X184399832Y-94032473D01*
X184405749Y-94027579D01*
X184510403Y-93939764D01*
X184545290Y-93904138D01*
X184580652Y-93869022D01*
X184585506Y-93863071D01*
X184671110Y-93756601D01*
X184698410Y-93714882D01*
X184726279Y-93673564D01*
X184729885Y-93666784D01*
X184793179Y-93545715D01*
X184811861Y-93499474D01*
X184831171Y-93453537D01*
X184833391Y-93446186D01*
X184871963Y-93315128D01*
X184881299Y-93266185D01*
X184891327Y-93217333D01*
X184892076Y-93209690D01*
X184904458Y-93073637D01*
X184904110Y-93023789D01*
X184904458Y-92973941D01*
X184903709Y-92966298D01*
X184889429Y-92830431D01*
X184879410Y-92781621D01*
X184870064Y-92732630D01*
X184867844Y-92725278D01*
X184827445Y-92594772D01*
X184808126Y-92548815D01*
X184789454Y-92502601D01*
X184785849Y-92495820D01*
X184720871Y-92375646D01*
X184692990Y-92334310D01*
X184665702Y-92292610D01*
X184660849Y-92286658D01*
X184573767Y-92181394D01*
X184538384Y-92146257D01*
X184503515Y-92110650D01*
X184497604Y-92105760D01*
X184497601Y-92105757D01*
X184497598Y-92105755D01*
X184391728Y-92019410D01*
X184350199Y-91991818D01*
X184309076Y-91963661D01*
X184302321Y-91960008D01*
X184206739Y-91909187D01*
X184206739Y-74849435D01*
X184324563Y-74783585D01*
X184365507Y-74755127D01*
X184406818Y-74727263D01*
X184412701Y-74722327D01*
X184516740Y-74633784D01*
X184551354Y-74597941D01*
X184586496Y-74562553D01*
X184591308Y-74556568D01*
X184676167Y-74449503D01*
X184703178Y-74407589D01*
X184730757Y-74366080D01*
X184734315Y-74359274D01*
X184796762Y-74237766D01*
X184815123Y-74191391D01*
X184834109Y-74145327D01*
X184836278Y-74137960D01*
X184873933Y-74006637D01*
X184882931Y-73957610D01*
X184892614Y-73908709D01*
X184893310Y-73901062D01*
X184904742Y-73764925D01*
X184904045Y-73715052D01*
X184904045Y-73665227D01*
X184903243Y-73657590D01*
X184888014Y-73521827D01*
X184877647Y-73473056D01*
X184867968Y-73424172D01*
X184865698Y-73416836D01*
X184824389Y-73286615D01*
X184804759Y-73240814D01*
X184785754Y-73194705D01*
X184782102Y-73187950D01*
X184716286Y-73068232D01*
X184688115Y-73027090D01*
X184660537Y-72985582D01*
X184655643Y-72979665D01*
X184567828Y-72875011D01*
X184532202Y-72840124D01*
X184497086Y-72804762D01*
X184491135Y-72799908D01*
X184384665Y-72714304D01*
X184342946Y-72687004D01*
X184301628Y-72659135D01*
X184294848Y-72655529D01*
X184173779Y-72592235D01*
X184127527Y-72573548D01*
X184081601Y-72554243D01*
X184074256Y-72552025D01*
X184074254Y-72552024D01*
X184074252Y-72552024D01*
X184074250Y-72552023D01*
X183943192Y-72513451D01*
X183894249Y-72504115D01*
X183845397Y-72494087D01*
X183837754Y-72493338D01*
X183701700Y-72480956D01*
X183651853Y-72481304D01*
X183602005Y-72480956D01*
X183594362Y-72481705D01*
X183458495Y-72495985D01*
X183409685Y-72506004D01*
X183360694Y-72515350D01*
X183353342Y-72517570D01*
X183222836Y-72557969D01*
X183176879Y-72577288D01*
X183130665Y-72595960D01*
X183123884Y-72599565D01*
X183003710Y-72664543D01*
X182962374Y-72692424D01*
X182920674Y-72719712D01*
X182914722Y-72724565D01*
X182809458Y-72811647D01*
X182774321Y-72847030D01*
X182738714Y-72881899D01*
X182733824Y-72887810D01*
X182733821Y-72887813D01*
X182733819Y-72887816D01*
X182647474Y-72993686D01*
X182619882Y-73035215D01*
X182591725Y-73076338D01*
X182588072Y-73083093D01*
X182537251Y-73178675D01*
X171877499Y-73178675D01*
X171811649Y-73060851D01*
X171783204Y-73019924D01*
X171755327Y-72978595D01*
X171750391Y-72972713D01*
X171661848Y-72868674D01*
X171625985Y-72834041D01*
X171590616Y-72798918D01*
X171584632Y-72794106D01*
X171477567Y-72709247D01*
X171435650Y-72682234D01*
X171394143Y-72654657D01*
X171387338Y-72651099D01*
X171265829Y-72588652D01*
X171219468Y-72570296D01*
X171173391Y-72551305D01*
X171166024Y-72549136D01*
X171034700Y-72511480D01*
X170985649Y-72502478D01*
X170936773Y-72492800D01*
X170929126Y-72492104D01*
X170792989Y-72480672D01*
X170743116Y-72481369D01*
X170693291Y-72481369D01*
X170685654Y-72482171D01*
X170549891Y-72497400D01*
X170501120Y-72507767D01*
X170452236Y-72517446D01*
X170444900Y-72519716D01*
X170314679Y-72561025D01*
X170268878Y-72580655D01*
X170222769Y-72599660D01*
X170216014Y-72603312D01*
X170096296Y-72669128D01*
X170055154Y-72697299D01*
X170013646Y-72724877D01*
X170007729Y-72729771D01*
X169903075Y-72817586D01*
X169868188Y-72853212D01*
X169832826Y-72888328D01*
X169827972Y-72894279D01*
X169742368Y-73000749D01*
X169715068Y-73042468D01*
X169687199Y-73083786D01*
X169683593Y-73090566D01*
X169620299Y-73211635D01*
X169601612Y-73257887D01*
X169582307Y-73303813D01*
X169580087Y-73311164D01*
X169541515Y-73442222D01*
X169532179Y-73491165D01*
X169522151Y-73540017D01*
X169521402Y-73547660D01*
X169509020Y-73683714D01*
X169509368Y-73733562D01*
X169509020Y-73783409D01*
X169509769Y-73791051D01*
X169524049Y-73926919D01*
X169534068Y-73975729D01*
X169543414Y-74024720D01*
X169545634Y-74032072D01*
X169586033Y-74162578D01*
X169605357Y-74208547D01*
X169624024Y-74254749D01*
X169627629Y-74261530D01*
X169692607Y-74381704D01*
X169720488Y-74423040D01*
X169747776Y-74464740D01*
X169752629Y-74470691D01*
X169839711Y-74575956D01*
X169875094Y-74611093D01*
X169909963Y-74646700D01*
X169915874Y-74651590D01*
X169915877Y-74651593D01*
X169915880Y-74651595D01*
X170021750Y-74737940D01*
X170063279Y-74765532D01*
X170104402Y-74793689D01*
X170111157Y-74797342D01*
X170206739Y-74848164D01*
X170206740Y-91907914D01*
X170088915Y-91973765D01*
X170047988Y-92002210D01*
X170006659Y-92030087D01*
X170000777Y-92035023D01*
X169896738Y-92123566D01*
X169862105Y-92159429D01*
X169826982Y-92194798D01*
X169822170Y-92200782D01*
X169737311Y-92307847D01*
X169710298Y-92349764D01*
X169682721Y-92391271D01*
X169679163Y-92398076D01*
X169616716Y-92519585D01*
X169598360Y-92565946D01*
X169579369Y-92612023D01*
X169577200Y-92619390D01*
X169539544Y-92750714D01*
X169530542Y-92799765D01*
X169520864Y-92848641D01*
X169520168Y-92856288D01*
X169508736Y-92992425D01*
X154748950Y-92992425D01*
X154916927Y-92786466D01*
X154944502Y-92744963D01*
X154972677Y-92703814D01*
X154976329Y-92697059D01*
X155251204Y-92180095D01*
X155270204Y-92133996D01*
X155289837Y-92088189D01*
X155292108Y-92080853D01*
X155461335Y-91520345D01*
X155471019Y-91471434D01*
X155481381Y-91422686D01*
X155482184Y-91415049D01*
X155539319Y-90832346D01*
X155541944Y-90805693D01*
X155541944Y-83148335D01*
X157418260Y-83148335D01*
X157418260Y-83609015D01*
X157508134Y-84060844D01*
X157684429Y-84486457D01*
X157940369Y-84869499D01*
X158266120Y-85195250D01*
X158649162Y-85451190D01*
X159074775Y-85627485D01*
X159526604Y-85717359D01*
X159987284Y-85717359D01*
X160439113Y-85627485D01*
X160864726Y-85451190D01*
X161247768Y-85195250D01*
X161573519Y-84869499D01*
X161829459Y-84486457D01*
X162005754Y-84060844D01*
X162095628Y-83609015D01*
X162095628Y-83148335D01*
X162005754Y-82696506D01*
X161829459Y-82270893D01*
X161573519Y-81887851D01*
X161247768Y-81562100D01*
X160864726Y-81306160D01*
X160439113Y-81129865D01*
X159987284Y-81039991D01*
X159526604Y-81039991D01*
X159074775Y-81129865D01*
X158649162Y-81306160D01*
X158266120Y-81562100D01*
X157940369Y-81887851D01*
X157684429Y-82270893D01*
X157508134Y-82696506D01*
X157418260Y-83148335D01*
X155541944Y-83148335D01*
X155541944Y-75951657D01*
X155539476Y-75926602D01*
X155539607Y-75907883D01*
X155538858Y-75900240D01*
X155477657Y-75317950D01*
X155467628Y-75269094D01*
X155458292Y-75220153D01*
X155456073Y-75212801D01*
X155282936Y-74653488D01*
X155263610Y-74607515D01*
X155244945Y-74561316D01*
X155241340Y-74554535D01*
X154962864Y-74039503D01*
X154934963Y-73998139D01*
X154907692Y-73956464D01*
X154902839Y-73950513D01*
X154529629Y-73499380D01*
X154494265Y-73464262D01*
X154459380Y-73428639D01*
X154453464Y-73423744D01*
X153999735Y-73053692D01*
X153958248Y-73026128D01*
X153917083Y-72997942D01*
X153910328Y-72994290D01*
X153393364Y-72719416D01*
X153347286Y-72700424D01*
X153301458Y-72680782D01*
X153294122Y-72678511D01*
X152733614Y-72509284D01*
X152684703Y-72499600D01*
X152635955Y-72489238D01*
X152628318Y-72488435D01*
X152045615Y-72431300D01*
X152018962Y-72428675D01*
X127484926Y-72428675D01*
X127459871Y-72431143D01*
X127441152Y-72431012D01*
X127433509Y-72431761D01*
X126851219Y-72492962D01*
X126802363Y-72502991D01*
X126753422Y-72512327D01*
X126746070Y-72514546D01*
X126186757Y-72687683D01*
X126140784Y-72707009D01*
X126094585Y-72725674D01*
X126087804Y-72729279D01*
X125572772Y-73007755D01*
X125531408Y-73035656D01*
X125489733Y-73062927D01*
X125483782Y-73067780D01*
X125032649Y-73440990D01*
X124997531Y-73476354D01*
X124961908Y-73511239D01*
X124957013Y-73517155D01*
X124586961Y-73970884D01*
X124559397Y-74012371D01*
X124531211Y-74053536D01*
X124527559Y-74060291D01*
X124252685Y-74577255D01*
X124233693Y-74623333D01*
X124214051Y-74669161D01*
X124211780Y-74676497D01*
X124042553Y-75237005D01*
X124032869Y-75285916D01*
X124022507Y-75334664D01*
X124021704Y-75342301D01*
X123964569Y-75925004D01*
X123961944Y-75951658D01*
X102461254Y-75951658D01*
X102457610Y-75946174D01*
X102452716Y-75940257D01*
X102295903Y-75753375D01*
X102260260Y-75718471D01*
X102225161Y-75683127D01*
X102219211Y-75678273D01*
X102029086Y-75525409D01*
X101987384Y-75498120D01*
X101946048Y-75470239D01*
X101939268Y-75466634D01*
X101723072Y-75353608D01*
X101676847Y-75334933D01*
X101630897Y-75315617D01*
X101623546Y-75313397D01*
X101389515Y-75244518D01*
X101340550Y-75235178D01*
X101291718Y-75225154D01*
X101284076Y-75224405D01*
X101041122Y-75202294D01*
X100991272Y-75202642D01*
X100941423Y-75202294D01*
X100933781Y-75203043D01*
X100691161Y-75228544D01*
X100642311Y-75238572D01*
X100593365Y-75247909D01*
X100586014Y-75250128D01*
X100352967Y-75322268D01*
X100307036Y-75341576D01*
X100260794Y-75360259D01*
X100254013Y-75363864D01*
X100039416Y-75479896D01*
X99998075Y-75507781D01*
X99956377Y-75535068D01*
X99950426Y-75539921D01*
X99762454Y-75695425D01*
X99727336Y-75730789D01*
X99691713Y-75765674D01*
X99686818Y-75771591D01*
X99532629Y-75960644D01*
X99505022Y-76002196D01*
X99476880Y-76043296D01*
X99473227Y-76050051D01*
X99358696Y-76265452D01*
X99339694Y-76311554D01*
X99320062Y-76357360D01*
X99317791Y-76364695D01*
X99261334Y-76551690D01*
X99089505Y-76592943D01*
X99057970Y-76603189D01*
X99026073Y-76612283D01*
X98070164Y-76968020D01*
X98070153Y-76968023D01*
X97991878Y-77004378D01*
X97103377Y-77505278D01*
X97031753Y-77553430D01*
X97031746Y-77553437D01*
X96232549Y-78187156D01*
X96169340Y-78245919D01*
X95479118Y-78996859D01*
X95479112Y-78996865D01*
X95425874Y-79064793D01*
X94861622Y-79914463D01*
X94861618Y-79914469D01*
X94819661Y-79989889D01*
X94395270Y-80917375D01*
X94365628Y-80998430D01*
X94091553Y-81980885D01*
X94074956Y-82065579D01*
X93957945Y-83078813D01*
X93954801Y-83165060D01*
X82027200Y-83165060D01*
X82002265Y-82573226D01*
X81991878Y-82487548D01*
X81991875Y-82487536D01*
X81790057Y-81487758D01*
X81790055Y-81487746D01*
X81766393Y-81404748D01*
X81766388Y-81404737D01*
X81410655Y-80448839D01*
X81410652Y-80448828D01*
X81374297Y-80370553D01*
X80873397Y-79482052D01*
X80825245Y-79410428D01*
X80825238Y-79410421D01*
X80191519Y-78611224D01*
X80132756Y-78548015D01*
X79381816Y-77857793D01*
X79381810Y-77857787D01*
X79313882Y-77804549D01*
X78464212Y-77240297D01*
X78464206Y-77240293D01*
X78388786Y-77198336D01*
X77461300Y-76773945D01*
X77380245Y-76744303D01*
X76744790Y-76567030D01*
X76673173Y-76341268D01*
X76653551Y-76295486D01*
X76634541Y-76249365D01*
X76630888Y-76242610D01*
X76513361Y-76028828D01*
X76485186Y-75987680D01*
X76457610Y-75946174D01*
X76452716Y-75940257D01*
X76295903Y-75753375D01*
X76260260Y-75718471D01*
X76225161Y-75683127D01*
X76219211Y-75678273D01*
X76029086Y-75525409D01*
X75987384Y-75498120D01*
X75946048Y-75470239D01*
X75939268Y-75466634D01*
X75723072Y-75353608D01*
X75676847Y-75334933D01*
X75630897Y-75315617D01*
X75623546Y-75313397D01*
X75389515Y-75244518D01*
X75340550Y-75235178D01*
X75291718Y-75225154D01*
X75284076Y-75224405D01*
X75041122Y-75202294D01*
X74991272Y-75202642D01*
X74941423Y-75202294D01*
X74933781Y-75203043D01*
X74691161Y-75228544D01*
X74642311Y-75238572D01*
X74593365Y-75247909D01*
X74586014Y-75250128D01*
X74352967Y-75322268D01*
X74307036Y-75341576D01*
X74260794Y-75360259D01*
X74254013Y-75363864D01*
X74039416Y-75479896D01*
X73998075Y-75507781D01*
X73956377Y-75535068D01*
X73950426Y-75539921D01*
X73762454Y-75695425D01*
X73727336Y-75730789D01*
X73691713Y-75765674D01*
X73686818Y-75771591D01*
X73532629Y-75960644D01*
X73505022Y-76002196D01*
X73476880Y-76043296D01*
X73473227Y-76050051D01*
X73358696Y-76265452D01*
X73339694Y-76311554D01*
X73320062Y-76357360D01*
X73317791Y-76364695D01*
X73261334Y-76551690D01*
X73089505Y-76592943D01*
X73057970Y-76603189D01*
X73026073Y-76612283D01*
X72070164Y-76968020D01*
X72070153Y-76968023D01*
X71991878Y-77004378D01*
X71103377Y-77505278D01*
X71031753Y-77553430D01*
X71031746Y-77553437D01*
X70232549Y-78187156D01*
X70169340Y-78245919D01*
X69479118Y-78996859D01*
X69479112Y-78996865D01*
X69425874Y-79064793D01*
X68861622Y-79914463D01*
X68861618Y-79914469D01*
X68819661Y-79989889D01*
X68395270Y-80917375D01*
X68365628Y-80998430D01*
X68091553Y-81980885D01*
X68074956Y-82065579D01*
X67957945Y-83078813D01*
X67954801Y-83165060D01*
X55003985Y-83165060D01*
X55003985Y-63467635D01*
X55038528Y-63115336D01*
X56885156Y-63115336D01*
X56885156Y-63570136D01*
X56973883Y-64016196D01*
X57147928Y-64436376D01*
X57400601Y-64814528D01*
X57722193Y-65136120D01*
X58100345Y-65388793D01*
X58520525Y-65562838D01*
X58966585Y-65651565D01*
X59421385Y-65651565D01*
X59867445Y-65562838D01*
X60287625Y-65388793D01*
X60665777Y-65136120D01*
X60987369Y-64814528D01*
X61240042Y-64436376D01*
X61414087Y-64016196D01*
X61502814Y-63570136D01*
X61502814Y-63115336D01*
X212405156Y-63115336D01*
X212405156Y-63570136D01*
X212493883Y-64016196D01*
X212667928Y-64436376D01*
X212920601Y-64814528D01*
X213242193Y-65136120D01*
X213620345Y-65388793D01*
X214040525Y-65562838D01*
X214486585Y-65651565D01*
X214941385Y-65651565D01*
X215387445Y-65562838D01*
X215807625Y-65388793D01*
X216185777Y-65136120D01*
X216507369Y-64814528D01*
X216760042Y-64436376D01*
X216934087Y-64016196D01*
X217022814Y-63570136D01*
X217022814Y-63115336D01*
X216934087Y-62669276D01*
X216760042Y-62249096D01*
X216507369Y-61870944D01*
X216185777Y-61549352D01*
X215807625Y-61296679D01*
X215387445Y-61122634D01*
X214941385Y-61033907D01*
X214486585Y-61033907D01*
X214040525Y-61122634D01*
X213620345Y-61296679D01*
X213242193Y-61549352D01*
X212920601Y-61870944D01*
X212667928Y-62249096D01*
X212493883Y-62669276D01*
X212405156Y-63115336D01*
X61502814Y-63115336D01*
X61414087Y-62669276D01*
X61240042Y-62249096D01*
X60987369Y-61870944D01*
X60665777Y-61549352D01*
X60287625Y-61296679D01*
X59867445Y-61122634D01*
X59421385Y-61033907D01*
X58966585Y-61033907D01*
X58520525Y-61122634D01*
X58100345Y-61296679D01*
X57722193Y-61549352D01*
X57400601Y-61870944D01*
X57147928Y-62249096D01*
X56973883Y-62669276D01*
X56885156Y-63115336D01*
X55038528Y-63115336D01*
X55070372Y-62790564D01*
X55259195Y-62165154D01*
X55565897Y-61588332D01*
X55978796Y-61082069D01*
X56482165Y-60665646D01*
X57056831Y-60354926D01*
X57680905Y-60161743D01*
X58356486Y-60090736D01*
X215527086Y-60090736D01*
X216204157Y-60157123D01*
G37*
%TD.AperFunction*%
M02*
