%TF.GenerationSoftware,KiCad,Pcbnew,5.1.10-88a1d61d58~90~ubuntu20.04.1*%
%TF.CreationDate,2021-08-16T21:11:30-07:00*%
%TF.ProjectId,rear-panel,72656172-2d70-4616-9e65-6c2e6b696361,rev?*%
%TF.SameCoordinates,Original*%
%TF.FileFunction,Profile,NP*%
%FSLAX46Y46*%
G04 Gerber Fmt 4.6, Leading zero omitted, Abs format (unit mm)*
G04 Created by KiCad (PCBNEW 5.1.10-88a1d61d58~90~ubuntu20.04.1) date 2021-08-16 21:11:30*
%MOMM*%
%LPD*%
G01*
G04 APERTURE LIST*
%TA.AperFunction,Profile*%
%ADD10C,0.200000*%
%TD*%
G04 APERTURE END LIST*
D10*
X58353985Y-110670736D02*
G75*
G02*
X54453985Y-106770736I0J3900000D01*
G01*
X154991944Y-90778675D02*
X154991944Y-75978675D01*
X76250000Y-77000000D02*
G75*
G02*
X73750000Y-77000000I-1250000J-6378675D01*
G01*
X102250000Y-77000000D02*
G75*
G02*
X99750000Y-77000000I-1250000J-6378675D01*
G01*
X219453984Y-106770736D02*
G75*
G02*
X215553985Y-110670735I-3899999J0D01*
G01*
X215553985Y-59540736D02*
G75*
G02*
X219453985Y-63440736I0J-3900000D01*
G01*
X154991944Y-90778675D02*
G75*
G02*
X151991944Y-93778675I-3000000J0D01*
G01*
X170756739Y-74428675D02*
G75*
G02*
X171456739Y-73728675I0J700000D01*
G01*
X183656739Y-92328675D02*
X183656739Y-74428675D01*
X124511944Y-75978675D02*
X124511944Y-90778675D01*
X219453985Y-63440736D02*
X219453985Y-106770736D01*
X151991944Y-72978675D02*
X127511944Y-72978675D01*
X60943985Y-63342736D02*
G75*
G03*
X60943985Y-63342736I-1750000J0D01*
G01*
X127511944Y-93778675D02*
G75*
G02*
X124511944Y-90778675I0J3000000D01*
G01*
X216463985Y-106868736D02*
G75*
G03*
X216463985Y-106868736I-1750000J0D01*
G01*
X171456739Y-93028675D02*
G75*
G02*
X170756739Y-92328675I-700000J0D01*
G01*
X182956739Y-73728675D02*
G75*
G02*
X183656739Y-74428675I700000J0D01*
G01*
X54453985Y-106770736D02*
X54453985Y-63440736D01*
X124511944Y-75978675D02*
G75*
G02*
X127511944Y-72978675I3000000J0D01*
G01*
X170756739Y-74428675D02*
X170756739Y-92328675D01*
X127511944Y-93778675D02*
X151991944Y-93778675D01*
X121526944Y-83378675D02*
G75*
G03*
X121526944Y-83378675I-1780000J0D01*
G01*
X99750000Y-77000000D02*
G75*
G02*
X102250000Y-77000000I1250000J0D01*
G01*
X161536944Y-83378675D02*
G75*
G03*
X161536944Y-83378675I-1780000J0D01*
G01*
X60943985Y-106868736D02*
G75*
G03*
X60943985Y-106868736I-1750000J0D01*
G01*
X216463985Y-63342736D02*
G75*
G03*
X216463985Y-63342736I-1750000J0D01*
G01*
X171456739Y-93028675D02*
X182956739Y-93028675D01*
X215553985Y-110670735D02*
X58353985Y-110670735D01*
X182956739Y-73728675D02*
X171456739Y-73728675D01*
X58353985Y-59540736D02*
X215553985Y-59540736D01*
X151991944Y-72978675D02*
G75*
G02*
X154991944Y-75978675I0J-3000000D01*
G01*
X183656739Y-92328675D02*
G75*
G02*
X182956739Y-93028675I0J-700000D01*
G01*
X54453985Y-63440736D02*
G75*
G02*
X58353985Y-59540736I3900000J0D01*
G01*
X73750000Y-77000000D02*
G75*
G02*
X76250000Y-77000000I1250000J0D01*
G01*
M02*
